<?xml version="1.0" standalone="no"?>
<!DOCTYPE svg PUBLIC "-//W3C//DTD SVG 1.1//EN" "http://www.w3.org/Graphics/SVG/1.1/DTD/svg11.dtd" >
<svg xmlns="http://www.w3.org/2000/svg" xmlns:xlink="http://www.w3.org/1999/xlink" version="1.1">
<metadata></metadata>
<defs>
<font id="sahityaregular" horiz-adv-x="542" >
<font-face units-per-em="2048" ascent="1638" descent="-410" />
<missing-glyph horiz-adv-x="413" />
<glyph unicode="fi" horiz-adv-x="1202" d="M84 842l14 69l123 23q0 178 61.5 310t176 204t270.5 72q70 0 130.5 -15.5t141.5 -54.5l5 -18q-6 -12 -25.5 -55.5t-38.5 -98.5l-22 -6q0 4 -43 36.5t-106.5 61.5t-137.5 29q-129 0 -193.5 -93.5t-66.5 -285.5l-2 -94q372 0 473.5 4t169.5 20l10 -24q-18 -43 -32.5 -264.5 t-14.5 -460.5q0 -61 16.5 -88t55.5 -27q23 0 43 2t28 2l4 -8l-16 -88q-18 2 -69.5 4t-112.5 2q-53 0 -122 -10t-89 -15l8 84q51 14 74.5 33t32 56.5t8.5 117.5v447q0 49 -10.5 71.5t-39 30.5t-92.5 8h-327q0 -102 -4 -311t-5 -311q0 -113 101 -113q53 0 86 1t41 1l4 -8 l-14 -86q-29 0 -105 2t-149 2q-72 0 -140.5 -3t-89.5 -5l10 80q49 6 74 23.5t34 55t9 109.5v481q-4 49 -29.5 67.5t-99.5 20.5z" />
<glyph unicode="fl" horiz-adv-x="1175" d="M84 842l14 69l123 23v8q0 176 57.5 306t162 201t243.5 71q109 0 203 -35q59 12 99 21.5t52 13.5l13 -27q-23 -35 -40.5 -437.5t-17.5 -854.5q0 -61 16.5 -88t55.5 -27q23 0 43 2t29 2l4 -8l-17 -88q-18 2 -69 4t-113 2q-53 0 -121.5 -10t-89.5 -15l8 84q61 16 88 48 t27 86v1089l-2 29q-49 39 -121 63.5t-131 24.5q-225 0 -227 -379l-2 -100q106 0 182 2t100 4l6 -6l-20 -109q-23 2 -95.5 4t-174.5 2l-9 -616q0 -58 26 -85.5t79 -27.5q49 0 81 2t42 2l4 -8l-14 -88q-29 0 -105 2t-149 2q-72 0 -140.5 -3t-89.5 -5l10 80q117 16 117 121v552 q-4 47 -28.5 64.5t-100.5 19.5z" />
<glyph unicode="fj" horiz-adv-x="1163" d="M84 842l14 69l123 23q0 250 114 400.5t294 178.5q43 6 88 7q76 0 139.5 -15.5t100 -32t44.5 -22.5l5 -18q-6 -12 -25.5 -55.5t-38.5 -98.5l-22 -6q0 4 -43 36.5t-106.5 61.5t-137.5 29q-154 0 -208 -119t-54 -354q358 0 460.5 3t172.5 21l10 -24q-35 -60 -35 -955 q0 -145 -66.5 -266t-193.5 -199l-37 39l4 17q86 86 119 194.5t33 321.5v635q0 59 -13.5 81.5t-41 25.5t-119.5 3h-295q0 -102 -4 -311t-5 -311q0 -113 101 -113q53 0 86 1t41 1l4 -8l-14 -86q-29 0 -105 2t-149 2q-72 0 -140.5 -3t-89.5 -5l10 80q117 16 117 121v548 q-2 51 -30.5 67.5t-98.5 20.5z" />
<glyph unicode=" "  horiz-adv-x="413" />
<glyph unicode="&#x09;" horiz-adv-x="413" />
<glyph unicode="&#xa0;" horiz-adv-x="413" />
<glyph unicode="!" horiz-adv-x="583" d="M125 92q0 53 35 90t92 37q55 0 86 -33.5t31 -83.5q0 -53 -36 -90t-93 -37q-56 0 -85.5 34t-29.5 83zM201 1364l14 20l170 37l18 -22l-106 -971l-57 -14l-23 16z" />
<glyph unicode="&#x22;" horiz-adv-x="610" d="M121 1300l143 29l15 -16q-5 -39 -25.5 -171t-46.5 -263l-51 -29l-23 4q2 37 2 111q0 115 -6 212t-8 123zM371 1300l143 29l14 -16q-4 -39 -24.5 -171t-46.5 -263l-51 -29l-23 4q2 37 2 111q0 115 -6 212t-8 123z" />
<glyph unicode="#" horiz-adv-x="1019" d="M23 446l30 76l223 -2l27 117l25 106l-224 -2l-6 21l31 76l219 -2l76 327l82 11l16 -13l-80 -327h109l108 -3l76 332l82 11l17 -13l-80 -330h221l8 -18l-39 -74l-213 2l-18 -79l-33 -146h219l8 -18l-39 -74l-209 2l-73 -338l-80 -16l-14 12l75 344l-143 2l-74 -2l-76 -340 l-79 -16l-15 12l76 344l-227 -2zM369 518h106l113 -2l26 121l25 106l-139 2l-78 -2l-21 -81z" />
<glyph unicode="$" horiz-adv-x="940" d="M109 55q2 10 7 46t10 100.5t5 130.5l92 8q0 -102 14.5 -155.5t50.5 -77t105 -27.5l35 358l-29 15q-131 63 -201.5 124.5t-70.5 157.5q0 121 100.5 206t255.5 95l29 303l53 9l13 -19l-29 -291q63 -2 117.5 -10t86 -17.5t40.5 -11.5l8 -14q-4 -23 -18.5 -101.5 t-20.5 -168.5l-80 -8l-12 8q0 6 2 25.5t2 47.5q0 68 -31 101t-104 41l-31 -340l4 -2q100 -47 160.5 -82t103.5 -88t43 -123q0 -127 -101.5 -212t-266.5 -99l-29 -293l-53 -6l-11 14l27 283q-70 0 -129 12t-94 25.5t-43 17.5zM285 791q0 -50 42 -89.5t117 -80.5l29 311 q-82 -4 -135 -43t-53 -98zM459 80q88 6 140 48t52 110q0 53 -42 92t-120 78z" />
<glyph unicode="%" horiz-adv-x="1374" d="M72 987q0 96 39 174t109.5 123t160.5 45q133 0 203.5 -90t70.5 -215q0 -94 -36.5 -176t-106.5 -131t-164 -49q-127 0 -201.5 89t-74.5 230zM147 -131q45 68 174.5 266.5t276.5 427.5l524 826l80 -39l10 -29q-59 -88 -241.5 -363.5t-294.5 -455.5q-145 -233 -271 -431 t-169 -266l-78 39zM168 1016q0 -109 62.5 -163t146.5 -54q72 0 127 40t55 138q0 94 -57.5 155.5t-155.5 61.5q-82 0 -130 -49t-48 -129zM766 295q0 96 39 174t109.5 123t160.5 45q133 0 204 -90t71 -215q0 -94 -37 -176t-106.5 -131.5t-164.5 -49.5q-127 0 -201.5 89.5 t-74.5 230.5zM862 324q0 -109 62.5 -163.5t146.5 -54.5q72 0 127 40t55 139q0 94 -57 155.5t-156 61.5q-82 0 -130 -49.5t-48 -128.5z" />
<glyph unicode="&#x26;" horiz-adv-x="1433" d="M113 328q0 104 60 180t135 121t75 39v14q-168 176 -168 322q0 92 53.5 165.5t146.5 116.5t208 43q66 0 121 -10t86.5 -21.5t39.5 -15.5l4 -31l-98 -151l-20 -2q-72 66 -116 88t-101 22q-82 0 -131.5 -42t-49.5 -113q0 -70 28 -129.5t92.5 -130t189.5 -177.5l327 -282 q37 74 37 176q0 123 -39 182.5t-121 59.5q-35 0 -70.5 -7.5t-45.5 -11.5l-29 88q4 2 17.5 10.5t38 16.5t53.5 10l421 25q82 6 119 11t39 11l21 -49l-27 -63q-14 -27 -38.5 -34t-104.5 -7h-205l-6 -13q41 -35 63.5 -88t22.5 -112q0 -131 -82 -258l287 -242v-33 q-14 -10 -61.5 -36.5t-65.5 -26.5t-261 217q-86 -86 -194.5 -135.5t-212.5 -49.5q-201 0 -319.5 95.5t-118.5 257.5zM266 369q0 -121 93.5 -193t248.5 -72q84 0 161 27t134 78l-461 412q-80 -37 -128 -106t-48 -146z" />
<glyph unicode="'" horiz-adv-x="360" d="M121 1300l143 29l15 -16q-5 -39 -25.5 -171t-46.5 -263l-51 -29l-23 4q2 37 2 111q0 115 -6 212t-8 123z" />
<glyph unicode="(" horiz-adv-x="632" d="M172 334v354q0 223 86 365.5t192.5 216t106.5 59.5h8l27 -59l-2 -8q0 12 -78 -50.5t-140.5 -183.5t-62.5 -309v-354q0 -203 65.5 -336t146.5 -205t81 -60v-10l-43 -53h-8q0 -14 -105.5 58.5t-189.5 213t-84 361.5z" />
<glyph unicode=")" horiz-adv-x="632" d="M31 1266v10l43 53h8q0 14 105.5 -58.5t189.5 -212.5t84 -362v-354q0 -223 -86 -365.5t-192.5 -216t-106.5 -59.5h-8l-27 59l2 9q0 -12 78 50t140.5 183t62.5 309v355q0 203 -65.5 336t-146.5 204.5t-81 59.5z" />
<glyph unicode="*" horiz-adv-x="933" d="M139 1217q0 12 3 56t16 83l18 8q19 -10 83.5 -48t121.5 -81l-12 -68l-13 -10q-66 23 -132 39t-85 21zM186 969q15 16 71 65t116 90l59 -32l6 -15q-41 -55 -76.5 -113.5t-46.5 -74.5q-12 4 -53 21.5t-74 39.5zM397 1485q12 4 55.5 14t82.5 10l14 -14q-4 -20 -20.5 -93 t-39.5 -140l-69 -11l-12 9q0 70 -4.5 137t-6.5 88zM475 1081l49 47l17 2q39 -55 83 -108t56 -68q-8 -10 -36 -42.5t-60 -57.5l-19 2q-10 21 -39.5 88.5t-50.5 136.5zM518 1227l2 16q66 20 129.5 46t81.5 34q8 -10 30.5 -48t35.5 -75l-9 -18q-22 -4 -96 -10.5t-145 -4.5z" />
<glyph unicode="+" horiz-adv-x="1036" d="M37 498l22 100l396 -2l2 412l104 16l21 -12q-2 -41 -7.5 -177.5t-5.5 -238.5q102 0 238.5 5t179.5 7l12 -20l-16 -105l-414 -2l2 -397l-100 -23l-18 13l2 407l-406 -2z" />
<glyph unicode="," horiz-adv-x="487" d="M31 -270q72 49 117 116.5t45 130.5q0 41 -18.5 79t-47.5 65l4 29q70 53 119 53q45 0 74.5 -42t29.5 -118q0 -106 -86 -201.5t-200 -163.5l-37 31v21z" />
<glyph unicode="-" horiz-adv-x="663" d="M74 446l12 107l356 41q61 6 93 11t40 7l15 -18l-10 -111l-492 -53z" />
<glyph unicode="." horiz-adv-x="487" d="M123 92q0 53 35 90t92 37q55 0 86 -33.5t31 -83.5q0 -53 -36 -90t-93 -37q-56 0 -85.5 34t-29.5 83z" />
<glyph unicode="/" horiz-adv-x="673" d="M70 -209q18 61 78.5 269t109.5 403l236 919h94l16 -20q-26 -98 -100 -367.5t-150 -554.5q-63 -246 -110 -427t-62 -238h-98z" />
<glyph unicode="0" horiz-adv-x="1091" d="M78 481q0 158 64.5 284t178 197.5t254.5 71.5q127 0 227.5 -62.5t156 -175t55.5 -257.5q0 -160 -64.5 -289t-177.5 -202t-254 -73q-131 0 -230.5 63.5t-154.5 178.5t-55 264zM193 512q0 -111 46 -198t128 -135t188 -48q154 0 249 97.5t95 252.5q0 113 -47 201t-130 137 t-190 49q-154 0 -246.5 -97t-92.5 -259z" />
<glyph unicode="1" horiz-adv-x="724" d="M72 881l8 86q20 2 82.5 10t142.5 20q164 27 184.5 32t22.5 5l12 -35q-41 -35 -56 -68.5t-19 -103.5q-13 -326 -13 -598q0 -82 20.5 -110.5t80.5 -28.5q37 0 67.5 2t40.5 4l4 -8l-18 -94q-29 2 -109 4t-164 2q-66 0 -149.5 -10t-108.5 -15l13 95q78 6 116.5 26.5t53 67.5 t14.5 139v467q0 72 -25.5 94.5t-85.5 22.5q-27 0 -62.5 -5t-45.5 -8z" />
<glyph unicode="2" horiz-adv-x="972" d="M55 12l162 181q172 194 253 328t81 220q0 74 -41 115t-113 41q-70 0 -137 -49t-115 -133h-18l-23 92q51 98 149.5 162.5t197.5 64.5q127 0 203.5 -67.5t76.5 -178.5q0 -61 -40 -140t-132 -197.5t-264 -311.5l8 -14h313q78 0 119 14.5t65.5 53t45.5 118.5l82 11 q-8 -29 -28.5 -128.5t-31.5 -193.5l-24 -14q-78 2 -312.5 8t-345.5 6l-110 -25z" />
<glyph unicode="3" horiz-adv-x="849" d="M41 -66l10 13q86 -19 164 -19q100 0 183 36t131.5 98.5t48.5 138.5q0 104 -89.5 154.5t-277.5 52.5l-10 10l-11 71l134 33q82 39 134 105.5t52 134.5q0 63 -45 103t-115 40q-57 0 -121.5 -28.5t-111.5 -75.5h-21l-20 86q0 2 60.5 42t135 72.5t142.5 32.5 q121 0 193.5 -62.5t72.5 -166.5q0 -82 -61.5 -160t-163.5 -131v-10q276 -63 276 -254q0 -106 -85 -215t-216 -179.5t-258 -70.5q-70 0 -99.5 35t-31.5 114z" />
<glyph unicode="4" horiz-adv-x="915" d="M8 182l8 76l566 774l8 2l65 -20v-721h191l12 -17l-16 -112l-187 6q2 -104 7.5 -209.5t7.5 -136.5l-11 -14l-145 -25l-12 18q2 35 6 140.5t6 230.5q-315 8 -506 8zM166 293h348v459h-18z" />
<glyph unicode="5" horiz-adv-x="880" d="M33 -66l10 13q86 -18 166 -19q106 0 193 35t137.5 96.5t50.5 141.5q0 68 -40 114.5t-133 80.5t-255 63l-19 22q12 152 22.5 303.5t12.5 196.5l17 16l387 17q61 4 86.5 19.5t42.5 60.5l67 8l-49 -242l-12 -12q-37 2 -168 9t-281 7l-14 -258q236 -55 363.5 -132t127.5 -212 q0 -119 -92 -229.5t-230 -179t-261 -68.5q-63 0 -94 31.5t-35 117.5z" />
<glyph unicode="6" horiz-adv-x="931" d="M82 403q0 274 151.5 456.5t340 282t188.5 83.5l14 -11l23 -61q0 10 -124 -59.5t-242 -191.5t-165 -300l8 -4q12 8 55.5 33.5t94.5 49.5t78 24q113 0 192.5 -50.5t120.5 -127t41 -158.5q0 -106 -52 -196.5t-144.5 -144t-210.5 -53.5q-111 0 -195 56.5t-129 154t-45 217.5z M246 416q0 -156 65.5 -249t180.5 -93q98 0 156.5 65.5t58.5 179.5q0 70 -32 130.5t-89.5 97.5t-126.5 37q-60 0 -115 -24.5t-92 -51.5q-6 -45 -6 -92z" />
<glyph unicode="7" horiz-adv-x="860" d="M78 653q4 33 18.5 144.5t20.5 210.5l12 10q20 -2 95 -5t155 -3h432l45 -58q-190 -381 -306 -643t-132 -299q-2 -6 -21 -49l-51 -176h-14l-123 37l-21 45l512 1003l-354 -14q-70 -4 -104.5 -20.5t-52 -54.5t-31.5 -115z" />
<glyph unicode="8" horiz-adv-x="993" d="M115 254q0 127 80.5 209t183.5 129q-106 57 -166.5 125.5t-60.5 173.5q0 86 47 162.5t132 124t189 47.5q82 0 156 -31t119 -93.5t45 -150.5q0 -106 -60.5 -180t-142.5 -117q117 -61 181.5 -132.5t64.5 -180.5q0 -98 -55.5 -182t-150.5 -133.5t-212 -49.5 q-145 0 -247.5 75t-102.5 204zM264 303q0 -61 33 -116.5t90 -89.5t127 -34q92 0 159.5 62.5t67.5 155.5q0 66 -38.5 112.5t-92 77.5t-159.5 84q-74 -31 -130.5 -91.5t-56.5 -160.5zM295 952q0 -59 36 -104t86 -76t146 -82q123 74 123 217q0 106 -56.5 164.5t-144.5 58.5 q-84 0 -137 -53t-53 -125z" />
<glyph unicode="9" horiz-adv-x="931" d="M74 641q0 106 52 196.5t144 143.5t211 53q111 0 195 -56t129 -153.5t45 -218.5q0 -274 -151.5 -456.5t-340 -281.5t-188.5 -83l-14 10l-23 62q0 -11 124 58t240.5 190.5t164.5 300.5l-7 6q-12 -8 -55 -34t-94 -49.5t-78 -23.5q-113 0 -192.5 50.5t-120.5 127t-41 158.5z M225 690q0 -109 70 -186.5t178 -77.5q96 0 207 76q6 43 6 92q0 156 -66.5 249t-179.5 93q-98 0 -156.5 -65.5t-58.5 -180.5z" />
<glyph unicode=":" horiz-adv-x="487" d="M115 92q0 53 35 90t92 37q55 0 86 -33.5t31 -83.5q0 -53 -36 -90t-93 -37q-56 0 -85.5 34t-29.5 83zM115 665q0 53 35 90t92 37q55 0 86 -33.5t31 -83.5q0 -53 -36 -90t-93 -37q-56 0 -85.5 34t-29.5 83z" />
<glyph unicode=";" horiz-adv-x="487" d="M31 -270q72 49 117 116.5t45 130.5q0 41 -18.5 79t-47.5 65l4 29q70 53 119 53q45 0 74.5 -42t29.5 -118q0 -106 -86 -201.5t-200 -163.5l-37 31v21zM115 665q0 53 35 90t92 37q55 0 86 -33.5t31 -83.5q0 -53 -36 -90t-93 -37q-56 0 -85.5 34t-29.5 83z" />
<glyph unicode="&#x3c;" horiz-adv-x="1036" d="M63 512l5 96l415 176q117 49 245 100.5t167 65.5l18 -10l15 -102q-39 -14 -166 -60.5t-232 -89.5l-315 -123v-12l344 -143l371 -162l2 -23l-62 -82q-37 16 -158.5 72.5t-226.5 101.5q-127 55 -244.5 104.5t-160.5 67.5z" />
<glyph unicode="=" horiz-adv-x="1036" d="M37 340l22 100l490 -2q102 0 247.5 5.5t190.5 7.5l12 -21l-16 -104l-465 -2l-469 -2zM37 662l22 100l490 -2q102 0 247.5 5t190.5 7l12 -20l-16 -105l-465 -2l-469 -2z" />
<glyph unicode="&#x3e;" horiz-adv-x="1036" d="M104 868l62 82q37 -16 158.5 -72.5t226.5 -101.5q127 -55 244.5 -104t160.5 -68l17 -22l-4 -97l-416 -176q-117 -49 -245 -100t-167 -66l-18 11l-14 102q39 14 165.5 60t231.5 90l315 122v13l-344 143l-371 162z" />
<glyph unicode="?" horiz-adv-x="737" d="M119 1305l67 108l29 8q125 -4 230.5 -49t167 -120.5t61.5 -168.5q0 -88 -35 -151.5t-85 -105.5t-136 -97q-57 -37 -84 -57l-6 -19l43 -194l-6 -17l-125 -34l-19 8l-49 246l6 28l244 156q117 80 117 176q0 121 -111 185.5t-305 74.5zM178 92q0 53 35 90t92 37 q55 0 86 -33.5t31 -83.5q0 -53 -36 -90t-93 -37q-55 0 -85 34t-30 83z" />
<glyph unicode="@" horiz-adv-x="1703" d="M68 385q0 225 108.5 426t308 322.5t457.5 121.5q201 0 359.5 -84t246.5 -228t88 -320q0 -170 -76.5 -318.5t-225 -239t-357.5 -90.5q-74 1 -74 60q0 25 37 194.5t51 231.5l-12 4q-98 -186 -191.5 -303t-191.5 -187q-80 0 -122 76t-42 203q0 168 70.5 327.5t180.5 260 t218 100.5l205 -33l18 52l11 2l63 -31l16 -25q-10 -33 -40.5 -150.5t-68.5 -292.5t-63 -345l9 -8q217 0 330.5 124.5t113.5 337.5q0 178 -74.5 306.5t-211 195t-318.5 66.5q-201 0 -355.5 -98.5t-238.5 -262.5t-84 -358q0 -205 78 -372t239.5 -271.5t405.5 -118.5v-14 l-53 -74q-258 12 -442.5 123.5t-278.5 292t-94 397.5zM575 354q0 -86 17.5 -149.5t42.5 -63.5q37 0 103.5 81t148.5 223.5t157 318.5q-35 23 -93 45t-113 22q-63 0 -125 -66.5t-100 -177t-38 -233.5z" />
<glyph unicode="A" horiz-adv-x="1183" d="M-37 -6l17 96q57 6 91.5 40t67.5 118l400 1046l129 35h16q12 -49 62.5 -227t123 -422t140.5 -449q24 -75 65 -106t131 -39l4 -8l-14 -84q-25 0 -89.5 3t-127.5 3q-98 0 -189.5 -8t-115.5 -12l-6 14l8 80q104 8 143 24.5t39 53.5q0 41 -18 98l-68 223q-49 2 -213 2 q-98 0 -223 -16l-76 -213q-18 -55 -18 -80q0 -45 28.5 -64.5t94.5 -19.5h116l4 -8l-12 -88q-25 2 -113 8t-172 6q-76 0 -140 -2t-85 -4zM373 559h180q71 0 190 10l-161 537h-15z" />
<glyph unicode="B" horiz-adv-x="1222" d="M119 -25l12 95q94 18 127 54t33 122l2 860q0 66 -15.5 88.5t-60.5 22.5q-20 0 -40.5 -2.5t-29.5 -2.5l-4 9l15 90q25 -2 92 -4t135 -2q70 0 142.5 3t99.5 5q195 0 299 -81t104 -231q0 -102 -62.5 -184t-174.5 -131q150 -33 233.5 -115t83.5 -196q0 -104 -66.5 -195.5 t-177 -145.5t-237.5 -54q-55 0 -127 10q-117 10 -150 10q-63 0 -137 -10t-96 -15zM436 227q0 -77 53.5 -110t180.5 -33q123 0 193.5 68.5t70.5 185.5q0 111 -69.5 181.5t-207.5 94.5l-213 -4zM449 719q30 -2 103 -8t120 -9q0 -6 53 22t96 86t43 157q0 131 -88 194.5 t-272 63.5q-20 0 -27.5 -9.5t-9.5 -37.5q-12 -197 -18 -459z" />
<glyph unicode="C" horiz-adv-x="1288" d="M82 608q0 205 92 370t255 258t368 93q76 0 154.5 -11t133 -22.5t68.5 -15.5l8 -12q-4 -12 -13 -59.5t-20.5 -123t-17.5 -159.5l-98 -8q2 10 4 37.5t2 62.5q0 190 -301 190q-135 0 -237.5 -65.5t-158 -185t-55.5 -281.5q0 -178 58.5 -313.5t165 -210t245.5 -74.5t224 79 t124 244l99 9q-6 -31 -26.5 -136.5t-29.5 -197.5l-12 -19q0 -2 -62.5 -23.5t-155.5 -40t-202 -18.5q-184 0 -323.5 78t-214 220.5t-74.5 334.5z" />
<glyph unicode="D" horiz-adv-x="1439" d="M119 -25l12 95q94 18 127 54t33 122l2 860q0 66 -15.5 88.5t-60.5 22.5q-20 0 -40.5 -2.5t-29.5 -2.5l-4 9l15 90q23 -2 86 -4t129 -2q88 0 182 3t129 5q197 0 350.5 -77t238.5 -216t85 -320q0 -201 -94.5 -366.5t-256 -262t-358.5 -96.5q-31 5 -130 15t-165 10 q-63 0 -138 -10t-97 -15zM438 268q0 -78 21.5 -116.5t76 -55t160.5 -16.5q221 0 348 152.5t127 418.5q0 270 -162.5 415.5t-465.5 145.5q-43 0 -57.5 -9t-16.5 -36q-31 -788 -31 -899z" />
<glyph unicode="E" horiz-adv-x="1210" d="M119 -20l12 94q92 12 126 48t34 124l2 860q0 66 -15.5 88.5t-60.5 22.5q-20 0 -40.5 -2.5t-29.5 -2.5l-4 9l15 90q27 -2 107.5 -4t176.5 -2q244 0 379 5t236 19l6 -12q-2 -12 -11.5 -58.5t-19.5 -122t-16 -159.5l-98 -8q0 10 2 35.5t2 52.5q0 72 -18.5 99.5t-80 36.5 t-215.5 9q-72 0 -98.5 -4t-34.5 -19.5t-10 -56.5l-16 -397l210 -2q47 0 134.5 9t115.5 13l9 -10l-29 -121q-29 2 -112 4.5t-175 2.5q-76 0 -158 -15q-8 -295 -8 -391q0 -59 10.5 -82.5t42 -32t109.5 -8.5q172 0 244.5 16.5t103.5 65.5t47 168l90 10l7 -10 q-6 -29 -24.5 -132.5t-31.5 -211.5l-10 -12q-70 2 -285 8t-336 6q-96 0 -179 -8t-105 -12z" />
<glyph unicode="F" horiz-adv-x="1048" d="M119 -25l12 95q94 18 127 54t33 122l2 860q0 66 -15.5 88.5t-60.5 22.5q-20 0 -40.5 -2.5t-29.5 -2.5l-4 9l15 90q27 -2 107.5 -4t176.5 -2q403 0 576 24l6 -12q-2 -12 -11 -57.5t-19.5 -125t-16.5 -163.5l-98 -8q0 10 2 38.5t2 55.5q0 72 -17.5 99.5t-71 36.5t-186.5 9 q-72 0 -98.5 -4t-34.5 -19.5t-10 -56.5l-16 -432l210 -2q39 0 115 9.5t100 13.5l9 -11l-29 -122q-27 2 -99.5 4t-152.5 2q-76 0 -158 -15l-8 -340q0 -84 18.5 -111.5t71.5 -27.5q41 0 85 3t61 3l4 -8l-19 -96q-33 2 -122 5t-183 3q-63 0 -137 -10t-96 -15z" />
<glyph unicode="G" horiz-adv-x="1366" d="M82 608q0 211 90 375t254 255t375 91q76 0 164 -11t151.5 -22.5t81.5 -15.5l8 -12q-4 -12 -14 -59.5t-21.5 -123t-17.5 -159.5l-96 -8q2 10 4 39.5t2 70.5q0 94 -72.5 137t-236.5 43q-233 0 -363.5 -140t-130.5 -394q0 -178 57.5 -313.5t164 -209t245.5 -73.5 q74 0 135.5 17.5t103.5 38t42 22.5v250q0 70 -21.5 90t-91.5 20h-141l-4 8l18 103q25 -2 104.5 -5.5t155.5 -3.5q55 0 108.5 4.5t67.5 6.5l8 -45q-36 -31 -49.5 -97.5t-13.5 -218.5q0 -119 14 -180l-12 -18q0 -2 -72.5 -28t-178 -46.5t-220.5 -20.5q-180 0 -315.5 78 t-209 220.5t-73.5 334.5z" />
<glyph unicode="H" horiz-adv-x="1544" d="M119 -25l12 95q94 18 127 54t33 122l2 860q0 66 -15.5 88.5t-60.5 22.5q-20 0 -40.5 -2.5t-29.5 -2.5l-4 9l15 90q25 -2 92 -4t135 -2q55 0 126 7t93 11l-8 -92q-61 -10 -88 -25.5t-35 -48.5t-12 -110l-12 -332l344 -2q131 0 303 20l2 373q0 66 -15.5 88.5t-60.5 22.5 q-20 0 -40.5 -2.5t-29.5 -2.5l-4 9l15 90q23 -2 82 -4t118 -2q61 0 141 7t105 11l-8 -92q-76 -10 -101.5 -33.5t-29.5 -83.5q-13 -240 -21 -501t-8 -384q0 -84 18.5 -111.5t71.5 -27.5q31 0 57.5 2t34.5 4l4 -8l-18 -94q-27 2 -100.5 4t-151.5 2q-68 0 -138.5 -2t-96.5 -2 l18 92q68 2 99.5 18.5t44 61.5t12.5 139v309l-312 2q-41 0 -169 -9t-171 -13l-8 -367q0 -84 18.5 -111.5t71.5 -27.5q31 0 57.5 2t34.5 4l5 -8l-19 -94q-16 2 -66.5 4t-107.5 2q-90 0 -199.5 -8t-111.5 -17z" />
<glyph unicode="I" horiz-adv-x="739" d="M115 -25l12 95q96 18 130 54t34 122l2 860q0 66 -15.5 88.5t-60.5 22.5q-27 0 -52.5 -2.5t-33.5 -2.5l-4 9l14 90q27 -2 98.5 -4t145.5 -2q59 0 136 7t100 11l-9 -92q-86 -10 -114.5 -33.5t-32.5 -83.5q-12 -240 -20.5 -501t-8.5 -384q0 -84 18.5 -111.5t71.5 -27.5 q37 0 68 2t41 4l4 -8l-18 -94q-29 2 -108 4t-161 2q-66 0 -140.5 -10t-96.5 -15z" />
<glyph unicode="J" horiz-adv-x="669" d="M47 -227l6 16q84 51 130 107.5t65.5 135.5t19.5 204l2 870q0 65 -14 86.5t-61 21.5q-25 0 -54.5 -3t-42.5 -5l-4 8l15 91h221q55 0 134 7t103 11l-8 -92q-51 -8 -73.5 -18.5t-32 -32t-11.5 -66.5q-8 -190 -15 -442t-11 -434q-2 -209 -81 -335t-253 -198z" />
<glyph unicode="K" horiz-adv-x="1286" d="M117 -2l20 92q66 6 97.5 20.5t44 45t12.5 90.5l2 860q0 65 -15.5 88t-60.5 23q-20 0 -40.5 -2.5t-29.5 -2.5l-4 9l15 90q25 -2 92 -4t135 -2q55 0 126 7t93 11l-8 -92q-76 -12 -104.5 -38t-30.5 -85l-25 -879v-15q0 -70 16 -96q18 -28 74 -28q31 0 57.5 2t34.5 4l5 -8 l-19 -94q-27 2 -100.5 4t-151.5 2zM496 645l2 29l366 381q64 63 64 106q0 53 -129 62l-4 8l14 88q25 -2 101.5 -8t123.5 -6q49 0 109.5 3t79.5 5l8 -15l-14 -84q-53 -10 -98.5 -42.5t-137.5 -129.5l-330 -346l344 -448q74 -96 132.5 -135t129.5 -39l9 -8l-13 -70 q-23 -4 -89 -14.5t-81 -10.5q-49 0 -108.5 46t-120.5 130z" />
<glyph unicode="L" horiz-adv-x="1038" d="M139 -20l13 94q80 12 109.5 48t29.5 124l2 860q0 66 -15.5 88.5t-60.5 22.5q-20 0 -40.5 -2.5t-29.5 -2.5l-4 9l15 90q25 -2 92 -4t137 -2q55 0 126 7t93 11l-8 -92q-68 -8 -93.5 -26.5t-30.5 -43t-11 -121.5q-12 -174 -18.5 -397t-6.5 -393q0 -74 12.5 -105.5t46 -42 t115.5 -10.5q125 0 183.5 20.5t88 80t54.5 190.5l90 10l6 -10q-6 -33 -25.5 -147.5t-33.5 -241.5l-10 -12q-59 4 -244.5 11t-306.5 7q-97 0 -175.5 -8t-99.5 -12z" />
<glyph unicode="M" horiz-adv-x="1734" d="M94 -16l10 94q66 8 94.5 42t37.5 116q90 823 90 884q0 53 -42 80t-137 33l-6 10l17 72q27 -2 104.5 -6t118.5 -4q37 0 81 3t58 5q82 -264 159 -490.5t126 -359.5t61 -166h11q29 76 131 360.5t223 651.5q0 2 55 -2l80 -2q39 0 117 5t104 7l4 -8l-10 -76q-88 -10 -125 -36 t-37 -77q0 -45 18.5 -334.5t35.5 -500.5q10 -84 20 -124t28.5 -55.5t51.5 -15.5q18 0 34.5 2t22.5 2l4 -8l-18 -92q-20 2 -76.5 4t-118.5 2q-55 0 -123.5 -7t-89.5 -9l9 94q63 8 91.5 32.5t28.5 69.5q0 43 -29.5 399.5t-39.5 485.5h-11l-395 -1090l-49 -14l-397 1104h-10 q-10 -135 -40 -507t-30 -404q0 -63 63 -64l84 2l4 -8l-18 -92q-23 2 -81 5t-118 3q-51 0 -105 -7t-71 -9z" />
<glyph unicode="N" horiz-adv-x="1472" d="M111 1239l16 76q18 -2 79.5 -6t96.5 -4q43 0 84 3t53 5q152 -236 304.5 -461t255 -370.5t128.5 -184.5h11v829q0 88 -68 88l-78 -2l-4 9l19 92q20 -2 77.5 -5t116.5 -3q53 0 117.5 7t85.5 9l-10 -94q-72 -10 -105 -40t-35 -89l-28 -1151l-60 -29q-178 276 -347 527 t-277.5 406t-136.5 196h-11l-10 -875q0 -45 14.5 -63.5t49.5 -18.5l104 2l4 -8l-18 -92q-23 2 -92.5 5t-124.5 3q-51 0 -111.5 -7t-79.5 -9l10 94q63 8 94 37.5t33 91.5l27 895q0 63 -38 90t-140 37z" />
<glyph unicode="O" horiz-adv-x="1417" d="M82 608q0 201 89 366t243.5 260t341.5 95q170 0 301 -80t204.5 -223t73.5 -328q0 -201 -91 -366.5t-247.5 -261t-347.5 -95.5q-166 0 -295 80t-200.5 224.5t-71.5 328.5zM258 674q0 -174 57.5 -308.5t161 -210t236.5 -75.5q129 0 229 67.5t155.5 188.5t55.5 276 q0 174 -59.5 308.5t-165 210t-242.5 75.5q-125 0 -222 -67.5t-151.5 -188.5t-54.5 -276z" />
<glyph unicode="P" horiz-adv-x="1128" d="M129 -16l14 94q90 16 119 48t29 120l2 860q0 66 -15.5 88.5t-60.5 22.5q-20 0 -40.5 -2.5t-29.5 -2.5l-4 9l15 90q24 -2 91.5 -4t135.5 -2q63 0 144 3t114 5q213 0 325.5 -94.5t112.5 -270.5q0 -115 -66.5 -218t-175 -166.5t-227.5 -63.5h-172l-4 -201q0 -98 6.5 -140 t23.5 -55.5t60 -13.5q35 0 67 2t44 4l4 -8l-18 -94q-20 2 -74.5 4t-114.5 2q-82 0 -191.5 -6t-113.5 -10zM444 621l218 -31q122 20 184.5 100t62.5 219q0 158 -93 230.5t-292 72.5q-37 0 -45 -4t-10 -24q-18 -260 -25 -563z" />
<glyph unicode="Q" horiz-adv-x="1427" d="M82 608q0 201 89 366t243.5 260t341.5 95q170 0 301 -80t204.5 -223t73.5 -328q0 -168 -63.5 -312t-178 -244.5t-259.5 -141.5v-10q217 -147 361 -209t267 -62q59 0 111.5 9.5t52.5 11.5l8 -6l13 -37q-12 -10 -51.5 -44t-82.5 -64.5t-61 -30.5q-102 0 -191.5 30.5 t-224.5 116.5t-387 270q-166 0 -295 80t-200.5 224.5t-71.5 328.5zM258 674q0 -174 57.5 -308.5t161 -210t236.5 -75.5q129 0 229 67.5t155.5 188.5t55.5 276q0 174 -59.5 308.5t-165 210t-242.5 75.5q-125 0 -222 -67.5t-151.5 -188.5t-54.5 -276z" />
<glyph unicode="R" horiz-adv-x="1251" d="M117 -8l18 92q66 8 98.5 22.5t45 46t12.5 93.5l2 860q0 66 -15.5 88.5t-60.5 22.5q-20 0 -40.5 -2.5t-29.5 -2.5l-4 9l15 90q25 -2 92 -4t135 -2q70 0 146.5 3t105.5 5q190 0 301 -86t111 -236q0 -123 -79 -225t-222 -168l225 -356q59 -98 115.5 -136t138.5 -38l8 -9 l-12 -69l-174 -23q-51 0 -109.5 52.5t-108.5 142.5l-219 397h-170l-6 -305q0 -78 10.5 -111.5t39 -45t98.5 -11.5l4 -8l-19 -86q-25 2 -98.5 4t-153.5 2q-72 0 -127 -2t-73 -4zM446 674l211 -21q0 -1 1 -1q8 0 60 28q62 33 111.5 100.5t49.5 173.5q0 270 -375 271 q-20 0 -27.5 -9.5t-9.5 -37.5q-18 -313 -21 -504z" />
<glyph unicode="S" horiz-adv-x="1085" d="M117 66q2 12 8 61t11 128t5 167l92 10q0 -154 20.5 -227.5t76 -101t170.5 -27.5q129 0 206.5 60.5t77.5 164.5q0 61 -42 110.5t-99 84t-170 94.5q-106 55 -174 101t-114 109.5t-46 147.5q0 106 62.5 193.5t170 137.5t238.5 50q82 0 151.5 -11t110.5 -23.5t52 -16.5l6 -12 q-2 -12 -10.5 -57.5t-18.5 -125t-16 -163.5l-80 -9l-12 11q2 8 4 37.5t2 68.5q0 109 -53.5 150t-190.5 41q-113 0 -185.5 -56.5t-72.5 -140.5q0 -82 70.5 -142.5t207.5 -131.5q133 -68 203 -112t123 -109.5t53 -151.5q0 -115 -64.5 -206t-179 -142.5t-261.5 -51.5 q-87 0 -158.5 15.5t-117.5 34t-46 20.5z" />
<glyph unicode="T" horiz-adv-x="1118" d="M18 958q4 31 15.5 138.5t15.5 216.5l19 16l170 -22h634l175 22l18 -16q4 -109 15.5 -213.5t15.5 -132.5l-97 -9q-23 135 -45 182.5t-79.5 62t-221.5 22.5q-12 -123 -22 -434.5t-10 -561.5q0 -76 26.5 -107.5t89.5 -31.5q45 0 75 2t38 4l6 -8l-18 -94q-33 0 -123 3t-178 3 q-86 0 -168 -3t-113 -5l16 88q102 8 141.5 25.5t51.5 63.5t12 163v893q-176 -8 -237.5 -22.5t-84 -59.5t-40.5 -176z" />
<glyph unicode="U" horiz-adv-x="1394" d="M72 1221l14 90q25 -2 93.5 -4t137.5 -2q55 0 125 7t90 11l-8 -92q-76 -10 -101.5 -33.5t-29.5 -83.5l-16 -602q0 -203 88 -311.5t254 -108.5q168 0 256 89t88 257q-2 164 -6 374t-6 294q-4 72 -17.5 91.5t-58.5 19.5q-25 0 -51.5 -2.5t-36.5 -2.5l-4 9l14 90 q25 -2 93.5 -4t137.5 -2q55 0 118 7t81 11l-8 -92q-61 -8 -91 -19.5t-40 -33t-10 -64.5v-688q0 -215 -133.5 -333t-374.5 -118q-215 0 -332 118t-117 335v678q0 66 -15.5 88.5t-60.5 22.5q-20 0 -40.5 -2.5t-28.5 -2.5z" />
<glyph unicode="V" horiz-adv-x="1249" d="M-18 1223l14 88q27 0 99.5 -3t137.5 -3q68 0 171.5 9t136.5 13l6 -14l-8 -80q-111 -8 -147 -24.5t-36 -61.5q0 -41 108.5 -425t149.5 -523h19q340 877 340 942q0 43 -33 62.5t-109 19.5h-106l-4 8l12 88q27 -2 118 -8t175 -6q76 0 140.5 2t84.5 4l-16 -97q-63 -2 -88 -20 t-47 -78l-441 -1106l-131 -45q-31 102 -138 450.5t-216 682.5q-18 59 -63 86.5t-125 29.5z" />
<glyph unicode="W" horiz-adv-x="1908" d="M-14 1223l12 88q27 0 96.5 -3t134.5 -3q90 0 180.5 9t116.5 13l6 -14l-8 -80q-104 -8 -140 -24.5t-36 -59.5q0 -35 56.5 -247t117 -425t78.5 -278h12l289 786l-37 113q-20 59 -63 85.5t-121 30.5l-4 9l14 88q27 0 96.5 -3t135.5 -3q78 0 173 9t124 13l6 -14l-8 -80 q-106 -8 -142.5 -24.5t-36.5 -61.5q0 -43 106.5 -426t147.5 -522h13q4 12 9 25.5t11 31.5q311 836 311 895q0 39 -32.5 55.5t-106.5 16.5h-102l-4 8l14 88q27 -2 115 -8t170 -6q74 0 135 2t82 4l-15 -97q-61 -4 -85.5 -21t-45.5 -77l-430 -1106l-127 -45q-20 72 -95 330 t-161 539h-12l-291 -824l-131 -45q-29 102 -132 450.5t-210 682.5q-18 59 -63.5 86.5t-120.5 29.5z" />
<glyph unicode="X" horiz-adv-x="1343" d="M25 6l8 -14q20 2 86.5 5t116.5 3q47 0 123.5 -6t101.5 -8l14 88l-4 8q-61 4 -90 19.5t-29 41.5q0 29 20.5 64t84.5 119l188 249l223 -335q41 -59 41 -90q0 -35 -37.5 -51.5t-121.5 -20.5l-9 -80l7 -14q33 2 139 9t178 7q80 0 153.5 -2t100.5 -4l14 88l-4 8 q-96 8 -160.5 48t-119.5 122l-299 436l247 314q92 115 141.5 154.5t137.5 58.5l12 75l-8 15q-20 -2 -85 -5t-114 -3q-47 0 -123.5 6t-101.5 8l-12 -80l4 -8q63 -6 91 -20.5t28 -41.5q0 -29 -51.5 -103.5t-139.5 -188.5l-78 -105q-119 180 -175 273.5t-56 115.5q0 33 37 50.5 t123 23.5l6 72l-6 14q-20 -2 -98 -9t-179 -7q-86 0 -174 3t-121 3l-12 -80l4 -8q94 -12 161.5 -53.5t119.5 -116.5l268 -402l-225 -278q-105 -129 -176.5 -193.5t-155.5 -89.5z" />
<glyph unicode="Y" horiz-adv-x="1101" d="M-39 1231l12 80q23 -2 86.5 -4t139.5 -2q72 0 167 7t123 9l7 -14l-7 -72q-92 -8 -123.5 -23.5t-31.5 -50.5q0 -26 51 -145t105.5 -233.5t72.5 -149.5h10l234 434q33 59 33 102q0 53 -129 62l-4 8l12 80q25 -2 102.5 -8t124.5 -6q49 0 109.5 3t79.5 5l8 -15l-13 -75 q-66 -12 -102.5 -34t-64 -62t-80.5 -134q-12 -25 -21 -37l-205 -360q-27 -47 -34 -106.5t-11 -215.5v-45v-14q0 -69 18 -95q19 -30 72 -30q33 0 62 2t39 4l4 -8l-19 -94q-29 2 -105.5 4t-154.5 2q-63 0 -137 -10t-96 -15l12 95q74 14 106.5 36.5t43 61.5t10.5 123v90 q0 63 -12.5 111.5t-46.5 119.5l-185 375q-53 109 -75.5 146.5t-63.5 60.5t-119 29z" />
<glyph unicode="Z" horiz-adv-x="1163" d="M70 59l764 1155l-355 -12q-96 -4 -151.5 -31.5t-84 -87t-40.5 -163.5l-97 -9q2 16 10.5 72.5t16.5 150t10 177.5l21 18l358 -22l529 -15l22 -59q-391 -520 -790 -1151l415 14q106 2 172 84t99 256l96 10q-4 -18 -13.5 -76.5t-21.5 -156.5t-16 -186l-31 -33l-741 12 l-144 -12z" />
<glyph unicode="[" horiz-adv-x="632" d="M197 -258q4 92 13 367.5t9 402.5q0 129 -9 406.5t-13 369.5l376 23l9 -13l-13 -63l-233 -49v-1342l237 -49l9 -14l-13 -62z" />
<glyph unicode="\" horiz-adv-x="673" d="M76 1362l16 20h94l236 -919q49 -195 109.5 -402.5t78.5 -269.5l-14 -16h-98q-14 57 -61.5 238.5t-110.5 426.5q-76 285 -150 554.5t-100 367.5z" />
<glyph unicode="]" horiz-adv-x="632" d="M51 -268l12 63l234 49v1342l-238 49l-8 14l12 62l373 -23q-4 -92 -13 -366.5t-9 -403.5q0 -127 9 -405.5t13 -370.5l-377 -23z" />
<glyph unicode="^" horiz-adv-x="1036" d="M115 154q14 39 65 167t101 244l176 416l96 4l22 -16q19 -43 68 -161t105 -245q45 -104 101 -226t73 -159l-82 -61l-23 2l-162 370l-143 345h-12l-123 -316q-43 -104 -89 -231t-61 -166l-102 14z" />
<glyph unicode="_" horiz-adv-x="937" d="M-12 -276l22 100l490 -2q145 0 280 6q158 4 158 6l12 -20l-16 -105l-729 -2q-100 -2 -205 -2z" />
<glyph unicode="`" horiz-adv-x="815" d="M145 1374l78 84l21 4q27 -33 121 -142.5t186 -209.5l-41 -39l-18 -4q-109 98 -211.5 180t-133.5 105z" />
<glyph unicode="a" horiz-adv-x="954" d="M84 238q0 59 29.5 104t79.5 59l387 107l4 90q0 102 -47.5 159.5t-133.5 57.5q-57 0 -126.5 -28.5t-118.5 -73.5l-11 6l-24 88q104 61 199.5 102t134.5 41q133 0 208.5 -69.5t75.5 -194.5q0 -45 -14 -184q-22 -216 -22 -282v-5q0 -45 22.5 -69.5t60.5 -24.5q29 0 63 14.5 t60 36.5l29 -33q-33 -57 -83 -103t-95 -61q-166 0 -182 166l-9 2q-74 -74 -134 -116.5t-91 -42.5q-115 0 -188.5 71.5t-73.5 182.5zM240 260q0 -59 39.5 -98t101.5 -39q39 0 91 27.5t95 70.5l8 209l-276 -84q-59 -18 -59 -86z" />
<glyph unicode="b" horiz-adv-x="1040" d="M47 1393l8 67q88 12 182.5 32.5t120.5 27.5l13 -27q-14 -20 -26.5 -207.5t-20.5 -478.5q92 66 158.5 104.5t88.5 38.5q115 0 205 -55t140.5 -154.5t50.5 -228.5q0 -147 -69 -270t-185.5 -195t-255.5 -72q-86 0 -175 11.5t-89 13.5l-19 16v1266q0 111 -76 111 q-16 0 -28.5 -2t-16.5 -5zM313 131q37 -18 94.5 -30.5t106.5 -12.5q137 0 216 93t79 255q0 102 -36 188.5t-98.5 136.5t-135.5 50q-41 0 -104.5 -31.5t-115.5 -79.5z" />
<glyph unicode="c" horiz-adv-x="868" d="M74 428q0 145 62.5 265t170 188.5t240.5 68.5q57 0 110.5 -8t87 -17.5t41.5 -13.5l7 -14q-2 -10 -11.5 -48t-19.5 -100.5t-12 -134.5l-84 -6v64q0 76 -46.5 122t-121.5 46q-125 0 -192.5 -89t-67.5 -253q0 -178 74.5 -281.5t203.5 -103.5q51 0 102.5 15t86 30.5 t43.5 21.5l12 -4l22 -63q-14 -11 -62 -43.5t-110.5 -63.5t-107.5 -31q-195 0 -311.5 123t-116.5 330z" />
<glyph unicode="d" horiz-adv-x="1099" d="M74 414q0 145 68.5 268t186 195.5t255.5 72.5q66 0 141 -8v340q0 111 -76 111q-14 0 -30.5 -3.5t-20.5 -5.5l8 76q88 12 182.5 32.5t120.5 27.5l13 -27q-23 -35 -40.5 -432t-17.5 -846q0 -45 22.5 -69.5t61.5 -24.5q29 0 56.5 11t45 23.5t21.5 16.5l29 -33 q-6 -10 -31 -44t-64.5 -70.5t-82.5 -49.5q-160 0 -183 146l-14 6q-213 -145 -256 -145q-117 0 -207 54t-139 152.5t-49 225.5zM231 483q0 -102 36 -186t98.5 -133t136.5 -49q43 0 93 24.5t85 50t45 33.5v561q-6 4 -30.5 15.5t-68.5 21.5t-100 10q-137 0 -216 -93t-79 -255z " />
<glyph unicode="e" horiz-adv-x="917" d="M74 428q0 137 62.5 258t167 192.5t222.5 71.5q150 0 227.5 -75.5t77.5 -221.5q0 -33 -5 -62.5t-7 -37.5l-26 -25h-566v-32q0 -172 83 -276.5t220 -104.5q57 0 112.5 14t92.5 29.5t47 19.5l13 -4l22 -59q-14 -10 -66.5 -44t-122 -65t-124.5 -31q-127 0 -225.5 56.5 t-151.5 160t-53 236.5zM236 604l370 19q31 4 41 14t10 41q0 82 -44 125t-126 43q-96 0 -164.5 -65.5t-86.5 -176.5z" />
<glyph unicode="f" horiz-adv-x="675" d="M84 842l14 69l123 23v8q0 176 58.5 307t164 201t248.5 70q61 0 113.5 -8.5t82.5 -17.5t38 -13l4 -19q-6 -10 -25.5 -48t-38.5 -85l-22 -6q-8 6 -40 24.5t-84 35t-112 16.5q-117 0 -174 -93.5t-61 -285.5l-2 -100q106 0 182 2t100 4l6 -6l-20 -109q-23 2 -95.5 4t-174.5 2 l-9 -616q0 -57 26 -85t79 -28q49 0 81 2t42 2l4 -8l-14 -88q-29 0 -105 2t-149 2q-72 0 -140.5 -3t-89.5 -5l10 80q117 16 117 121v552q-2 49 -27.5 64.5t-101.5 19.5z" />
<glyph unicode="g" horiz-adv-x="1032" d="M104 174q78 74 172 131v8q-70 37 -110.5 109t-40.5 158q0 98 52 184t139 136t190 50q47 0 117 -12q51 -10 84 -10q86 10 282 61l6 -8l-22 -115q-82 -12 -176 -18l-9 -10q82 -90 82 -209q0 -98 -54 -182.5t-146 -132.5t-203 -48q-51 1 -117 15q-47 -27 -66.5 -48.5 t-19.5 -44.5q0 -47 63.5 -65.5t198.5 -34.5q133 -16 215 -33.5t141.5 -62.5t59.5 -125q0 -90 -73.5 -174t-192.5 -136.5t-244 -52.5q-145 0 -226 72t-81 201q27 37 83 87t120 97v12q-109 18 -166.5 70.5t-57.5 130.5zM279 618q0 -117 65.5 -189.5t169.5 -72.5 q94 0 148.5 59.5t54.5 164.5q0 119 -65.5 192.5t-170.5 73.5q-94 0 -148 -61.5t-54 -166.5zM289 -242q0 -70 60.5 -111.5t156.5 -41.5q80 0 150.5 27.5t112.5 75.5t42 102q0 41 -33 65.5t-115.5 43t-246.5 38.5q-53 -35 -90 -92.5t-37 -106.5z" />
<glyph unicode="h" horiz-adv-x="1093" d="M51 1395l8 65q88 12 182.5 32.5t120.5 27.5l13 -27q-14 -23 -27.5 -216.5t-21.5 -485.5q232 159 306 159h1q133 0 206.5 -69.5t73.5 -194.5q0 -41 -14 -188q-18 -240 -18 -297q0 -59 16 -87t55 -28q23 0 43.5 2t28.5 2l4 -8l-16 -88q-18 2 -69.5 4t-113.5 2 q-53 0 -121.5 -10t-89.5 -15l9 84q61 16 87.5 48t26.5 86l13 405q0 102 -44 157.5t-126 55.5q-70 0 -142.5 -38t-117.5 -75q-6 -236 -7 -497q0 -63 16.5 -89t57.5 -26q23 0 43.5 2t28.5 2l4 -8l-18 -88q-18 2 -71.5 4t-115.5 2q-68 0 -125 -2t-78 -2l13 84q59 6 82.5 30.5 t23.5 82.5v1089q0 55 -18.5 81t-57.5 26h-43z" />
<glyph unicode="i" horiz-adv-x="577" d="M86 815l8 76q86 12 177 32.5t118 26.5l10 -24q-18 -43 -32.5 -263.5t-14.5 -461.5q0 -59 16.5 -87t55.5 -28q23 0 43 2t29 2l4 -8l-17 -88q-18 2 -69.5 4t-112.5 2q-53 0 -121.5 -10t-89.5 -15l8 84q62 17 88.5 48.5t26.5 85.5v520q0 110 -75 110h-1q-14 0 -30.5 -3 t-20.5 -5zM172 1337q0 51 35 86t86 35q43 0 71.5 -29.5t28.5 -74.5q0 -51 -34.5 -86t-86.5 -35q-45 0 -72.5 28.5t-27.5 75.5z" />
<glyph unicode="j" horiz-adv-x="512" d="M31 -455l4 17q88 88 119.5 196.5t31.5 319.5v635q0 63 -17 86.5t-65 23.5q-18 0 -33.5 -2t-21.5 -4l8 76q78 10 172.5 30.5t122.5 26.5l10 -24q-34 -57 -34 -906v-49q0 -147 -67.5 -268t-192.5 -197zM147 1337q0 51 35 86t86 35q43 0 72 -29.5t29 -74.5q0 -51 -35 -86 t-86 -35q-45 0 -73 28.5t-28 75.5z" />
<glyph unicode="k" horiz-adv-x="1017" d="M51 1384q0 12 4 37l4 39q88 12 182.5 32.5t120.5 27.5l13 -27q-23 -35 -41 -434.5t-17 -857.5q0 -63 16.5 -89t57.5 -26q23 0 43.5 2t28.5 2l4 -8l-18 -88q-18 2 -71.5 4t-115.5 2q-53 0 -117.5 -5t-85.5 -7l11 84q53 8 75.5 29.5t27.5 56.5t5 118v1006q0 111 -76 111 q-14 0 -30.5 -3.5t-20.5 -5.5zM369 487l4 29l250 229q29 27 39 42.5t10 29.5q0 23 -27 33t-86 10l-6 10l18 60q20 0 79 -2t122 -2q49 0 112.5 5t82.5 7l6 -10l-17 -64q-84 -25 -169 -94.5t-203 -187.5l-64 -64l215 -276q70 -90 127.5 -129t120.5 -39l6 -11l-12 -59 q-18 -6 -75.5 -19.5t-76.5 -13.5q-31 0 -71 21q-33 16 -65 51t-79 102z" />
<glyph unicode="l" horiz-adv-x="499" d="M51 1384q0 12 4 37l4 39q88 12 182.5 32.5t120.5 27.5l13 -27q-23 -35 -41 -436.5t-17 -855.5q0 -61 16.5 -88t55.5 -27q23 0 43.5 2t28.5 2l4 -8l-16 -88q-18 2 -69.5 4t-113.5 2q-53 0 -121.5 -10t-89.5 -15l8 84q58 17 81.5 41.5t28.5 59.5t5 116v1006q0 111 -76 111 q-14 0 -30.5 -3.5t-20.5 -5.5z" />
<glyph unicode="m" horiz-adv-x="1703" d="M80 825l6 68q88 14 175 33.5t112 25.5l12 -16q-4 -12 -12 -52t-11 -83l5 -6q228 155 300 155h1q98 0 165.5 -42t96.5 -120q74 53 166 107.5t143 54.5q129 0 205 -71.5t76 -192.5q0 -20 -13 -188q-16 -213 -16 -297q0 -63 16.5 -89t57.5 -26q23 0 43 2t28 2l4 -8l-18 -88 q-18 2 -71.5 4t-114.5 2q-53 0 -118 -5t-85 -7l10 84q59 10 84 36.5t25 84.5l8 405q0 102 -44 157.5t-126 55.5q-106 0 -248 -102l-22 -508q0 -59 16 -87t55 -28q23 0 43.5 2t28.5 2l4 -8l-16 -88q-18 2 -69.5 4t-113.5 2q-53 0 -121.5 -10t-89.5 -15l9 84q61 17 87.5 48.5 t26.5 85.5l8 405q0 102 -44 157.5t-126 55.5q-66 0 -133 -34t-118 -72q-18 -424 -19 -504q0 -63 16.5 -89t57.5 -26q23 0 43 2t29 2l4 -8l-19 -88q-18 2 -71.5 4t-114.5 2q-68 0 -125 -2t-78 -2l12 84q59 6 83 30.5t24 82.5v499q0 70 -22.5 97.5t-77.5 27.5h-23z" />
<glyph unicode="n" horiz-adv-x="1150" d="M80 825l6 68q88 14 175 33.5t112 25.5l12 -16q-4 -12 -12 -52t-11 -83l5 -6q232 155 300 155h1q129 0 204.5 -71.5t75.5 -192.5q0 -20 -12 -188q-16 -213 -16 -297q0 -59 16 -87t55 -28q23 0 43.5 2t28.5 2l4 -8l-16 -88q-18 2 -69.5 4t-113.5 2q-53 0 -121.5 -10 t-89.5 -15l9 84q61 17 87.5 48.5t26.5 85.5l8 405q0 102 -44 157.5t-126 55.5q-66 0 -133 -34t-118 -72q-18 -424 -19 -504q0 -63 16.5 -89t57.5 -26q23 0 43 2t29 2l4 -8l-19 -88q-18 2 -71.5 4t-114.5 2q-53 0 -117.5 -5t-85.5 -7l10 84q59 10 84 36.5t25 84.5v499 q0 70 -22.5 97.5t-77.5 27.5h-23z" />
<glyph unicode="o" horiz-adv-x="1019" d="M74 430q0 143 62.5 263t171 188.5t241.5 68.5q115 0 206 -57t141 -160.5t50 -236.5q0 -143 -62.5 -263t-171 -189t-241.5 -69q-117 0 -207 57.5t-140 161t-50 236.5zM238 489q0 -121 36.5 -215t102 -146t151.5 -52q115 0 182.5 93t67.5 253q0 121 -36.5 216t-103.5 148.5 t-151 53.5q-115 0 -182 -94.5t-67 -256.5z" />
<glyph unicode="p" horiz-adv-x="1081" d="M82 825l6 68q88 14 175 33.5t112 25.5l12 -16q-2 -10 -9 -44t-11 -67l8 -14q193 133 237 133q117 0 207 -54t139.5 -152.5t49.5 -225.5q0 -145 -70 -268t-186.5 -196t-253.5 -73q-45 0 -89 3.5t-61 5.5l2 -211q0 -94 19.5 -128t76.5 -34l70 2l4 -6l-16 -78h-195 q-74 0 -136 -6t-81 -8l10 79q45 7 66.5 19t30 41t8.5 88q0 86 2 147l2 193v610q0 70 -22.5 97.5t-77.5 27.5h-23zM350 127q41 -16 97.5 -27.5t107.5 -11.5q137 0 216 93t79 255q0 102 -36 186.5t-98.5 133.5t-135.5 49q-41 0 -100.5 -27.5t-112.5 -72.5q-16 -268 -17 -578z " />
<glyph unicode="q" horiz-adv-x="1056" d="M74 414q0 145 68.5 268t186 195.5t255.5 72.5q96 0 188 -18q43 16 74 29.5t39 17.5l16 -18q-18 -45 -28.5 -358.5t-10.5 -819.5q0 -78 5 -113t20.5 -47t48.5 -12q20 0 34.5 1t18.5 1l4 -4l-14 -80h-188q-59 0 -129 -3t-91 -5l11 78q59 4 85.5 13t37 33.5t12.5 78.5l8 399 q-213 -147 -256 -148q-115 0 -205 55.5t-140 155t-50 228.5zM231 483q0 -102 36 -188t98.5 -136t136.5 -50q43 0 93 25.5t85 53t45 35.5v561q-6 4 -30.5 15.5t-68.5 21.5t-100 10q-137 0 -216 -93t-79 -255z" />
<glyph unicode="r" horiz-adv-x="784" d="M92 827l6 64q78 14 165 34.5t112 26.5l14 -12q-4 -18 -12 -85q-6 -54 -6 -102v-24l8 -6q61 96 144 157.5t145 61.5q29 0 44 -3t19 -5l6 -8q-4 -29 -17 -122t-15 -171l-80 -6q0 84 -11.5 111.5t-44.5 27.5q-45 0 -96 -38t-94 -101q-2 -59 -8 -196.5t-9 -221.5 q0 -70 20.5 -94.5t78.5 -24.5q27 0 53.5 2t36.5 2l2 -8l-18 -90q-20 0 -82 2t-127 2q-76 0 -137.5 -3t-77.5 -5l10 82q61 6 81.5 39.5t20.5 130.5v450q0 68 -18.5 96.5t-59.5 28.5q-16 0 -27.5 -2t-15.5 -4z" />
<glyph unicode="s" horiz-adv-x="823" d="M100 33q6 31 14.5 127t10.5 147l72 10q0 -135 45 -190t153 -55q78 0 131.5 34.5t53.5 86.5q0 51 -48.5 93t-189.5 117q-117 59 -170 120t-53 134q0 82 49 149.5t135 105.5t193 38q49 0 94 -7t73.5 -15t36.5 -10l5 -11q-4 -20 -18.5 -93t-20.5 -157l-76 -6q0 6 2 24.5 t2 35.5q0 74 -40 107.5t-128 33.5q-70 0 -118 -33t-48 -80q0 -49 42 -92t136 -92q166 -88 226.5 -147.5t60.5 -137.5t-52 -145.5t-138 -108.5t-185 -41q-65 0 -119.5 9.5t-85 19.5t-39.5 14z" />
<glyph unicode="t" horiz-adv-x="675" d="M43 842l10 61q59 29 115.5 71t92.5 73.5t46 42.5l41 -17q-2 -10 -6 -49t-10 -104l301 6l6 -6l-18 -109l-297 6q-14 -225 -15 -512q0 -104 36 -147t124 -43q31 0 61.5 8t51 17.5t26.5 11.5l21 -54q-12 -10 -52 -38.5t-86.5 -56.5t-68.5 -28q-139 0 -196.5 56.5 t-57.5 191.5v504q0 55 -24.5 77.5t-92.5 24.5z" />
<glyph unicode="u" horiz-adv-x="1107" d="M57 813l9 76q80 12 172 33.5t120 27.5l13 -24q-20 -53 -37 -241.5t-17 -367.5q0 -200 162 -200h2q61 0 114.5 29.5t133.5 86.5v476q0 61 -22.5 85.5t-79.5 24.5l-49 -2l8 74q90 12 188 32.5t127 26.5l12 -24q-18 -47 -31.5 -256t-13.5 -455q0 -45 22.5 -69.5t61.5 -24.5 q29 0 56.5 11t45 23.5t21.5 16.5l29 -33q-8 -12 -38 -51t-70 -76t-70 -37q-166 0 -183 166l-10 4q-98 -76 -177 -123t-107 -47q-131 0 -202 61.5t-71 176.5l8 498q1 110 -75 110q-14 0 -31 -3t-21 -5z" />
<glyph unicode="v" horiz-adv-x="911" d="M-20 860l12 68l170 -2q78 0 151.5 6t94.5 8l4 -10l-13 -64q-70 -2 -95 -13t-25 -40q0 -37 73.5 -296t100.5 -351h8l123 303q68 158 96.5 233.5t28.5 100.5q0 26 -19.5 37.5t-68.5 11.5h-78l-8 12l10 64l213 -2l168 2l-15 -76q-43 -6 -67.5 -35t-63.5 -119l-297 -698 l-110 -35q-31 98 -122 386t-128 399q-35 98 -139 102z" />
<glyph unicode="w" horiz-adv-x="1443" d="M-8 860l12 68l164 -2q78 0 148.5 6t91.5 8l4 -10l-13 -64q-68 -2 -92 -13t-24 -40q0 -39 70.5 -297t97.5 -350h8l114 287l103 264q-23 70 -54.5 102.5t-91.5 32.5l-4 8l13 68l163 -2q76 0 148 4t92 6l4 -10l-12 -64q-70 -2 -93.5 -12t-23.5 -37q0 -37 70.5 -296 t97.5 -351h8l113 283q72 178 99.5 253.5t27.5 100.5q0 28 -19.5 39.5t-64.5 11.5h-76l-8 12l10 64q18 0 73.5 -2t129.5 -2l168 2l-14 -76q-41 -4 -66 -34t-61 -120l-289 -698l-109 -35l-184 604h-12l-228 -569l-110 -35q-29 98 -118 386t-124 399q-35 100 -135 102z" />
<glyph unicode="x" horiz-adv-x="972" d="M16 860l4 -8q72 -12 112 -45t110 -133l155 -221l-176 -205q-12 -14 -54 -63.5t-71.5 -74t-64.5 -42.5l-13 -64l7 -10q12 2 45.5 4t76.5 2q47 0 98.5 -3t71.5 -5l13 67l-4 9q-55 4 -72.5 10t-17.5 26q0 25 53 93.5t153 191.5l150 -209q35 -49 35 -76q0 -23 -21.5 -32 t-73.5 -11l-12 -63l4 -10q25 2 101.5 7t128.5 5q57 0 111.5 -2t74.5 -2l12 70l-4 8q-59 6 -106 41t-101 112l-188 269l176 206q117 135 172 154l12 66l-6 10q-14 -2 -57 -4t-88 -2h-150l-10 -68l4 -8q51 0 69.5 -5t18.5 -22q0 -18 -13 -39.5t-50 -64.5l-125 -158l-113 164 q-18 27 -33.5 52.5t-15.5 43.5q0 20 21.5 29.5t70.5 9.5l13 64l-5 10q-16 -2 -75.5 -5t-132.5 -3q-59 0 -122 2t-85 2z" />
<glyph unicode="y" horiz-adv-x="913" d="M-18 860l12 68l170 -2q76 0 150.5 6t95.5 8l4 -10l-13 -64q-70 -2 -95 -13t-25 -40q0 -33 40.5 -172t84 -276.5t57.5 -178.5h8q240 574 240 619q0 53 -78 53h-94l-4 8l12 68q18 -2 80.5 -5t126.5 -3l174 2l-15 -76q-45 -8 -68.5 -31.5t-45.5 -85.5l-264 -622 q-117 -266 -181.5 -387t-127.5 -172q-60 -48 -145 -48h-7q-16 0 -53 48.5t-37 68.5l10 15q119 0 224.5 95t174.5 265q-49 156 -130 385t-138 371q-25 51 -56.5 73.5t-82.5 24.5z" />
<glyph unicode="z" horiz-adv-x="942" d="M74 47l557 801l-256 -12q-100 -6 -138 -44t-49 -141l-79 -12q4 29 12 122t10 175l12 10l263 -16l430 -10l16 -43q-188 -242 -346 -462t-240 -343l303 18q82 6 127 64.5t66 185.5l82 10q-2 -14 -10.5 -65.5t-16.5 -125t-8 -139.5l-33 -32l-575 18l-107 -10z" />
<glyph unicode="{" horiz-adv-x="632" d="M94 506l8 43q82 22 136.5 65t54.5 105q0 47 -39 164q-25 82 -35 125t-10 84q0 100 68.5 168.5t189.5 68.5q33 0 69.5 -5t47.5 -7l6 -10l-17 -62q-10 2 -40.5 6t-53.5 4q-63 0 -94 -39.5t-31 -101.5q0 -53 27 -174q29 -139 29 -192q0 -86 -43 -135.5t-107 -69.5v-13 q150 -55 150 -215q0 -57 -29 -200q-27 -121 -27 -174q0 -61 31 -100.5t96 -39.5q27 0 59.5 5.5t43.5 7.5l6 -13l-17 -57q-8 -2 -39.5 -9t-70.5 -7q-117 0 -185.5 68.5t-68.5 168.5q0 43 12 91t35 120q37 102 37 150q0 135 -199 180z" />
<glyph unicode="|" horiz-adv-x="761" d="M311 -90q0 328 2 655l2 1065l123 23l23 -13q-2 -114 -7 -472.5t-5 -571.5l2 -1124l-121 -23l-19 12v449z" />
<glyph unicode="}" horiz-adv-x="632" d="M43 -250l16 62q10 -2 41 -6.5t54 -4.5q63 0 94 40t31 102q0 53 -27 174q-29 139 -29 192q0 86 43 135.5t107 69.5v12q-150 55 -150 215q0 57 29 201q27 121 27 174q0 61 -31 100t-96 39q-25 0 -59 -5t-44 -7l-6 12l16 58q8 2 40 9t71 7q117 0 185.5 -68.5t68.5 -168.5 q0 -43 -12.5 -91.5t-34.5 -119.5q-37 -102 -37 -150q0 -135 199 -180l-9 -43q-81 -23 -135.5 -66t-54.5 -104q0 -47 39 -164q25 -82 35 -125t10 -84q0 -100 -68.5 -168.5t-189.5 -68.5q-33 0 -70 5t-47 7z" />
<glyph unicode="~" horiz-adv-x="1036" d="M88 457v10l156 182l32 8q51 0 149.5 -21.5t115.5 -25.5q68 -16 132 -28.5t95 -12.5q23 0 51.5 24.5t50 52.5t27.5 36h12l45 -43v-10l-155 -183l-33 -8q-51 0 -149.5 21.5t-114.5 25.5q-68 16 -132.5 28.5t-95.5 12.5q-23 0 -51 -24.5t-49.5 -52t-28.5 -35.5h-12z" />
<glyph unicode="&#xa1;" horiz-adv-x="583" d="M180 -473l107 971l57 14l23 -16l16 -934l-14 -21l-170 -37zM215 823q0 53 36 90t93 37q55 0 85 -33.5t30 -82.5q0 -53 -35 -90t-92 -37q-55 0 -86 33.5t-31 82.5z" />
<glyph unicode="&#xa2;" horiz-adv-x="868" d="M74 428q0 137 55 251t152.5 185.5t218.5 83.5l32 350l54 9l12 -19l-33 -338q55 -2 104.5 -10t79 -17.5t37.5 -11.5l7 -14q-2 -10 -11.5 -48t-19.5 -100.5t-12 -134.5l-84 -6v64q0 59 -30 101t-81 58l-68 -716l29 -2q51 0 102.5 15t86 30.5t43.5 21.5l12 -4l22 -63 q-14 -10 -62 -43t-110.5 -64t-107.5 -31h-29l-31 -325l-53 -6l-10 14l31 326q-156 29 -246 146.5t-90 297.5zM238 498q0 -142 49 -238t137 -131l65 711q-121 -2 -186 -91.5t-65 -250.5z" />
<glyph unicode="&#xa3;" horiz-adv-x="1075" d="M78 84q213 141 213 334v98q-2 47 -26.5 63.5t-102.5 20.5l-8 12l14 70l123 23v34q0 145 50 255t140 170.5t209 60.5q61 0 120.5 -8.5t90.5 -22.5l10 -23l-47 -129l-39 -6q-125 68 -211 68q-178 0 -186 -254l-6 -160q119 0 210 2t120 4l6 -6l-21 -108q-29 2 -115.5 4 t-203.5 2l-4 -162q-10 -166 -131 -266l112 22q66 0 189 -24q119 -20 164 -21q139 0 153 154l37 -4q27 -62 27 -119q0 -82 -45.5 -137.5t-110.5 -55.5q-47 0 -99.5 10.5t-144.5 34.5q-100 25 -157.5 36.5t-112.5 11.5q-90 0 -172 -62l-14 8z" />
<glyph unicode="&#xa4;" horiz-adv-x="909" d="M61 1051l5 24l79 53q12 -12 49 -51t89 -90q76 49 166 49t165 -49l140 154l26 -6l56 -82l-144 -142q57 -76 58 -176q0 -86 -48 -160l146 -135l-6 -22l-82 -62l-135 136q-78 -55 -176 -56q-96 0 -175 56q-51 -53 -87.5 -90t-49.5 -48l-22 6l-47 80l133 127q-51 74 -51 168 q0 96 55 174zM248 735q0 -82 59.5 -141t141.5 -59q84 0 143 58t59 142t-59.5 143.5t-142.5 59.5q-84 0 -142.5 -59.5t-58.5 -143.5z" />
<glyph unicode="&#xa5;" horiz-adv-x="1124" d="M63 961l15 73q20 -2 76.5 -4t121.5 -2q68 0 152 7t94 7l10 -20l-6 -70q-82 -8 -105.5 -18t-23.5 -31q0 -19 23 -74l164 -321l190 326q27 45 27 75q0 31 -109 41l-2 15l10 75q20 -2 88 -7t113 -5q53 0 100.5 2t63.5 4l10 -14l-12 -76q-55 -8 -85 -23.5t-49.5 -41 t-64.5 -93.5l-86 -139l236 4l12 -18l-6 -62h-289l-72 -116q-16 -35 -20 -80l375 8l12 -18l-6 -62h-383l-2 -119q0 -57 13.5 -77.5t51.5 -20.5l39 2l56 2l4 -16l-19 -78q-25 0 -91 2t-134 2q-51 0 -117.5 -8t-87.5 -12l10 88q72 12 98.5 33.5t32 57.5t5.5 144l-369 -2l-10 14 l10 60h362q-18 66 -43 108l-49 88l-270 -2l-10 15l10 59h229l-49 96q-41 80 -66.5 118t-65.5 60.5t-107 24.5z" />
<glyph unicode="&#xa6;" horiz-adv-x="761" d="M311 340l131 25l7 -7l2 -886l-121 -23l-19 12v879zM313 758l2 872l123 23l23 -13q-2 -86 -6 -333.5t-6 -536.5l-127 -18z" />
<glyph unicode="&#xa7;" horiz-adv-x="1048" d="M72 717q0 90 63.5 179t173.5 155q4 76 46 139t109.5 101t145.5 38q80 0 141.5 -30.5t61.5 -69.5q0 -37 -13.5 -91.5t-25.5 -68.5h-29q-29 70 -88 115t-120 45q-49 0 -82 -36t-33 -91q0 -80 63.5 -143.5t190.5 -151.5q98 -70 157.5 -120t101.5 -115.5t42 -145.5 q0 -102 -67.5 -201.5t-172.5 -152.5q-4 -63 -50 -130t-123 -112t-167 -45q-102 0 -170.5 47t-68.5 117q0 45 10 101t20 73h31q20 -109 86 -175.5t156 -66.5q66 0 111.5 43t45.5 105q0 78 -60 141t-183 147q-98 72 -158.5 123.5t-102.5 122t-42 154.5zM186 784 q0 -76 61.5 -142.5t190.5 -166.5q125 -94 197 -166.5t94 -158.5q129 77 129 204q0 72 -60.5 135.5t-191.5 165.5q-127 96 -198.5 168t-92.5 156q-70 -41 -99.5 -87t-29.5 -108z" />
<glyph unicode="&#xa8;" horiz-adv-x="815" d="M143 1247q0 43 30 73t73 30q39 0 61.5 -26t22.5 -62q0 -43 -30 -73t-73 -30q-39 0 -61.5 26.5t-22.5 61.5zM483 1247q0 43 30 73t73 30q39 0 61.5 -26t22.5 -62q0 -43 -30 -73t-73 -30q-39 0 -61.5 26.5t-22.5 61.5z" />
<glyph unicode="&#xa9;" horiz-adv-x="1419" d="M86 600q0 170 83 313.5t226.5 227.5t313.5 84t313 -84t227 -227.5t84 -313.5t-84 -313.5t-227 -227.5t-313 -84t-313.5 84t-226.5 227.5t-83 313.5zM172 600q0 -147 71.5 -272t195.5 -198t270 -73q145 0 269 73t196.5 198t72.5 272t-72.5 272t-196.5 198t-269 73 t-269.5 -73t-196 -197.5t-71.5 -272.5zM387 588q0 102 44 184t125 129t185 47q59 0 120 -10t77 -14l4 -9q-4 -14 -13 -66t-14 -118l-67 -4l2 49q0 90 -131 90q-92 0 -144.5 -62.5t-52.5 -180.5q0 -131 50.5 -206t150.5 -75q70 0 107.5 37t54.5 117l65 4q-4 -16 -14 -72.5 t-12 -105.5l-9 -15q-8 -4 -36.5 -13t-77.5 -17.5t-107 -8.5q-149 0 -228 90.5t-79 229.5z" />
<glyph unicode="&#xaa;" horiz-adv-x="657" d="M61 885q0 39 20.5 68.5t53.5 37.5l250 62l2 41q0 59 -29.5 92t-83.5 33q-37 0 -71.5 -13.5t-56 -29t-27.5 -19.5l-10 4l-19 68q12 8 56 30.5t94.5 44t76.5 21.5q100 0 151.5 -47t51.5 -125q0 -31 -10 -117q-14 -139 -14 -162q0 -27 13 -41t36 -14t44 11.5t27 15.5l19 -25 q-4 -8 -21.5 -32.5t-44 -51t-55.5 -35.5q-115 0 -125 103l-8 2q-102 -98 -145 -98q-74 0 -124.5 50t-50.5 126zM193 899q0 -35 23.5 -58.5t57.5 -23.5q20 0 50 13.5t55 33.5l4 127l-156 -45q-34 -10 -34 -47z" />
<glyph unicode="&#xab;" horiz-adv-x="874" d="M41 434v31q33 31 143.5 140.5t208.5 213.5l45 -31l2 -20l-219 -305l219 -318l-2 -20l-45 -31q-96 100 -207.5 204.5t-144.5 135.5zM381 434v31q33 31 143.5 140.5t208.5 213.5l45 -31l2 -20l-219 -305l219 -318l-2 -20l-45 -31q-96 100 -207.5 204.5t-144.5 135.5z" />
<glyph unicode="&#xac;" horiz-adv-x="1036" d="M37 498l22 100l490 -2q102 0 222 5t155 7l12 -20q-2 -23 -8 -94.5t-8 -131.5q0 -104 1 -180t1 -98l-101 -23l-18 13l2 409l-289 -2l-469 -2z" />
<glyph unicode="&#xad;" horiz-adv-x="663" d="M74 446l12 107l356 41q61 6 93 11t40 7l15 -18l-10 -111l-492 -53z" />
<glyph unicode="&#xae;" horiz-adv-x="958" d="M61 1038q0 115 56.5 210t152 151.5t209.5 56.5q115 0 210 -56.5t151.5 -151.5t56.5 -210t-56.5 -210t-151.5 -151t-210 -56t-210 56t-151.5 151.5t-56.5 209.5zM133 1038q0 -94 47 -173t126 -126t173 -47t173 47t126 126t47 173t-47 173t-126 126t-173 47t-173 -47 t-126 -125.5t-47 -173.5zM287 842l4 43q35 2 43 16t8 62v227q0 23 -5 30t-20 7h-22l-4 8l6 35l88 -2h23l63 4q78 0 122 -30t44 -83q0 -49 -26.5 -78.5t-71.5 -50.5l59 -88q43 -66 84 -65l6 -9q0 -25 -16.5 -29.5t-63.5 -4.5q-41 0 -76 65l-59 113h-51q-2 -29 -2 -68t7 -48 t42 -9l4 -8l-4 -35l-66 2h-24q-31 0 -57.5 -2t-34.5 -2zM424 1065q-2 0 59 -6q63 25 64 86q0 78 -107 78q-8 0 -10 -3t-2 -14q-4 -94 -4 -141z" />
<glyph unicode="&#xaf;" horiz-adv-x="815" d="M102 1235l21 92l315 -2q63 0 150.5 5t113.5 7l13 -20l-15 -96l-290 -2l-295 -2z" />
<glyph unicode="&#xb0;" horiz-adv-x="618" d="M51 1071q0 109 76 183.5t182 74.5q109 0 183.5 -74.5t74.5 -183.5q0 -106 -74.5 -182t-183.5 -76q-106 0 -182 76t-76 182zM137 1071q0 -70 51.5 -121t120.5 -51q72 0 122 51t50 121q0 72 -50 122t-122 50q-70 0 -121 -50t-51 -122z" />
<glyph unicode="&#xb1;" horiz-adv-x="1036" d="M37 -135l22 100l490 -2q145 0 280 6q158 4 158 6l12 -20l-16 -105l-729 -2q-100 -2 -205 -2zM37 524l22 101l396 -2l2 391l104 16l21 -12q-2 -39 -7.5 -166t-5.5 -229q102 0 238.5 5t179.5 7l12 -21l-16 -104l-414 -2l2 -377l-100 -22l-18 12l2 387l-406 -2z" />
<glyph unicode="&#xb4;" horiz-adv-x="815" d="M264 1110q92 100 186.5 211t120.5 143l21 -4l78 -84l-2 -22q-31 -23 -134.5 -107t-209.5 -180l-19 4z" />
<glyph unicode="&#xb6;" horiz-adv-x="1148" d="M86 911q0 111 53.5 203t151.5 145.5t227 53.5q70 0 172 -4l92 -4q74 0 151 3t105 3l-12 -86l-4 -8q-92 4 -126 -15.5t-38 -77.5q-12 -78 -17 -344t-5 -465q0 -184 -29 -296.5t-110 -173t-236 -60.5q-115 0 -195 49t-80 143q0 41 23.5 93.5t54.5 89.5h31q0 -135 53 -207 t144 -72q86 0 130 38t60 121t16 234v910q-2 20 -9 24t-46 4q-100 0 -150.5 -81.5t-50.5 -219.5q0 -145 33 -244.5t109 -201.5v-31q-215 18 -356.5 138t-141.5 339z" />
<glyph unicode="&#xb7;" horiz-adv-x="487" d="M123 461q0 53 35 90t92 37q55 0 86 -34t31 -83q0 -53 -36 -90t-93 -37q-56 0 -85.5 34t-29.5 83z" />
<glyph unicode="&#xb8;" horiz-adv-x="815" d="M203 -403q0 33 51 114h18q2 -55 33 -86t80 -31q41 0 69.5 22t28.5 56q0 33 -47 71t-127 83l68 221h88l-51 -149q14 -10 64 -44t80 -69t30 -70q0 -51 -37 -95t-94.5 -70.5t-114.5 -26.5q-51 0 -95 20.5t-44 53.5z" />
<glyph unicode="&#xba;" horiz-adv-x="692" d="M57 995q0 94 40 169t112 118t160 43q121 0 193.5 -80t72.5 -213q0 -143 -87 -236.5t-222 -93.5q-121 0 -195 81t-74 212zM201 1038q0 -119 42 -185.5t113 -66.5q64 0 98.5 50.5t34.5 142.5q0 119 -41.5 185.5t-113.5 66.5q-63 0 -98 -50.5t-35 -142.5z" />
<glyph unicode="&#xbb;" horiz-adv-x="874" d="M94 145l219 306l-219 317l2 20l45 31q96 -100 208 -204.5t145 -135.5v-30q-33 -31 -144.5 -140.5t-208.5 -214.5l-45 31zM434 145l219 306l-219 317l2 20l45 31q96 -100 208 -204.5t145 -135.5v-30q-33 -31 -144.5 -140.5t-208.5 -214.5l-45 31z" />
<glyph unicode="&#xbc;" horiz-adv-x="1341" d="M55 1208l6 66q109 14 152 20q172 25 160 25l10 -31q-25 -20 -35 -41.5t-14 -62.5q-6 -109 -9 -242t-3 -235q0 -49 13 -69t48 -20q23 0 41 2.5t25 2.5l4 -7l-15 -73q-18 0 -71.5 2t-108.5 2q-47 0 -107.5 -6t-78.5 -9l8 72q63 4 90 26.5t27 78.5v428q0 45 -15.5 58 t-52.5 13q-23 0 -42 -2t-26 -4zM78 -131q45 68 174 266.5t276 427.5l525 826l80 -39l10 -29q-60 -88 -242 -363.5t-295 -455.5q-145 -233 -271 -431t-169 -266l-78 39zM725 219l5 70l352 481l6 2l80 -12v-449h112l11 -14l-13 -90l-110 4q2 -72 4 -127t4 -72l-8 -12l-125 -14 l-10 12q2 20 5 88t3 127zM844 311h197v256h-12z" />
<glyph unicode="&#xbd;" horiz-adv-x="1398" d="M55 1208l6 66q109 14 152 20q172 25 160 25l10 -31q-25 -20 -35 -41.5t-14 -62.5q-6 -109 -9 -242t-3 -235q0 -49 13 -69t48 -20q23 0 41 2.5t25 2.5l4 -7l-15 -73q-18 0 -71.5 2t-108.5 2q-47 0 -107.5 -6t-78.5 -9l8 72q63 4 90 26.5t27 78.5v428q0 45 -15.5 58 t-52.5 13q-23 0 -42 -2t-26 -4zM78 -131q45 68 174 266.5t276 427.5l525 826l80 -39l10 -29q-60 -88 -242 -363.5t-295 -455.5q-145 -233 -271 -431t-169 -266l-78 39zM774 37l141 158q195 237 195 360q0 96 -104 96q-113 0 -189 -127h-14l-21 84q41 70 115 117t145 47 q100 0 161 -48t61 -126t-65.5 -185.5t-229.5 -297.5l6 -11h168q66 0 92.5 23t42.5 94l78 8q-4 -20 -18.5 -91.5t-20.5 -135.5l-19 -12q-49 2 -179 6t-247 4l-86 -14z" />
<glyph unicode="&#xbe;" horiz-adv-x="1431" d="M63 647l13 15q55 -17 108 -17q84 0 140.5 38t56.5 93q0 63 -51 93t-162 30l-10 10l-8 66l86 18q49 23 78.5 60t29.5 75q0 39 -24.5 61.5t-65.5 22.5q-35 0 -75 -15t-73 -42h-14l-20 76q29 23 99.5 55.5t131.5 32.5q80 0 131 -43t51 -111q0 -53 -38.5 -101t-104.5 -79v-10 q178 -49 178 -180q0 -61 -53 -123t-138 -102t-169 -40q-51 0 -72.5 27t-24.5 90zM168 -131q45 68 174 266.5t276 427.5l525 826l80 -39l10 -29q-60 -88 -242 -363.5t-295 -455.5q-145 -233 -271 -431t-169 -266l-78 39zM815 219l5 70l352 481l6 2l80 -12v-449h112l11 -14 l-13 -90l-110 4q2 -72 4 -127t4 -72l-8 -12l-125 -14l-10 12q2 20 5 88t3 127zM934 311h197v256h-12z" />
<glyph unicode="&#xbf;" horiz-adv-x="737" d="M63 -158q0 88 35 151.5t85 105.5t136 98q57 37 84 57l7 18l-43 195l6 16l125 35l18 -8l49 -246l-6 -28l-244 -156q-117 -80 -116 -176q0 -121 110.5 -185.5t304.5 -74.5l4 -23l-67 -108l-29 -9q-125 4 -230.5 49.5t-167 121t-61.5 167.5zM315 823q0 53 36 90t93 37 q56 0 85.5 -33.5t29.5 -82.5q0 -53 -35 -90t-92 -37q-55 0 -86 33.5t-31 82.5z" />
<glyph unicode="&#xc0;" horiz-adv-x="1183" d="M-37 -6l17 96q57 6 91.5 40t67.5 118l400 1046l129 35h16q12 -49 62.5 -227t123 -422t140.5 -449q24 -75 65 -106t131 -39l4 -8l-14 -84q-25 0 -89.5 3t-127.5 3q-98 0 -189.5 -8t-115.5 -12l-6 14l8 80q104 8 143 24.5t39 53.5q0 41 -18 98l-68 223q-49 2 -213 2 q-98 0 -223 -16l-76 -213q-18 -55 -18 -80q0 -45 28.5 -64.5t94.5 -19.5h116l4 -8l-12 -88q-25 2 -113 8t-172 6q-76 0 -140 -2t-85 -4zM290 1612l33 98l19 12q37 -20 161.5 -89.5t245.5 -133.5l-12 -49l-17 -10q-135 51 -261 95t-160 56zM373 559h180q71 0 190 10l-161 537 h-15z" />
<glyph unicode="&#xc1;" horiz-adv-x="1183" d="M-37 -6l17 96q57 6 91.5 40t67.5 118l400 1046l129 35h16q12 -49 62.5 -227t123 -422t140.5 -449q24 -75 65 -106t131 -39l4 -8l-14 -84q-25 0 -89.5 3t-127.5 3q-98 0 -189.5 -8t-115.5 -12l-6 14l8 80q104 8 143 24.5t39 53.5q0 41 -18 98l-68 223q-49 2 -213 2 q-98 0 -223 -16l-76 -213q-18 -55 -18 -80q0 -45 28.5 -64.5t94.5 -19.5h116l4 -8l-12 -88q-25 2 -113 8t-172 6q-76 0 -140 -2t-85 -4zM373 559h180q71 0 190 10l-161 537h-15zM473 1499q121 63 246 133t162 90l18 -12l33 -98l-8 -21q-35 -12 -161 -56t-261 -95l-17 10z " />
<glyph unicode="&#xc2;" horiz-adv-x="1183" d="M-37 -6l17 96q57 6 91.5 40t67.5 118l400 1046l129 35h16q12 -49 62.5 -227t123 -422t140.5 -449q24 -75 65 -106t131 -39l4 -8l-14 -84q-25 0 -89.5 3t-127.5 3q-98 0 -189.5 -8t-115.5 -12l-6 14l8 80q104 8 143 24.5t39 53.5q0 41 -18 98l-68 223q-49 2 -213 2 q-98 0 -223 -16l-76 -213q-18 -55 -18 -80q0 -45 28.5 -64.5t94.5 -19.5h116l4 -8l-12 -88q-25 2 -113 8t-172 6q-76 0 -140 -2t-85 -4zM308 1505q84 64 171 134.5t111 93.5h29q25 -23 112 -93.5t171 -134.5l-29 -45l-19 -2q-137 80 -249 133q-106 -49 -250 -133l-19 2z M373 559h180q71 0 190 10l-161 537h-15z" />
<glyph unicode="&#xc3;" horiz-adv-x="1183" d="M-37 -6l17 96q57 6 91.5 40t67.5 118l400 1046l129 35h16q12 -49 62.5 -227t123 -422t140.5 -449q24 -75 65 -106t131 -39l4 -8l-14 -84q-25 0 -89.5 3t-127.5 3q-98 0 -189.5 -8t-115.5 -12l-6 14l8 80q104 8 143 24.5t39 53.5q0 41 -18 98l-68 223q-49 2 -213 2 q-98 0 -223 -16l-76 -213q-18 -55 -18 -80q0 -45 28.5 -64.5t94.5 -19.5h116l4 -8l-12 -88q-25 2 -113 8t-172 6q-76 0 -140 -2t-85 -4zM271 1475v10l155 162l33 8q37 0 160 -37q18 -4 68.5 -17.5t70.5 -13.5t49 20.5t51.5 43l28.5 28.5h12l45 -43v-10l-155 -162l-33 -8 q-37 0 -160 37q-18 4 -68 17.5t-71 13.5q-23 0 -51.5 -20.5t-50 -43t-27.5 -28.5h-12zM373 559h180q71 0 190 10l-161 537h-15z" />
<glyph unicode="&#xc4;" horiz-adv-x="1183" d="M-37 -6l17 96q57 6 91.5 40t67.5 118l400 1046l129 35h16q12 -49 62.5 -227t123 -422t140.5 -449q24 -75 65 -106t131 -39l4 -8l-14 -84q-25 0 -89.5 3t-127.5 3q-98 0 -189.5 -8t-115.5 -12l-6 14l8 80q104 8 143 24.5t39 53.5q0 41 -18 98l-68 223q-49 2 -213 2 q-98 0 -223 -16l-76 -213q-18 -55 -18 -80q0 -45 28.5 -64.5t94.5 -19.5h116l4 -8l-12 -88q-25 2 -113 8t-172 6q-76 0 -140 -2t-85 -4zM340 1573q0 43 30 72.5t73 29.5q39 0 61.5 -25.5t22.5 -62.5q0 -43 -30 -72.5t-73 -29.5q-39 0 -61.5 26.5t-22.5 61.5zM373 559h180 q71 0 190 10l-161 537h-15zM680 1573q0 43 30 72.5t73 29.5q39 0 61.5 -25.5t22.5 -62.5q0 -43 -30 -72.5t-73 -29.5q-39 0 -61.5 26.5t-22.5 61.5z" />
<glyph unicode="&#xc5;" horiz-adv-x="1183" d="M-37 -6l17 96q57 6 91.5 40t67.5 118l400 1046l129 35h16q12 -49 62.5 -227t123 -422t140.5 -449q24 -75 65 -106t131 -39l4 -8l-14 -84q-25 0 -89.5 3t-127.5 3q-98 0 -189.5 -8t-115.5 -12l-6 14l8 80q104 8 143 24.5t39 53.5q0 41 -18 98l-68 223q-49 2 -213 2 q-98 0 -223 -16l-76 -213q-18 -55 -18 -80q0 -45 28.5 -64.5t94.5 -19.5h116l4 -8l-12 -88q-25 2 -113 8t-172 6q-76 0 -140 -2t-85 -4zM373 559h180q71 0 190 10l-161 537h-15zM439 1544q0 76 47 124t125 48q80 0 118.5 -45t38.5 -110q0 -74 -47 -127.5t-127 -53.5 q-73 0 -114 45t-41 119zM504 1556q0 -49 33 -73.5t72 -24.5q90 0 90 80q0 45 -28 71.5t-77 26.5q-43 0 -66.5 -21.5t-23.5 -58.5z" />
<glyph unicode="&#xc6;" horiz-adv-x="1658" d="M-20 63q6 6 25.5 30t48 65t55.5 90l505 936q-8 33 -51 33q-20 0 -40.5 -2.5t-28.5 -2.5l-5 9l15 90h47q166 -6 278 -6q246 0 382.5 5t228.5 19l6 -12q-2 -12 -11.5 -58.5t-19.5 -122t-16 -159.5l-99 -8q0 10 2.5 35.5t2.5 52.5q0 72 -19.5 99.5t-83 36.5t-219.5 9 q-68 0 -95.5 -4t-36.5 -16.5t-11 -42.5l63 -467l242 22l188 27l8 -10l-26 -109l-176 -6l-224 -18l58 -347q12 -78 50 -108.5t122 -30.5q158 0 225.5 16.5t95 65.5t43.5 168l90 10l7 -10q-6 -29 -24.5 -132.5t-31.5 -211.5l-10 -12l-102 2q-233 12 -449 12h-69 q-98 0 -188.5 -8t-115.5 -12l-4 14l4 80q84 6 125 16t57.5 29.5t16.5 58.5q0 37 -6 79l-8 56l-37 252l-203 -16l-186 -21l-146 -282q-33 -63 -32 -94q0 -70 112 -70h117l-10 -96q-27 2 -114 8t-169 6q-41 0 -82 -3t-57 -5zM430 635l172 10l150 12l-62 447h-18z" />
<glyph unicode="&#xc7;" horiz-adv-x="1288" d="M82 608q0 205 92 370t255 258t368 93q76 0 154.5 -11t133 -22.5t68.5 -15.5l8 -12q-4 -12 -13 -59.5t-20.5 -123t-17.5 -159.5l-98 -8q2 10 4 37.5t2 62.5q0 190 -301 190q-135 0 -237.5 -65.5t-158 -185t-55.5 -281.5q0 -178 58.5 -313.5t165 -210t245.5 -74.5t224 79 t124 244l99 9q-6 -31 -26.5 -136.5t-29.5 -197.5l-12 -19q-12 -6 -61 -23.5t-131 -34.5t-181 -22l-26 -79q14 -10 64 -44t80 -69t30 -70q0 -51 -37 -95t-94.5 -70.5t-114.5 -26.5q-51 0 -95 20.5t-44 53.5t51 114h18q2 -55 33 -86t80 -31q41 0 69.5 22t28.5 56q0 33 -47 71 t-127 83l45 149q-174 8 -303 88t-199.5 220.5t-70.5 324.5z" />
<glyph unicode="&#xc8;" horiz-adv-x="1210" d="M119 -20l12 94q92 12 126 48t34 124l2 860q0 66 -15.5 88.5t-60.5 22.5q-20 0 -40.5 -2.5t-29.5 -2.5l-4 9l15 90q27 -2 107.5 -4t176.5 -2q244 0 379 5t236 19l6 -12q-2 -12 -11.5 -58.5t-19.5 -122t-16 -159.5l-98 -8q0 10 2 35.5t2 52.5q0 72 -18.5 99.5t-80 36.5 t-215.5 9q-72 0 -98.5 -4t-34.5 -19.5t-10 -56.5l-16 -397l210 -2q47 0 134.5 9t115.5 13l9 -10l-29 -121q-29 2 -112 4.5t-175 2.5q-76 0 -158 -15q-8 -295 -8 -391q0 -59 10.5 -82.5t42 -32t109.5 -8.5q172 0 244.5 16.5t103.5 65.5t47 168l90 10l7 -10 q-6 -29 -24.5 -132.5t-31.5 -211.5l-10 -12q-70 2 -285 8t-336 6q-96 0 -179 -8t-105 -12zM321 1612l33 98l19 12q37 -20 161.5 -89.5t245.5 -133.5l-12 -49l-17 -10q-135 51 -261 95t-160 56z" />
<glyph unicode="&#xc9;" horiz-adv-x="1210" d="M119 -20l12 94q92 12 126 48t34 124l2 860q0 66 -15.5 88.5t-60.5 22.5q-20 0 -40.5 -2.5t-29.5 -2.5l-4 9l15 90q27 -2 107.5 -4t176.5 -2q244 0 379 5t236 19l6 -12q-2 -12 -11.5 -58.5t-19.5 -122t-16 -159.5l-98 -8q0 10 2 35.5t2 52.5q0 72 -18.5 99.5t-80 36.5 t-215.5 9q-72 0 -98.5 -4t-34.5 -19.5t-10 -56.5l-16 -397l210 -2q47 0 134.5 9t115.5 13l9 -10l-29 -121q-29 2 -112 4.5t-175 2.5q-76 0 -158 -15q-8 -295 -8 -391q0 -59 10.5 -82.5t42 -32t109.5 -8.5q172 0 244.5 16.5t103.5 65.5t47 168l90 10l7 -10 q-6 -29 -24.5 -132.5t-31.5 -211.5l-10 -12q-70 2 -285 8t-336 6q-96 0 -179 -8t-105 -12zM504 1499q121 63 246 133t162 90l18 -12l33 -98l-8 -21q-35 -12 -161 -56t-261 -95l-17 10z" />
<glyph unicode="&#xca;" horiz-adv-x="1210" d="M119 -20l12 94q92 12 126 48t34 124l2 860q0 66 -15.5 88.5t-60.5 22.5q-20 0 -40.5 -2.5t-29.5 -2.5l-4 9l15 90q27 -2 107.5 -4t176.5 -2q244 0 379 5t236 19l6 -12q-2 -12 -11.5 -58.5t-19.5 -122t-16 -159.5l-98 -8q0 10 2 35.5t2 52.5q0 72 -18.5 99.5t-80 36.5 t-215.5 9q-72 0 -98.5 -4t-34.5 -19.5t-10 -56.5l-16 -397l210 -2q47 0 134.5 9t115.5 13l9 -10l-29 -121q-29 2 -112 4.5t-175 2.5q-76 0 -158 -15q-8 -295 -8 -391q0 -59 10.5 -82.5t42 -32t109.5 -8.5q172 0 244.5 16.5t103.5 65.5t47 168l90 10l7 -10 q-6 -29 -24.5 -132.5t-31.5 -211.5l-10 -12q-70 2 -285 8t-336 6q-96 0 -179 -8t-105 -12zM338 1505q84 64 171 134.5t111 93.5h29q25 -23 112 -93.5t171 -134.5l-29 -45l-19 -2q-137 80 -249 133q-106 -49 -250 -133l-19 2z" />
<glyph unicode="&#xcb;" horiz-adv-x="1210" d="M119 -20l12 94q92 12 126 48t34 124l2 860q0 66 -15.5 88.5t-60.5 22.5q-20 0 -40.5 -2.5t-29.5 -2.5l-4 9l15 90q27 -2 107.5 -4t176.5 -2q244 0 379 5t236 19l6 -12q-2 -12 -11.5 -58.5t-19.5 -122t-16 -159.5l-98 -8q0 10 2 35.5t2 52.5q0 72 -18.5 99.5t-80 36.5 t-215.5 9q-72 0 -98.5 -4t-34.5 -19.5t-10 -56.5l-16 -397l210 -2q47 0 134.5 9t115.5 13l9 -10l-29 -121q-29 2 -112 4.5t-175 2.5q-76 0 -158 -15q-8 -295 -8 -391q0 -59 10.5 -82.5t42 -32t109.5 -8.5q172 0 244.5 16.5t103.5 65.5t47 168l90 10l7 -10 q-6 -29 -24.5 -132.5t-31.5 -211.5l-10 -12q-70 2 -285 8t-336 6q-96 0 -179 -8t-105 -12zM370 1573q0 43 30 72.5t73 29.5q39 0 61.5 -25.5t22.5 -62.5q0 -43 -30 -72.5t-73 -29.5q-39 0 -61.5 26.5t-22.5 61.5zM710 1573q0 43 30 72.5t73 29.5q39 0 61.5 -25.5t22.5 -62.5 q0 -43 -30 -72.5t-73 -29.5q-39 0 -61.5 26.5t-22.5 61.5z" />
<glyph unicode="&#xcc;" horiz-adv-x="739" d="M63 1612l33 98l19 12q37 -20 161.5 -89.5t245.5 -133.5l-12 -49l-17 -10q-135 51 -261 95t-160 56zM115 -25l12 95q96 18 130 54t34 122l2 860q0 66 -15.5 88.5t-60.5 22.5q-27 0 -52.5 -2.5t-33.5 -2.5l-4 9l14 90q27 -2 98.5 -4t145.5 -2q59 0 136 7t100 11l-9 -92 q-86 -10 -114.5 -33.5t-32.5 -83.5q-12 -240 -20.5 -501t-8.5 -384q0 -84 18.5 -111.5t71.5 -27.5q37 0 68 2t41 4l4 -8l-18 -94q-29 2 -108 4t-161 2q-66 0 -140.5 -10t-96.5 -15z" />
<glyph unicode="&#xcd;" horiz-adv-x="739" d="M115 -25l12 95q96 18 130 54t34 122l2 860q0 66 -15.5 88.5t-60.5 22.5q-27 0 -52.5 -2.5t-33.5 -2.5l-4 9l14 90q27 -2 98.5 -4t145.5 -2q59 0 136 7t100 11l-9 -92q-86 -10 -114.5 -33.5t-32.5 -83.5q-12 -240 -20.5 -501t-8.5 -384q0 -84 18.5 -111.5t71.5 -27.5 q37 0 68 2t41 4l4 -8l-18 -94q-29 2 -108 4t-161 2q-66 0 -140.5 -10t-96.5 -15zM246 1499q121 63 246 133t162 90l18 -12l33 -98l-8 -21q-35 -12 -161 -56t-261 -95l-17 10z" />
<glyph unicode="&#xce;" horiz-adv-x="739" d="M80 1505q84 64 171 134.5t111 93.5h29q25 -23 112 -93.5t171 -134.5l-29 -45l-19 -2q-137 80 -249 133q-106 -49 -250 -133l-19 2zM115 -25l12 95q96 18 130 54t34 122l2 860q0 66 -15.5 88.5t-60.5 22.5q-27 0 -52.5 -2.5t-33.5 -2.5l-4 9l14 90q27 -2 98.5 -4t145.5 -2 q59 0 136 7t100 11l-9 -92q-86 -10 -114.5 -33.5t-32.5 -83.5q-12 -240 -20.5 -501t-8.5 -384q0 -84 18.5 -111.5t71.5 -27.5q37 0 68 2t41 4l4 -8l-18 -94q-29 2 -108 4t-161 2q-66 0 -140.5 -10t-96.5 -15z" />
<glyph unicode="&#xcf;" horiz-adv-x="739" d="M112 1573q0 43 30 72.5t73 29.5q39 0 61.5 -25.5t22.5 -62.5q0 -43 -30 -72.5t-73 -29.5q-39 0 -61.5 26.5t-22.5 61.5zM115 -25l12 95q96 18 130 54t34 122l2 860q0 66 -15.5 88.5t-60.5 22.5q-27 0 -52.5 -2.5t-33.5 -2.5l-4 9l14 90q27 -2 98.5 -4t145.5 -2 q59 0 136 7t100 11l-9 -92q-86 -10 -114.5 -33.5t-32.5 -83.5q-12 -240 -20.5 -501t-8.5 -384q0 -84 18.5 -111.5t71.5 -27.5q37 0 68 2t41 4l4 -8l-18 -94q-29 2 -108 4t-161 2q-66 0 -140.5 -10t-96.5 -15zM452 1573q0 43 30 72.5t73 29.5q39 0 61.5 -25.5t22.5 -62.5 q0 -43 -30 -72.5t-73 -29.5q-39 0 -61.5 26.5t-22.5 61.5z" />
<glyph unicode="&#xd0;" horiz-adv-x="1460" d="M18 637l15 65h272l2 404q0 66 -15.5 88.5t-60.5 22.5q-20 0 -40.5 -2.5t-28.5 -2.5l-4 9l14 90q23 -2 86.5 -4t128.5 -2q88 0 182.5 3t128.5 5q195 0 348.5 -79t239.5 -218t86 -316q0 -201 -94 -366.5t-256 -262t-358 -96.5q-31 5 -130.5 15t-164.5 10q-63 0 -138 -10 t-98 -15l12 95q76 14 108 34.5t42 66.5t10 151v301h-272zM453 268q0 -76 22.5 -115.5t76.5 -56t159 -16.5q221 0 348 152.5t127 418.5q0 270 -163 415.5t-466 145.5q-43 0 -57.5 -9t-16.5 -36l-18 -465h348l10 -14l-12 -65h-348z" />
<glyph unicode="&#xd1;" horiz-adv-x="1472" d="M111 1239l16 76q18 -2 79.5 -6t96.5 -4q43 0 84 3t53 5q152 -236 304.5 -461t255 -370.5t128.5 -184.5h11v829q0 88 -68 88l-78 -2l-4 9l19 92q20 -2 77.5 -5t116.5 -3q53 0 117.5 7t85.5 9l-10 -94q-72 -10 -105 -40t-35 -89l-28 -1151l-60 -29q-178 276 -347 527 t-277.5 406t-136.5 196h-11l-10 -875q0 -45 14.5 -63.5t49.5 -18.5l104 2l4 -8l-18 -92q-23 2 -92.5 5t-124.5 3q-51 0 -111.5 -7t-79.5 -9l10 94q63 8 94 37.5t33 91.5l27 895q0 63 -38 90t-140 37zM426 1475v10l155 162l33 8q37 0 160 -37q18 -4 68.5 -17.5t70.5 -13.5 t49 20.5t51.5 43l28.5 28.5h12l45 -43v-10l-155 -162l-33 -8q-37 0 -160 37q-18 4 -68 17.5t-71 13.5q-23 0 -51.5 -20.5t-50 -43t-27.5 -28.5h-12z" />
<glyph unicode="&#xd2;" horiz-adv-x="1417" d="M82 608q0 201 89 366t243.5 260t341.5 95q170 0 301 -80t204.5 -223t73.5 -328q0 -201 -91 -366.5t-247.5 -261t-347.5 -95.5q-166 0 -295 80t-200.5 224.5t-71.5 328.5zM258 674q0 -174 57.5 -308.5t161 -210t236.5 -75.5q129 0 229 67.5t155.5 188.5t55.5 276 q0 174 -59.5 308.5t-165 210t-242.5 75.5q-125 0 -222 -67.5t-151.5 -188.5t-54.5 -276zM387 1612l33 98l19 12q37 -20 161.5 -89.5t245.5 -133.5l-12 -49l-17 -10q-135 51 -261 95t-160 56z" />
<glyph unicode="&#xd3;" horiz-adv-x="1417" d="M82 608q0 201 89 366t243.5 260t341.5 95q170 0 301 -80t204.5 -223t73.5 -328q0 -201 -91 -366.5t-247.5 -261t-347.5 -95.5q-166 0 -295 80t-200.5 224.5t-71.5 328.5zM258 674q0 -174 57.5 -308.5t161 -210t236.5 -75.5q129 0 229 67.5t155.5 188.5t55.5 276 q0 174 -59.5 308.5t-165 210t-242.5 75.5q-125 0 -222 -67.5t-151.5 -188.5t-54.5 -276zM569 1499q121 63 246 133t162 90l18 -12l33 -98l-8 -21q-35 -12 -161 -56t-261 -95l-17 10z" />
<glyph unicode="&#xd4;" horiz-adv-x="1417" d="M82 608q0 201 89 366t243.5 260t341.5 95q170 0 301 -80t204.5 -223t73.5 -328q0 -201 -91 -366.5t-247.5 -261t-347.5 -95.5q-166 0 -295 80t-200.5 224.5t-71.5 328.5zM258 674q0 -174 57.5 -308.5t161 -210t236.5 -75.5q129 0 229 67.5t155.5 188.5t55.5 276 q0 174 -59.5 308.5t-165 210t-242.5 75.5q-125 0 -222 -67.5t-151.5 -188.5t-54.5 -276zM404 1505q84 64 171 134.5t111 93.5h29q25 -23 112 -93.5t171 -134.5l-29 -45l-19 -2q-137 80 -249 133q-106 -49 -250 -133l-19 2z" />
<glyph unicode="&#xd5;" horiz-adv-x="1417" d="M82 608q0 201 89 366t243.5 260t341.5 95q170 0 301 -80t204.5 -223t73.5 -328q0 -201 -91 -366.5t-247.5 -261t-347.5 -95.5q-166 0 -295 80t-200.5 224.5t-71.5 328.5zM258 674q0 -174 57.5 -308.5t161 -210t236.5 -75.5q129 0 229 67.5t155.5 188.5t55.5 276 q0 174 -59.5 308.5t-165 210t-242.5 75.5q-125 0 -222 -67.5t-151.5 -188.5t-54.5 -276zM367 1475v10l155 162l33 8q37 0 160 -37q18 -4 68.5 -17.5t70.5 -13.5t49 20.5t51.5 43l28.5 28.5h12l45 -43v-10l-155 -162l-33 -8q-37 0 -160 37q-18 4 -68 17.5t-71 13.5 q-23 0 -51.5 -20.5t-50 -43t-27.5 -28.5h-12z" />
<glyph unicode="&#xd6;" horiz-adv-x="1417" d="M82 608q0 201 89 366t243.5 260t341.5 95q170 0 301 -80t204.5 -223t73.5 -328q0 -201 -91 -366.5t-247.5 -261t-347.5 -95.5q-166 0 -295 80t-200.5 224.5t-71.5 328.5zM258 674q0 -174 57.5 -308.5t161 -210t236.5 -75.5q129 0 229 67.5t155.5 188.5t55.5 276 q0 174 -59.5 308.5t-165 210t-242.5 75.5q-125 0 -222 -67.5t-151.5 -188.5t-54.5 -276zM436 1573q0 43 30 72.5t73 29.5q39 0 61.5 -25.5t22.5 -62.5q0 -43 -30 -72.5t-73 -29.5q-39 0 -61.5 26.5t-22.5 61.5zM776 1573q0 43 30 72.5t73 29.5q39 0 61.5 -25.5t22.5 -62.5 q0 -43 -30 -72.5t-73 -29.5q-39 0 -61.5 26.5t-22.5 61.5z" />
<glyph unicode="&#xd7;" horiz-adv-x="1036" d="M139 829l4 23l88 53l287 -289q94 96 175 184.5t110 119.5l22 -7l64 -86l-291 -292q74 -74 170 -162t127 -115l-6 -25l-86 -61l-285 283q-100 -100 -180 -182.5t-107 -108.5l-22 6l-55 86q27 27 105.5 103.5t176.5 175.5z" />
<glyph unicode="&#xd8;" horiz-adv-x="1417" d="M82 608q0 201 89 366t243.5 260t341.5 95q119 0 223 -41l86 162l59 -14l6 -25l-83 -156q135 -77 211.5 -222.5t76.5 -334.5q0 -201 -91 -366.5t-247.5 -261t-347.5 -95.5q-137 0 -248 56l-122 -232l-56 13l-4 20l121 231q-121 82 -189.5 223.5t-68.5 321.5zM258 674 q0 -146 41 -264.5t117 -200.5l489 938q-96 59 -219 59q-125 0 -222 -67.5t-151.5 -188.5t-54.5 -276zM471 160q104 -80 242 -80q129 0 229 67.5t155.5 188.5t55.5 276q0 158 -49 285t-137 205z" />
<glyph unicode="&#xd9;" horiz-adv-x="1394" d="M72 1221l14 90q25 -2 93.5 -4t137.5 -2q55 0 125 7t90 11l-8 -92q-76 -10 -101.5 -33.5t-29.5 -83.5l-16 -602q0 -203 88 -311.5t254 -108.5q168 0 256 89t88 257q-2 164 -6 374t-6 294q-4 72 -17.5 91.5t-58.5 19.5q-25 0 -51.5 -2.5t-36.5 -2.5l-4 9l14 90 q25 -2 93.5 -4t137.5 -2q55 0 118 7t81 11l-8 -92q-61 -8 -91 -19.5t-40 -33t-10 -64.5v-688q0 -215 -133.5 -333t-374.5 -118q-215 0 -332 118t-117 335v678q0 66 -15.5 88.5t-60.5 22.5q-20 0 -40.5 -2.5t-28.5 -2.5zM397 1612l33 98l19 12q37 -20 161.5 -89.5 t245.5 -133.5l-12 -49l-17 -10q-135 51 -261 95t-160 56z" />
<glyph unicode="&#xda;" horiz-adv-x="1394" d="M72 1221l14 90q25 -2 93.5 -4t137.5 -2q55 0 125 7t90 11l-8 -92q-76 -10 -101.5 -33.5t-29.5 -83.5l-16 -602q0 -203 88 -311.5t254 -108.5q168 0 256 89t88 257q-2 164 -6 374t-6 294q-4 72 -17.5 91.5t-58.5 19.5q-25 0 -51.5 -2.5t-36.5 -2.5l-4 9l14 90 q25 -2 93.5 -4t137.5 -2q55 0 118 7t81 11l-8 -92q-61 -8 -91 -19.5t-40 -33t-10 -64.5v-688q0 -215 -133.5 -333t-374.5 -118q-215 0 -332 118t-117 335v678q0 66 -15.5 88.5t-60.5 22.5q-20 0 -40.5 -2.5t-28.5 -2.5zM580 1499q121 63 246 133t162 90l18 -12l33 -98 l-8 -21q-35 -12 -161 -56t-261 -95l-17 10z" />
<glyph unicode="&#xdb;" horiz-adv-x="1394" d="M72 1221l14 90q25 -2 93.5 -4t137.5 -2q55 0 125 7t90 11l-8 -92q-76 -10 -101.5 -33.5t-29.5 -83.5l-16 -602q0 -203 88 -311.5t254 -108.5q168 0 256 89t88 257q-2 164 -6 374t-6 294q-4 72 -17.5 91.5t-58.5 19.5q-25 0 -51.5 -2.5t-36.5 -2.5l-4 9l14 90 q25 -2 93.5 -4t137.5 -2q55 0 118 7t81 11l-8 -92q-61 -8 -91 -19.5t-40 -33t-10 -64.5v-688q0 -215 -133.5 -333t-374.5 -118q-215 0 -332 118t-117 335v678q0 66 -15.5 88.5t-60.5 22.5q-20 0 -40.5 -2.5t-28.5 -2.5zM414 1505q84 64 171 134.5t111 93.5h29 q25 -23 112 -93.5t171 -134.5l-29 -45l-19 -2q-137 80 -249 133q-106 -49 -250 -133l-19 2z" />
<glyph unicode="&#xdc;" horiz-adv-x="1394" d="M72 1221l14 90q25 -2 93.5 -4t137.5 -2q55 0 125 7t90 11l-8 -92q-76 -10 -101.5 -33.5t-29.5 -83.5l-16 -602q0 -203 88 -311.5t254 -108.5q168 0 256 89t88 257q-2 164 -6 374t-6 294q-4 72 -17.5 91.5t-58.5 19.5q-25 0 -51.5 -2.5t-36.5 -2.5l-4 9l14 90 q25 -2 93.5 -4t137.5 -2q55 0 118 7t81 11l-8 -92q-61 -8 -91 -19.5t-40 -33t-10 -64.5v-688q0 -215 -133.5 -333t-374.5 -118q-215 0 -332 118t-117 335v678q0 66 -15.5 88.5t-60.5 22.5q-20 0 -40.5 -2.5t-28.5 -2.5zM446 1573q0 43 30 72.5t73 29.5q39 0 61.5 -25.5 t22.5 -62.5q0 -43 -30 -72.5t-73 -29.5q-39 0 -61.5 26.5t-22.5 61.5zM786 1573q0 43 30 72.5t73 29.5q39 0 61.5 -25.5t22.5 -62.5q0 -43 -30 -72.5t-73 -29.5q-39 0 -61.5 26.5t-22.5 61.5z" />
<glyph unicode="&#xdd;" horiz-adv-x="1101" d="M-39 1231l12 80q23 -2 86.5 -4t139.5 -2q72 0 167 7t123 9l7 -14l-7 -72q-92 -8 -123.5 -23.5t-31.5 -50.5q0 -26 51 -145t105.5 -233.5t72.5 -149.5h10l234 434q33 59 33 102q0 53 -129 62l-4 8l12 80q25 -2 102.5 -8t124.5 -6q49 0 109.5 3t79.5 5l8 -15l-13 -75 q-66 -12 -102.5 -34t-64 -62t-80.5 -134q-12 -25 -21 -37l-205 -360q-27 -47 -34 -106.5t-11 -215.5v-45q-2 -80 17.5 -109.5t72.5 -29.5q33 0 62 2t39 4l4 -8l-19 -94q-29 2 -105.5 4t-154.5 2q-63 0 -137 -10t-96 -15l12 95q74 14 106.5 36.5t43 61.5t10.5 123v90 q0 63 -12.5 111.5t-46.5 119.5l-185 375q-53 109 -75.5 146.5t-63.5 60.5t-119 29zM453 1499q121 63 246 133t162 90l18 -12l33 -98l-8 -21q-35 -12 -161 -56t-261 -95l-17 10z" />
<glyph unicode="&#xde;" horiz-adv-x="1112" d="M115 -25l12 95q96 18 130 54t34 122l2 860q0 66 -15.5 88.5t-60.5 22.5q-27 0 -52.5 -2.5t-33.5 -2.5l-4 9l14 90q27 -2 98.5 -4t145.5 -2q59 0 136 7t100 11l-9 -92q-86 -10 -114.5 -33.5t-32.5 -83.5l-2 -41q-4 -33 -2 -43h168q211 0 324.5 -86t113.5 -248 q0 -102 -67.5 -193t-179 -145.5t-238.5 -54.5h-146v-74q0 -84 18.5 -111.5t71.5 -27.5q37 0 68 2t41 4l4 -8l-18 -94q-29 2 -108 4t-161 2q-66 0 -140.5 -10t-96.5 -15zM438 428q37 -12 100.5 -22.5t108.5 -12.5q123 14 185.5 82t62.5 182q0 141 -92 207t-293 66 q-35 0 -43 -3t-12 -14q-13 -286 -17 -485z" />
<glyph unicode="&#xdf;" horiz-adv-x="1210" d="M84 842l14 69l123 23q0 276 125 431t348 155q80 0 152 -36t116 -93.5t44 -120.5q0 -84 -37 -142.5t-111 -134.5q-55 -55 -82.5 -94t-27.5 -86q0 -53 46 -95t140 -100q82 -51 133 -91t88 -97t37 -129q0 -86 -50 -160.5t-134 -120t-181 -45.5q-100 0 -168.5 32t-68.5 77 q0 29 26.5 87t51.5 89h28q0 -92 51.5 -143t143.5 -51q61 0 108.5 52t47.5 118q0 68 -50.5 116.5t-152.5 112.5q-82 53 -130 92t-83 93.5t-35 123.5q0 68 37 120t108 120q59 57 91 99t32 91q0 90 -70.5 142.5t-189.5 52.5q-117 0 -173 -92.5t-58 -286.5l-13 -819 q-2 -53 19.5 -83t60.5 -30q41 0 65.5 1t31.5 1l4 -8l-15 -86q-23 0 -84 2t-118 2q-72 0 -140.5 -3t-89.5 -5l10 80q72 8 94.5 39.5t22.5 109.5v524q-2 45 -29.5 62.5t-99.5 21.5z" />
<glyph unicode="&#xe0;" horiz-adv-x="954" d="M84 238q0 59 29.5 104t79.5 59l387 107l4 90q0 102 -47.5 159.5t-133.5 57.5q-57 0 -126.5 -28.5t-118.5 -73.5l-11 6l-24 88q104 61 199.5 102t134.5 41q133 0 208.5 -69.5t75.5 -194.5q0 -45 -14 -184q-23 -225 -22 -287q0 -45 22.5 -69.5t60.5 -24.5q29 0 63 14.5 t60 36.5l29 -33q-33 -57 -83 -103t-95 -61q-166 0 -182 166l-9 2q-74 -74 -134 -116.5t-91 -42.5q-115 0 -188.5 71.5t-73.5 182.5zM188 1374l78 84l21 4q27 -33 121 -142.5t186 -209.5l-41 -39l-18 -4q-109 98 -211.5 180t-133.5 105zM240 260q0 -59 39.5 -98t101.5 -39 q39 0 91 27.5t95 70.5l8 209l-276 -84q-59 -18 -59 -86z" />
<glyph unicode="&#xe1;" horiz-adv-x="954" d="M84 238q0 59 29.5 104t79.5 59l387 107l4 90q0 102 -47.5 159.5t-133.5 57.5q-57 0 -126.5 -28.5t-118.5 -73.5l-11 6l-24 88q104 61 199.5 102t134.5 41q133 0 208.5 -69.5t75.5 -194.5q0 -45 -14 -184q-23 -225 -22 -287q0 -45 22.5 -69.5t60.5 -24.5q29 0 63 14.5 t60 36.5l29 -33q-33 -57 -83 -103t-95 -61q-166 0 -182 166l-9 2q-74 -74 -134 -116.5t-91 -42.5q-115 0 -188.5 71.5t-73.5 182.5zM240 260q0 -59 39.5 -98t101.5 -39q39 0 91 27.5t95 70.5l8 209l-276 -84q-59 -18 -59 -86zM305 1110q92 100 186.5 211t120.5 143l21 -4 l78 -84l-2 -22q-31 -23 -134.5 -107t-209.5 -180l-19 4z" />
<glyph unicode="&#xe2;" horiz-adv-x="954" d="M84 238q0 59 29.5 104t79.5 59l387 107l4 90q0 102 -47.5 159.5t-133.5 57.5q-57 0 -126.5 -28.5t-118.5 -73.5l-11 6l-24 88q104 61 199.5 102t134.5 41q133 0 208.5 -69.5t75.5 -194.5q0 -45 -14 -184q-23 -225 -22 -287q0 -45 22.5 -69.5t60.5 -24.5q29 0 63 14.5 t60 36.5l29 -33q-33 -57 -83 -103t-95 -61q-166 0 -182 166l-9 2q-74 -74 -134 -116.5t-91 -42.5q-115 0 -188.5 71.5t-73.5 182.5zM150 1126q84 88 171 186.5t111 127.5h29q25 -29 112 -128.5t171 -185.5l-29 -45l-19 -2q-78 70 -206 166l-43 33q-160 -119 -250 -199l-19 2 zM240 260q0 -59 39.5 -98t101.5 -39q39 0 91 27.5t95 70.5l8 209l-276 -84q-59 -18 -59 -86z" />
<glyph unicode="&#xe3;" horiz-adv-x="954" d="M84 238q0 59 29.5 104t79.5 59l387 107l4 90q0 102 -47.5 159.5t-133.5 57.5q-57 0 -126.5 -28.5t-118.5 -73.5l-11 6l-24 88q104 61 199.5 102t134.5 41q133 0 208.5 -69.5t75.5 -194.5q0 -45 -14 -184q-23 -225 -22 -287q0 -45 22.5 -69.5t60.5 -24.5q29 0 63 14.5 t60 36.5l29 -33q-33 -57 -83 -103t-95 -61q-166 0 -182 166l-9 2q-74 -74 -134 -116.5t-91 -42.5q-115 0 -188.5 71.5t-73.5 182.5zM109 1171v11l155 182l33 8q37 0 160 -37q18 -4 68.5 -17t70.5 -13t49 24.5t51.5 52t28.5 35.5h12l45 -43v-10l-155 -182l-33 -8 q-37 0 -160 36q-18 4 -68 17.5t-71 13.5q-23 0 -51.5 -24.5t-50 -52t-27.5 -36.5h-12zM240 260q0 -59 39.5 -98t101.5 -39q39 0 91 27.5t95 70.5l8 209l-276 -84q-59 -18 -59 -86z" />
<glyph unicode="&#xe4;" horiz-adv-x="954" d="M84 238q0 59 29.5 104t79.5 59l387 107l4 90q0 102 -47.5 159.5t-133.5 57.5q-57 0 -126.5 -28.5t-118.5 -73.5l-11 6l-24 88q104 61 199.5 102t134.5 41q133 0 208.5 -69.5t75.5 -194.5q0 -45 -14 -184q-23 -225 -22 -287q0 -45 22.5 -69.5t60.5 -24.5q29 0 63 14.5 t60 36.5l29 -33q-33 -57 -83 -103t-95 -61q-166 0 -182 166l-9 2q-74 -74 -134 -116.5t-91 -42.5q-115 0 -188.5 71.5t-73.5 182.5zM180 1247q0 43 30 73t73 30q39 0 61.5 -26t22.5 -62q0 -43 -30 -73t-73 -30q-39 0 -61.5 26.5t-22.5 61.5zM240 260q0 -59 39.5 -98 t101.5 -39q39 0 91 27.5t95 70.5l8 209l-276 -84q-59 -18 -59 -86zM520 1247q0 43 30 73t73 30q39 0 61.5 -26t22.5 -62q0 -43 -30 -73t-73 -30q-39 0 -61.5 26.5t-22.5 61.5z" />
<glyph unicode="&#xe5;" horiz-adv-x="954" d="M84 238q0 59 29.5 104t79.5 59l387 107l4 90q0 102 -47.5 159.5t-133.5 57.5q-57 0 -126.5 -28.5t-118.5 -73.5l-11 6l-24 88q104 61 199.5 102t134.5 41q133 0 208.5 -69.5t75.5 -194.5q0 -45 -14 -184q-23 -225 -22 -287q0 -45 22.5 -69.5t60.5 -24.5q29 0 63 14.5 t60 36.5l29 -33q-33 -57 -83 -103t-95 -61q-166 0 -182 166l-9 2q-74 -74 -134 -116.5t-91 -42.5q-115 0 -188.5 71.5t-73.5 182.5zM240 260q0 -59 39.5 -98t101.5 -39q39 0 91 27.5t95 70.5l8 209l-276 -84q-59 -18 -59 -86zM281 1278q0 76 47 124t125 48q80 0 118.5 -45 t38.5 -111q0 -74 -47 -127t-127 -53q-73 0 -114 45t-41 119zM346 1290q0 -49 33 -73.5t72 -24.5q90 0 90 80q0 45 -28 71.5t-77 26.5q-43 0 -66.5 -21.5t-23.5 -58.5z" />
<glyph unicode="&#xe6;" horiz-adv-x="1337" d="M61 238q0 59 30 103t79 58l391 107l2 102q0 102 -45 157.5t-131 55.5q-59 0 -115.5 -24.5t-96.5 -53t-40 -30.5l-10 6l-25 88q18 10 83 45t138.5 66.5t112.5 31.5q201 0 254 -164q59 78 141 121t170 43q131 0 206 -76.5t75 -214.5q0 -14 -2 -24t-2 -14l-19 -29l-552 -131 q10 -158 95 -256.5t210 -98.5q55 0 110.5 16.5t93 33t48.5 22.5l12 -4l22 -59q-14 -11 -66 -44.5t-122 -64.5t-125 -31q-129 0 -227.5 57.5t-147.5 162.5q-80 -86 -155.5 -141.5t-128.5 -69.5q-115 0 -189 71.5t-74 182.5zM211 260q0 -57 41 -100t96 -43q86 0 236 139 q-25 78 -25 174l-283 -84q-32 -8 -48.5 -31.5t-16.5 -54.5zM702 537l359 102q41 12 41 37q0 68 -43 114t-107 46q-113 0 -181.5 -79t-68.5 -206v-14z" />
<glyph unicode="&#xe7;" horiz-adv-x="868" d="M74 428q0 145 62.5 265t170 188.5t240.5 68.5q57 0 110.5 -8t87 -17.5t41.5 -13.5l7 -14q-2 -10 -11.5 -48t-19.5 -100.5t-12 -134.5l-84 -6v64q0 76 -46.5 122t-121.5 46q-125 0 -192.5 -89t-67.5 -253q0 -178 74.5 -281.5t203.5 -103.5q51 0 102.5 15t86 30.5 t43.5 21.5l12 -4l22 -63q-12 -11 -56 -40.5t-102.5 -59t-103.5 -36.5l-26 -79q14 -10 64 -44t80 -69t30 -70q0 -51 -37 -95t-94.5 -70.5t-114.5 -26.5q-51 0 -95 20.5t-44 53.5t51 114h18q2 -55 33 -86t80 -31q41 0 69.5 22t28.5 56q0 33 -47 71t-127 83l47 154 q-168 20 -265 141t-97 307z" />
<glyph unicode="&#xe8;" horiz-adv-x="917" d="M74 428q0 137 62.5 258t167 192.5t222.5 71.5q150 0 227.5 -75.5t77.5 -221.5q0 -33 -5 -62.5t-7 -37.5l-26 -25h-566v-32q0 -172 83 -276.5t220 -104.5q57 0 112.5 14t92.5 29.5t47 19.5l13 -4l22 -59q-14 -10 -66.5 -44t-122 -65t-124.5 -31q-127 0 -225.5 56.5 t-151.5 160t-53 236.5zM236 604l370 19q31 4 41 14t10 41q0 82 -44 125t-126 43q-96 0 -164.5 -65.5t-86.5 -176.5zM237 1374l78 84l21 4q27 -33 121 -142.5t186 -209.5l-41 -39l-18 -4q-109 98 -211.5 180t-133.5 105z" />
<glyph unicode="&#xe9;" horiz-adv-x="917" d="M74 428q0 137 62.5 258t167 192.5t222.5 71.5q150 0 227.5 -75.5t77.5 -221.5q0 -33 -5 -62.5t-7 -37.5l-26 -25h-566v-32q0 -172 83 -276.5t220 -104.5q57 0 112.5 14t92.5 29.5t47 19.5l13 -4l22 -59q-14 -10 -66.5 -44t-122 -65t-124.5 -31q-127 0 -225.5 56.5 t-151.5 160t-53 236.5zM236 604l370 19q31 4 41 14t10 41q0 82 -44 125t-126 43q-96 0 -164.5 -65.5t-86.5 -176.5zM385 1110q92 100 186.5 211t120.5 143l21 -4l78 -84l-2 -22q-31 -23 -134.5 -107t-209.5 -180l-19 4z" />
<glyph unicode="&#xea;" horiz-adv-x="917" d="M74 428q0 137 62.5 258t167 192.5t222.5 71.5q150 0 227.5 -75.5t77.5 -221.5q0 -33 -5 -62.5t-7 -37.5l-26 -25h-566v-32q0 -172 83 -276.5t220 -104.5q57 0 112.5 14t92.5 29.5t47 19.5l13 -4l22 -59q-14 -10 -66.5 -44t-122 -65t-124.5 -31q-127 0 -225.5 56.5 t-151.5 160t-53 236.5zM199 1126q84 88 171 186.5t111 127.5h29q25 -29 112 -128.5t171 -185.5l-29 -45l-19 -2q-78 70 -206 166l-43 33q-160 -119 -250 -199l-19 2zM236 604l370 19q31 4 41 14t10 41q0 82 -44 125t-126 43q-96 0 -164.5 -65.5t-86.5 -176.5z" />
<glyph unicode="&#xeb;" horiz-adv-x="917" d="M74 428q0 137 62.5 258t167 192.5t222.5 71.5q150 0 227.5 -75.5t77.5 -221.5q0 -33 -5 -62.5t-7 -37.5l-26 -25h-566v-32q0 -172 83 -276.5t220 -104.5q57 0 112.5 14t92.5 29.5t47 19.5l13 -4l22 -59q-14 -10 -66.5 -44t-122 -65t-124.5 -31q-127 0 -225.5 56.5 t-151.5 160t-53 236.5zM229 1247q0 43 30 73t73 30q39 0 61.5 -26t22.5 -62q0 -43 -30 -73t-73 -30q-39 0 -61.5 26.5t-22.5 61.5zM236 604l370 19q31 4 41 14t10 41q0 82 -44 125t-126 43q-96 0 -164.5 -65.5t-86.5 -176.5zM569 1247q0 43 30 73t73 30q39 0 61.5 -26 t22.5 -62q0 -43 -30 -73t-73 -30q-39 0 -61.5 26.5t-22.5 61.5z" />
<glyph unicode="&#xec;" horiz-adv-x="577" d="M12 1374l78 84l21 4q27 -33 121 -142.5t186 -209.5l-41 -39l-18 -4q-109 98 -211.5 180t-133.5 105zM86 815l8 76q86 12 177 32.5t118 26.5l10 -24q-18 -43 -32.5 -263.5t-14.5 -461.5q0 -59 16.5 -87t55.5 -28q23 0 43 2t29 2l4 -8l-17 -88q-18 2 -69.5 4t-112.5 2 q-53 0 -121.5 -10t-89.5 -15l8 84q62 17 88.5 48.5t26.5 85.5v520q0 111 -76 110q-14 0 -30.5 -3t-20.5 -5z" />
<glyph unicode="&#xed;" horiz-adv-x="577" d="M86 815l8 76q86 12 177 32.5t118 26.5l10 -24q-18 -43 -32.5 -263.5t-14.5 -461.5q0 -59 16.5 -87t55.5 -28q23 0 43 2t29 2l4 -8l-17 -88q-18 2 -69.5 4t-112.5 2q-53 0 -121.5 -10t-89.5 -15l8 84q62 17 88.5 48.5t26.5 85.5v520q0 111 -76 110q-14 0 -30.5 -3 t-20.5 -5zM143 1110q92 100 186.5 211t120.5 143l21 -4l78 -84l-2 -22q-31 -23 -134.5 -107t-209.5 -180l-19 4z" />
<glyph unicode="&#xee;" horiz-adv-x="577" d="M-4 1124q84 88 171 186.5t111 127.5h29q25 -29 112 -128.5t171 -185.5l-29 -45l-19 -2q-78 70 -206 166l-43 33q-160 -119 -250 -199l-19 2zM86 815l8 76q86 12 177 32.5t118 26.5l10 -24q-18 -43 -32.5 -263.5t-14.5 -461.5q0 -59 16.5 -87t55.5 -28q23 0 43 2t29 2 l4 -8l-17 -88q-18 2 -69.5 4t-112.5 2q-53 0 -121.5 -10t-89.5 -15l8 84q62 17 88.5 48.5t26.5 85.5v520q0 111 -76 110q-14 0 -30.5 -3t-20.5 -5z" />
<glyph unicode="&#xef;" horiz-adv-x="577" d="M22 1247q0 43 30 73t73 30q39 0 61.5 -26t22.5 -62q0 -43 -30 -73t-73 -30q-39 0 -61.5 26.5t-22.5 61.5zM86 815l8 76q86 12 177 32.5t118 26.5l10 -24q-18 -43 -32.5 -263.5t-14.5 -461.5q0 -59 16.5 -87t55.5 -28q23 0 43 2t29 2l4 -8l-17 -88q-18 2 -69.5 4t-112.5 2 q-53 0 -121.5 -10t-89.5 -15l8 84q62 17 88.5 48.5t26.5 85.5v520q0 111 -76 110q-14 0 -30.5 -3t-20.5 -5zM362 1247q0 43 30 73t73 30q39 0 61.5 -26t22.5 -62q0 -43 -30 -73t-73 -30q-39 0 -61.5 26.5t-22.5 61.5z" />
<glyph unicode="&#xf0;" horiz-adv-x="1040" d="M88 422q0 137 61.5 253t167 184.5t228.5 68.5q29 0 62.5 -12.5t58 -24.5t30.5 -17l4 5q-74 168 -194 292l-273 -131l-18 7l-8 61l242 119q-143 123 -340 215l30 67l21 9q227 -98 397 -238l283 137l16 -10l8 -59l-248 -121q164 -154 250 -340.5t86 -390.5 q0 -143 -60.5 -263t-163.5 -189t-230 -69q-119 0 -212 56.5t-145.5 158t-52.5 232.5zM252 481q0 -119 39 -211t107.5 -143t156.5 -51q106 0 167.5 93t61.5 253q1 168 -36 311q-90 84 -236 84q-121 0 -190.5 -89t-69.5 -247z" />
<glyph unicode="&#xf1;" horiz-adv-x="1150" d="M80 825l6 68q88 14 175 33.5t112 25.5l12 -16q-4 -12 -12 -52t-11 -83l5 -6q233 156 301 155q129 0 204.5 -71.5t75.5 -192.5q0 -20 -12 -188q-16 -213 -16 -297q0 -59 16 -87t55 -28q23 0 43.5 2t28.5 2l4 -8l-16 -88q-18 2 -69.5 4t-113.5 2q-53 0 -121.5 -10 t-89.5 -15l9 84q61 17 87.5 48.5t26.5 85.5l8 405q0 102 -44 157.5t-126 55.5q-66 0 -133 -34t-118 -72q-18 -424 -19 -504q0 -63 16.5 -89t57.5 -26q23 0 43 2t29 2l4 -8l-19 -88q-18 2 -71.5 4t-114.5 2q-53 0 -117.5 -5t-85.5 -7l10 84q59 10 84 36.5t25 84.5v499 q0 70 -22.5 97.5t-77.5 27.5h-23zM252 1171v11l155 182l33 8q37 0 160 -37q18 -4 68.5 -17t70.5 -13t49 24.5t51.5 52t28.5 35.5h12l45 -43v-10l-155 -182l-33 -8q-37 0 -160 36q-18 4 -68 17.5t-71 13.5q-23 0 -51.5 -24.5t-50 -52t-27.5 -36.5h-12z" />
<glyph unicode="&#xf2;" horiz-adv-x="1019" d="M74 430q0 143 62.5 263t171 188.5t241.5 68.5q115 0 206 -57t141 -160.5t50 -236.5q0 -143 -62.5 -263t-171 -189t-241.5 -69q-117 0 -207 57.5t-140 161t-50 236.5zM238 489q0 -121 36.5 -215t102 -146t151.5 -52q115 0 182.5 93t67.5 253q0 121 -36.5 216t-103.5 148.5 t-151 53.5q-115 0 -182 -94.5t-67 -256.5zM256 1374l78 84l21 4q27 -33 121 -142.5t186 -209.5l-41 -39l-18 -4q-109 98 -211.5 180t-133.5 105z" />
<glyph unicode="&#xf3;" horiz-adv-x="1019" d="M74 430q0 143 62.5 263t171 188.5t241.5 68.5q115 0 206 -57t141 -160.5t50 -236.5q0 -143 -62.5 -263t-171 -189t-241.5 -69q-117 0 -207 57.5t-140 161t-50 236.5zM238 489q0 -121 36.5 -215t102 -146t151.5 -52q115 0 182.5 93t67.5 253q0 121 -36.5 216t-103.5 148.5 t-151 53.5q-115 0 -182 -94.5t-67 -256.5zM373 1110q92 100 186.5 211t120.5 143l21 -4l78 -84l-2 -22q-31 -23 -134.5 -107t-209.5 -180l-19 4z" />
<glyph unicode="&#xf4;" horiz-adv-x="1019" d="M74 430q0 143 62.5 263t171 188.5t241.5 68.5q115 0 206 -57t141 -160.5t50 -236.5q0 -143 -62.5 -263t-171 -189t-241.5 -69q-117 0 -207 57.5t-140 161t-50 236.5zM217 1126q84 88 171 186.5t111 127.5h29q25 -29 112 -128.5t171 -185.5l-29 -45l-19 -2 q-78 70 -206 166l-43 33q-160 -119 -250 -199l-19 2zM238 489q0 -121 36.5 -215t102 -146t151.5 -52q115 0 182.5 93t67.5 253q0 121 -36.5 216t-103.5 148.5t-151 53.5q-115 0 -182 -94.5t-67 -256.5z" />
<glyph unicode="&#xf5;" horiz-adv-x="1019" d="M74 430q0 143 62.5 263t171 188.5t241.5 68.5q115 0 206 -57t141 -160.5t50 -236.5q0 -143 -62.5 -263t-171 -189t-241.5 -69q-117 0 -207 57.5t-140 161t-50 236.5zM176 1171v11l155 182l33 8q37 0 160 -37q18 -4 68.5 -17t70.5 -13t49 24.5t51.5 52t28.5 35.5h12 l45 -43v-10l-155 -182l-33 -8q-37 0 -160 36q-18 4 -68 17.5t-71 13.5q-23 0 -51.5 -24.5t-50 -52t-27.5 -36.5h-12zM238 489q0 -121 36.5 -215t102 -146t151.5 -52q115 0 182.5 93t67.5 253q0 121 -36.5 216t-103.5 148.5t-151 53.5q-115 0 -182 -94.5t-67 -256.5z" />
<glyph unicode="&#xf6;" horiz-adv-x="1019" d="M74 430q0 143 62.5 263t171 188.5t241.5 68.5q115 0 206 -57t141 -160.5t50 -236.5q0 -143 -62.5 -263t-171 -189t-241.5 -69q-117 0 -207 57.5t-140 161t-50 236.5zM238 489q0 -121 36.5 -215t102 -146t151.5 -52q115 0 182.5 93t67.5 253q0 121 -36.5 216t-103.5 148.5 t-151 53.5q-115 0 -182 -94.5t-67 -256.5zM247 1247q0 43 30 73t73 30q39 0 61.5 -26t22.5 -62q0 -43 -30 -73t-73 -30q-39 0 -61.5 26.5t-22.5 61.5zM587 1247q0 43 30 73t73 30q39 0 61.5 -26t22.5 -62q0 -43 -30 -73t-73 -30q-39 0 -61.5 26.5t-22.5 61.5z" />
<glyph unicode="&#xf7;" horiz-adv-x="1036" d="M37 498l22 100l490 -2q102 0 247.5 5t190.5 7l12 -20l-16 -105l-465 -2l-469 -2zM387 176q0 53 35 90t92 37q55 0 86 -33.5t31 -83.5q0 -53 -36 -90t-93 -37q-56 0 -85.5 34t-29.5 83zM387 891q0 53 35 90t92 37q55 0 86 -34t31 -83q0 -53 -36 -90t-93 -37 q-56 0 -85.5 34t-29.5 83z" />
<glyph unicode="&#xf8;" horiz-adv-x="1019" d="M74 430q0 143 62.5 263t171 188.5t241.5 68.5q80 0 149 -28l97 182l59 -14l6 -25l-96 -178q86 -58 134 -160t48 -231q0 -143 -62.5 -263t-171 -189t-241.5 -69q-90 0 -166 35l-112 -211l-56 13l-4 20l111 215q-80 59 -125 157.5t-45 225.5zM238 489q0 -90 21.5 -166.5 t59.5 -132.5l312 603q-63 47 -144 47q-114 0 -181.5 -94.5t-67.5 -256.5zM371 133q70 -57 157 -57q115 0 182.5 93t67.5 253q0 201 -92 317z" />
<glyph unicode="&#xf9;" horiz-adv-x="1107" d="M57 813l9 76q80 12 172 33.5t120 27.5l13 -24q-20 -53 -37 -241.5t-17 -367.5q0 -201 164 -200q61 0 114.5 29.5t133.5 86.5v476q0 61 -22.5 85.5t-79.5 24.5l-49 -2l8 74q90 12 188 32.5t127 26.5l12 -24q-18 -47 -31.5 -256t-13.5 -455q0 -45 22.5 -69.5t61.5 -24.5 q29 0 56.5 11t45 23.5t21.5 16.5l29 -33q-8 -12 -38 -51t-70 -76t-70 -37q-166 0 -183 166l-10 4q-98 -76 -177 -123t-107 -47q-131 0 -202 61.5t-71 176.5l8 498q1 110 -75 110q-14 0 -31 -3t-21 -5zM266 1374l78 84l21 4q27 -33 121 -142.5t186 -209.5l-41 -39l-18 -4 q-109 98 -211.5 180t-133.5 105z" />
<glyph unicode="&#xfa;" horiz-adv-x="1107" d="M57 813l9 76q80 12 172 33.5t120 27.5l13 -24q-20 -53 -37 -241.5t-17 -367.5q0 -201 164 -200q61 0 114.5 29.5t133.5 86.5v476q0 61 -22.5 85.5t-79.5 24.5l-49 -2l8 74q90 12 188 32.5t127 26.5l12 -24q-18 -47 -31.5 -256t-13.5 -455q0 -45 22.5 -69.5t61.5 -24.5 q29 0 56.5 11t45 23.5t21.5 16.5l29 -33q-8 -12 -38 -51t-70 -76t-70 -37q-166 0 -183 166l-10 4q-98 -76 -177 -123t-107 -47q-131 0 -202 61.5t-71 176.5l8 498q1 110 -75 110q-14 0 -31 -3t-21 -5zM383 1110q92 100 186.5 211t120.5 143l21 -4l78 -84l-2 -22 q-31 -23 -134.5 -107t-209.5 -180l-19 4z" />
<glyph unicode="&#xfb;" horiz-adv-x="1107" d="M57 813l9 76q80 12 172 33.5t120 27.5l13 -24q-20 -53 -37 -241.5t-17 -367.5q0 -201 164 -200q61 0 114.5 29.5t133.5 86.5v476q0 61 -22.5 85.5t-79.5 24.5l-49 -2l8 74q90 12 188 32.5t127 26.5l12 -24q-18 -47 -31.5 -256t-13.5 -455q0 -45 22.5 -69.5t61.5 -24.5 q29 0 56.5 11t45 23.5t21.5 16.5l29 -33q-8 -12 -38 -51t-70 -76t-70 -37q-166 0 -183 166l-10 4q-98 -76 -177 -123t-107 -47q-131 0 -202 61.5t-71 176.5l8 498q1 110 -75 110q-14 0 -31 -3t-21 -5zM228 1126q84 88 171 186.5t111 127.5h29q25 -29 112 -128.5t171 -185.5 l-29 -45l-19 -2q-78 70 -206 166l-43 33q-160 -119 -250 -199l-19 2z" />
<glyph unicode="&#xfc;" horiz-adv-x="1107" d="M57 813l9 76q80 12 172 33.5t120 27.5l13 -24q-20 -53 -37 -241.5t-17 -367.5q0 -201 164 -200q61 0 114.5 29.5t133.5 86.5v476q0 61 -22.5 85.5t-79.5 24.5l-49 -2l8 74q90 12 188 32.5t127 26.5l12 -24q-18 -47 -31.5 -256t-13.5 -455q0 -45 22.5 -69.5t61.5 -24.5 q29 0 56.5 11t45 23.5t21.5 16.5l29 -33q-8 -12 -38 -51t-70 -76t-70 -37q-166 0 -183 166l-10 4q-98 -76 -177 -123t-107 -47q-131 0 -202 61.5t-71 176.5l8 498q1 110 -75 110q-14 0 -31 -3t-21 -5zM258 1247q0 43 30 73t73 30q39 0 61.5 -26t22.5 -62q0 -43 -30 -73 t-73 -30q-39 0 -61.5 26.5t-22.5 61.5zM598 1247q0 43 30 73t73 30q39 0 61.5 -26t22.5 -62q0 -43 -30 -73t-73 -30q-39 0 -61.5 26.5t-22.5 61.5z" />
<glyph unicode="&#xfd;" horiz-adv-x="913" d="M-18 860l12 68l170 -2q76 0 150.5 6t95.5 8l4 -10l-13 -64q-70 -2 -95 -13t-25 -40q0 -33 40.5 -172t84 -276.5t57.5 -178.5h8q240 574 240 619q0 53 -78 53h-94l-4 8l12 68q18 -2 80.5 -5t126.5 -3l174 2l-15 -76q-45 -8 -68.5 -31.5t-45.5 -85.5l-264 -622 q-117 -266 -181.5 -387t-127 -171.5t-152.5 -48.5q-16 0 -53 48.5t-37 68.5l10 15q119 0 224.5 95t174.5 265q-49 156 -130 385t-138 371q-25 51 -56.5 73.5t-82.5 24.5zM330 1110q92 100 186.5 211t120.5 143l21 -4l78 -84l-2 -22q-31 -23 -134.5 -107t-209.5 -180l-19 4z " />
<glyph unicode="&#xfe;" horiz-adv-x="1044" d="M43 -485l10 79q57 6 82 27t29 55.5t6 124.5l4 392v1089q0 111 -76 111q-14 0 -30.5 -3.5t-20.5 -5.5q0 12 4 37l4 39q88 12 182.5 32.5t120.5 27.5l13 -27q-14 -20 -26.5 -208.5t-20.5 -477.5q96 68 160.5 105.5t86.5 37.5q49 0 84 -8q141 -29 226.5 -144.5t85.5 -285.5 q0 -145 -69 -268t-186.5 -196t-254.5 -73q-74 0 -146 9v-148q0 -92 6.5 -137t27 -66.5t65.5 -21.5l69 2l4 -6l-16 -78h-129q-94 0 -194.5 -5t-100.5 -9zM313 131q37 -18 94.5 -30.5t106.5 -12.5q137 0 216 94t79 254q0 102 -36 188.5t-98.5 136.5t-135.5 50 q-39 0 -100.5 -30.5t-119.5 -80.5z" />
<glyph unicode="&#xff;" horiz-adv-x="913" d="M-18 860l12 68l170 -2q76 0 150.5 6t95.5 8l4 -10l-13 -64q-70 -2 -95 -13t-25 -40q0 -33 40.5 -172t84 -276.5t57.5 -178.5h8q240 574 240 619q0 53 -78 53h-94l-4 8l12 68q18 -2 80.5 -5t126.5 -3l174 2l-15 -76q-45 -8 -68.5 -31.5t-45.5 -85.5l-264 -622 q-117 -266 -181.5 -387t-127 -171.5t-152.5 -48.5q-16 0 -53 48.5t-37 68.5l10 15q119 0 224.5 95t174.5 265q-49 156 -130 385t-138 371q-25 51 -56.5 73.5t-82.5 24.5zM204 1247q0 43 30 73t73 30q39 0 61.5 -26t22.5 -62q0 -43 -30 -73t-73 -30q-39 0 -61.5 26.5 t-22.5 61.5zM544 1247q0 43 30 73t73 30q39 0 61.5 -26t22.5 -62q0 -43 -30 -73t-73 -30q-39 0 -61.5 26.5t-22.5 61.5z" />
<glyph unicode="&#x100;" horiz-adv-x="1183" d="M-37 -6l17 96q57 6 91.5 40t67.5 118l400 1046l129 35h16q12 -49 62.5 -227t123 -422t140.5 -449q24 -75 65 -106t131 -39l4 -8l-14 -84q-25 0 -89.5 3t-127.5 3q-98 0 -189.5 -8t-115.5 -12l-6 14l8 80q104 8 143 24.5t39 53.5q0 41 -18 98l-68 223q-49 2 -213 2 q-98 0 -223 -16l-76 -213q-18 -55 -18 -80q0 -45 28.5 -64.5t94.5 -19.5h116l4 -8l-12 -88q-25 2 -113 8t-172 6q-76 0 -140 -2t-85 -4zM297 1491l21 92l315 -2q63 0 150.5 5t113.5 7l13 -20l-15 -96l-290 -2l-295 -2zM373 559h180q71 0 190 10l-161 537h-15z" />
<glyph unicode="&#x101;" horiz-adv-x="954" d="M84 238q0 59 29.5 104t79.5 59l387 107l4 90q0 102 -47.5 159.5t-133.5 57.5q-57 0 -126.5 -28.5t-118.5 -73.5l-11 6l-24 88q104 61 199.5 102t134.5 41q133 0 208.5 -69.5t75.5 -194.5q0 -45 -14 -184q-23 -225 -22 -287q0 -45 22.5 -69.5t60.5 -24.5q29 0 63 14.5 t60 36.5l29 -33q-33 -57 -83 -103t-95 -61q-166 0 -182 166l-9 2q-74 -74 -134 -116.5t-91 -42.5q-115 0 -188.5 71.5t-73.5 182.5zM139 1235l21 92l315 -2q63 0 150.5 5t113.5 7l13 -20l-15 -96l-290 -2l-295 -2zM240 260q0 -59 39.5 -98t101.5 -39q39 0 91 27.5t95 70.5 l8 209l-276 -84q-59 -18 -59 -86z" />
<glyph unicode="&#x102;" horiz-adv-x="1183" d="M-37 -6l17 96q57 6 91.5 40t67.5 118l400 1046l129 35h16q12 -49 62.5 -227t123 -422t140.5 -449q24 -75 65 -106t131 -39l4 -8l-14 -84q-25 0 -89.5 3t-127.5 3q-98 0 -189.5 -8t-115.5 -12l-6 14l8 80q104 8 143 24.5t39 53.5q0 41 -18 98l-68 223q-49 2 -213 2 q-98 0 -223 -16l-76 -213q-18 -55 -18 -80q0 -45 28.5 -64.5t94.5 -19.5h116l4 -8l-12 -88q-25 2 -113 8t-172 6q-76 0 -140 -2t-85 -4zM357 1655l33 20h16q25 -49 78 -75.5t119 -26.5q65 0 118.5 26.5t77.5 75.5h17l32 -20q-25 -86 -86 -143.5t-159 -57.5t-160 57.5 t-86 143.5zM373 559h180q71 0 190 10l-161 537h-15z" />
<glyph unicode="&#x103;" horiz-adv-x="954" d="M84 238q0 59 29.5 104t79.5 59l387 107l4 90q0 102 -47.5 159.5t-133.5 57.5q-57 0 -126.5 -28.5t-118.5 -73.5l-11 6l-24 88q104 61 199.5 102t134.5 41q133 0 208.5 -69.5t75.5 -194.5q0 -45 -14 -184q-23 -225 -22 -287q0 -45 22.5 -69.5t60.5 -24.5q29 0 63 14.5 t60 36.5l29 -33q-33 -57 -83 -103t-95 -61q-166 0 -182 166l-9 2q-74 -74 -134 -116.5t-91 -42.5q-115 0 -188.5 71.5t-73.5 182.5zM205 1376l33 21h16q25 -66 78 -100.5t119 -34.5q65 0 118.5 34.5t77.5 100.5h17l32 -21q-25 -98 -86 -165.5t-159 -67.5t-160 67.5 t-86 165.5zM240 260q0 -59 39.5 -98t101.5 -39q39 0 91 27.5t95 70.5l8 209l-276 -84q-59 -18 -59 -86z" />
<glyph unicode="&#x104;" horiz-adv-x="1183" d="M-37 -6l17 96q57 6 91.5 40t67.5 118l400 1046l129 35h16q12 -49 62.5 -227t123 -422t140.5 -449q25 -76 65.5 -106.5t130.5 -38.5l4 -8l-14 -84l-135 4q-84 -88 -119 -144.5t-35 -115.5q0 -49 33 -80t86 -31q35 0 71 10.5t58.5 21.5t28.5 15l26 -39q-8 -8 -37.5 -31.5 t-74.5 -52t-92 -45.5q-102 0 -165 51.5t-63 141.5q0 66 49.5 135.5t145.5 165.5q-96 0 -185.5 -8t-113.5 -12l-6 14l8 80q104 8 143 24.5t39 53.5q0 41 -18 98l-68 223q-49 2 -213 2q-98 0 -223 -16l-76 -213q-18 -55 -18 -80q0 -45 28.5 -64.5t94.5 -19.5h116l4 -8l-12 -88 q-25 2 -113 8t-172 6q-76 0 -140 -2t-85 -4zM373 559h180q71 0 190 10l-161 537h-15z" />
<glyph unicode="&#x105;" horiz-adv-x="954" d="M84 238q0 59 29.5 104t79.5 59l387 107l4 90q0 102 -47.5 159.5t-133.5 57.5q-59 0 -113 -22.5t-93 -50t-39 -29.5l-11 6l-24 88q18 10 81.5 45t138.5 66.5t114 31.5t71 -6q102 -16 157.5 -83.5t55.5 -174.5q0 -20 -8 -104l-12 -133q-10 -115 -13 -160t-3 -74 q0 -45 22.5 -69.5t60.5 -24.5q29 0 56.5 11t45 23.5t21.5 16.5l33 -39q-162 -170 -220 -253t-58 -142q0 -49 32.5 -80t85.5 -31q35 0 71 10.5t58.5 21.5t28.5 15l27 -39q-8 -8 -38 -31.5t-75 -52t-92 -45.5q-104 0 -165.5 52.5t-61.5 140.5q0 55 39.5 119.5t134.5 163.5 q-59 8 -93 50t-38 109l-9 2q-74 -74 -134 -116.5t-91 -42.5q-115 0 -188.5 71.5t-73.5 182.5zM240 260q0 -59 39.5 -98t101.5 -39q39 0 91 27.5t95 70.5l8 209l-276 -84q-59 -23 -59 -86z" />
<glyph unicode="&#x106;" horiz-adv-x="1288" d="M82 608q0 205 92 370t255 258t368 93q76 0 154.5 -11t133 -22.5t68.5 -15.5l8 -12q-4 -12 -13 -59.5t-20.5 -123t-17.5 -159.5l-98 -8q2 10 4 37.5t2 62.5q0 190 -301 190q-135 0 -237.5 -65.5t-158 -185t-55.5 -281.5q0 -178 58.5 -313.5t165 -210t245.5 -74.5t224 79 t124 244l99 9q-6 -31 -26.5 -136.5t-29.5 -197.5l-12 -19q0 -2 -62.5 -23.5t-155.5 -40t-202 -18.5q-184 0 -323.5 78t-214 220.5t-74.5 334.5zM604 1499q121 63 246 133t162 90l18 -12l33 -98l-8 -21q-35 -12 -161 -56t-261 -95l-17 10z" />
<glyph unicode="&#x107;" horiz-adv-x="868" d="M74 428q0 145 62.5 265t170 188.5t240.5 68.5q57 0 110.5 -8t87 -17.5t41.5 -13.5l7 -14q-2 -10 -11.5 -48t-19.5 -100.5t-12 -134.5l-84 -6v64q0 76 -46.5 122t-121.5 46q-125 0 -192.5 -89t-67.5 -253q0 -178 74.5 -281.5t203.5 -103.5q51 0 102.5 15t86 30.5 t43.5 21.5l12 -4l22 -63q-14 -11 -62 -43.5t-110.5 -63.5t-107.5 -31q-195 0 -311.5 123t-116.5 330zM358 1110q92 100 186.5 211t120.5 143l21 -4l78 -84l-2 -22q-31 -23 -134.5 -107t-209.5 -180l-19 4z" />
<glyph unicode="&#x108;" horiz-adv-x="1288" d="M82 608q0 205 92 370t255 258t368 93q76 0 154.5 -11t133 -22.5t68.5 -15.5l8 -12q-4 -12 -13 -59.5t-20.5 -123t-17.5 -159.5l-98 -8q2 10 4 37.5t2 62.5q0 190 -301 190q-135 0 -237.5 -65.5t-158 -185t-55.5 -281.5q0 -178 58.5 -313.5t165 -210t245.5 -74.5t224 79 t124 244l99 9q-6 -31 -26.5 -136.5t-29.5 -197.5l-12 -19q0 -2 -62.5 -23.5t-155.5 -40t-202 -18.5q-184 0 -323.5 78t-214 220.5t-74.5 334.5zM402 1482q84 88 171 186.5t111 127.5h29q25 -29 112 -128.5t171 -185.5l-29 -45l-19 -2q-78 70 -206 166l-43 33 q-160 -119 -250 -199l-19 2z" />
<glyph unicode="&#x109;" horiz-adv-x="868" d="M74 428q0 145 62.5 265t170 188.5t240.5 68.5q57 0 110.5 -8t87 -17.5t41.5 -13.5l7 -14q-2 -10 -11.5 -48t-19.5 -100.5t-12 -134.5l-84 -6v64q0 76 -46.5 122t-121.5 46q-125 0 -192.5 -89t-67.5 -253q0 -178 74.5 -281.5t203.5 -103.5q51 0 102.5 15t86 30.5 t43.5 21.5l12 -4l22 -63q-14 -11 -62 -43.5t-110.5 -63.5t-107.5 -31q-195 0 -311.5 123t-116.5 330zM248 1124q84 88 171 186.5t111 127.5h29q25 -29 112 -128.5t171 -185.5l-29 -45l-19 -2q-78 70 -206 166l-43 33q-160 -119 -250 -199l-19 2z" />
<glyph unicode="&#x10a;" horiz-adv-x="1288" d="M82 608q0 205 92 370t255 258t368 93q76 0 154.5 -11t133 -22.5t68.5 -15.5l8 -12q-4 -12 -13 -59.5t-20.5 -123t-17.5 -159.5l-98 -8q2 10 4 37.5t2 62.5q0 190 -301 190q-135 0 -237.5 -65.5t-158 -185t-55.5 -281.5q0 -178 58.5 -313.5t165 -210t245.5 -74.5t224 79 t124 244l99 9q-6 -31 -26.5 -136.5t-29.5 -197.5l-12 -19q0 -2 -62.5 -23.5t-155.5 -40t-202 -18.5q-184 0 -323.5 78t-214 220.5t-74.5 334.5zM625 1577q0 49 35 85t86 36q47 0 73.5 -31t26.5 -74q0 -49 -34.5 -84.5t-86.5 -35.5q-47 0 -73.5 30.5t-26.5 73.5z" />
<glyph unicode="&#x10b;" horiz-adv-x="868" d="M74 428q0 145 62.5 265t170 188.5t240.5 68.5q57 0 110.5 -8t87 -17.5t41.5 -13.5l7 -14q-2 -10 -11.5 -48t-19.5 -100.5t-12 -134.5l-84 -6v64q0 76 -46.5 122t-121.5 46q-125 0 -192.5 -89t-67.5 -253q0 -178 74.5 -281.5t203.5 -103.5q51 0 102.5 15t86 30.5 t43.5 21.5l12 -4l22 -63q-14 -11 -62 -43.5t-110.5 -63.5t-107.5 -31q-195 0 -311.5 123t-116.5 330zM389 1337q0 49 35 85t86 36q47 0 73.5 -30.5t26.5 -73.5q0 -49 -34.5 -85t-86.5 -36q-47 0 -73.5 30.5t-26.5 73.5z" />
<glyph unicode="&#x10c;" horiz-adv-x="1288" d="M82 608q0 205 92 370t255 258t368 93q76 0 154.5 -11t133 -22.5t68.5 -15.5l8 -12q-4 -12 -13 -59.5t-20.5 -123t-17.5 -159.5l-98 -8q2 10 4 37.5t2 62.5q0 190 -301 190q-135 0 -237.5 -65.5t-158 -185t-55.5 -281.5q0 -178 58.5 -313.5t165 -210t245.5 -74.5t224 79 t124 244l99 9q-6 -31 -26.5 -136.5t-29.5 -197.5l-12 -19q0 -2 -62.5 -23.5t-155.5 -40t-202 -18.5q-184 0 -323.5 78t-214 220.5t-74.5 334.5zM439 1669l28 45l19 2q137 -80 250 -133q106 49 249 133l19 -2l29 -45q-84 -63 -171.5 -134t-111.5 -93h-29q-25 23 -111.5 93.5 t-170.5 133.5z" />
<glyph unicode="&#x10d;" horiz-adv-x="868" d="M74 428q0 145 62.5 265t170 188.5t240.5 68.5q57 0 110.5 -8t87 -17.5t41.5 -13.5l7 -14q-2 -10 -11.5 -48t-19.5 -100.5t-12 -134.5l-84 -6v64q0 76 -46.5 122t-121.5 46q-125 0 -192.5 -89t-67.5 -253q0 -178 74.5 -281.5t203.5 -103.5q51 0 102.5 15t86 30.5 t43.5 21.5l12 -4l22 -63q-14 -11 -62 -43.5t-110.5 -63.5t-107.5 -31q-195 0 -311.5 123t-116.5 330zM190 1405l33 47l16 2q124 -107 263 -207q170 127 262 207l16 -2l33 -47q-88 -90 -179 -193.5t-118 -134.5h-29q-27 31 -118 134.5t-179 193.5z" />
<glyph unicode="&#x10e;" horiz-adv-x="1439" d="M119 -25l12 95q94 18 127 54t33 122l2 860q0 66 -15.5 88.5t-60.5 22.5q-20 0 -40.5 -2.5t-29.5 -2.5l-4 9l15 90q23 -2 86 -4t129 -2q88 0 182 3t129 5q197 0 350.5 -77t238.5 -216t85 -320q0 -201 -94.5 -366.5t-256 -262t-358.5 -96.5q-31 5 -130 15t-165 10 q-63 0 -138 -10t-97 -15zM381 1669l28 45l19 2q137 -80 250 -133q106 49 249 133l19 -2l29 -45q-84 -63 -171.5 -134t-111.5 -93h-29q-25 23 -111.5 93.5t-170.5 133.5zM438 268q0 -78 21.5 -116.5t76 -55t160.5 -16.5q221 0 348 152.5t127 418.5q0 270 -162.5 415.5 t-465.5 145.5q-43 0 -57.5 -9t-16.5 -36q-31 -788 -31 -899z" />
<glyph unicode="&#x10f;" horiz-adv-x="1124" d="M74 414q0 145 68.5 268t186 195.5t255.5 72.5q66 0 141 -8v340q0 111 -76 111q-14 0 -30.5 -3.5t-20.5 -5.5l8 76q88 12 182.5 32.5t120.5 27.5l13 -27q-23 -35 -40.5 -432t-17.5 -846q0 -45 22.5 -69.5t61.5 -24.5q29 0 56.5 11t45 23.5t21.5 16.5l29 -33 q-6 -10 -31 -44t-64.5 -70.5t-82.5 -49.5q-160 0 -183 146l-14 6q-213 -145 -256 -145q-117 0 -207 54t-139 152.5t-49 225.5zM231 483q0 -102 36 -186t98.5 -133t136.5 -49q43 0 93 24.5t85 50t45 33.5v561q-6 4 -30.5 15.5t-68.5 21.5t-100 10q-137 0 -216 -93t-79 -255z M1028 1423l143 29l15 -16q-4 -39 -24.5 -171t-47.5 -264l-51 -28l-23 4q2 37 2 110q0 115 -6 212.5t-8 123.5z" />
<glyph unicode="&#x110;" horiz-adv-x="1460" d="M18 637l15 65h272l2 404q0 66 -15.5 88.5t-60.5 22.5q-20 0 -40.5 -2.5t-28.5 -2.5l-4 9l14 90q23 -2 86.5 -4t128.5 -2q88 0 182.5 3t128.5 5q195 0 348.5 -79t239.5 -218t86 -316q0 -201 -94 -366.5t-256 -262t-358 -96.5q-31 5 -130.5 15t-164.5 10q-63 0 -138 -10 t-98 -15l12 95q76 14 108 34.5t42 66.5t10 151v301h-272zM453 268q0 -76 22.5 -115.5t76.5 -56t159 -16.5q221 0 348 152.5t127 418.5q0 270 -163 415.5t-466 145.5q-43 0 -57.5 -9t-16.5 -36l-18 -465h348l10 -14l-12 -65h-348z" />
<glyph unicode="&#x111;" horiz-adv-x="1099" d="M74 414q0 145 68.5 268t186 195.5t255.5 72.5q66 0 141 -8v156l-233 -2l-19 18l14 80l238 -2v90q0 111 -76 111q-14 0 -30.5 -3.5t-20.5 -5.5l8 76q88 12 182.5 32.5t120.5 27.5l13 -27q-16 -25 -33 -299l162 8l26 -26l-8 -76l-184 -2q-20 -403 -21 -883 q0 -45 22.5 -69.5t61.5 -24.5q29 0 56.5 11t45 23.5t21.5 16.5l29 -33q-6 -10 -31 -44t-64.5 -70.5t-82.5 -49.5q-160 0 -183 146l-14 6q-213 -145 -256 -145q-117 0 -207 54t-139 152.5t-49 225.5zM231 483q0 -102 36 -186t98.5 -133t136.5 -49q43 0 93 24.5t85 50t45 33.5 v561q-6 4 -30.5 15.5t-68.5 21.5t-100 10q-137 0 -216 -93t-79 -255z" />
<glyph unicode="&#x112;" horiz-adv-x="1210" d="M119 -20l12 94q92 12 126 48t34 124l2 860q0 66 -15.5 88.5t-60.5 22.5q-20 0 -40.5 -2.5t-29.5 -2.5l-4 9l15 90q27 -2 107.5 -4t176.5 -2q244 0 379 5t236 19l6 -12q-2 -12 -11.5 -58.5t-19.5 -122t-16 -159.5l-98 -8q0 10 2 35.5t2 52.5q0 72 -18.5 99.5t-80 36.5 t-215.5 9q-72 0 -98.5 -4t-34.5 -19.5t-10 -56.5l-16 -397l210 -2q47 0 134.5 9t115.5 13l9 -10l-29 -121q-29 2 -112 4.5t-175 2.5q-76 0 -158 -15q-8 -295 -8 -391q0 -59 10.5 -82.5t42 -32t109.5 -8.5q172 0 244.5 16.5t103.5 65.5t47 168l90 10l7 -10 q-6 -29 -24.5 -132.5t-31.5 -211.5l-10 -12q-70 2 -285 8t-336 6q-96 0 -179 -8t-105 -12zM327 1491l21 92l315 -2q63 0 150.5 5t113.5 7l13 -20l-15 -96l-290 -2l-295 -2z" />
<glyph unicode="&#x113;" horiz-adv-x="917" d="M74 428q0 137 62.5 258t167 192.5t222.5 71.5q150 0 227.5 -75.5t77.5 -221.5q0 -33 -5 -62.5t-7 -37.5l-26 -25h-566v-32q0 -172 83 -276.5t220 -104.5q57 0 112.5 14t92.5 29.5t47 19.5l13 -4l22 -59q-14 -10 -66.5 -44t-122 -65t-124.5 -31q-127 0 -225.5 56.5 t-151.5 160t-53 236.5zM188 1235l21 92l315 -2q63 0 150.5 5t113.5 7l13 -20l-15 -96l-290 -2l-295 -2zM236 604l370 19q31 4 41 14t10 41q0 82 -44 125t-126 43q-96 0 -164.5 -65.5t-86.5 -176.5z" />
<glyph unicode="&#x114;" horiz-adv-x="1210" d="M119 -20l12 94q92 12 126 48t34 124l2 860q0 66 -15.5 88.5t-60.5 22.5q-20 0 -40.5 -2.5t-29.5 -2.5l-4 9l15 90q27 -2 107.5 -4t176.5 -2q244 0 379 5t236 19l6 -12q-2 -12 -11.5 -58.5t-19.5 -122t-16 -159.5l-98 -8q0 10 2 35.5t2 52.5q0 72 -18.5 99.5t-80 36.5 t-215.5 9q-72 0 -98.5 -4t-34.5 -19.5t-10 -56.5l-16 -397l210 -2q47 0 134.5 9t115.5 13l9 -10l-29 -121q-29 2 -112 4.5t-175 2.5q-76 0 -158 -15q-8 -295 -8 -391q0 -59 10.5 -82.5t42 -32t109.5 -8.5q172 0 244.5 16.5t103.5 65.5t47 168l90 10l7 -10 q-6 -29 -24.5 -132.5t-31.5 -211.5l-10 -12q-70 2 -285 8t-336 6q-96 0 -179 -8t-105 -12zM424 1734l33 21h16q25 -66 78 -100.5t119 -34.5q65 0 118.5 34.5t77.5 100.5h17l32 -21q-25 -98 -86 -165.5t-159 -67.5t-160 67.5t-86 165.5z" />
<glyph unicode="&#x115;" horiz-adv-x="917" d="M74 428q0 137 62.5 258t167 192.5t222.5 71.5q150 0 227.5 -75.5t77.5 -221.5q0 -33 -5 -62.5t-7 -37.5l-26 -25h-566v-32q0 -172 83 -276.5t220 -104.5q57 0 112.5 14t92.5 29.5t47 19.5l13 -4l22 -59q-14 -10 -66.5 -44t-122 -65t-124.5 -31q-127 0 -225.5 56.5 t-151.5 160t-53 236.5zM236 604l370 19q31 4 41 14t10 41q0 82 -44 125t-126 43q-96 0 -164.5 -65.5t-86.5 -176.5zM279 1376l33 21h16q25 -66 78 -100.5t119 -34.5q65 0 118.5 34.5t77.5 100.5h17l32 -21q-25 -98 -86 -165.5t-159 -67.5t-160 67.5t-86 165.5z" />
<glyph unicode="&#x116;" horiz-adv-x="1210" d="M119 -20l12 94q92 12 126 48t34 124l2 860q0 66 -15.5 88.5t-60.5 22.5q-20 0 -40.5 -2.5t-29.5 -2.5l-4 9l15 90q27 -2 107.5 -4t176.5 -2q244 0 379 5t236 19l6 -12q-2 -12 -11.5 -58.5t-19.5 -122t-16 -159.5l-98 -8q0 10 2 35.5t2 52.5q0 72 -18.5 99.5t-80 36.5 t-215.5 9q-72 0 -98.5 -4t-34.5 -19.5t-10 -56.5l-16 -397l210 -2q47 0 134.5 9t115.5 13l9 -10l-29 -121q-29 2 -112 4.5t-175 2.5q-76 0 -158 -15q-8 -295 -8 -391q0 -59 10.5 -82.5t42 -32t109.5 -8.5q172 0 244.5 16.5t103.5 65.5t47 168l90 10l7 -10 q-6 -29 -24.5 -132.5t-31.5 -211.5l-10 -12q-70 2 -285 8t-336 6q-96 0 -179 -8t-105 -12zM524 1577q0 49 35 85t86 36q47 0 73.5 -31t26.5 -74q0 -49 -34.5 -84.5t-86.5 -35.5q-47 0 -73.5 30.5t-26.5 73.5z" />
<glyph unicode="&#x117;" horiz-adv-x="917" d="M74 428q0 137 62.5 258t167 192.5t222.5 71.5q150 0 227.5 -75.5t77.5 -221.5q0 -33 -5 -62.5t-7 -37.5l-26 -25h-566v-32q0 -172 83 -276.5t220 -104.5q57 0 112.5 14t92.5 29.5t47 19.5l13 -4l22 -59q-14 -10 -66.5 -44t-122 -65t-124.5 -31q-127 0 -225.5 56.5 t-151.5 160t-53 236.5zM236 604l370 19q31 4 41 14t10 41q0 82 -44 125t-126 43q-96 0 -164.5 -65.5t-86.5 -176.5zM385 1337q0 49 35 85t86 36q47 0 73.5 -30.5t26.5 -73.5q0 -49 -34.5 -85t-86.5 -36q-47 0 -73.5 30.5t-26.5 73.5z" />
<glyph unicode="&#x118;" horiz-adv-x="1210" d="M119 -20l12 94q92 12 126 48t34 124l2 860q0 66 -15.5 88.5t-60.5 22.5q-20 0 -40.5 -2.5t-29.5 -2.5l-4 9l15 90q27 -2 107.5 -4t176.5 -2q244 0 379 5t236 19l6 -12q-2 -12 -11.5 -58.5t-19.5 -122t-16 -159.5l-98 -8q0 10 2 35.5t2 52.5q0 72 -18.5 99.5t-80 36.5 t-215.5 9q-72 0 -98.5 -4t-34.5 -19.5t-10 -56.5l-16 -397l210 -2q47 0 134.5 9t115.5 13l9 -10l-29 -121q-29 2 -112 4.5t-175 2.5q-76 0 -158 -15q-8 -295 -8 -391q0 -59 10.5 -82.5t42 -32t109.5 -8.5q172 0 244.5 16.5t103.5 65.5t47 168l90 10l7 -10 q-6 -29 -24.5 -132.5t-31.5 -211.5l-10 -12l-102 4q-80 -86 -112 -140.5t-32 -111.5q0 -49 33 -80t86 -31q35 0 71 10.5t58.5 21.5t28.5 15l26 -39q-8 -8 -37.5 -31.5t-74.5 -52t-92 -45.5q-102 0 -165 51.5t-63 141.5q0 63 47 132t140 161q-279 8 -433 8q-96 0 -179 -8 t-105 -12z" />
<glyph unicode="&#x119;" horiz-adv-x="917" d="M74 428q0 137 62.5 258t167 192.5t222.5 71.5q150 0 227.5 -75.5t77.5 -221.5q0 -33 -5 -62.5t-7 -37.5l-26 -25h-566v-32q0 -172 83 -276.5t220 -104.5q57 0 112.5 14t92.5 29.5t47 19.5l13 -4l22 -59q-113 -111 -164 -168.5t-78.5 -106.5t-27.5 -102q0 -49 32.5 -80 t86.5 -31q35 0 70.5 10.5t58 21.5t28.5 15l27 -39q-8 -8 -38 -31.5t-75 -52t-92 -45.5q-102 0 -164.5 51.5t-62.5 141.5q0 66 49 135.5t147 167.5q-63 -27 -110 -27q-127 0 -225.5 56.5t-151.5 160t-53 236.5zM236 604l370 19q31 4 41 14t10 41q0 82 -44 125t-126 43 q-96 0 -164.5 -65.5t-86.5 -176.5z" />
<glyph unicode="&#x11a;" horiz-adv-x="1210" d="M119 -20l12 94q92 12 126 48t34 124l2 860q0 66 -15.5 88.5t-60.5 22.5q-20 0 -40.5 -2.5t-29.5 -2.5l-4 9l15 90q27 -2 107.5 -4t176.5 -2q244 0 379 5t236 19l6 -12q-2 -12 -11.5 -58.5t-19.5 -122t-16 -159.5l-98 -8q0 10 2 35.5t2 52.5q0 72 -18.5 99.5t-80 36.5 t-215.5 9q-72 0 -98.5 -4t-34.5 -19.5t-10 -56.5l-16 -397l210 -2q47 0 134.5 9t115.5 13l9 -10l-29 -121q-29 2 -112 4.5t-175 2.5q-76 0 -158 -15q-8 -295 -8 -391q0 -59 10.5 -82.5t42 -32t109.5 -8.5q172 0 244.5 16.5t103.5 65.5t47 168l90 10l7 -10 q-6 -29 -24.5 -132.5t-31.5 -211.5l-10 -12q-70 2 -285 8t-336 6q-96 0 -179 -8t-105 -12zM338 1669l28 45l19 2q137 -80 250 -133q106 49 249 133l19 -2l29 -45q-84 -63 -171.5 -134t-111.5 -93h-29q-25 23 -111.5 93.5t-170.5 133.5z" />
<glyph unicode="&#x11b;" horiz-adv-x="917" d="M74 428q0 137 62.5 258t167 192.5t222.5 71.5q150 0 227.5 -75.5t77.5 -221.5q0 -33 -5 -62.5t-7 -37.5l-26 -25h-566v-32q0 -172 83 -276.5t220 -104.5q57 0 112.5 14t92.5 29.5t47 19.5l13 -4l22 -59q-14 -10 -66.5 -44t-122 -65t-124.5 -31q-127 0 -225.5 56.5 t-151.5 160t-53 236.5zM186 1405l33 47l16 2q124 -107 263 -207q170 127 262 207l16 -2l33 -47q-88 -90 -179 -193.5t-118 -134.5h-29q-27 31 -118 134.5t-179 193.5zM236 604l370 19q31 4 41 14t10 41q0 82 -44 125t-126 43q-96 0 -164.5 -65.5t-86.5 -176.5z" />
<glyph unicode="&#x11c;" horiz-adv-x="1366" d="M82 608q0 211 90 375t254 255t375 91q76 0 164 -11t151.5 -22.5t81.5 -15.5l8 -12q-4 -12 -14 -59.5t-21.5 -123t-17.5 -159.5l-96 -8q2 10 4 39.5t2 70.5q0 94 -72.5 137t-236.5 43q-233 0 -363.5 -140t-130.5 -394q0 -178 57.5 -313.5t164 -209t245.5 -73.5 q74 0 135.5 17.5t103.5 38t42 22.5v250q0 70 -21.5 90t-91.5 20h-141l-4 8l18 103q25 -2 104.5 -5.5t155.5 -3.5q55 0 108.5 4.5t67.5 6.5l8 -45q-36 -31 -49.5 -97.5t-13.5 -218.5q0 -119 14 -180l-12 -18q0 -2 -72.5 -28t-178 -46.5t-220.5 -20.5q-180 0 -315.5 78 t-209 220.5t-73.5 334.5zM416 1482q84 88 171 186.5t111 127.5h29q25 -29 112 -128.5t171 -185.5l-29 -45l-19 -2q-78 70 -206 166l-43 33q-160 -119 -250 -199l-19 2z" />
<glyph unicode="&#x11d;" horiz-adv-x="1032" d="M104 174q78 74 172 131v8q-70 37 -110.5 109t-40.5 158q0 98 52 184t139 136t190 50q47 0 117 -12q51 -10 84 -10q86 10 282 61l6 -8l-22 -115q-82 -12 -176 -18l-9 -10q82 -90 82 -209q0 -98 -54 -182.5t-146 -132.5t-203 -48q-51 1 -117 15q-47 -27 -66.5 -48.5 t-19.5 -44.5q0 -47 63.5 -65.5t198.5 -34.5q133 -16 215 -33.5t141.5 -62.5t59.5 -125q0 -90 -73.5 -174t-192.5 -136.5t-244 -52.5q-145 0 -226 72t-81 201q27 37 83 87t120 97v12q-109 18 -166.5 70.5t-57.5 130.5zM256 1124q84 88 171 186.5t111 127.5h29 q25 -29 112 -128.5t171 -185.5l-29 -45l-19 -2q-78 70 -206 166l-43 33q-160 -119 -250 -199l-19 2zM279 618q0 -117 65.5 -189.5t169.5 -72.5q94 0 148.5 59.5t54.5 164.5q0 119 -65.5 192.5t-170.5 73.5q-94 0 -148 -61.5t-54 -166.5zM289 -242q0 -70 60.5 -111.5 t156.5 -41.5q80 0 150.5 27.5t112.5 75.5t42 102q0 41 -33 65.5t-115.5 43t-246.5 38.5q-53 -35 -90 -92.5t-37 -106.5z" />
<glyph unicode="&#x11e;" horiz-adv-x="1366" d="M82 608q0 211 90 375t254 255t375 91q76 0 164 -11t151.5 -22.5t81.5 -15.5l8 -12q-4 -12 -14 -59.5t-21.5 -123t-17.5 -159.5l-96 -8q2 10 4 39.5t2 70.5q0 94 -72.5 137t-236.5 43q-233 0 -363.5 -140t-130.5 -394q0 -178 57.5 -313.5t164 -209t245.5 -73.5 q74 0 135.5 17.5t103.5 38t42 22.5v250q0 70 -21.5 90t-91.5 20h-141l-4 8l18 103q25 -2 104.5 -5.5t155.5 -3.5q55 0 108.5 4.5t67.5 6.5l8 -45q-36 -31 -49.5 -97.5t-13.5 -218.5q0 -119 14 -180l-12 -18q0 -2 -72.5 -28t-178 -46.5t-220.5 -20.5q-180 0 -315.5 78 t-209 220.5t-73.5 334.5zM502 1655l33 20h16q25 -49 78 -75.5t119 -26.5q65 0 118.5 26.5t77.5 75.5h17l32 -20q-25 -86 -86 -143.5t-159 -57.5t-160 57.5t-86 143.5z" />
<glyph unicode="&#x11f;" horiz-adv-x="1032" d="M104 174q78 74 172 131v8q-70 37 -110.5 109t-40.5 158q0 98 52 184t139 136t190 50q47 0 117 -12q51 -10 84 -10q86 10 282 61l6 -8l-22 -115q-82 -12 -176 -18l-9 -10q82 -90 82 -209q0 -98 -54 -182.5t-146 -132.5t-203 -48q-51 1 -117 15q-47 -27 -66.5 -48.5 t-19.5 -44.5q0 -47 63.5 -65.5t198.5 -34.5q133 -16 215 -33.5t141.5 -62.5t59.5 -125q0 -90 -73.5 -174t-192.5 -136.5t-244 -52.5q-145 0 -226 72t-81 201q27 37 83 87t120 97v12q-109 18 -166.5 70.5t-57.5 130.5zM262 1376l33 21h16q25 -66 78 -100.5t119 -34.5 q65 0 118.5 34.5t77.5 100.5h17l32 -21q-25 -98 -86 -165.5t-159 -67.5t-160 67.5t-86 165.5zM279 618q0 -117 65.5 -189.5t169.5 -72.5q94 0 148.5 59.5t54.5 164.5q0 119 -65.5 192.5t-170.5 73.5q-94 0 -148 -61.5t-54 -166.5zM289 -242q0 -70 60.5 -111.5t156.5 -41.5 q80 0 150.5 27.5t112.5 75.5t42 102q0 41 -33 65.5t-115.5 43t-246.5 38.5q-53 -35 -90 -92.5t-37 -106.5z" />
<glyph unicode="&#x120;" horiz-adv-x="1366" d="M82 608q0 211 90 375t254 255t375 91q76 0 164 -11t151.5 -22.5t81.5 -15.5l8 -12q-4 -12 -14 -59.5t-21.5 -123t-17.5 -159.5l-96 -8q2 10 4 39.5t2 70.5q0 94 -72.5 137t-236.5 43q-233 0 -363.5 -140t-130.5 -394q0 -178 57.5 -313.5t164 -209t245.5 -73.5 q74 0 135.5 17.5t103.5 38t42 22.5v250q0 70 -21.5 90t-91.5 20h-141l-4 8l18 103q25 -2 104.5 -5.5t155.5 -3.5q55 0 108.5 4.5t67.5 6.5l8 -45q-36 -31 -49.5 -97.5t-13.5 -218.5q0 -119 14 -180l-12 -18q0 -2 -72.5 -28t-178 -46.5t-220.5 -20.5q-180 0 -315.5 78 t-209 220.5t-73.5 334.5zM639 1577q0 49 35 85t86 36q47 0 73.5 -31t26.5 -74q0 -49 -34.5 -84.5t-86.5 -35.5q-47 0 -73.5 30.5t-26.5 73.5z" />
<glyph unicode="&#x121;" horiz-adv-x="1032" d="M104 174q78 74 172 131v8q-70 37 -110.5 109t-40.5 158q0 98 52 184t139 136t190 50q47 0 117 -12q51 -10 84 -10q86 10 282 61l6 -8l-22 -115q-82 -12 -176 -18l-9 -10q82 -90 82 -209q0 -98 -54 -182.5t-146 -132.5t-203 -48q-51 1 -117 15q-47 -27 -66.5 -48.5 t-19.5 -44.5q0 -47 63.5 -65.5t198.5 -34.5q133 -16 215 -33.5t141.5 -62.5t59.5 -125q0 -90 -73.5 -174t-192.5 -136.5t-244 -52.5q-145 0 -226 72t-81 201q27 37 83 87t120 97v12q-109 18 -166.5 70.5t-57.5 130.5zM279 618q0 -117 65.5 -189.5t169.5 -72.5 q94 0 148.5 59.5t54.5 164.5q0 119 -65.5 192.5t-170.5 73.5q-94 0 -148 -61.5t-54 -166.5zM289 -242q0 -70 60.5 -111.5t156.5 -41.5q80 0 150.5 27.5t112.5 75.5t42 102q0 41 -33 65.5t-115.5 43t-246.5 38.5q-53 -35 -90 -92.5t-37 -106.5zM393 1337q0 49 35 85t86 36 q47 0 73.5 -30.5t26.5 -73.5q0 -49 -34.5 -85t-86.5 -36q-47 0 -73.5 30.5t-26.5 73.5z" />
<glyph unicode="&#x122;" horiz-adv-x="1366" d="M82 608q0 211 90 375t254 255t375 91q76 0 164 -11t151.5 -22.5t81.5 -15.5l8 -12q-4 -12 -14 -59.5t-21.5 -123t-17.5 -159.5l-96 -8q2 10 4 39.5t2 70.5q0 94 -72.5 137t-236.5 43q-233 0 -363.5 -140t-130.5 -394q0 -178 57.5 -313.5t164 -209t245.5 -73.5 q74 0 135.5 17.5t103.5 38t42 22.5v250q0 70 -21.5 90t-91.5 20h-141l-4 8l18 103q25 -2 104.5 -5.5t155.5 -3.5q55 0 108.5 4.5t67.5 6.5l8 -45q-36 -31 -49.5 -97.5t-13.5 -218.5q0 -119 14 -180l-12 -18q0 -2 -72.5 -28t-178 -46.5t-220.5 -20.5q-180 0 -315.5 78 t-209 220.5t-73.5 334.5zM520 -549q63 39 105.5 95.5t42.5 107.5q0 39 -23 72.5t-59 54.5l4 29q70 53 119 53q47 0 78.5 -40t31.5 -106q0 -100 -78 -181t-184 -136l-37 31v20z" />
<glyph unicode="&#x123;" horiz-adv-x="1032" d="M104 174q78 74 172 131v8q-70 37 -110.5 109t-40.5 158q0 98 52 184t139 136t190 50q47 0 117 -12q51 -10 84 -10q86 10 282 61l6 -8l-22 -115q-82 -12 -176 -18l-9 -10q82 -90 82 -209q0 -98 -54 -182.5t-146 -132.5t-203 -48q-51 1 -117 15q-47 -27 -66.5 -48.5 t-19.5 -44.5q0 -47 63.5 -65.5t198.5 -34.5q133 -16 215 -33.5t141.5 -62.5t59.5 -125q0 -90 -73.5 -174t-192.5 -136.5t-244 -52.5q-145 0 -226 72t-81 201q27 37 83 87t120 97v12q-109 18 -166.5 70.5t-57.5 130.5zM279 618q0 -117 65.5 -189.5t169.5 -72.5 q94 0 148.5 59.5t54.5 164.5q0 119 -65.5 192.5t-170.5 73.5q-94 0 -148 -61.5t-54 -166.5zM289 -242q0 -70 60.5 -111.5t156.5 -41.5q80 0 150.5 27.5t112.5 75.5t42 102q0 41 -33 65.5t-115.5 43t-246.5 38.5q-53 -35 -90 -92.5t-37 -106.5zM393 1190q0 100 78 181 t184 136l37 -31v-20q-63 -39 -105 -95.5t-42 -107.5q0 -39 22.5 -72.5t59.5 -54.5l-4 -28q-70 -54 -119 -54q-47 0 -79 40t-32 106z" />
<glyph unicode="&#x124;" horiz-adv-x="1544" d="M119 -25l12 95q94 18 127 54t33 122l2 860q0 66 -15.5 88.5t-60.5 22.5q-20 0 -40.5 -2.5t-29.5 -2.5l-4 9l15 90q25 -2 92 -4t135 -2q55 0 126 7t93 11l-8 -92q-61 -10 -88 -25.5t-35 -48.5t-12 -110l-12 -332l344 -2q131 0 303 20l2 373q0 66 -15.5 88.5t-60.5 22.5 q-20 0 -40.5 -2.5t-29.5 -2.5l-4 9l15 90q23 -2 82 -4t118 -2q61 0 141 7t105 11l-8 -92q-76 -10 -101.5 -33.5t-29.5 -83.5q-13 -240 -21 -501t-8 -384q0 -84 18.5 -111.5t71.5 -27.5q31 0 57.5 2t34.5 4l4 -8l-18 -94q-27 2 -100.5 4t-151.5 2q-68 0 -138.5 -2t-96.5 -2 l18 92q68 2 99.5 18.5t44 61.5t12.5 139v309l-312 2q-41 0 -169 -9t-171 -13l-8 -367q0 -84 18.5 -111.5t71.5 -27.5q31 0 57.5 2t34.5 4l5 -8l-19 -94q-16 2 -66.5 4t-107.5 2q-90 0 -199.5 -8t-111.5 -17zM476 1536q84 88 171 186.5t111 127.5h29q25 -29 112 -128.5 t171 -185.5l-29 -45l-19 -2q-78 70 -206 166l-43 33q-160 -119 -250 -199l-19 2z" />
<glyph unicode="&#x125;" horiz-adv-x="1093" d="M-22 1611q84 88 171 186.5t111 127.5h29q25 -29 112 -128.5t171 -185.5l-29 -45l-19 -2q-78 70 -206 166l-43 33q-160 -119 -250 -199l-19 2zM51 1395l8 65q88 12 182.5 32.5t120.5 27.5l13 -27q-14 -23 -27.5 -216.5t-21.5 -485.5q233 160 307 159q133 0 206.5 -69.5 t73.5 -194.5q0 -41 -14 -188q-18 -240 -18 -297q0 -59 16 -87t55 -28q23 0 43.5 2t28.5 2l4 -8l-16 -88q-18 2 -69.5 4t-113.5 2q-53 0 -121.5 -10t-89.5 -15l9 84q61 16 87.5 48t26.5 86l13 405q0 102 -44 157.5t-126 55.5q-70 0 -142.5 -38t-117.5 -75q-6 -236 -7 -497 q0 -63 16.5 -89t57.5 -26q23 0 43.5 2t28.5 2l4 -8l-18 -88q-18 2 -71.5 4t-115.5 2q-68 0 -125 -2t-78 -2l13 84q59 6 82.5 30.5t23.5 82.5v1089q0 55 -18.5 81t-57.5 26h-43z" />
<glyph unicode="&#x126;" horiz-adv-x="1536" d="M86 936l14 80h189v90q0 66 -15.5 88.5t-60.5 22.5q-20 0 -40.5 -2.5t-29.5 -2.5l-4 9l15 90q25 -2 92 -4t135 -2q55 0 126 7t93 11l-8 -92q-61 -10 -88 -25.5t-35 -48.5t-12 -110l-2 -33h356l283 2v90q0 66 -15.5 88.5t-60.5 22.5q-20 0 -41 -2.5t-29 -2.5l-4 9l14 90 q23 -2 82.5 -4t118.5 -2q61 0 141 7t105 11l-8 -92q-76 -10 -101.5 -33.5t-29.5 -83.5l-4 -94l159 4l27 -27l-8 -75h-183q-20 -441 -20 -693q0 -84 18.5 -111.5t71.5 -27.5q31 0 57.5 2t34.5 4l4 -8l-18 -94q-27 2 -100.5 4t-151.5 2q-68 0 -138.5 -2t-96.5 -2l18 92 q68 2 99.5 18.5t44 61.5t12.5 139v309l-312 2q-41 0 -169 -9t-171 -13l-8 -367q0 -84 18.5 -111.5t71.5 -27.5q31 0 57.5 2t34.5 4l4 -8l-18 -94q-16 2 -66.5 4t-107.5 2q-90 0 -199.5 -8t-111.5 -17l12 95q94 18 127 54t33 122l2 672h-185zM444 715l344 -2q131 0 304 20 l2 187h-328h-313z" />
<glyph unicode="&#x127;" horiz-adv-x="1097" d="M16 1085l15 80l151 -2v119q0 55 -18.5 81t-57.5 26h-43l-8 6l8 65q88 12 182.5 32.5t121.5 27.5l12 -27q-18 -27 -35 -330q66 2 118 5t70 6l27 -27l-8 -76l-211 -2q-8 -160 -10 -278q233 160 307 159q133 0 207 -69.5t74 -194.5q0 -41 -15 -188q-18 -240 -18 -297 q0 -59 16.5 -87t54.5 -28q23 0 43.5 2t28.5 2l4 -8l-16 -88q-18 2 -69.5 4t-112.5 2q-53 0 -122 -10t-89 -15l8 84q61 16 87.5 48t26.5 86l13 405q0 102 -44 157.5t-126 55.5q-70 0 -142.5 -38t-117.5 -75q-6 -238 -6 -497q0 -63 16 -89t57 -26q23 0 43.5 2t28.5 2l4 -8 l-18 -88q-18 2 -71.5 4t-115.5 2q-68 0 -125 -2t-78 -2l13 84q59 6 82.5 30.5t23.5 82.5v876l-147 -2z" />
<glyph unicode="&#x128;" horiz-adv-x="739" d="M45 1529v11l155 182l33 8q37 0 160 -37q18 -4 68.5 -17t70.5 -13t49 24.5t51.5 52t28.5 35.5h12l45 -43v-10l-155 -182l-33 -8q-37 0 -160 36q-18 4 -68 17.5t-71 13.5q-23 0 -51.5 -24.5t-50 -52t-27.5 -36.5h-12zM115 -25l12 95q96 18 130 54t34 122l2 860 q0 66 -15.5 88.5t-60.5 22.5q-27 0 -52.5 -2.5t-33.5 -2.5l-4 9l14 90q27 -2 98.5 -4t145.5 -2q59 0 136 7t100 11l-9 -92q-86 -10 -114.5 -33.5t-32.5 -83.5q-12 -240 -20.5 -501t-8.5 -384q0 -84 18.5 -111.5t71.5 -27.5q37 0 68 2t41 4l4 -8l-18 -94q-29 2 -108 4t-161 2 q-66 0 -140.5 -10t-96.5 -15z" />
<glyph unicode="&#x129;" horiz-adv-x="577" d="M-57 1171v11l155 182l33 8q37 0 160 -37q18 -4 68.5 -17t70.5 -13t49 24.5t51.5 52t28.5 35.5h12l45 -43v-10l-155 -182l-33 -8q-37 0 -160 36q-18 4 -68 17.5t-71 13.5q-23 0 -51.5 -24.5t-50 -52t-27.5 -36.5h-12zM86 815l8 76q86 12 177 32.5t118 26.5l10 -24 q-18 -43 -32.5 -263.5t-14.5 -461.5q0 -59 16.5 -87t55.5 -28q23 0 43 2t29 2l4 -8l-17 -88q-18 2 -69.5 4t-112.5 2q-53 0 -121.5 -10t-89.5 -15l8 84q62 17 88.5 48.5t26.5 85.5v520q0 111 -76 110q-14 0 -30.5 -3t-20.5 -5z" />
<glyph unicode="&#x12a;" horiz-adv-x="739" d="M69 1491l21 92l315 -2q63 0 150.5 5t113.5 7l13 -20l-15 -96l-290 -2l-295 -2zM115 -25l12 95q96 18 130 54t34 122l2 860q0 66 -15.5 88.5t-60.5 22.5q-27 0 -52.5 -2.5t-33.5 -2.5l-4 9l14 90q27 -2 98.5 -4t145.5 -2q59 0 136 7t100 11l-9 -92q-86 -10 -114.5 -33.5 t-32.5 -83.5q-12 -240 -20.5 -501t-8.5 -384q0 -84 18.5 -111.5t71.5 -27.5q37 0 68 2t41 4l4 -8l-18 -94q-29 2 -108 4t-161 2q-66 0 -140.5 -10t-96.5 -15z" />
<glyph unicode="&#x12b;" horiz-adv-x="577" d="M14 1235l19 92l283 -2q57 0 135.5 5t102.5 7l11 -20l-13 -96l-261 -2l-266 -2zM86 815l8 76q86 12 177 32.5t118 26.5l10 -24q-18 -43 -32.5 -263.5t-14.5 -461.5q0 -59 16.5 -87t55.5 -28q23 0 43 2t29 2l4 -8l-17 -88q-18 2 -69.5 4t-112.5 2q-53 0 -121.5 -10 t-89.5 -15l8 84q62 17 88.5 48.5t26.5 85.5v520q0 111 -76 110q-14 0 -30.5 -3t-20.5 -5z" />
<glyph unicode="&#x12c;" horiz-adv-x="739" d="M115 -25l12 95q96 18 130 54t34 122l2 860q0 66 -15.5 88.5t-60.5 22.5q-27 0 -52.5 -2.5t-33.5 -2.5l-4 9l14 90q27 -2 98.5 -4t145.5 -2q59 0 136 7t100 11l-9 -92q-86 -10 -114.5 -33.5t-32.5 -83.5q-12 -240 -20.5 -501t-8.5 -384q0 -84 18.5 -111.5t71.5 -27.5 q37 0 68 2t41 4l4 -8l-18 -94q-29 2 -108 4t-161 2q-66 0 -140.5 -10t-96.5 -15zM139 1734l33 21h16q25 -66 78 -100.5t119 -34.5q65 0 118.5 34.5t77.5 100.5h17l32 -21q-25 -98 -86 -165.5t-159 -67.5t-160 67.5t-86 165.5z" />
<glyph unicode="&#x12d;" horiz-adv-x="577" d="M37 1376l33 21h16q25 -66 78 -100.5t119 -34.5q65 0 118.5 34.5t77.5 100.5h17l32 -21q-25 -98 -86 -165.5t-159 -67.5t-160 67.5t-86 165.5zM86 815l8 76q86 12 177 32.5t118 26.5l10 -24q-18 -43 -32.5 -263.5t-14.5 -461.5q0 -59 16.5 -87t55.5 -28q23 0 43 2t29 2 l4 -8l-17 -88q-18 2 -69.5 4t-112.5 2q-53 0 -121.5 -10t-89.5 -15l8 84q62 17 88.5 48.5t26.5 85.5v520q0 111 -76 110q-14 0 -30.5 -3t-20.5 -5z" />
<glyph unicode="&#x12e;" horiz-adv-x="739" d="M115 -25l12 95q96 18 130 54t34 122l2 860q0 66 -15.5 88.5t-60.5 22.5q-27 0 -52.5 -2.5t-33.5 -2.5l-4 9l14 90q27 -2 98.5 -4t145.5 -2q59 0 136 7t100 11l-9 -92q-86 -10 -114.5 -33.5t-32.5 -83.5q-12 -240 -20.5 -501t-8.5 -384q0 -84 18.5 -111.5t71.5 -27.5 q37 0 68 2t41 4l4 -8l-18 -94l-99 4q-84 -90 -117.5 -145.5t-33.5 -114.5q0 -49 32.5 -80t85.5 -31q35 0 71 10.5t58.5 21.5t28.5 15l27 -39q-8 -8 -38 -31.5t-75 -52t-92 -45.5q-102 0 -164.5 51.5t-62.5 141.5q0 66 48 134.5t144 166.5h-82q-66 0 -140.5 -10t-96.5 -15z " />
<glyph unicode="&#x12f;" horiz-adv-x="577" d="M86 -301q0 66 49 135.5t146 165.5q-53 -2 -112.5 -11t-78.5 -14l8 84q61 16 88 48t27 86v520q0 111 -76 110q-14 0 -30.5 -3t-20.5 -5l8 76q86 12 177 32.5t118 26.5l10 -24q-18 -43 -32.5 -263.5t-14.5 -461.5q0 -59 16.5 -87t55.5 -28q23 0 43 2t29 2l4 -8l-17 -88 q-10 0 -40.5 2t-73.5 2q-84 -88 -119 -144.5t-35 -115.5q0 -49 33 -80t86 -31q35 0 70.5 10.5t58 21.5t29.5 15l26 -39q-8 -8 -37.5 -31.5t-75 -52t-92.5 -45.5q-102 0 -164.5 51.5t-62.5 141.5zM172 1337q0 51 35 86t86 35q43 0 71.5 -29.5t28.5 -74.5q0 -51 -34.5 -86 t-86.5 -35q-45 0 -72.5 28.5t-27.5 75.5z" />
<glyph unicode="&#x130;" horiz-adv-x="739" d="M115 -25l12 95q96 18 130 54t34 122l2 860q0 66 -15.5 88.5t-60.5 22.5q-27 0 -52.5 -2.5t-33.5 -2.5l-4 9l14 90q27 -2 98.5 -4t145.5 -2q59 0 136 7t100 11l-9 -92q-86 -10 -114.5 -33.5t-32.5 -83.5q-12 -240 -20.5 -501t-8.5 -384q0 -84 18.5 -111.5t71.5 -27.5 q37 0 68 2t41 4l4 -8l-18 -94q-29 2 -108 4t-161 2q-66 0 -140.5 -10t-96.5 -15zM266 1577q0 49 35 85t86 36q47 0 73.5 -31t26.5 -74q0 -49 -34.5 -84.5t-86.5 -35.5q-47 0 -73.5 30.5t-26.5 73.5z" />
<glyph unicode="&#x131;" horiz-adv-x="577" d="M86 815l8 76q86 12 177 32.5t118 26.5l10 -24q-18 -43 -32.5 -263.5t-14.5 -461.5q0 -59 16.5 -87t55.5 -28q23 0 43 2t29 2l4 -8l-17 -88q-18 2 -69.5 4t-112.5 2q-53 0 -121.5 -10t-89.5 -15l8 84q62 17 88.5 48.5t26.5 85.5v520q0 111 -76 110q-14 0 -30.5 -3 t-20.5 -5z" />
<glyph unicode="&#x132;" horiz-adv-x="1409" d="M115 -25l12 95q96 18 130 54t34 122l2 860q0 66 -15.5 88.5t-60.5 22.5q-27 0 -52.5 -2.5t-33.5 -2.5l-4 9l14 90q27 -2 98.5 -4t145.5 -2q59 0 136 7t100 11l-9 -92q-86 -10 -114.5 -33.5t-32.5 -83.5q-12 -240 -20.5 -501t-8.5 -384q0 -84 18.5 -111.5t71.5 -27.5 q37 0 68 2t41 4l4 -8l-18 -94q-29 2 -108 4t-161 2q-66 0 -140.5 -10t-96.5 -15zM786 -227l6 16q84 51 130 107.5t65.5 135.5t19.5 204l2 870q0 65 -14 86.5t-61 21.5q-25 0 -54.5 -3t-42.5 -5l-4 8l15 91h221q55 0 134 7t103 11l-8 -92q-51 -8 -73.5 -18.5t-32 -32 t-11.5 -66.5q-8 -190 -15 -442t-11 -434q-2 -209 -81 -335t-253 -198z" />
<glyph unicode="&#x133;" horiz-adv-x="1089" d="M86 815l8 76q86 12 177 32.5t118 26.5l10 -24q-18 -43 -32.5 -263.5t-14.5 -461.5q0 -59 16.5 -87t55.5 -28q23 0 43 2t29 2l4 -8l-17 -88q-18 2 -69.5 4t-112.5 2q-53 0 -121.5 -10t-89.5 -15l8 84q62 17 88.5 48.5t26.5 85.5v520q0 111 -76 110q-14 0 -30.5 -3 t-20.5 -5zM172 1337q0 51 35 86t86 35q43 0 71.5 -29.5t28.5 -74.5q0 -51 -34.5 -86t-86.5 -35q-45 0 -72.5 28.5t-27.5 75.5zM609 -455l4 17q88 88 119.5 196.5t31.5 319.5v635q0 63 -17 86.5t-65 23.5q-18 0 -33.5 -2t-21.5 -4l8 76q78 10 172.5 30.5t122.5 26.5l10 -24 q-35 -59 -34 -955q0 -147 -67.5 -268t-192.5 -197zM725 1337q0 51 35 86t86 35q43 0 72 -29.5t29 -74.5q0 -51 -35 -86t-86 -35q-45 0 -73 28.5t-28 75.5z" />
<glyph unicode="&#x134;" horiz-adv-x="669" d="M47 -227l6 16q84 51 130 107.5t65.5 135.5t19.5 204l2 870q0 65 -14 86.5t-61 21.5q-25 0 -54.5 -3t-42.5 -5l-4 8l15 91h221q55 0 134 7t103 11l-8 -92q-51 -8 -73.5 -18.5t-32 -32t-11.5 -66.5q-8 -190 -15 -442t-11 -434q-2 -209 -81 -335t-253 -198zM60 1482 q84 88 171 186.5t111 127.5h29q25 -29 112 -128.5t171 -185.5l-29 -45l-19 -2q-78 70 -206 166l-43 33q-160 -119 -250 -199l-19 2z" />
<glyph unicode="&#x135;" horiz-adv-x="512" d="M-41 1126q84 88 171 186.5t111 127.5h29q25 -29 112 -128.5t171 -185.5l-29 -45l-19 -2q-78 70 -206 166l-43 33q-160 -119 -250 -199l-19 2zM31 -455l4 17q88 88 119.5 196.5t31.5 319.5v635q0 63 -17 86.5t-65 23.5q-18 0 -33.5 -2t-21.5 -4l8 76q78 10 172.5 30.5 t122.5 26.5l10 -24q-35 -59 -34 -955q0 -147 -67.5 -268t-192.5 -197z" />
<glyph unicode="&#x136;" horiz-adv-x="1286" d="M117 -2l20 92q66 6 97.5 20.5t44 45t12.5 90.5l2 860q0 65 -15.5 88t-60.5 23q-20 0 -40.5 -2.5t-29.5 -2.5l-4 9l15 90q25 -2 92 -4t135 -2q55 0 126 7t93 11l-8 -92q-76 -12 -104.5 -38t-30.5 -85l-25 -879q-2 -82 16.5 -110.5t73.5 -28.5q31 0 57.5 2t34.5 4l5 -8 l-19 -94q-27 2 -100.5 4t-151.5 2zM496 645l2 29l366 381q64 63 64 106q0 53 -129 62l-4 8l14 88q25 -2 101.5 -8t123.5 -6q49 0 109.5 3t79.5 5l8 -15l-14 -84q-53 -10 -98.5 -42.5t-137.5 -129.5l-330 -346l344 -448q74 -96 132.5 -135t129.5 -39l9 -8l-13 -70 q-23 -4 -89 -14.5t-81 -10.5q-49 0 -108.5 46t-120.5 130zM498 -549q63 39 105.5 95.5t42.5 107.5q0 39 -23 72.5t-59 54.5l4 29q70 53 119 53q47 0 78.5 -40t31.5 -106q0 -100 -78 -181t-184 -136l-37 31v20z" />
<glyph unicode="&#x137;" horiz-adv-x="1017" d="M51 1384q0 12 4 37l4 39q88 12 182.5 32.5t120.5 27.5l13 -27q-23 -35 -40.5 -434.5t-17.5 -857.5q0 -63 16.5 -89t57.5 -26q23 0 43.5 2t28.5 2l4 -8l-18 -88q-18 2 -71.5 4t-115.5 2q-53 0 -117.5 -5t-85.5 -7l11 84q53 8 75.5 29.5t27.5 56.5t5 118v1006 q0 111 -76 111q-14 0 -30.5 -3.5t-20.5 -5.5zM358 -549q63 39 105.5 95.5t42.5 107.5q0 39 -23 72.5t-59 54.5l4 29q70 53 119 53q47 0 78.5 -40t31.5 -106q0 -100 -78 -181t-184 -136l-37 31v20zM369 487l4 29l250 229q29 27 39 42.5t10 29.5q0 23 -27 33t-86 10l-6 10 l18 60q20 0 79 -2t122 -2q49 0 112.5 5t82.5 7l6 -10l-17 -64q-84 -25 -169 -94.5t-203 -187.5l-64 -64l215 -276q70 -90 127.5 -129t120.5 -39l6 -11l-12 -59q-18 -6 -75.5 -19.5t-76.5 -13.5q-31 0 -71 21q-33 16 -65 51t-79 102z" />
<glyph unicode="&#x138;" horiz-adv-x="1048" d="M80 844l8 71q94 10 171 20.5t101 14.5l13 -26q-8 -45 -16.5 -238.5t-8.5 -484.5q0 -63 16.5 -89t57.5 -26q23 0 43 2t29 2l4 -8l-19 -88q-18 2 -71.5 4t-114.5 2q-53 0 -117.5 -5t-85.5 -7l10 84q54 8 76.5 29.5t27.5 56.5t5 118v457q0 55 -23.5 78t-93.5 23zM399 487 l4 29l250 229q29 27 39 42.5t10 29.5q0 23 -26.5 33t-85.5 10l-6 10l18 60q20 0 78.5 -2t122.5 -2q49 0 112.5 5t81.5 7l7 -10l-17 -64q-84 -25 -169 -94.5t-204 -187.5l-63 -64l215 -276q70 -90 127 -129t121 -39l6 -11l-12 -59q-18 -6 -76 -19.5t-76 -13.5q-31 0 -72 21 q-33 16 -64.5 51t-78.5 102z" />
<glyph unicode="&#x139;" horiz-adv-x="1038" d="M139 -20l13 94q80 12 109.5 48t29.5 124l2 860q0 66 -15.5 88.5t-60.5 22.5q-20 0 -40.5 -2.5t-29.5 -2.5l-4 9l15 90q25 -2 92 -4t137 -2q55 0 126 7t93 11l-8 -92q-68 -8 -93.5 -26.5t-30.5 -43t-11 -121.5q-12 -174 -18.5 -397t-6.5 -393q0 -74 12.5 -105.5t46 -42 t115.5 -10.5q125 0 183.5 20.5t88 80t54.5 190.5l90 10l6 -10q-6 -33 -25.5 -147.5t-33.5 -241.5l-10 -12q-59 4 -244.5 11t-306.5 7q-97 0 -175.5 -8t-99.5 -12zM258 1499q121 63 246 133t162 90l18 -12l33 -98l-8 -21q-35 -12 -161 -56t-261 -95l-17 10z" />
<glyph unicode="&#x13a;" horiz-adv-x="499" d="M51 1384q0 12 4 37l4 39q88 12 182.5 32.5t120.5 27.5l13 -27q-23 -35 -40.5 -436.5t-17.5 -855.5q0 -61 16.5 -88t55.5 -27q23 0 43.5 2t28.5 2l4 -8l-16 -88q-18 2 -69.5 4t-113.5 2q-53 0 -121.5 -10t-89.5 -15l8 84q58 17 81.5 41.5t28.5 59.5t5 116v1006 q0 111 -76 111q-14 0 -30.5 -3.5t-20.5 -5.5zM112 1581q92 100 186.5 211t120.5 143l21 -4l78 -84l-2 -22q-31 -23 -134.5 -107t-209.5 -180l-19 4z" />
<glyph unicode="&#x13b;" horiz-adv-x="1038" d="M139 -20l13 94q80 12 109.5 48t29.5 124l2 860q0 66 -15.5 88.5t-60.5 22.5q-20 0 -40.5 -2.5t-29.5 -2.5l-4 9l15 90q25 -2 92 -4t137 -2q55 0 126 7t93 11l-8 -92q-68 -8 -93.5 -26.5t-30.5 -43t-11 -121.5q-12 -174 -18.5 -397t-6.5 -393q0 -74 12.5 -105.5t46 -42 t115.5 -10.5q125 0 183.5 20.5t88 80t54.5 190.5l90 10l6 -10q-6 -33 -25.5 -147.5t-33.5 -241.5l-10 -12q-59 4 -244.5 11t-306.5 7q-97 0 -175.5 -8t-99.5 -12zM436 -549q63 39 105.5 95.5t42.5 107.5q0 39 -23 72.5t-59 54.5l4 29q70 53 119 53q47 0 78.5 -40t31.5 -106 q0 -100 -78 -181t-184 -136l-37 31v20z" />
<glyph unicode="&#x13c;" horiz-adv-x="499" d="M51 1384q0 12 4 37l4 39q88 12 182.5 32.5t120.5 27.5l13 -27q-23 -35 -40.5 -436.5t-17.5 -855.5q0 -61 16.5 -88t55.5 -27q23 0 43.5 2t28.5 2l4 -8l-16 -88q-18 2 -69.5 4t-113.5 2q-53 0 -121.5 -10t-89.5 -15l8 84q58 17 81.5 41.5t28.5 59.5t5 116v1006 q0 111 -76 111q-14 0 -30.5 -3.5t-20.5 -5.5zM78 -549q63 39 105.5 95.5t42.5 107.5q0 39 -23 72.5t-59 54.5l4 29q70 53 119 53q47 0 78.5 -40t31.5 -106q0 -100 -78 -181t-184 -136l-37 31v20z" />
<glyph unicode="&#x13d;" horiz-adv-x="1038" d="M139 -20l13 94q80 12 109.5 48t29.5 124l2 860q0 66 -15.5 88.5t-60.5 22.5q-20 0 -40.5 -2.5t-29.5 -2.5l-4 9l15 90q25 -2 92 -4t137 -2q55 0 126 7t93 11l-8 -92q-68 -8 -93.5 -26.5t-30.5 -43t-11 -121.5q-12 -174 -18.5 -397t-6.5 -393q0 -74 12.5 -105.5t46 -42 t115.5 -10.5q125 0 183.5 20.5t88 80t54.5 190.5l90 10l6 -10q-6 -33 -25.5 -147.5t-33.5 -241.5l-10 -12q-59 4 -244.5 11t-306.5 7q-97 0 -175.5 -8t-99.5 -12zM840 1268l143 28l14 -16q-4 -39 -24.5 -171t-46.5 -263l-52 -29l-22 4q2 37 2 111q0 115 -6 212t-8 124z" />
<glyph unicode="&#x13e;" horiz-adv-x="622" d="M51 1384q0 12 4 37l4 39q88 12 182.5 32.5t120.5 27.5l13 -27q-23 -35 -40.5 -436.5t-17.5 -855.5q0 -61 16.5 -88t55.5 -27q23 0 43.5 2t28.5 2l4 -8l-16 -88q-18 2 -69.5 4t-113.5 2q-53 0 -121.5 -10t-89.5 -15l8 84q58 17 81.5 41.5t28.5 59.5t5 116v1006 q0 111 -76 111q-14 0 -30.5 -3.5t-20.5 -5.5zM465 1403l143 29l15 -17q-5 -39 -25 -171t-47 -263l-51 -29l-23 4q2 37 2 111q0 115 -6 212t-8 124z" />
<glyph unicode="&#x13f;" horiz-adv-x="1091" d="M139 -20l13 94q80 12 109.5 48t29.5 124l2 860q0 66 -15.5 88.5t-60.5 22.5q-20 0 -40.5 -2.5t-29.5 -2.5l-4 9l15 90q25 -2 92 -4t137 -2q55 0 126 7t93 11l-8 -92q-68 -8 -93.5 -26.5t-30.5 -43t-11 -121.5q-12 -174 -18.5 -397t-6.5 -393q0 -74 12.5 -105.5t46 -42 t115.5 -10.5q125 0 183.5 20.5t88 80t54.5 190.5l90 10l6 -10q-6 -33 -25.5 -147.5t-33.5 -241.5l-10 -12q-59 4 -244.5 11t-306.5 7q-97 0 -175.5 -8t-99.5 -12zM778 901q0 53 35 90t92 37q55 0 86 -34t31 -83q0 -53 -36 -90t-93 -37q-56 0 -85.5 34t-29.5 83z" />
<glyph unicode="&#x140;" horiz-adv-x="679" d="M51 1384q0 12 4 37l4 39q88 12 182.5 32.5t120.5 27.5l13 -27q-23 -35 -40.5 -436.5t-17.5 -855.5q0 -61 16.5 -88t55.5 -27q23 0 43.5 2t28.5 2l4 -8l-16 -88q-18 2 -69.5 4t-113.5 2q-53 0 -121.5 -10t-89.5 -15l8 84q58 17 81.5 41.5t28.5 59.5t5 116v1006 q0 111 -76 111q-14 0 -30.5 -3.5t-20.5 -5.5zM426 565q0 53 35 90t92 37q55 0 86 -34t31 -83q0 -53 -36 -90t-93 -37q-56 0 -85.5 34t-29.5 83z" />
<glyph unicode="&#x141;" horiz-adv-x="1128" d="M125 600l168 82v424q0 66 -15.5 88.5t-60.5 22.5q-20 0 -40.5 -2.5t-29.5 -2.5l-4 9l15 90q25 -2 92 -4t137 -2q55 0 126 7t93 11l-8 -92q-68 -8 -93.5 -26.5t-30.5 -43t-11 -121.5q-12 -176 -14 -292l366 182l16 -10l11 -64l-398 -197q-6 -236 -6 -409 q0 -74 12.5 -105.5t46 -42t115.5 -10.5q125 0 183.5 20.5t88 80t54.5 190.5l90 10l6 -10q-6 -33 -25.5 -147.5t-33.5 -241.5l-10 -12q-59 4 -244.5 11t-306.5 7q-96 0 -175 -8t-100 -12l13 94q80 12 109.5 48t29.5 124v350l-137 -68l-19 7z" />
<glyph unicode="&#x142;" horiz-adv-x="505" d="M6 700l172 97v485q0 111 -76 111q-14 0 -30.5 -3.5t-20.5 -5.5q0 12 4 37l4 39q88 12 182.5 32.5t120.5 27.5l13 -27q-27 -41 -47 -621l139 76l16 -8l13 -63l-170 -95q-8 -244 -9 -581q0 -61 16.5 -88t55.5 -27q23 0 43.5 2t28.5 2l4 -8l-16 -88q-18 2 -69.5 4t-113.5 2 q-53 0 -121.5 -10t-89.5 -15l8 84q57 16 81 41t29 60t5 116v433l-141 -78l-19 4z" />
<glyph unicode="&#x143;" horiz-adv-x="1472" d="M111 1239l16 76q18 -2 79.5 -6t96.5 -4q43 0 84 3t53 5q152 -236 304.5 -461t255 -370.5t128.5 -184.5h11v829q0 88 -68 88l-78 -2l-4 9l19 92q20 -2 77.5 -5t116.5 -3q53 0 117.5 7t85.5 9l-10 -94q-72 -10 -105 -40t-35 -89l-28 -1151l-60 -29q-178 276 -347 527 t-277.5 406t-136.5 196h-11l-10 -875q0 -45 14.5 -63.5t49.5 -18.5l104 2l4 -8l-18 -92q-23 2 -92.5 5t-124.5 3q-51 0 -111.5 -7t-79.5 -9l10 94q63 8 94 37.5t33 91.5l27 895q0 63 -38 90t-140 37zM629 1499q121 63 246 133t162 90l18 -12l33 -98l-8 -21q-35 -12 -161 -56 t-261 -95l-17 10z" />
<glyph unicode="&#x144;" horiz-adv-x="1150" d="M80 825l6 68q88 14 175 33.5t112 25.5l12 -16q-4 -12 -12 -52t-11 -83l5 -6q233 156 301 155q129 0 204.5 -71.5t75.5 -192.5q0 -20 -12 -188q-16 -213 -16 -297q0 -59 16 -87t55 -28q23 0 43.5 2t28.5 2l4 -8l-16 -88q-18 2 -69.5 4t-113.5 2q-53 0 -121.5 -10 t-89.5 -15l9 84q61 17 87.5 48.5t26.5 85.5l8 405q0 102 -44 157.5t-126 55.5q-66 0 -133 -34t-118 -72q-18 -424 -19 -504q0 -63 16.5 -89t57.5 -26q23 0 43 2t29 2l4 -8l-19 -88q-18 2 -71.5 4t-114.5 2q-53 0 -117.5 -5t-85.5 -7l10 84q59 10 84 36.5t25 84.5v499 q0 70 -22.5 97.5t-77.5 27.5h-23zM448 1110q92 100 186.5 211t120.5 143l21 -4l78 -84l-2 -22q-31 -23 -134.5 -107t-209.5 -180l-19 4z" />
<glyph unicode="&#x145;" horiz-adv-x="1472" d="M111 1239l16 76q18 -2 79.5 -6t96.5 -4q43 0 84 3t53 5q152 -236 304.5 -461t255 -370.5t128.5 -184.5h11v829q0 88 -68 88l-78 -2l-4 9l19 92q20 -2 77.5 -5t116.5 -3q53 0 117.5 7t85.5 9l-10 -94q-72 -10 -105 -40t-35 -89l-28 -1151l-60 -29q-178 276 -347 527 t-277.5 406t-136.5 196h-11l-10 -875q0 -45 14.5 -63.5t49.5 -18.5l104 2l4 -8l-18 -92q-23 2 -92.5 5t-124.5 3q-51 0 -111.5 -7t-79.5 -9l10 94q63 8 94 37.5t33 91.5l27 895q0 63 -38 90t-140 37zM571 -549q63 39 105.5 95.5t42.5 107.5q0 39 -23 72.5t-59 54.5l4 29 q70 53 119 53q47 0 78.5 -40t31.5 -106q0 -100 -78 -181t-184 -136l-37 31v20z" />
<glyph unicode="&#x146;" horiz-adv-x="1150" d="M80 825l6 68q88 14 175 33.5t112 25.5l12 -16q-4 -12 -12 -52t-11 -83l5 -6q233 156 301 155q129 0 204.5 -71.5t75.5 -192.5q0 -20 -12 -188q-16 -213 -16 -297q0 -59 16 -87t55 -28q23 0 43.5 2t28.5 2l4 -8l-16 -88q-18 2 -69.5 4t-113.5 2q-53 0 -121.5 -10 t-89.5 -15l9 84q61 17 87.5 48.5t26.5 85.5l8 405q0 102 -44 157.5t-126 55.5q-66 0 -133 -34t-118 -72q-18 -424 -19 -504q0 -63 16.5 -89t57.5 -26q23 0 43 2t29 2l4 -8l-19 -88q-18 2 -71.5 4t-114.5 2q-53 0 -117.5 -5t-85.5 -7l10 84q59 10 84 36.5t25 84.5v499 q0 70 -22.5 97.5t-77.5 27.5h-23zM393 -549q63 39 105.5 95.5t42.5 107.5q0 39 -23 72.5t-59 54.5l4 29q70 53 119 53q47 0 78.5 -40t31.5 -106q0 -100 -78 -181t-184 -136l-37 31v20z" />
<glyph unicode="&#x147;" horiz-adv-x="1472" d="M111 1239l16 76q18 -2 79.5 -6t96.5 -4q43 0 84 3t53 5q152 -236 304.5 -461t255 -370.5t128.5 -184.5h11v829q0 88 -68 88l-78 -2l-4 9l19 92q20 -2 77.5 -5t116.5 -3q53 0 117.5 7t85.5 9l-10 -94q-72 -10 -105 -40t-35 -89l-28 -1151l-60 -29q-178 276 -347 527 t-277.5 406t-136.5 196h-11l-10 -875q0 -45 14.5 -63.5t49.5 -18.5l104 2l4 -8l-18 -92q-23 2 -92.5 5t-124.5 3q-51 0 -111.5 -7t-79.5 -9l10 94q63 8 94 37.5t33 91.5l27 895q0 63 -38 90t-140 37zM463 1669l28 45l19 2q137 -80 250 -133q106 49 249 133l19 -2l29 -45 q-84 -63 -171.5 -134t-111.5 -93h-29q-25 23 -111.5 93.5t-170.5 133.5z" />
<glyph unicode="&#x148;" horiz-adv-x="1150" d="M80 825l6 68q88 14 175 33.5t112 25.5l12 -16q-4 -12 -12 -52t-11 -83l5 -6q233 156 301 155q129 0 204.5 -71.5t75.5 -192.5q0 -20 -12 -188q-16 -213 -16 -297q0 -59 16 -87t55 -28q23 0 43.5 2t28.5 2l4 -8l-16 -88q-18 2 -69.5 4t-113.5 2q-53 0 -121.5 -10 t-89.5 -15l9 84q61 17 87.5 48.5t26.5 85.5l8 405q0 102 -44 157.5t-126 55.5q-66 0 -133 -34t-118 -72q-18 -424 -19 -504q0 -63 16.5 -89t57.5 -26q23 0 43 2t29 2l4 -8l-19 -88q-18 2 -71.5 4t-114.5 2q-53 0 -117.5 -5t-85.5 -7l10 84q59 10 84 36.5t25 84.5v499 q0 70 -22.5 97.5t-77.5 27.5h-23zM280 1405l33 47l16 2q124 -107 263 -207q170 127 262 207l16 -2l33 -47q-88 -90 -179 -193.5t-118 -134.5h-29q-27 31 -118 134.5t-179 193.5z" />
<glyph unicode="&#x14a;" horiz-adv-x="1472" d="M111 1239l16 76q20 -2 70.5 -6t95.5 -4q35 0 82 3t65 5q129 -203 281.5 -428.5t264.5 -385t142 -202.5h11v829q0 88 -68 88l-78 -2l-4 9l19 92q20 -2 77.5 -5t116.5 -3q53 0 117.5 7t85.5 9l-10 -94q-74 -8 -106 -39t-34 -90l-18 -922q-6 -199 -83 -313.5t-251 -177.5 l-35 67l6 17q98 45 152.5 103t77.5 144q-233 360 -465.5 697.5t-232.5 333.5h-11l-10 -875q0 -45 14.5 -63.5t49.5 -18.5l102 4l6 -8l-18 -94q-23 2 -96.5 5t-133.5 3q-51 0 -106.5 -7t-71.5 -9l10 94q72 6 98.5 42t30.5 134l25 848q0 59 -36 85.5t-142 41.5z" />
<glyph unicode="&#x14b;" horiz-adv-x="1091" d="M80 825l6 68q88 14 175 33.5t112 25.5l12 -16q-4 -12 -12 -52t-11 -83l5 -6q233 156 301 155q129 0 204.5 -71.5t75.5 -192.5l-22 -489q-12 -209 -84 -318.5t-244 -173.5l-35 68l6 16q86 47 131 97.5t64.5 121t21.5 185.5l2 405q0 102 -44 157.5t-126 55.5 q-66 0 -133 -34t-118 -72q-18 -424 -19 -504q0 -63 16.5 -89t57.5 -26q23 0 43 2t29 2l4 -8l-19 -88q-18 2 -71.5 4t-114.5 2q-53 0 -117.5 -5t-85.5 -7l10 84q59 10 84 36.5t25 84.5v499q0 70 -22.5 97.5t-77.5 27.5h-23z" />
<glyph unicode="&#x14c;" horiz-adv-x="1417" d="M82 608q0 201 89 366t243.5 260t341.5 95q170 0 301 -80t204.5 -223t73.5 -328q0 -201 -91 -366.5t-247.5 -261t-347.5 -95.5q-166 0 -295 80t-200.5 224.5t-71.5 328.5zM258 674q0 -174 57.5 -308.5t161 -210t236.5 -75.5q129 0 229 67.5t155.5 188.5t55.5 276 q0 174 -59.5 308.5t-165 210t-242.5 75.5q-125 0 -222 -67.5t-151.5 -188.5t-54.5 -276zM393 1491l21 92l315 -2q63 0 150.5 5t113.5 7l13 -20l-15 -96l-290 -2l-295 -2z" />
<glyph unicode="&#x14d;" horiz-adv-x="1019" d="M74 430q0 143 62.5 263t171 188.5t241.5 68.5q115 0 206 -57t141 -160.5t50 -236.5q0 -143 -62.5 -263t-171 -189t-241.5 -69q-117 0 -207 57.5t-140 161t-50 236.5zM206 1235l21 92l315 -2q63 0 150.5 5t113.5 7l13 -20l-15 -96l-290 -2l-295 -2zM238 489 q0 -121 36.5 -215t102 -146t151.5 -52q115 0 182.5 93t67.5 253q0 121 -36.5 216t-103.5 148.5t-151 53.5q-115 0 -182 -94.5t-67 -256.5z" />
<glyph unicode="&#x14e;" horiz-adv-x="1417" d="M82 608q0 201 89 366t243.5 260t341.5 95q170 0 301 -80t204.5 -223t73.5 -328q0 -201 -91 -366.5t-247.5 -261t-347.5 -95.5q-166 0 -295 80t-200.5 224.5t-71.5 328.5zM258 674q0 -174 57.5 -308.5t161 -210t236.5 -75.5q129 0 229 67.5t155.5 188.5t55.5 276 q0 174 -59.5 308.5t-165 210t-242.5 75.5q-125 0 -222 -67.5t-151.5 -188.5t-54.5 -276zM420 1734l33 21h16q25 -66 78 -100.5t119 -34.5q65 0 118.5 34.5t77.5 100.5h17l32 -21q-25 -98 -86 -165.5t-159 -67.5t-160 67.5t-86 165.5z" />
<glyph unicode="&#x14f;" horiz-adv-x="1019" d="M74 430q0 143 62.5 263t171 188.5t241.5 68.5q115 0 206 -57t141 -160.5t50 -236.5q0 -143 -62.5 -263t-171 -189t-241.5 -69q-117 0 -207 57.5t-140 161t-50 236.5zM238 489q0 -121 36.5 -215t102 -146t151.5 -52q115 0 182.5 93t67.5 253q0 121 -36.5 216t-103.5 148.5 t-151 53.5q-115 0 -182 -94.5t-67 -256.5zM295 1376l33 21h16q25 -66 78 -100.5t119 -34.5q65 0 118.5 34.5t77.5 100.5h17l32 -21q-25 -98 -86 -165.5t-159 -67.5t-160 67.5t-86 165.5z" />
<glyph unicode="&#x150;" horiz-adv-x="1417" d="M82 608q0 201 89 366t243.5 260t341.5 95q170 0 301 -80t204.5 -223t73.5 -328q0 -201 -91 -366.5t-247.5 -261t-347.5 -95.5q-166 0 -295 80t-200.5 224.5t-71.5 328.5zM258 674q0 -174 57.5 -308.5t161 -210t236.5 -75.5q129 0 229 67.5t155.5 188.5t55.5 276 q0 174 -59.5 308.5t-165 210t-242.5 75.5q-125 0 -222 -67.5t-151.5 -188.5t-54.5 -276zM504 1475q92 68 188.5 142.5t125.5 96.5l18 -8l45 -88l-6 -19q-29 -14 -128 -66t-208 -112l-16 11zM791 1454q111 84 198 151.5t115 90.5l19 -10l45 -87l-6 -18q-29 -14 -129.5 -66.5 t-206.5 -111.5l-15 8z" />
<glyph unicode="&#x151;" horiz-adv-x="1019" d="M74 430q0 143 62.5 263t171 188.5t241.5 68.5q115 0 206 -57t141 -160.5t50 -236.5q0 -143 -62.5 -263t-171 -189t-241.5 -69q-117 0 -207 57.5t-140 161t-50 236.5zM238 489q0 -121 36.5 -215t102 -146t151.5 -52q115 0 182.5 93t67.5 253q0 121 -36.5 216t-103.5 148.5 t-151 53.5q-115 0 -182 -94.5t-67 -256.5zM277 1135q84 86 172 183t114 126l19 -6l67 -78l-4 -19q-26 -20 -121.5 -91.5t-195.5 -155.5l-19 4zM539 1135q84 86 172 183t114 126l19 -6l67 -78l-4 -19q-26 -20 -121.5 -91.5t-195.5 -155.5l-19 4z" />
<glyph unicode="&#x152;" horiz-adv-x="1972" d="M84 608q0 201 87 366t238.5 260t333.5 95q82 0 203 -14q20 -2 97 -8.5t149 -6.5q416 0 623 29l6 -12q-2 -12 -11.5 -58.5t-19.5 -122t-16 -159.5l-99 -8q0 10 2 35.5t2 52.5q0 72 -19.5 99.5t-80.5 36.5t-215 9q-72 0 -98.5 -4t-34.5 -19.5t-10 -56.5l-17 -397l213 -2 q45 0 133 9t117 13l8 -10l-28 -121q-29 2 -112 4.5t-175 2.5l-160 -15l-6 -391q0 -59 10 -82.5t42 -32t110 -8.5q172 0 244.5 16.5t103.5 65.5t47 168l90 10l6 -10q-6 -29 -24.5 -132.5t-30.5 -211.5l-10 -12q-70 2 -287 9t-338 7q-94 0 -309 -14q-152 -12 -211 -13 q-162 0 -287 80t-195.5 224.5t-70.5 328.5zM260 676q0 -174 55.5 -309.5t155.5 -210t229 -74.5q134 0 212.5 34t114.5 108.5t38 201.5l2 530q0 104 -31.5 157.5t-110.5 75t-231 21.5q-127 0 -225 -67.5t-153.5 -189.5t-55.5 -277z" />
<glyph unicode="&#x153;" horiz-adv-x="1579" d="M74 430q0 143 61.5 263t168 188.5t235.5 68.5q100 0 181 -46t132 -132q70 90 162 134t176 44q145 0 226 -71.5t81 -202.5q0 -33 -5 -60.5t-10 -43t-7 -19.5l-27 -25h-557v-32q0 -172 83 -276.5t220 -104.5q57 0 112.5 14t92.5 29.5t47 19.5l12 -4l23 -59 q-14 -10 -66.5 -44t-122 -65t-125.5 -31q-244 0 -356 177q-66 -84 -156 -130.5t-194 -46.5q-113 0 -201 57.5t-137 161t-49 236.5zM238 489q0 -121 35.5 -215t99 -146t145.5 -52q111 0 175.5 93t64.5 253q0 121 -36 216t-99.5 148.5t-145.5 53.5q-111 0 -175 -94.5 t-64 -256.5zM899 604l371 19q31 2 41 13t10 42q0 82 -44 125t-126 43q-96 0 -164.5 -65.5t-87.5 -176.5z" />
<glyph unicode="&#x154;" horiz-adv-x="1251" d="M117 -8l18 92q66 8 98.5 22.5t45 46t12.5 93.5l2 860q0 66 -15.5 88.5t-60.5 22.5q-20 0 -40.5 -2.5t-29.5 -2.5l-4 9l15 90q25 -2 92 -4t135 -2q70 0 146.5 3t105.5 5q190 0 301 -86t111 -236q0 -123 -79 -225t-222 -168l225 -356q59 -98 115.5 -136t138.5 -38l8 -9 l-12 -69l-174 -23q-51 0 -109.5 52.5t-108.5 142.5l-219 397h-170l-6 -305q0 -78 10.5 -111.5t39 -45t98.5 -11.5l4 -8l-19 -86q-25 2 -98.5 4t-153.5 2q-72 0 -127 -2t-73 -4zM446 674l211 -21q0 -6 61.5 27t111 100.5t49.5 173.5q0 270 -375 271q-20 0 -27.5 -9.5 t-9.5 -37.5q-18 -313 -21 -504zM494 1499q121 63 246 133t162 90l18 -12l33 -98l-8 -21q-35 -12 -161 -56t-261 -95l-17 10z" />
<glyph unicode="&#x155;" horiz-adv-x="784" d="M92 827l6 64q78 14 165 34.5t112 26.5l14 -12q-4 -18 -12 -85t-6 -126l8 -6q61 96 144 157.5t145 61.5q29 0 44 -3t19 -5l6 -8q-4 -29 -17 -122t-15 -171l-80 -6q0 84 -11.5 111.5t-44.5 27.5q-45 0 -96 -38t-94 -101q-2 -59 -8 -196.5t-9 -221.5q0 -70 20.5 -94.5 t78.5 -24.5q27 0 53.5 2t36.5 2l2 -8l-18 -90q-20 0 -82 2t-127 2q-76 0 -137.5 -3t-77.5 -5l10 82q61 6 81.5 39.5t20.5 130.5v450q0 68 -18.5 96.5t-59.5 28.5q-16 0 -27.5 -2t-15.5 -4zM268 1110q92 100 186.5 211t120.5 143l21 -4l78 -84l-2 -22q-31 -23 -134.5 -107 t-209.5 -180l-19 4z" />
<glyph unicode="&#x156;" horiz-adv-x="1251" d="M117 -8l18 92q66 8 98.5 22.5t45 46t12.5 93.5l2 860q0 66 -15.5 88.5t-60.5 22.5q-20 0 -40.5 -2.5t-29.5 -2.5l-4 9l15 90q25 -2 92 -4t135 -2q70 0 146.5 3t105.5 5q190 0 301 -86t111 -236q0 -123 -79 -225t-222 -168l225 -356q59 -98 115.5 -136t138.5 -38l8 -9 l-12 -69l-174 -23q-51 0 -109.5 52.5t-108.5 142.5l-219 397h-170l-6 -305q0 -78 10.5 -111.5t39 -45t98.5 -11.5l4 -8l-19 -86q-25 2 -98.5 4t-153.5 2q-72 0 -127 -2t-73 -4zM446 674l211 -21q0 -6 61.5 27t111 100.5t49.5 173.5q0 270 -375 271q-20 0 -27.5 -9.5 t-9.5 -37.5q-18 -313 -21 -504zM477 -549q63 39 105.5 95.5t42.5 107.5q0 39 -23 72.5t-59 54.5l4 29q70 53 119 53q47 0 78.5 -40t31.5 -106q0 -100 -78 -181t-184 -136l-37 31v20z" />
<glyph unicode="&#x157;" horiz-adv-x="784" d="M92 827l6 64q78 14 165 34.5t112 26.5l14 -12q-4 -18 -12 -85t-6 -126l8 -6q61 96 144 157.5t145 61.5q29 0 44 -3t19 -5l6 -8q-4 -29 -17 -122t-15 -171l-80 -6q0 84 -11.5 111.5t-44.5 27.5q-45 0 -96 -38t-94 -101q-2 -59 -8 -196.5t-9 -221.5q0 -70 20.5 -94.5 t78.5 -24.5q27 0 53.5 2t36.5 2l2 -8l-18 -90q-20 0 -82 2t-127 2q-76 0 -137.5 -3t-77.5 -5l10 82q61 6 81.5 39.5t20.5 130.5v450q0 68 -18.5 96.5t-59.5 28.5q-16 0 -27.5 -2t-15.5 -4zM154 -549q63 39 105.5 95.5t42.5 107.5q0 39 -23 72.5t-59 54.5l4 29q70 53 119 53 q47 0 78.5 -40t31.5 -106q0 -100 -78 -181t-184 -136l-37 31v20z" />
<glyph unicode="&#x158;" horiz-adv-x="1251" d="M117 -8l18 92q66 8 98.5 22.5t45 46t12.5 93.5l2 860q0 66 -15.5 88.5t-60.5 22.5q-20 0 -40.5 -2.5t-29.5 -2.5l-4 9l15 90q25 -2 92 -4t135 -2q70 0 146.5 3t105.5 5q190 0 301 -86t111 -236q0 -123 -79 -225t-222 -168l225 -356q59 -98 115.5 -136t138.5 -38l8 -9 l-12 -69l-174 -23q-51 0 -109.5 52.5t-108.5 142.5l-219 397h-170l-6 -305q0 -78 10.5 -111.5t39 -45t98.5 -11.5l4 -8l-19 -86q-25 2 -98.5 4t-153.5 2q-72 0 -127 -2t-73 -4zM328 1669l28 45l19 2q137 -80 250 -133q106 49 249 133l19 -2l29 -45q-84 -63 -171.5 -134 t-111.5 -93h-29q-25 23 -111.5 93.5t-170.5 133.5zM446 674l211 -21q0 -6 61.5 27t111 100.5t49.5 173.5q0 270 -375 271q-20 0 -27.5 -9.5t-9.5 -37.5q-18 -313 -21 -504z" />
<glyph unicode="&#x159;" horiz-adv-x="784" d="M92 827l6 64q78 14 165 34.5t112 26.5l14 -12q-4 -18 -12 -85t-6 -126l8 -6q61 96 144 157.5t145 61.5q29 0 44 -3t19 -5l6 -8q-4 -29 -17 -122t-15 -171l-80 -6q0 84 -11.5 111.5t-44.5 27.5q-45 0 -96 -38t-94 -101q-2 -59 -8 -196.5t-9 -221.5q0 -70 20.5 -94.5 t78.5 -24.5q27 0 53.5 2t36.5 2l2 -8l-18 -90q-20 0 -82 2t-127 2q-76 0 -137.5 -3t-77.5 -5l10 82q61 6 81.5 39.5t20.5 130.5v450q0 68 -18.5 96.5t-59.5 28.5q-16 0 -27.5 -2t-15.5 -4zM100 1405l33 47l16 2q124 -107 263 -207q170 127 262 207l16 -2l33 -47 q-88 -90 -179 -193.5t-118 -134.5h-29q-27 31 -118 134.5t-179 193.5z" />
<glyph unicode="&#x15a;" horiz-adv-x="1085" d="M117 66q2 12 8 61t11 128t5 167l92 10q0 -154 20.5 -227.5t76 -101t170.5 -27.5q129 0 206.5 60.5t77.5 164.5q0 61 -42 110.5t-99 84t-170 94.5q-106 55 -174 101t-114 109.5t-46 147.5q0 106 62.5 193.5t170 137.5t238.5 50q82 0 151.5 -11t110.5 -23.5t52 -16.5l6 -12 q-2 -12 -10.5 -57.5t-18.5 -125t-16 -163.5l-80 -9l-12 11q2 8 4 37.5t2 68.5q0 109 -53.5 150t-190.5 41q-113 0 -185.5 -56.5t-72.5 -140.5q0 -82 70.5 -142.5t207.5 -131.5q133 -68 203 -112t123 -109.5t53 -151.5q0 -115 -64.5 -206t-179 -142.5t-261.5 -51.5 q-87 0 -158.5 15.5t-117.5 34t-46 20.5zM406 1499q121 63 246 133t162 90l18 -12l33 -98l-8 -21q-35 -12 -161 -56t-261 -95l-17 10z" />
<glyph unicode="&#x15b;" horiz-adv-x="823" d="M100 33q6 31 14.5 127t10.5 147l72 10q0 -135 45 -190t153 -55q78 0 131.5 34.5t53.5 86.5q0 51 -48.5 93t-189.5 117q-117 59 -170 120t-53 134q0 82 49 149.5t135 105.5t193 38q49 0 94 -7t73.5 -15t36.5 -10l5 -11q-4 -20 -18.5 -93t-20.5 -157l-76 -6q0 6 2 24.5 t2 35.5q0 74 -40 107.5t-128 33.5q-70 0 -118 -33t-48 -80q0 -49 42 -92t136 -92q166 -88 226.5 -147.5t60.5 -137.5t-52 -145.5t-138 -108.5t-185 -41q-65 0 -119.5 9.5t-85 19.5t-39.5 14zM291 1110q92 100 186.5 211t120.5 143l21 -4l78 -84l-2 -22q-31 -23 -134.5 -107 t-209.5 -180l-19 4z" />
<glyph unicode="&#x15c;" horiz-adv-x="1085" d="M117 66q2 12 8 61t11 128t5 167l92 10q0 -154 20.5 -227.5t76 -101t170.5 -27.5q129 0 206.5 60.5t77.5 164.5q0 61 -42 110.5t-99 84t-170 94.5q-106 55 -174 101t-114 109.5t-46 147.5q0 106 62.5 193.5t170 137.5t238.5 50q82 0 151.5 -11t110.5 -23.5t52 -16.5l6 -12 q-2 -12 -10.5 -57.5t-18.5 -125t-16 -163.5l-80 -9l-12 11q2 8 4 37.5t2 68.5q0 109 -53.5 150t-190.5 41q-113 0 -185.5 -56.5t-72.5 -140.5q0 -82 70.5 -142.5t207.5 -131.5q133 -68 203 -112t123 -109.5t53 -151.5q0 -115 -64.5 -206t-179 -142.5t-261.5 -51.5 q-87 0 -158.5 15.5t-117.5 34t-46 20.5zM304 1482q84 88 171 186.5t111 127.5h29q25 -29 112 -128.5t171 -185.5l-29 -45l-19 -2q-78 70 -206 166l-43 33q-160 -119 -250 -199l-19 2z" />
<glyph unicode="&#x15d;" horiz-adv-x="823" d="M100 33q6 31 14.5 127t10.5 147l72 10q0 -135 45 -190t153 -55q78 0 131.5 34.5t53.5 86.5q0 51 -48.5 93t-189.5 117q-117 59 -170 120t-53 134q0 82 49 149.5t135 105.5t193 38q49 0 94 -7t73.5 -15t36.5 -10l5 -11q-4 -20 -18.5 -93t-20.5 -157l-76 -6q0 6 2 24.5 t2 35.5q0 74 -40 107.5t-128 33.5q-70 0 -118 -33t-48 -80q0 -49 42 -92t136 -92q166 -88 226.5 -147.5t60.5 -137.5t-52 -145.5t-138 -108.5t-185 -41q-65 0 -119.5 9.5t-85 19.5t-39.5 14zM115 1126q84 88 171 186.5t111 127.5h29q25 -29 112 -128.5t171 -185.5l-29 -45 l-19 -2q-78 70 -206 166l-43 33q-160 -119 -250 -199l-19 2z" />
<glyph unicode="&#x15e;" horiz-adv-x="1085" d="M117 66q2 12 8 61t11 128t5 167l92 10q0 -154 20.5 -227.5t76 -101t170.5 -27.5q129 0 206.5 60.5t77.5 164.5q0 61 -42 110.5t-99 84t-170 94.5q-106 55 -174 101t-114 109.5t-46 147.5q0 106 62.5 193.5t170 137.5t238.5 50q82 0 151.5 -11t110.5 -23.5t52 -16.5l6 -12 q-2 -12 -10.5 -57.5t-18.5 -125t-16 -163.5l-80 -9l-12 11q2 8 4 37.5t2 68.5q0 109 -53.5 150t-190.5 41q-113 0 -185.5 -56.5t-72.5 -140.5q0 -82 70.5 -142.5t207.5 -131.5q133 -68 203 -112t123 -109.5t53 -151.5q0 -154 -110.5 -260.5t-290.5 -130.5l-29 -86 q14 -10 64.5 -44t80 -69t29.5 -70q0 -51 -36.5 -95t-94 -70.5t-114.5 -26.5q-51 0 -95.5 20.5t-44.5 53.5t52 114h18q2 -55 32.5 -86t80.5 -31q41 0 69.5 22t28.5 56q0 33 -47 71t-127 83l45 149h-16q-86 0 -158 15.5t-118 34t-46 20.5z" />
<glyph unicode="&#x15f;" horiz-adv-x="823" d="M100 33q6 31 14.5 127t10.5 147l72 10q0 -135 45 -190t153 -55q78 0 131.5 34.5t53.5 86.5q0 51 -48.5 93t-189.5 117q-117 59 -170 120t-53 134q0 82 49 149.5t135 105.5t193 38q49 0 94 -7t73.5 -15t36.5 -10l5 -11q-4 -20 -18.5 -93t-20.5 -157l-76 -6q0 6 2 24.5 t2 35.5q0 74 -40 107.5t-128 33.5q-70 0 -118 -33t-48 -80q0 -49 42 -92t136 -92q166 -88 226.5 -147.5t60.5 -137.5q0 -100 -85 -182t-210 -104l-29 -86q14 -10 64.5 -44t80 -69t29.5 -70q0 -51 -36.5 -95t-94 -70.5t-114.5 -26.5q-51 0 -95.5 20.5t-44.5 53.5t52 114h18 q2 -55 33 -86t80 -31q41 0 69.5 22t28.5 56q0 33 -47 71t-127 83l45 149q-66 0 -118 10.5t-80.5 19.5t-37.5 13z" />
<glyph unicode="&#x160;" horiz-adv-x="1085" d="M117 66q2 12 8 61t11 128t5 167l92 10q0 -154 20.5 -227.5t76 -101t170.5 -27.5q129 0 206.5 60.5t77.5 164.5q0 61 -42 110.5t-99 84t-170 94.5q-106 55 -174 101t-114 109.5t-46 147.5q0 106 62.5 193.5t170 137.5t238.5 50q82 0 151.5 -11t110.5 -23.5t52 -16.5l6 -12 q-2 -12 -10.5 -57.5t-18.5 -125t-16 -163.5l-80 -9l-12 11q2 8 4 37.5t2 68.5q0 109 -53.5 150t-190.5 41q-113 0 -185.5 -56.5t-72.5 -140.5q0 -82 70.5 -142.5t207.5 -131.5q133 -68 203 -112t123 -109.5t53 -151.5q0 -115 -64.5 -206t-179 -142.5t-261.5 -51.5 q-87 0 -158.5 15.5t-117.5 34t-46 20.5zM240 1669l28 45l19 2q137 -80 250 -133q106 49 249 133l19 -2l29 -45q-84 -63 -171.5 -134t-111.5 -93h-29q-25 23 -111.5 93.5t-170.5 133.5z" />
<glyph unicode="&#x161;" horiz-adv-x="823" d="M100 33q6 31 14.5 127t10.5 147l72 10q0 -135 45 -190t153 -55q78 0 131.5 34.5t53.5 86.5q0 51 -48.5 93t-189.5 117q-117 59 -170 120t-53 134q0 82 49 149.5t135 105.5t193 38q49 0 94 -7t73.5 -15t36.5 -10l5 -11q-4 -20 -18.5 -93t-20.5 -157l-76 -6q0 6 2 24.5 t2 35.5q0 74 -40 107.5t-128 33.5q-70 0 -118 -33t-48 -80q0 -49 42 -92t136 -92q166 -88 226.5 -147.5t60.5 -137.5t-52 -145.5t-138 -108.5t-185 -41q-65 0 -119.5 9.5t-85 19.5t-39.5 14zM123 1405l33 47l16 2q124 -107 263 -207q170 127 262 207l16 -2l33 -47 q-88 -90 -179 -193.5t-118 -134.5h-29q-27 31 -118 134.5t-179 193.5z" />
<glyph unicode="&#x162;" horiz-adv-x="1118" d="M18 958q4 31 15.5 138.5t15.5 216.5l19 16l170 -22h634l175 22l18 -16q4 -109 15.5 -213.5t15.5 -132.5l-97 -9q-23 135 -45 182.5t-79.5 62t-221.5 22.5q-12 -123 -22 -434.5t-10 -561.5q0 -76 26.5 -107.5t89.5 -31.5q45 0 75 2t38 4l6 -8l-18 -94l-234 6l-35 -102 q14 -10 64.5 -44t80 -69t29.5 -70q0 -51 -36.5 -95t-94 -70.5t-114.5 -26.5q-51 0 -95.5 20.5t-44.5 53.5t52 114h18q2 -55 33 -86t80 -31q41 0 69.5 22t28.5 56q0 33 -47 71t-127 83l53 174q-63 0 -149 -3t-113 -5l16 88q102 8 141.5 25.5t51.5 63.5t12 163v893 q-176 -8 -237.5 -22.5t-84 -59.5t-40.5 -176z" />
<glyph unicode="&#x163;" horiz-adv-x="675" d="M43 842l10 61q59 29 115.5 71t92.5 73.5t46 42.5l41 -17q-2 -10 -6 -49t-10 -104l301 6l6 -6l-18 -109l-297 6q-14 -225 -15 -512q0 -104 36 -147t124 -43q31 0 61.5 8t51 17.5t26.5 11.5l21 -54q-12 -10 -52 -38.5t-86.5 -56.5t-68.5 -28h-25l-26 -77q14 -10 64 -44 t80 -69t30 -70q0 -51 -37 -95t-94.5 -70.5t-114.5 -26.5q-51 0 -95 20.5t-44 53.5t51 114h18q2 -55 33 -86t80 -31q41 0 69.5 22t28.5 56q0 33 -47 71t-127 83l49 160q-80 18 -113.5 74.5t-33.5 162.5v504q0 55 -24.5 77.5t-92.5 24.5z" />
<glyph unicode="&#x164;" horiz-adv-x="1118" d="M18 958q4 31 15.5 138.5t15.5 216.5l19 16l170 -22h634l175 22l18 -16q4 -109 15.5 -213.5t15.5 -132.5l-97 -9q-23 135 -45 182.5t-79.5 62t-221.5 22.5q-12 -123 -22 -434.5t-10 -561.5q0 -76 26.5 -107.5t89.5 -31.5q45 0 75 2t38 4l6 -8l-18 -94q-33 0 -123 3t-178 3 q-86 0 -168 -3t-113 -5l16 88q102 8 141.5 25.5t51.5 63.5t12 163v893q-176 -8 -237.5 -22.5t-84 -59.5t-40.5 -176zM269 1669l28 45l19 2q137 -80 250 -133q106 49 249 133l19 -2l29 -45q-84 -63 -171.5 -134t-111.5 -93h-29q-25 23 -111.5 93.5t-170.5 133.5z" />
<glyph unicode="&#x165;" horiz-adv-x="786" d="M43 842l10 61q59 29 115.5 71t92.5 73.5t46 42.5l41 -17q-2 -10 -6 -49t-10 -104l260 6l6 -6l-18 -109l-256 6q-14 -225 -15 -512q0 -104 36 -147t124 -43q31 0 61.5 8t51 17.5t26.5 11.5l21 -54q-12 -10 -52 -38.5t-86.5 -56.5t-68.5 -28q-139 0 -196.5 56.5 t-57.5 191.5v504q0 55 -24.5 77.5t-92.5 24.5zM662 1022l143 29l14 -17q-4 -39 -24.5 -171t-46.5 -263l-52 -29l-22 4q2 37 2 111q0 115 -6 212t-8 124z" />
<glyph unicode="&#x166;" horiz-adv-x="1118" d="M18 958q4 31 15.5 138.5t15.5 216.5l19 16l170 -22h634l175 22l18 -16q4 -109 15.5 -213.5t15.5 -132.5l-97 -9q-23 135 -45 182.5t-79.5 62t-221.5 22.5q-14 -125 -24 -516q55 2 98 4t57 4l27 -27l-8 -76l-176 -2q-6 -199 -6 -383q0 -76 26.5 -107.5t89.5 -31.5 q45 0 75 2t38 4l6 -8l-18 -94q-33 0 -123 3t-178 3q-86 0 -168 -3t-113 -5l16 88q102 8 141.5 25.5t51.5 63.5t12 163v280l-190 -2l-19 19l15 80l194 -2v518q-176 -8 -237.5 -22.5t-84 -59.5t-40.5 -176z" />
<glyph unicode="&#x167;" horiz-adv-x="692" d="M43 506l14 80l111 -2v143q0 55 -24.5 77.5t-92.5 24.5l-8 13l10 61q59 29 115.5 71t92.5 73.5t46 42.5l41 -17q-2 -10 -6 -49t-10 -104l301 6l6 -6l-18 -109l-297 6q-8 -123 -11 -233h25q55 0 127 4t94 6l27 -27l-8 -75l-267 -3l-2 -184q0 -104 36 -147t124 -43 q31 0 61.5 8t51 17.5t26.5 11.5l21 -54q-12 -10 -52 -38.5t-86.5 -56.5t-68.5 -28q-139 0 -196.5 56.5t-57.5 191.5v266l-107 -2z" />
<glyph unicode="&#x168;" horiz-adv-x="1394" d="M72 1221l14 90q25 -2 93.5 -4t137.5 -2q55 0 125 7t90 11l-8 -92q-76 -10 -101.5 -33.5t-29.5 -83.5l-16 -602q0 -203 88 -311.5t254 -108.5q168 0 256 89t88 257q-2 164 -6 374t-6 294q-4 72 -17.5 91.5t-58.5 19.5q-25 0 -51.5 -2.5t-36.5 -2.5l-4 9l14 90 q25 -2 93.5 -4t137.5 -2q55 0 118 7t81 11l-8 -92q-61 -8 -91 -19.5t-40 -33t-10 -64.5v-688q0 -215 -133.5 -333t-374.5 -118q-215 0 -332 118t-117 335v678q0 66 -15.5 88.5t-60.5 22.5q-20 0 -40.5 -2.5t-28.5 -2.5zM342 1529v11l155 182l33 8q37 0 160 -37 q18 -4 68.5 -17t70.5 -13t49 24.5t51.5 52t28.5 35.5h12l45 -43v-10l-155 -182l-33 -8q-37 0 -160 36q-18 4 -68 17.5t-71 13.5q-23 0 -51.5 -24.5t-50 -52t-27.5 -36.5h-12z" />
<glyph unicode="&#x169;" horiz-adv-x="1107" d="M57 813l9 76q80 12 172 33.5t120 27.5l13 -24q-20 -53 -37 -241.5t-17 -367.5q0 -201 164 -200q61 0 114.5 29.5t133.5 86.5v476q0 61 -22.5 85.5t-79.5 24.5l-49 -2l8 74q90 12 188 32.5t127 26.5l12 -24q-18 -47 -31.5 -256t-13.5 -455q0 -45 22.5 -69.5t61.5 -24.5 q29 0 56.5 11t45 23.5t21.5 16.5l29 -33q-8 -12 -38 -51t-70 -76t-70 -37q-166 0 -183 166l-10 4q-98 -76 -177 -123t-107 -47q-131 0 -202 61.5t-71 176.5l8 498q1 110 -75 110q-14 0 -31 -3t-21 -5zM217 1171v11l155 182l33 8q37 0 160 -37q18 -4 68.5 -17t70.5 -13 t49 24.5t51.5 52t28.5 35.5h12l45 -43v-10l-155 -182l-33 -8q-37 0 -160 36q-18 4 -68 17.5t-71 13.5q-23 0 -51.5 -24.5t-50 -52t-27.5 -36.5h-12z" />
<glyph unicode="&#x16a;" horiz-adv-x="1394" d="M72 1221l14 90q25 -2 93.5 -4t137.5 -2q55 0 125 7t90 11l-8 -92q-76 -10 -101.5 -33.5t-29.5 -83.5l-16 -602q0 -203 88 -311.5t254 -108.5q168 0 256 89t88 257q-2 164 -6 374t-6 294q-4 72 -17.5 91.5t-58.5 19.5q-25 0 -51.5 -2.5t-36.5 -2.5l-4 9l14 90 q25 -2 93.5 -4t137.5 -2q55 0 118 7t81 11l-8 -92q-61 -8 -91 -19.5t-40 -33t-10 -64.5v-688q0 -215 -133.5 -333t-374.5 -118q-215 0 -332 118t-117 335v678q0 66 -15.5 88.5t-60.5 22.5q-20 0 -40.5 -2.5t-28.5 -2.5zM403 1491l21 92l315 -2q63 0 150.5 5t113.5 7l13 -20 l-15 -96l-290 -2l-295 -2z" />
<glyph unicode="&#x16b;" horiz-adv-x="1107" d="M57 813l9 76q80 12 172 33.5t120 27.5l13 -24q-20 -53 -37 -241.5t-17 -367.5q0 -201 164 -200q61 0 114.5 29.5t133.5 86.5v476q0 61 -22.5 85.5t-79.5 24.5l-49 -2l8 74q90 12 188 32.5t127 26.5l12 -24q-18 -47 -31.5 -256t-13.5 -455q0 -45 22.5 -69.5t61.5 -24.5 q29 0 56.5 11t45 23.5t21.5 16.5l29 -33q-8 -12 -38 -51t-70 -76t-70 -37q-166 0 -183 166l-10 4q-98 -76 -177 -123t-107 -47q-131 0 -202 61.5t-71 176.5l8 498q1 110 -75 110q-14 0 -31 -3t-21 -5zM217 1235l21 92l315 -2q63 0 150.5 5t113.5 7l13 -20l-15 -96l-290 -2 l-295 -2z" />
<glyph unicode="&#x16c;" horiz-adv-x="1394" d="M72 1221l14 90q25 -2 93.5 -4t137.5 -2q55 0 125 7t90 11l-8 -92q-76 -10 -101.5 -33.5t-29.5 -83.5l-16 -602q0 -203 88 -311.5t254 -108.5q168 0 256 89t88 257q-2 164 -6 374t-6 294q-4 72 -17.5 91.5t-58.5 19.5q-25 0 -51.5 -2.5t-36.5 -2.5l-4 9l14 90 q25 -2 93.5 -4t137.5 -2q55 0 118 7t81 11l-8 -92q-61 -8 -91 -19.5t-40 -33t-10 -64.5v-688q0 -215 -133.5 -333t-374.5 -118q-215 0 -332 118t-117 335v678q0 66 -15.5 88.5t-60.5 22.5q-20 0 -40.5 -2.5t-28.5 -2.5zM436 1734l33 21h16q25 -66 78 -100.5t119 -34.5 q65 0 118.5 34.5t77.5 100.5h17l32 -21q-25 -98 -86 -165.5t-159 -67.5t-160 67.5t-86 165.5z" />
<glyph unicode="&#x16d;" horiz-adv-x="1107" d="M57 813l9 76q80 12 172 33.5t120 27.5l13 -24q-20 -53 -37 -241.5t-17 -367.5q0 -201 164 -200q61 0 114.5 29.5t133.5 86.5v476q0 61 -22.5 85.5t-79.5 24.5l-49 -2l8 74q90 12 188 32.5t127 26.5l12 -24q-18 -47 -31.5 -256t-13.5 -455q0 -45 22.5 -69.5t61.5 -24.5 q29 0 56.5 11t45 23.5t21.5 16.5l29 -33q-8 -12 -38 -51t-70 -76t-70 -37q-166 0 -183 166l-10 4q-98 -76 -177 -123t-107 -47q-131 0 -202 61.5t-71 176.5l8 498q1 110 -75 110q-14 0 -31 -3t-21 -5zM312 1376l33 21h16q25 -66 78 -100.5t119 -34.5q65 0 118.5 34.5 t77.5 100.5h17l32 -21q-25 -98 -86 -165.5t-159 -67.5t-160 67.5t-86 165.5z" />
<glyph unicode="&#x16e;" horiz-adv-x="1394" d="M72 1221l14 90q25 -2 93.5 -4t137.5 -2q55 0 125 7t90 11l-8 -92q-76 -10 -101.5 -33.5t-29.5 -83.5l-16 -602q0 -203 88 -311.5t254 -108.5q168 0 256 89t88 257q-2 164 -6 374t-6 294q-4 72 -17.5 91.5t-58.5 19.5q-25 0 -51.5 -2.5t-36.5 -2.5l-4 9l14 90 q25 -2 93.5 -4t137.5 -2q55 0 118 7t81 11l-8 -92q-61 -8 -91 -19.5t-40 -33t-10 -64.5v-688q0 -215 -133.5 -333t-374.5 -118q-215 0 -332 118t-117 335v678q0 66 -15.5 88.5t-60.5 22.5q-20 0 -40.5 -2.5t-28.5 -2.5zM545 1544q0 76 47 124t125 48q80 0 118.5 -45 t38.5 -110q0 -74 -47 -127.5t-127 -53.5q-73 0 -114 45t-41 119zM610 1556q0 -49 33 -73.5t72 -24.5q90 0 90 80q0 45 -28 71.5t-77 26.5q-43 0 -66.5 -21.5t-23.5 -58.5z" />
<glyph unicode="&#x16f;" horiz-adv-x="1107" d="M57 813l9 76q80 12 172 33.5t120 27.5l13 -24q-20 -53 -37 -241.5t-17 -367.5q0 -201 164 -200q61 0 114.5 29.5t133.5 86.5v476q0 61 -22.5 85.5t-79.5 24.5l-49 -2l8 74q90 12 188 32.5t127 26.5l12 -24q-18 -47 -31.5 -256t-13.5 -455q0 -45 22.5 -69.5t61.5 -24.5 q29 0 56.5 11t45 23.5t21.5 16.5l29 -33q-8 -12 -38 -51t-70 -76t-70 -37q-166 0 -183 166l-10 4q-98 -76 -177 -123t-107 -47q-131 0 -202 61.5t-71 176.5l8 498q1 110 -75 110q-14 0 -31 -3t-21 -5zM359 1278q0 76 47 124t125 48q80 0 118.5 -45t38.5 -111q0 -74 -47 -127 t-127 -53q-73 0 -114 45t-41 119zM424 1290q0 -49 33 -73.5t72 -24.5q90 0 90 80q0 45 -28 71.5t-77 26.5q-43 0 -66.5 -21.5t-23.5 -58.5z" />
<glyph unicode="&#x170;" horiz-adv-x="1394" d="M72 1221l14 90q25 -2 93.5 -4t137.5 -2q55 0 125 7t90 11l-8 -92q-76 -10 -101.5 -33.5t-29.5 -83.5l-16 -602q0 -203 88 -311.5t254 -108.5q168 0 256 89t88 257q-2 164 -6 374t-6 294q-4 72 -17.5 91.5t-58.5 19.5q-25 0 -51.5 -2.5t-36.5 -2.5l-4 9l14 90 q25 -2 93.5 -4t137.5 -2q55 0 118 7t81 11l-8 -92q-61 -8 -91 -19.5t-40 -33t-10 -64.5v-688q0 -215 -133.5 -333t-374.5 -118q-215 0 -332 118t-117 335v678q0 66 -15.5 88.5t-60.5 22.5q-20 0 -40.5 -2.5t-28.5 -2.5zM514 1475q92 68 188.5 142.5t125.5 96.5l18 -8l45 -88 l-6 -19q-29 -14 -128 -66t-208 -112l-16 11zM801 1454q111 84 198 151.5t115 90.5l19 -10l45 -87l-6 -18q-29 -14 -129.5 -66.5t-206.5 -111.5l-15 8z" />
<glyph unicode="&#x171;" horiz-adv-x="1107" d="M57 813l9 76q80 12 172 33.5t120 27.5l13 -24q-20 -53 -37 -241.5t-17 -367.5q0 -201 164 -200q61 0 114.5 29.5t133.5 86.5v476q0 61 -22.5 85.5t-79.5 24.5l-49 -2l8 74q90 12 188 32.5t127 26.5l12 -24q-18 -47 -31.5 -256t-13.5 -455q0 -45 22.5 -69.5t61.5 -24.5 q29 0 56.5 11t45 23.5t21.5 16.5l29 -33q-8 -12 -38 -51t-70 -76t-70 -37q-166 0 -183 166l-10 4q-98 -76 -177 -123t-107 -47q-131 0 -202 61.5t-71 176.5l8 498q1 110 -75 110q-14 0 -31 -3t-21 -5zM287 1135q84 86 172 183t114 126l19 -6l67 -78l-4 -19 q-26 -20 -121.5 -91.5t-195.5 -155.5l-19 4zM549 1135q84 86 172 183t114 126l19 -6l67 -78l-4 -19q-26 -20 -121.5 -91.5t-195.5 -155.5l-19 4z" />
<glyph unicode="&#x172;" horiz-adv-x="1394" d="M72 1221l14 90q25 -2 93.5 -4t137.5 -2q55 0 125 7t90 11l-8 -92q-76 -10 -101.5 -33.5t-29.5 -83.5l-16 -602q0 -203 88 -311.5t254 -108.5q168 0 256 89t88 257q-2 164 -6 374t-6 294q-4 51 -10.5 72.5t-20.5 30t-45 8.5q-25 0 -51.5 -2.5t-36.5 -2.5l-4 9l14 90 q25 -2 93.5 -4t137.5 -2q55 0 118 7t81 11l-8 -92q-63 -10 -92 -21.5t-39 -32t-10 -63.5v-688q0 -205 -136 -340q-102 -100 -153 -158.5t-70.5 -101.5t-19.5 -88q0 -49 32.5 -80t86.5 -31q35 0 70.5 10.5t58 21.5t28.5 15l27 -39q-8 -8 -38 -31.5t-75 -52t-92 -45.5 q-104 0 -165.5 52.5t-61.5 140.5q0 57 44 126t148 175q-86 -25 -192 -25q-215 0 -332 118t-117 335v678q0 66 -15.5 88.5t-60.5 22.5q-20 0 -40.5 -2.5t-28.5 -2.5z" />
<glyph unicode="&#x173;" horiz-adv-x="1107" d="M57 813l9 76q80 12 172 33.5t120 27.5l13 -24q-20 -55 -37 -244.5t-17 -364.5q0 -201 164 -200q47 0 100.5 25.5t147.5 90.5v476q0 61 -22.5 85.5t-79.5 24.5l-49 -2l8 74q90 12 188 32.5t127 26.5l12 -24q-18 -47 -31.5 -256t-13.5 -455q0 -45 22.5 -69.5t61.5 -24.5 q29 0 56.5 11t45 23.5t21.5 16.5l35 -39q-131 -137 -187.5 -201.5t-75 -103.5t-18.5 -86q0 -49 34 -82t85 -33q35 0 71 10.5t58.5 21.5t28.5 15l27 -39q-9 -8 -38.5 -31.5t-74.5 -52t-92 -45.5q-104 0 -166 52.5t-62 140.5q0 53 39 118.5t131 164.5q-115 25 -127 159l-10 4 q-104 -78 -181 -124t-103 -46q-131 0 -202 61.5t-71 176.5l8 498q0 111 -75 110q-14 0 -31 -3t-21 -5z" />
<glyph unicode="&#x174;" horiz-adv-x="1908" d="M-14 1223l12 88q27 0 96.5 -3t134.5 -3q90 0 180.5 9t116.5 13l6 -14l-8 -80q-104 -8 -140 -24.5t-36 -59.5q0 -35 56.5 -247t117 -425t78.5 -278h12l289 786l-37 113q-20 59 -63 85.5t-121 30.5l-4 9l14 88q27 0 96.5 -3t135.5 -3q78 0 173 9t124 13l6 -14l-8 -80 q-106 -8 -142.5 -24.5t-36.5 -61.5q0 -43 106.5 -426t147.5 -522h13q4 12 9 25.5t11 31.5q311 836 311 895q0 39 -32.5 55.5t-106.5 16.5h-102l-4 8l14 88q27 -2 115 -8t170 -6q74 0 135 2t82 4l-15 -97q-61 -4 -85.5 -21t-45.5 -77l-430 -1106l-127 -45q-20 72 -95 330 t-161 539h-12l-291 -824l-131 -45q-29 102 -132 450.5t-210 682.5q-18 59 -63.5 86.5t-120.5 29.5zM658 1505q84 64 171 134.5t111 93.5h29q25 -23 112 -93.5t171 -134.5l-29 -45l-19 -2q-137 80 -249 133q-106 -49 -250 -133l-19 2z" />
<glyph unicode="&#x175;" horiz-adv-x="1443" d="M-8 860l12 68l164 -2q78 0 148.5 6t91.5 8l4 -10l-13 -64q-68 -2 -92 -13t-24 -40q0 -39 70.5 -297t97.5 -350h8l114 287l103 264q-23 70 -54.5 102.5t-91.5 32.5l-4 8l13 68l163 -2q76 0 148 4t92 6l4 -10l-12 -64q-70 -2 -93.5 -12t-23.5 -37q0 -37 70.5 -296 t97.5 -351h8l113 283q72 178 99.5 253.5t27.5 100.5q0 28 -19.5 39.5t-64.5 11.5h-76l-8 12l10 64q18 0 73.5 -2t129.5 -2l168 2l-14 -76q-41 -4 -66 -34t-61 -120l-289 -698l-109 -35l-184 604h-12l-228 -569l-110 -35q-29 98 -118 386t-124 399q-35 100 -135 102z M428 1126q84 88 171 186.5t111 127.5h29q25 -29 112 -128.5t171 -185.5l-29 -45l-19 -2q-78 70 -206 166l-43 33q-160 -119 -250 -199l-19 2z" />
<glyph unicode="&#x176;" horiz-adv-x="1101" d="M-39 1231l12 80q23 -2 86.5 -4t139.5 -2q72 0 167 7t123 9l7 -14l-7 -72q-92 -8 -123.5 -23.5t-31.5 -50.5q0 -26 51 -145t105.5 -233.5t72.5 -149.5h10l234 434q33 59 33 102q0 53 -129 62l-4 8l12 80q25 -2 102.5 -8t124.5 -6q49 0 109.5 3t79.5 5l8 -15l-13 -75 q-66 -12 -102.5 -34t-64 -62t-80.5 -134q-12 -25 -21 -37l-205 -360q-27 -47 -34 -106.5t-11 -215.5v-45q-2 -80 17.5 -109.5t72.5 -29.5q33 0 62 2t39 4l4 -8l-19 -94q-29 2 -105.5 4t-154.5 2q-63 0 -137 -10t-96 -15l12 95q74 14 106.5 36.5t43 61.5t10.5 123v90 q0 63 -12.5 111.5t-46.5 119.5l-185 375q-53 109 -75.5 146.5t-63.5 60.5t-119 29zM287 1505q84 64 171 134.5t111 93.5h29q25 -23 112 -93.5t171 -134.5l-29 -45l-19 -2q-137 80 -249 133q-106 -49 -250 -133l-19 2z" />
<glyph unicode="&#x177;" horiz-adv-x="913" d="M-18 860l12 68l170 -2q76 0 150.5 6t95.5 8l4 -10l-13 -64q-70 -2 -95 -13t-25 -40q0 -33 40.5 -172t84 -276.5t57.5 -178.5h8q240 574 240 619q0 53 -78 53h-94l-4 8l12 68q18 -2 80.5 -5t126.5 -3l174 2l-15 -76q-45 -8 -68.5 -31.5t-45.5 -85.5l-264 -622 q-117 -266 -181.5 -387t-127 -171.5t-152.5 -48.5q-16 0 -53 48.5t-37 68.5l10 15q119 0 224.5 95t174.5 265q-49 156 -130 385t-138 371q-25 51 -56.5 73.5t-82.5 24.5zM174 1126q84 88 171 186.5t111 127.5h29q25 -29 112 -128.5t171 -185.5l-29 -45l-19 -2 q-78 70 -206 166l-43 33q-160 -119 -250 -199l-19 2z" />
<glyph unicode="&#x178;" horiz-adv-x="1101" d="M-39 1231l12 80q23 -2 86.5 -4t139.5 -2q72 0 167 7t123 9l7 -14l-7 -72q-92 -8 -123.5 -23.5t-31.5 -50.5q0 -26 51 -145t105.5 -233.5t72.5 -149.5h10l234 434q33 59 33 102q0 53 -129 62l-4 8l12 80q25 -2 102.5 -8t124.5 -6q49 0 109.5 3t79.5 5l8 -15l-13 -75 q-66 -12 -102.5 -34t-64 -62t-80.5 -134q-12 -25 -21 -37l-205 -360q-27 -47 -34 -106.5t-11 -215.5v-45q-2 -80 17.5 -109.5t72.5 -29.5q33 0 62 2t39 4l4 -8l-19 -94q-29 2 -105.5 4t-154.5 2q-63 0 -137 -10t-96 -15l12 95q74 14 106.5 36.5t43 61.5t10.5 123v90 q0 63 -12.5 111.5t-46.5 119.5l-185 375q-53 109 -75.5 146.5t-63.5 60.5t-119 29zM319 1573q0 43 30 72.5t73 29.5q39 0 61.5 -25.5t22.5 -62.5q0 -43 -30 -72.5t-73 -29.5q-39 0 -61.5 26.5t-22.5 61.5zM659 1573q0 43 30 72.5t73 29.5q39 0 61.5 -25.5t22.5 -62.5 q0 -43 -30 -72.5t-73 -29.5q-39 0 -61.5 26.5t-22.5 61.5z" />
<glyph unicode="&#x179;" horiz-adv-x="1163" d="M70 59l764 1155l-355 -12q-96 -4 -151.5 -31.5t-84 -87t-40.5 -163.5l-97 -9q2 16 10.5 72.5t16.5 150t10 177.5l21 18l358 -22l529 -15l22 -59q-391 -520 -790 -1151l415 14q106 2 172 84t99 256l96 10q-4 -18 -13.5 -76.5t-21.5 -156.5t-16 -186l-31 -33l-741 12 l-144 -12zM467 1499q121 63 246 133t162 90l18 -12l33 -98l-8 -21q-35 -12 -161 -56t-261 -95l-17 10z" />
<glyph unicode="&#x17a;" horiz-adv-x="942" d="M74 47l557 801l-256 -12q-100 -6 -138 -44t-49 -141l-79 -12q4 29 12 122t10 175l12 10l263 -16l430 -10l16 -43q-188 -242 -346 -462t-240 -343l303 18q82 6 127 64.5t66 185.5l82 10q-2 -14 -10.5 -65.5t-16.5 -125t-8 -139.5l-33 -32l-575 18l-107 -10zM340 1110 q92 100 186.5 211t120.5 143l21 -4l78 -84l-2 -22q-31 -23 -134.5 -107t-209.5 -180l-19 4z" />
<glyph unicode="&#x17b;" horiz-adv-x="1163" d="M70 59l764 1155l-355 -12q-96 -4 -151.5 -31.5t-84 -87t-40.5 -163.5l-97 -9q2 16 10.5 72.5t16.5 150t10 177.5l21 18l358 -22l529 -15l22 -59q-391 -520 -790 -1151l415 14q106 2 172 84t99 256l96 10q-4 -18 -13.5 -76.5t-21.5 -156.5t-16 -186l-31 -33l-741 12 l-144 -12zM487 1577q0 49 35 85t86 36q47 0 73.5 -31t26.5 -74q0 -49 -34.5 -84.5t-86.5 -35.5q-47 0 -73.5 30.5t-26.5 73.5z" />
<glyph unicode="&#x17c;" horiz-adv-x="942" d="M74 47l557 801l-256 -12q-100 -6 -138 -44t-49 -141l-79 -12q4 29 12 122t10 175l12 10l263 -16l430 -10l16 -43q-188 -242 -346 -462t-240 -343l303 18q82 6 127 64.5t66 185.5l82 10q-2 -14 -10.5 -65.5t-16.5 -125t-8 -139.5l-33 -32l-575 18l-107 -10zM371 1337 q0 49 35 85t86 36q47 0 73.5 -30.5t26.5 -73.5q0 -49 -34.5 -85t-86.5 -36q-47 0 -73.5 30.5t-26.5 73.5z" />
<glyph unicode="&#x17d;" horiz-adv-x="1163" d="M70 59l764 1155l-355 -12q-96 -4 -151.5 -31.5t-84 -87t-40.5 -163.5l-97 -9q2 16 10.5 72.5t16.5 150t10 177.5l21 18l358 -22l529 -15l22 -59q-391 -520 -790 -1151l415 14q106 2 172 84t99 256l96 10q-4 -18 -13.5 -76.5t-21.5 -156.5t-16 -186l-31 -33l-741 12 l-144 -12zM301 1669l28 45l19 2q137 -80 250 -133q106 49 249 133l19 -2l29 -45q-84 -63 -171.5 -134t-111.5 -93h-29q-25 23 -111.5 93.5t-170.5 133.5z" />
<glyph unicode="&#x17e;" horiz-adv-x="942" d="M74 47l557 801l-256 -12q-100 -6 -138 -44t-49 -141l-79 -12q4 29 12 122t10 175l12 10l263 -16l430 -10l16 -43q-188 -242 -346 -462t-240 -343l303 18q82 6 127 64.5t66 185.5l82 10q-2 -14 -10.5 -65.5t-16.5 -125t-8 -139.5l-33 -32l-575 18l-107 -10zM172 1405 l33 47l16 2q124 -107 263 -207q170 127 262 207l16 -2l33 -47q-88 -90 -179 -193.5t-118 -134.5h-29q-27 31 -118 134.5t-179 193.5z" />
<glyph unicode="&#x192;" horiz-adv-x="782" d="M-109 -256q0 31 12.5 81t24.5 62h23q23 -53 70 -91t100 -38q47 0 77.5 38t39.5 116l65 653q0 35 -7 48.5t-31.5 16.5t-94.5 5l-8 12l14 70l143 20l7 66l14 133q12 127 98 208t205 81q74 0 136.5 -21.5t62.5 -52.5q0 -33 -12.5 -85t-24.5 -67h-27q-27 55 -81 96.5 t-113 41.5q-53 0 -78 -36t-32 -82t-15 -147l-13 -141q100 0 172 2t95 4l6 -6l-21 -108q-20 0 -90.5 2t-171.5 4l-37 -404l-24 -268q-8 -82 -56.5 -146.5t-119 -100.5t-146.5 -36q-61 0 -111.5 20.5t-50.5 49.5z" />
<glyph unicode="&#x1fa;" horiz-adv-x="1183" d="M-37 -6l17 96q57 6 91.5 40t67.5 118l400 1046l129 35h16q12 -49 62.5 -227t123 -422t140.5 -449q24 -75 65 -106t131 -39l4 -8l-14 -84q-25 0 -89.5 3t-127.5 3q-98 0 -189.5 -8t-115.5 -12l-6 14l8 80q104 8 143 24.5t39 53.5q0 41 -18 98l-68 223q-49 2 -213 2 q-98 0 -223 -16l-76 -213q-18 -55 -18 -80q0 -45 28.5 -64.5t94.5 -19.5h116l4 -8l-12 -88q-25 2 -113 8t-172 6q-76 0 -140 -2t-85 -4zM373 559h180q71 0 190 10l-161 537h-15zM453 1728q109 57 221.5 120t146.5 81l16 -11l29 -88l-7 -19q-31 -11 -144.5 -50.5 t-235.5 -85.5l-15 9zM488 1516q0 69 42.5 112t112.5 43q72 0 106.5 -40.5t34.5 -99.5q0 -66 -42 -114.5t-114 -48.5q-66 0 -103 40.5t-37 107.5zM547 1527q0 -44 29.5 -66t64.5 -22q81 0 81 72q0 40 -25 64t-69 24q-39 0 -60 -19.5t-21 -52.5z" />
<glyph unicode="&#x1fb;" horiz-adv-x="954" d="M84 238q0 59 29.5 104t79.5 59l387 107l4 90q0 102 -47.5 159.5t-133.5 57.5q-57 0 -126.5 -28.5t-118.5 -73.5l-11 6l-24 88q104 61 199.5 102t134.5 41q133 0 208.5 -69.5t75.5 -194.5q0 -45 -14 -184q-23 -225 -22 -287q0 -45 22.5 -69.5t60.5 -24.5q29 0 63 14.5 t60 36.5l29 -33q-33 -57 -83 -103t-95 -61q-166 0 -182 166l-9 2q-74 -74 -134 -116.5t-91 -42.5q-115 0 -188.5 71.5t-73.5 182.5zM240 260q0 -59 39.5 -98t101.5 -39q39 0 91 27.5t95 70.5l8 209l-276 -84q-59 -18 -59 -86zM291 1337q109 57 221.5 120t146.5 81l16 -11 l29 -88l-7 -19q-31 -11 -144.5 -50.5t-235.5 -85.5l-15 9zM333 1125q0 69 42.5 112t112.5 43q72 0 106.5 -40.5t34.5 -99.5q0 -66 -42 -114.5t-114 -48.5q-66 0 -103 40.5t-37 107.5zM392 1136q0 -44 29.5 -66t64.5 -22q81 0 81 72q0 40 -25 64t-69 24q-39 0 -60 -19.5 t-21 -52.5z" />
<glyph unicode="&#x1fc;" horiz-adv-x="1658" d="M-20 63q6 6 25.5 30t48 65t55.5 90l505 936q-8 33 -51 33q-20 0 -40.5 -2.5t-28.5 -2.5l-5 9l15 90h47q166 -6 278 -6q246 0 382.5 5t228.5 19l6 -12q-2 -12 -11.5 -58.5t-19.5 -122t-16 -159.5l-99 -8q0 10 2.5 35.5t2.5 52.5q0 72 -19.5 99.5t-83 36.5t-219.5 9 q-68 0 -95.5 -4t-36.5 -16.5t-11 -42.5l63 -467l242 22l188 27l8 -10l-26 -109l-176 -6l-224 -18l58 -347q12 -78 50 -108.5t122 -30.5q158 0 225.5 16.5t95 65.5t43.5 168l90 10l7 -10q-6 -29 -24.5 -132.5t-31.5 -211.5l-10 -12l-102 2q-233 12 -449 12h-69 q-98 0 -188.5 -8t-115.5 -12l-4 14l4 80q84 6 125 16t57.5 29.5t16.5 58.5q0 37 -6 79l-8 56l-37 252l-203 -16l-186 -21l-146 -282q-33 -63 -32 -94q0 -70 112 -70h117l-10 -96q-27 2 -114 8t-169 6q-41 0 -82 -3t-57 -5zM430 635l172 10l150 12l-62 447h-18zM885 1468 q92 100 186.5 211t120.5 143l21 -4l78 -84l-2 -22q-31 -23 -134.5 -107t-209.5 -180l-19 4z" />
<glyph unicode="&#x1fd;" horiz-adv-x="1337" d="M61 238q0 59 30 103t79 58l391 107l2 102q0 102 -45 157.5t-131 55.5q-59 0 -115.5 -24.5t-96.5 -53t-40 -30.5l-10 6l-25 88q18 10 83 45t138.5 66.5t112.5 31.5q201 0 254 -164q59 78 141 121t170 43q131 0 206 -76.5t75 -214.5q0 -14 -2 -24t-2 -14l-19 -29l-552 -131 q10 -158 95 -256.5t210 -98.5q55 0 110.5 16.5t93 33t48.5 22.5l12 -4l22 -59q-14 -11 -66 -44.5t-122 -64.5t-125 -31q-129 0 -227.5 57.5t-147.5 162.5q-80 -86 -155.5 -141.5t-128.5 -69.5q-115 0 -189 71.5t-74 182.5zM211 260q0 -57 41 -100t96 -43q86 0 236 139 q-25 78 -25 174l-283 -84q-32 -8 -48.5 -31.5t-16.5 -54.5zM579 1110q92 100 186.5 211t120.5 143l21 -4l78 -84l-2 -22q-31 -23 -134.5 -107t-209.5 -180l-19 4zM702 537l359 102q41 12 41 37q0 68 -43 114t-107 46q-113 0 -181.5 -79t-68.5 -206v-14z" />
<glyph unicode="&#x1fe;" horiz-adv-x="1417" d="M82 608q0 201 89 366t243.5 260t341.5 95q119 0 223 -41l86 162l59 -14l6 -25l-83 -156q135 -77 211.5 -222.5t76.5 -334.5q0 -201 -91 -366.5t-247.5 -261t-347.5 -95.5q-137 0 -248 56l-122 -232l-56 13l-4 20l121 231q-121 82 -189.5 223.5t-68.5 321.5zM258 674 q0 -146 41 -264.5t117 -200.5l489 938q-96 59 -219 59q-125 0 -222 -67.5t-151.5 -188.5t-54.5 -276zM471 160q104 -80 242 -80q129 0 229 67.5t155.5 188.5t55.5 276q0 158 -49 285t-137 205zM551 1499q121 63 246 133t162 90l18 -12l33 -98l-8 -21q-35 -12 -161 -56 t-261 -95l-17 10z" />
<glyph unicode="&#x1ff;" horiz-adv-x="1019" d="M74 430q0 143 62.5 263t171 188.5t241.5 68.5q80 0 149 -28l97 182l59 -14l6 -25l-96 -178q86 -58 134 -160t48 -231q0 -143 -62.5 -263t-171 -189t-241.5 -69q-90 0 -166 35l-112 -211l-56 13l-4 20l111 215q-80 59 -125 157.5t-45 225.5zM238 489q0 -90 21.5 -166.5 t59.5 -132.5l312 603q-63 47 -144 47q-114 0 -181.5 -94.5t-67.5 -256.5zM371 133q70 -57 157 -57q115 0 182.5 93t67.5 253q0 201 -92 317zM385 1110q92 100 186.5 211t120.5 143l21 -4l78 -84l-2 -22q-31 -23 -134.5 -107t-209.5 -180l-19 4z" />
<glyph unicode="&#x218;" horiz-adv-x="1085" d="M117 66q2 12 8 61t11 128t5 167l92 10q0 -154 20.5 -227.5t76 -101t170.5 -27.5q129 0 206.5 60.5t77.5 164.5q0 61 -42 110.5t-99 84t-170 94.5q-106 55 -174 101t-114 109.5t-46 147.5q0 106 62.5 193.5t170 137.5t238.5 50q82 0 151.5 -11t110.5 -23.5t52 -16.5l6 -12 q-2 -12 -10.5 -57.5t-18.5 -125t-16 -163.5l-80 -9l-12 11q2 8 4 37.5t2 68.5q0 109 -53.5 150t-190.5 41q-113 0 -185.5 -56.5t-72.5 -140.5q0 -82 70.5 -142.5t207.5 -131.5q133 -68 203 -112t123 -109.5t53 -151.5q0 -115 -64.5 -206t-179 -142.5t-261.5 -51.5 q-87 0 -158.5 15.5t-117.5 34t-46 20.5zM340 -549q63 39 105.5 95.5t42.5 107.5q0 39 -23 72.5t-59 54.5l4 29q70 53 119 53q47 0 78.5 -40t31.5 -106q0 -100 -78 -181t-184 -136l-37 31v20z" />
<glyph unicode="&#x219;" horiz-adv-x="823" d="M100 33q6 31 14.5 127t10.5 147l72 10q0 -135 45 -190t153 -55q78 0 131.5 34.5t53.5 86.5q0 51 -48.5 93t-189.5 117q-117 59 -170 120t-53 134q0 82 49 149.5t135 105.5t193 38q49 0 94 -7t73.5 -15t36.5 -10l5 -11q-4 -20 -18.5 -93t-20.5 -157l-76 -6q0 6 2 24.5 t2 35.5q0 74 -40 107.5t-128 33.5q-70 0 -118 -33t-48 -80q0 -49 42 -92t136 -92q166 -88 226.5 -147.5t60.5 -137.5t-52 -145.5t-138 -108.5t-185 -41q-65 0 -119.5 9.5t-85 19.5t-39.5 14zM237 -549q63 39 105.5 95.5t42.5 107.5q0 39 -23 72.5t-59 54.5l4 29 q70 53 119 53q47 0 78.5 -40t31.5 -106q0 -100 -78 -181t-184 -136l-37 31v20z" />
<glyph unicode="&#x21a;" horiz-adv-x="1118" d="M18 958q4 31 15.5 138.5t15.5 216.5l19 16l170 -22h634l175 22l18 -16q4 -109 15.5 -213.5t15.5 -132.5l-97 -9q-23 135 -45 182.5t-79.5 62t-221.5 22.5q-12 -123 -22 -434.5t-10 -561.5q0 -76 26.5 -107.5t89.5 -31.5q45 0 75 2t38 4l6 -8l-18 -94q-33 0 -123 3t-178 3 q-86 0 -168 -3t-113 -5l16 88q102 8 141.5 25.5t51.5 63.5t12 163v893q-176 -8 -237.5 -22.5t-84 -59.5t-40.5 -176zM412 -549q63 39 105.5 95.5t42.5 107.5q0 39 -23 72.5t-59 54.5l4 29q70 53 119 53q47 0 78.5 -40t31.5 -106q0 -100 -78 -181t-184 -136l-37 31v20z" />
<glyph unicode="&#x21b;" horiz-adv-x="675" d="M43 842l10 61q59 29 115.5 71t92.5 73.5t46 42.5l41 -17q-2 -10 -6 -49t-10 -104l301 6l6 -6l-18 -109l-297 6q-14 -225 -15 -512q0 -104 36 -147t124 -43q31 0 61.5 8t51 17.5t26.5 11.5l21 -54q-12 -10 -52 -38.5t-86.5 -56.5t-68.5 -28q-139 0 -196.5 56.5 t-57.5 191.5v504q0 55 -24.5 77.5t-92.5 24.5zM186 -549q63 39 105.5 95.5t42.5 107.5q0 39 -23 72.5t-59 54.5l4 29q70 53 119 53q47 0 78.5 -40t31.5 -106q0 -100 -78 -181t-184 -136l-37 31v20z" />
<glyph unicode="&#x237;" horiz-adv-x="512" d="M31 -455l4 17q88 88 119.5 196.5t31.5 319.5v635q0 63 -17 86.5t-65 23.5q-18 0 -33.5 -2t-21.5 -4l8 76q78 10 172.5 30.5t122.5 26.5l10 -24q-35 -59 -34 -955q0 -147 -67.5 -268t-192.5 -197z" />
<glyph unicode="&#x2c6;" horiz-adv-x="815" d="M111 1126q84 88 171 186.5t111 127.5h29q25 -29 112 -128.5t171 -185.5l-29 -45l-19 -2q-78 70 -206 166l-43 33q-160 -119 -250 -199l-19 2z" />
<glyph unicode="&#x2c7;" horiz-adv-x="815" d="M96 1405l33 47l16 2q124 -107 263 -207q170 127 262 207l16 -2l33 -47q-88 -90 -179 -193.5t-118 -134.5h-29q-27 31 -118 134.5t-179 193.5z" />
<glyph unicode="&#x2d8;" horiz-adv-x="815" d="M162 1376l33 21h16q25 -66 78 -100.5t119 -34.5q65 0 118.5 34.5t77.5 100.5h17l32 -21q-25 -98 -86 -165.5t-159 -67.5t-160 67.5t-86 165.5z" />
<glyph unicode="&#x2d9;" horiz-adv-x="815" d="M297 1337q0 49 35 85t86 36q47 0 73.5 -30.5t26.5 -73.5q0 -49 -34.5 -85t-86.5 -36q-47 0 -73.5 30.5t-26.5 73.5z" />
<glyph unicode="&#x2da;" horiz-adv-x="815" d="M242 1278q0 76 47 124t125 48q80 0 118.5 -45t38.5 -111q0 -74 -47 -127t-127 -53q-73 0 -114 45t-41 119zM307 1290q0 -49 33 -73.5t72 -24.5q90 0 90 80q0 45 -28 71.5t-77 26.5q-43 0 -66.5 -21.5t-23.5 -58.5z" />
<glyph unicode="&#x2db;" horiz-adv-x="815" d="M188 -301q0 74 58.5 149.5t183.5 200.5l39 37h86q-139 -143 -188.5 -211t-49.5 -137q0 -49 33 -80t86 -31q35 0 71 10.5t58.5 21.5t28.5 15l27 -39q-9 -8 -38.5 -31.5t-74.5 -52t-92 -45.5q-102 0 -165 51.5t-63 141.5z" />
<glyph unicode="&#x2dc;" horiz-adv-x="815" d="M72 1171v11l155 182l33 8q37 0 160 -37q18 -4 68.5 -17t70.5 -13t49 24.5t51.5 52t28.5 35.5h12l45 -43v-10l-155 -182l-33 -8q-37 0 -160 36q-18 4 -68 17.5t-71 13.5q-23 0 -51.5 -24.5t-50 -52t-27.5 -36.5h-12z" />
<glyph unicode="&#x2dd;" horiz-adv-x="815" d="M152 1135q84 86 172 183t114 126l19 -6l67 -78l-4 -19q-26 -20 -121.5 -91.5t-195.5 -155.5l-19 4zM414 1135q84 86 172 183t114 126l19 -6l67 -78l-4 -19q-26 -20 -121.5 -91.5t-195.5 -155.5l-19 4z" />
<glyph unicode="&#x323;" horiz-adv-x="0" d="M287 -276q0 53 34.5 89.5t92.5 36.5q55 0 85.5 -33.5t30.5 -82.5q0 -53 -35.5 -90t-93.5 -37q-55 0 -84.5 33.5t-29.5 83.5z" />
<glyph unicode="&#x326;" horiz-adv-x="0" d="M217 -549q63 39 105.5 95.5t42.5 107.5q0 39 -23 72.5t-59 54.5l4 29q70 53 119 53q47 0 78.5 -40t31.5 -106q0 -100 -78 -181t-184 -136l-37 31v20z" />
<glyph unicode="&#x394;" horiz-adv-x="1101" d="M16 27l486 1267l129 35h16q18 -66 83 -296t152 -522t154 -497l-14 -14h-987zM170 117h670l-295 989h-15z" />
<glyph unicode="&#x3a9;" horiz-adv-x="1738" d="M86 346l78 10q14 -96 37.5 -147t63.5 -72.5t108 -21.5h188q-154 121 -241 281.5t-87 326.5t88.5 305t238 220t329.5 81q174 0 310 -72.5t212 -202.5t76 -298q0 -186 -94.5 -358.5t-255.5 -282.5h219q68 0 106.5 20.5t62 69.5t40.5 141l82 10q-4 -14 -13.5 -67t-19.5 -128 t-10 -141l-33 -32l-520 28l-84 -12l-15 43q188 162 270.5 313.5t82.5 337.5q0 150 -55.5 264.5t-156 179t-229.5 64.5q-133 0 -236.5 -58t-160.5 -164.5t-57 -246.5q0 -195 92 -379t254 -309l-15 -47l-84 14l-499 -28l-33 32q-2 66 -11.5 143t-17.5 123t-10 60z" />
<glyph unicode="&#x3bc;" horiz-adv-x="1064" d="M109 -471q4 51 15 232.5t15 388.5l13 522q2 66 -5.5 135.5t-9.5 89.5l10 14l179 39l12 -24q-18 -51 -35.5 -233.5t-17.5 -375.5q0 -201 172 -200q49 0 99 25.5t86 53t44 35.5v478q0 43 -6 106.5t-8 83.5l10 14l176 37l12 -24q-18 -47 -31.5 -255t-13.5 -456 q0 -45 22.5 -69.5t61.5 -24.5q29 0 56.5 11t45 23.5t21.5 16.5l29 -33q-8 -12 -38 -51t-70 -76t-70 -37q-82 0 -130 40t-53 118l-12 4q-168 -141 -264 -162q-86 0 -154 54l-10 -6l-6 -121l-2 -62q-2 -66 5 -163t11 -128l-10 -14l-135 -31z" />
<glyph unicode="&#x3c0;" horiz-adv-x="1228" d="M8 819l123 201l31 14q164 0 459 -12q209 -8 245 -8q74 0 171.5 8t125.5 12l13 -14l-21 -94l-14 -15q-94 0 -140.5 -8t-63.5 -31.5t-22 -72.5l-12 -162q-20 -260 -20 -324q0 -108 45 -157.5t145 -49.5l10 -14q0 -16 -38.5 -66.5t-51.5 -50.5q-125 0 -182 64.5t-57 204.5 l10 551q0 55 -10.5 76.5t-43 27.5t-120.5 6q-72 0 -100.5 -6t-39 -25.5t-14.5 -70.5q-8 -129 -16 -383t-8 -375q0 -61 3 -124.5t5 -82.5l-10 -14l-148 -33l-12 25q10 25 23.5 363.5t13.5 611.5q0 70 -17.5 92t-68.5 22q-29 0 -55.5 -29.5t-45 -62.5t-22.5 -43l-15 -2l-53 37 z" />
<glyph unicode="&#x901;" horiz-adv-x="0" d="M-592 1569l60 49h16q41 -100 96 -153.5t119 -53.5q63 0 131 57.5t127 167.5l33 -2l100 -98q-65 -117 -153.5 -178.5t-182.5 -61.5q-102 0 -192 69t-154 204zM-411 1704q20 41 57 71.5t82 44.5q41 -20 71.5 -57t45.5 -82q-20 -41 -57 -71.5t-83 -45.5q-41 20 -71.5 57.5 t-44.5 82.5z" />
<glyph unicode="&#x902;" horiz-adv-x="0" d="M-395 1518q20 41 57 71.5t82 44.5q41 -20 71.5 -57t45.5 -82q-20 -41 -57 -71.5t-83 -45.5q-41 20 -71.5 57.5t-44.5 82.5z" />
<glyph unicode="&#x903;" horiz-adv-x="487" d="M115 271q20 41 57 71.5t82 44.5q41 -20 71.5 -57t45.5 -82q-20 -41 -57 -71.5t-83 -45.5q-41 20 -71.5 57.5t-44.5 82.5zM115 762q20 41 57 71.5t82 44.5q41 -20 71.5 -57t45.5 -82q-20 -41 -57 -71.5t-83 -45.5q-41 20 -71.5 57.5t-44.5 82.5z" />
<glyph unicode="&#x904;" horiz-adv-x="1470" d="M78 532l2 9l57 28l17 -8q127 -338 333 -338q106 0 178 69.5t72 172.5q0 78 -42 133t-93 55q-33 0 -149 -39q-14 -8 -39 -14l-68 102l6 15q150 37 231 110.5t81 155.5q0 92 -111 92q-66 0 -132.5 -34.5t-176.5 -122.5h-19l-86 108q168 152 332 152q82 0 153.5 -32 t115.5 -93.5t44 -145.5q0 -121 -106 -200q135 -121 242 -121q72 0 132 50t89 146l-8 293h-203q-23 35 -39 90l10 15h569l11 -11l35 -77l-7 -17h-133q-51 0 -72.5 -20.5t-23.5 -75.5q-20 -352 -20 -573l8 -461l-33 -15l-113 70q12 248 11 219l12 320q-37 -31 -80 -48.5 t-80 -17.5q-59 0 -143 39q23 -53 22 -117q0 -131 -89 -211t-228 -80q-164 0 -279.5 115t-189.5 313zM487 1667l59 35l15 -8q14 -62 31.5 -91.5t55.5 -46t115 -28.5l213 -37q160 -31 233 -107.5t73 -171.5q0 -45 -11 -79h-135q57 84 58 118q0 35 -46.5 58.5t-152.5 40.5 l-176 28q-131 23 -218 97.5t-114 191.5z" />
<glyph unicode="&#x905;" horiz-adv-x="1470" d="M78 532l2 9l57 28l17 -8q127 -338 333 -338q106 0 178 69.5t72 172.5q0 78 -42 133t-93 55q-33 0 -149 -39q-14 -8 -39 -14l-68 102l6 15q150 37 231 110.5t81 155.5q0 92 -111 92q-66 0 -132.5 -34.5t-176.5 -122.5h-19l-86 108q168 152 332 152q82 0 153.5 -32 t115.5 -93.5t44 -145.5q0 -121 -106 -200q135 -121 242 -121q72 0 132 50t89 146l-8 293h-203q-23 35 -39 90l10 15h569l11 -11l35 -77l-7 -17h-133q-51 0 -72.5 -20.5t-23.5 -75.5q-20 -352 -20 -573l8 -461l-33 -15l-113 70q12 248 11 219l12 320q-37 -31 -80 -48.5 t-80 -17.5q-59 0 -143 39q23 -53 22 -117q0 -131 -89 -211t-228 -80q-164 0 -279.5 115t-189.5 313z" />
<glyph unicode="&#x906;" horiz-adv-x="2013" d="M78 532l2 9l57 28l17 -8q127 -338 333 -338q106 0 178 69.5t72 172.5q0 78 -42 133t-93 55q-33 0 -149 -39q-14 -8 -39 -14l-68 102l6 15q150 37 231 110.5t81 155.5q0 92 -111 92q-66 0 -132.5 -34.5t-176.5 -122.5h-19l-86 108q168 152 332 152q82 0 153.5 -32 t115.5 -93.5t44 -145.5q0 -121 -106 -200q135 -121 242 -121q72 0 132 50t89 146l-8 293h-203q-23 35 -39 90l10 15h1108l10 -11l35 -77l-6 -17h-133q-51 0 -72.5 -20.5t-23.5 -75.5q-20 -352 -21 -573l8 -461l-32 -15l-113 70l8 186q14 281 14 410q0 57 -8 356l-4 123h-295 q-51 0 -72.5 -20.5t-23.5 -75.5q-20 -352 -20 -573l8 -461l-33 -15l-113 70q12 248 11 219l12 320q-37 -31 -80 -48.5t-80 -17.5q-59 0 -143 39q23 -53 22 -117q0 -131 -89 -211t-228 -80q-164 0 -279.5 115t-189.5 313z" />
<glyph unicode="&#x907;" horiz-adv-x="987" d="M-41 1165l10 15h1014l10 -11l35 -77l-8 -17h-146q-39 0 -55 -14t-18 -55l-8 -220l-17 -18l-325 12q-109 0 -160 -33.5t-51 -113.5q0 -49 19.5 -82t64.5 -33q23 0 59.5 10.5t73.5 22.5q119 41 176 41q68 0 129 -42t99 -107.5t38 -133.5q0 -88 -62.5 -154.5t-153.5 -106.5 t-177 -52q61 -102 105 -143t94 -41q39 0 88 24l22 -6l49 -139q-66 -25 -114 -25q-53 0 -98.5 29t-97.5 98.5t-126 198.5q-68 6 -139.5 36.5t-134.5 80.5l-4 22q39 100 104 166h51q51 -53 78 -90t61 -101q336 115 336 293q0 76 -65 76q-43 0 -140 -35q-111 -41 -165 -41 q-76 0 -142.5 52.5t-106.5 132.5t-40 151q0 150 201 150l344 -4l-4 194h-664q-23 35 -39 90z" />
<glyph unicode="&#x908;" horiz-adv-x="987" d="M-41 1165l10 15h1014l10 -11l35 -77l-8 -17h-146q-39 0 -55 -14t-18 -55l-8 -220l-17 -18l-325 12q-109 0 -160 -33.5t-51 -113.5q0 -49 19.5 -82t64.5 -33q23 0 59.5 10.5t73.5 22.5q119 41 176 41q68 0 129 -42t99 -107.5t38 -133.5q0 -88 -62.5 -154.5t-153.5 -106.5 t-177 -52q61 -102 105 -143t94 -41q39 0 88 24l22 -6l49 -139q-66 -25 -114 -25q-53 0 -98.5 29t-97.5 98.5t-126 198.5q-68 6 -139.5 36.5t-134.5 80.5l-4 22q39 100 104 166h51q51 -53 78 -90t61 -101q336 115 336 293q0 76 -65 76q-43 0 -140 -35q-111 -41 -165 -41 q-76 0 -142.5 52.5t-106.5 132.5t-40 151q0 150 201 150l344 -4l-4 194h-664q-23 35 -39 90zM530 1430q0 78 51.5 126t141.5 48q57 0 117.5 -16.5t111.5 -47.5l29 -108l-9 -7q-45 29 -94 44.5t-92 15.5q-59 0 -90 -30t-31 -81q0 -59 47 -129.5t133 -128.5h-102 q-104 70 -158.5 153t-54.5 161z" />
<glyph unicode="&#x909;" horiz-adv-x="974" d="M-49 1165l10 15h1014l10 -11l35 -77l-6 -17h-326q43 -37 66.5 -85t23.5 -101q0 -68 -36.5 -129.5t-102.5 -102.5q111 -47 169 -123.5t58 -173.5q0 -84 -44 -154.5t-120.5 -111.5t-166.5 -41q-152 0 -275 117t-207 338l2 10l56 29l24 -12q51 -166 143.5 -258.5 t204.5 -92.5q66 0 123.5 32t91 86t33.5 116q0 78 -50 128t-128 50q-57 0 -164 -35l-53 109l6 16q156 51 229.5 117.5t73.5 152.5q0 115 -121 119h-534q-23 35 -39 90z" />
<glyph unicode="&#x90a;" horiz-adv-x="1433" d="M-49 1165l10 15h1469l10 -11l35 -77l-9 -17h-778q43 -37 66.5 -85t23.5 -101q0 -68 -36.5 -129.5t-102.5 -102.5q55 -25 84 -45q68 53 139.5 90t126.5 37q90 0 169 -37.5t126 -109.5t47 -170q0 -92 -44 -166t-132 -150l-16 3l-86 88v24q154 143 153 293q0 66 -29.5 96.5 t-86.5 30.5q-70 0 -136.5 -39t-122.5 -106q35 -63 35 -136q0 -84 -44 -154.5t-120.5 -111.5t-166.5 -41q-152 0 -275 117t-207 338l2 10l56 29l24 -12q51 -166 143.5 -258.5t204.5 -92.5q66 0 123.5 32t91 86t33.5 116q0 78 -50 128t-128 50q-57 0 -164 -35l-53 109l6 16 q156 51 229.5 117.5t73.5 152.5q0 115 -121 119h-534q-23 35 -39 90z" />
<glyph unicode="&#x90b;" horiz-adv-x="1529" d="M-41 1165l10 15h1557l10 -11l35 -77l-8 -17h-631q-51 0 -72.5 -20.5t-23.5 -75.5q-10 -180 -17 -354q166 53 271 96q-16 45 -17 94q0 66 25 98l39 15q129 -41 217 -158l4 -33q-61 -49 -129 -86q14 -18 51 -59q63 -68 98 -124t35 -130q0 -94 -62.5 -158.5t-164.5 -75.5 l-92 103v18q90 16 143 62.5t53 103.5q0 37 -21.5 72t-66.5 88q-10 10 -27.5 30.5t-27.5 36.5q-141 -55 -330 -102l-2 -110l8 -461l-32 -15l-113 70l20 465l-432 -350l-102 92v18l518 393q-80 70 -159 113t-130 43q-37 0 -78 -25.5t-141 -101.5l-111 109v16q70 55 135.5 84 t118.5 29q74 0 177.5 -53.5t203.5 -135.5l-10 379h-690q-23 35 -39 90z" />
<glyph unicode="&#x90c;" horiz-adv-x="1466" d="M-41 1165l10 15h1493l11 -11l34 -77l-8 -17h-428q-41 0 -56.5 -14t-17.5 -55l-6 -172q98 -31 167 -109t69 -164q0 -47 -29 -99t-86 -132q-59 -86 -88 -137.5t-29 -102.5q0 -37 17.5 -57.5t50.5 -20.5q47 0 109.5 42t123.5 114h17l96 -111q-68 -76 -128 -111.5t-122 -35.5 q-68 0 -133 38t-107 97t-42 121q0 53 29.5 107.5t88.5 136.5q57 78 85 130t28 101q0 98 -113 98q-98 0 -177 -75.5t-148 -237.5h-21l-121 78q57 125 117 203q-98 51 -184 51q-96 0 -154.5 -62.5t-58.5 -165.5q0 -141 106.5 -273t278.5 -204l2 -12l-55 -59 q-231 133 -350 289.5t-119 326.5q0 129 64.5 200.5t180.5 71.5q72 0 159 -28.5t177 -81.5q74 76 170 86l-4 229h-860q-23 35 -39 90z" />
<glyph unicode="&#x90d;" horiz-adv-x="1013" d="M-41 1165l10 15h1041l10 -11l35 -77l-8 -17h-109q-39 0 -58.5 -19.5t-21.5 -66.5l-14 -264q-6 -127 -16.5 -182.5t-37 -95t-92.5 -105.5q-68 41 -118 98v23q66 49 95.5 91t38.5 90t9 130l-8 301h-332q-43 0 -59.5 -4t-23.5 -20.5t-15 -61.5q-12 -78 -21.5 -181t-9.5 -179 t15.5 -117t55.5 -78t146 -112l227 -164q94 -68 144.5 -149t50.5 -163q0 -119 -96 -215l-131 117l-7 19q127 102 127 153q0 31 -37.5 72t-101.5 82l-205 135q-141 92 -229 219t-88 234l12 413h-139q-23 35 -39 90zM158 1569l60 49h16q41 -100 96 -153.5t119 -53.5 q63 0 131 57.5t127 167.5l33 -2l100 -98q-65 -117 -153.5 -178.5t-182.5 -61.5q-102 0 -192 69t-154 204z" />
<glyph unicode="&#x90e;" horiz-adv-x="1013" d="M-41 1165l10 15h1041l10 -11l35 -77l-8 -17h-109q-39 0 -58.5 -19.5t-21.5 -66.5l-14 -264q-6 -127 -16.5 -182.5t-37 -95t-92.5 -105.5q-68 41 -118 98v23q66 49 95.5 91t38.5 90t9 130l-8 301h-332q-43 0 -59.5 -4t-23.5 -20.5t-15 -61.5q-12 -78 -21.5 -181t-9.5 -179 t15.5 -117t55.5 -78t146 -112l227 -164q94 -68 144.5 -149t50.5 -163q0 -119 -96 -215l-131 117l-7 19q127 102 127 153q0 31 -37.5 72t-101.5 82l-205 135q-141 92 -229 219t-88 234l12 413h-139q-23 35 -39 90zM68 1667l59 35l15 -8q14 -62 31.5 -91.5t55.5 -46t115 -28.5 l213 -37q160 -31 233 -107.5t73 -171.5q0 -45 -11 -79h-135q57 84 58 118q0 35 -46.5 58.5t-152.5 40.5l-176 28q-131 23 -218 97.5t-114 191.5z" />
<glyph unicode="&#x90f;" horiz-adv-x="1013" d="M-41 1165l10 15h1041l10 -11l35 -77l-8 -17h-109q-39 0 -58.5 -19.5t-21.5 -66.5l-14 -264q-6 -127 -16.5 -182.5t-37 -95t-92.5 -105.5q-68 41 -118 98v23q66 49 95.5 91t38.5 90t9 130l-8 301h-332q-43 0 -59.5 -4t-23.5 -20.5t-15 -61.5q-12 -78 -21.5 -181t-9.5 -179 t15.5 -117t55.5 -78t146 -112l227 -164q94 -68 144.5 -149t50.5 -163q0 -119 -96 -215l-131 117l-7 19q127 102 127 153q0 31 -37.5 72t-101.5 82l-205 135q-141 92 -229 219t-88 234l12 413h-139q-23 35 -39 90z" />
<glyph unicode="&#x910;" horiz-adv-x="1013" d="M-41 1165l10 15h1041l10 -11l35 -77l-8 -17h-109q-39 0 -58.5 -19.5t-21.5 -66.5l-14 -264q-6 -127 -16.5 -182.5t-37 -95t-92.5 -105.5q-68 41 -118 98v23q66 49 95.5 91t38.5 90t9 130l-8 301h-332q-43 0 -59.5 -4t-23.5 -20.5t-15 -61.5q-12 -78 -21.5 -181t-9.5 -179 t15.5 -117t55.5 -78t146 -112l227 -164q94 -68 144.5 -149t50.5 -163q0 -119 -96 -215l-131 117l-7 19q127 102 127 153q0 31 -37.5 72t-101.5 82l-205 135q-141 92 -229 219t-88 234l12 413h-139q-23 35 -39 90zM185 1583l2 16q86 25 162 25q124 0 226.5 -68.5 t168.5 -195.5l121 -238h-113l-107 221q-74 158 -200 158q-76 0 -201 -59z" />
<glyph unicode="&#x911;" horiz-adv-x="2013" d="M78 532l2 9l57 28l17 -8q127 -338 333 -338q106 0 178 69.5t72 172.5q0 78 -42 133t-93 55q-33 0 -149 -39q-14 -8 -39 -14l-68 102l6 15q150 37 231 110.5t81 155.5q0 92 -111 92q-66 0 -132.5 -34.5t-176.5 -122.5h-19l-86 108q168 152 332 152q82 0 153.5 -32 t115.5 -93.5t44 -145.5q0 -121 -106 -200q135 -121 242 -121q72 0 132 50t89 146l-8 293h-203q-23 35 -39 90l10 15h1108l10 -11l35 -77l-6 -17h-133q-51 0 -72.5 -20.5t-23.5 -75.5q-20 -352 -21 -573l8 -461l-32 -15l-113 70l8 186q14 281 14 410q0 57 -8 356l-4 123h-295 q-51 0 -72.5 -20.5t-23.5 -75.5q-20 -352 -20 -573l8 -461l-33 -15l-113 70q12 248 11 219l12 320q-37 -31 -80 -48.5t-80 -17.5q-59 0 -143 39q23 -53 22 -117q0 -131 -89 -211t-228 -80q-164 0 -279.5 115t-189.5 313zM1417 1569l60 49h16q41 -100 96 -153.5t119 -53.5 q63 0 131 57.5t127 167.5l33 -2l100 -98q-65 -117 -153.5 -178.5t-182.5 -61.5q-102 0 -192 69t-154 204z" />
<glyph unicode="&#x912;" horiz-adv-x="2013" d="M78 532l2 9l57 28l17 -8q127 -338 333 -338q106 0 178 69.5t72 172.5q0 78 -42 133t-93 55q-33 0 -149 -39q-14 -8 -39 -14l-68 102l6 15q150 37 231 110.5t81 155.5q0 92 -111 92q-66 0 -132.5 -34.5t-176.5 -122.5h-19l-86 108q168 152 332 152q82 0 153.5 -32 t115.5 -93.5t44 -145.5q0 -121 -106 -200q135 -121 242 -121q72 0 132 50t89 146l-8 293h-203q-23 35 -39 90l10 15h1108l10 -11l35 -77l-6 -17h-133q-51 0 -72.5 -20.5t-23.5 -75.5q-20 -352 -21 -573l8 -461l-32 -15l-113 70l8 186q14 281 14 410q0 57 -8 356l-4 123h-295 q-51 0 -72.5 -20.5t-23.5 -75.5q-20 -352 -20 -573l8 -461l-33 -15l-113 70q12 248 11 219l12 320q-37 -31 -80 -48.5t-80 -17.5q-59 0 -143 39q23 -53 22 -117q0 -131 -89 -211t-228 -80q-164 0 -279.5 115t-189.5 313zM1026 1667l59 35l15 -8q14 -62 31.5 -91.5t55.5 -46 t115 -28.5l213 -37q160 -31 233 -107.5t73 -171.5q0 -45 -11 -79h-135q57 84 58 118q0 35 -46.5 58.5t-152.5 40.5l-176 28q-131 23 -218 97.5t-114 191.5z" />
<glyph unicode="&#x913;" horiz-adv-x="2013" d="M78 532l2 9l57 28l17 -8q127 -338 333 -338q106 0 178 69.5t72 172.5q0 78 -42 133t-93 55q-33 0 -149 -39q-14 -8 -39 -14l-68 102l6 15q150 37 231 110.5t81 155.5q0 92 -111 92q-66 0 -132.5 -34.5t-176.5 -122.5h-19l-86 108q168 152 332 152q82 0 153.5 -32 t115.5 -93.5t44 -145.5q0 -121 -106 -200q135 -121 242 -121q72 0 132 50t89 146l-8 293h-203q-23 35 -39 90l10 15h1108l10 -11l35 -77l-6 -17h-133q-51 0 -72.5 -20.5t-23.5 -75.5q-20 -352 -21 -573l8 -461l-32 -15l-113 70l8 186q14 281 14 410q0 57 -8 356l-4 123h-295 q-51 0 -72.5 -20.5t-23.5 -75.5q-20 -352 -20 -573l8 -461l-33 -15l-113 70q12 248 11 219l12 320q-37 -31 -80 -48.5t-80 -17.5q-59 0 -143 39q23 -53 22 -117q0 -131 -89 -211t-228 -80q-164 0 -279.5 115t-189.5 313zM1143 1583l2 16q86 25 162 25q124 0 226.5 -68.5 t168.5 -195.5l121 -238h-113l-107 221q-74 158 -200 158q-76 0 -201 -59z" />
<glyph unicode="&#x914;" horiz-adv-x="2013" d="M78 532l2 9l57 28l17 -8q127 -338 333 -338q106 0 178 69.5t72 172.5q0 78 -42 133t-93 55q-33 0 -149 -39q-14 -8 -39 -14l-68 102l6 15q150 37 231 110.5t81 155.5q0 92 -111 92q-66 0 -132.5 -34.5t-176.5 -122.5h-19l-86 108q168 152 332 152q82 0 153.5 -32 t115.5 -93.5t44 -145.5q0 -121 -106 -200q135 -121 242 -121q72 0 132 50t89 146l-8 293h-203q-23 35 -39 90l10 15h1108l10 -11l35 -77l-6 -17h-133q-51 0 -72.5 -20.5t-23.5 -75.5q-20 -352 -21 -573l8 -461l-32 -15l-113 70l8 186q14 281 14 410q0 57 -8 356l-4 123h-295 q-51 0 -72.5 -20.5t-23.5 -75.5q-20 -352 -20 -573l8 -461l-33 -15l-113 70q12 248 11 219l12 320q-37 -31 -80 -48.5t-80 -17.5q-59 0 -143 39q23 -53 22 -117q0 -131 -89 -211t-228 -80q-164 0 -279.5 115t-189.5 313zM1180 1419l2 15q111 31 188 30q80 0 142.5 -30.5 t127.5 -98.5q-51 102 -79.5 151.5t-57.5 72t-65 22.5q-47 0 -146 -33l-47 129l4 15q43 8 90 8q125 0 210 -73t153 -234l112 -273h-114q-88 133 -142.5 184.5t-117.5 51.5q-37 0 -84 -15.5t-115 -46.5z" />
<glyph unicode="&#x915;" horiz-adv-x="1521" d="M-41 1165l10 15h1549l10 -11l35 -77l-9 -17h-598q-51 0 -72.5 -20.5t-23.5 -75.5q0 -20 -4 -61l-8 -211q100 80 229 79q98 0 176 -42t121 -115.5t43 -167.5q0 -115 -63.5 -210t-171.5 -165l-17 2l-84 92l2 25q102 70 156.5 162t54.5 188q0 70 -31.5 98.5t-101.5 28.5 q-102 0 -175 -48t-146 -136v-92l8 -461l-33 -15l-113 70l17 358q-55 -55 -106.5 -82.5t-114.5 -27.5q-88 0 -181.5 52t-154 145.5t-60.5 205.5q0 135 86 208t207 73q164 0 326 -152l-8 295h-715q-23 35 -39 90zM225 567q0 -96 46 -152.5t139 -56.5q67 0 119.5 31t85 67 t110.5 130v10q0 68 -2 109q-115 121 -250 120q-109 0 -178.5 -66.5t-69.5 -191.5z" />
<glyph unicode="&#x916;" horiz-adv-x="1568" d="M-41 1165l10 15h1596l10 -11l35 -77l-6 -17h-134q-51 0 -72.5 -20.5t-23.5 -75.5q-20 -352 -20 -573l8 -461l-33 -15l-112 70l16 385q-57 -66 -104.5 -90.5t-104.5 -24.5q-100 0 -189.5 52.5t-142.5 138.5t-53 182q0 117 78 187.5t207 70.5q154 0 311 -117l-8 291h-778 q92 -137 92 -256q0 -98 -62.5 -203.5t-197.5 -244.5q115 -168 219 -241t227 -73q59 0 129 18.5t178 55.5l53 -139l-10 -21q-141 -37 -250 -37q-227 0 -411.5 152t-339.5 504l43 65q90 -4 170 -20q61 80 91 145.5t30 124.5q0 82 -60 170h-352q-20 33 -39 90zM762 561 q0 -92 48 -142t136 -50q105 0 168.5 58t124.5 194l-2 77q-106 94 -236 95q-113 0 -176 -61.5t-63 -170.5z" />
<glyph unicode="&#x917;" horiz-adv-x="1116" d="M-41 1165l10 15h1143l10 -11l35 -77l-6 -17h-133q-51 0 -72.5 -20.5t-23.5 -75.5q-20 -352 -21 -573l8 -461l-32 -15l-113 70l8 186q14 281 14 410q0 57 -8 356l-4 123h-270q-53 -2 -78 -26.5t-27 -81.5l-10 -392q-4 -166 -20 -245l-45 -19q-168 70 -261 234l19 57h190 q-4 246 -26 473h-248q-23 35 -39 90z" />
<glyph unicode="&#x918;" horiz-adv-x="1214" d="M-41 1165l10 15h1243l11 -11l34 -77l-6 -17h-133q-51 0 -72.5 -20.5t-23.5 -75.5q-20 -352 -21 -573l9 -461l-33 -15l-113 70l15 309l-11 4q-109 -80 -165 -106.5t-117 -26.5q-102 0 -194.5 46t-149 122t-56.5 160q0 100 90 170q-84 55 -134 133t-50 156q0 63 39 108 h-133q-23 37 -39 90zM219 897q0 -55 35 -101t94 -75q78 39 217 78l13 -4l53 -103l-4 -16q-324 -74 -324 -227q0 -70 54.5 -113t142.5 -43q129 0 229 102.5t156 292.5q0 103 -6 234q0 47 -5 153h-442q-92 0 -152.5 -50t-60.5 -128z" />
<glyph unicode="&#x919;" horiz-adv-x="1155" d="M-41 1165l10 15h1182l10 -11l35 -77l-6 -17h-268q-41 0 -56.5 -15.5t-17.5 -53.5l-8 -220l-17 -18l-319 12q-111 0 -161 -34.5t-50 -112.5q0 -55 22.5 -85t63.5 -30q23 0 57.5 10.5t71.5 22.5q55 20 95 31.5t77 11.5q68 0 129 -41t99 -109.5t38 -142.5q0 -82 -47 -147.5 t-130 -102.5t-187 -37q-164 0 -287 97.5t-211 298.5l2 8l57 31l17 -9q63 -150 159.5 -232.5t204.5 -82.5q76 0 146.5 39t113.5 102.5t43 130.5q0 80 -61 80q-23 0 -56.5 -10t-68.5 -25q-117 -43 -172 -43q-72 0 -140.5 48.5t-111.5 125t-43 156.5t49 118t152 38l338 -4 l-4 194h-711q-23 35 -39 90zM930 637q20 41 57 71.5t82 45.5q41 -21 71.5 -58t45.5 -82q-20 -41 -57 -71.5t-82 -44.5q-41 20 -72 57t-45 82z" />
<glyph unicode="&#x91a;" horiz-adv-x="1245" d="M-41 1165l10 15h1272l10 -11l35 -77l-6 -17h-127q-51 0 -75.5 -24.5t-26.5 -79.5q-20 -352 -21 -565l8 -461l-32 -15l-113 70l14 340q-102 -84 -165.5 -114.5t-133.5 -30.5q-104 0 -198.5 47t-151.5 124.5t-57 165.5q0 113 100 185h-246q-23 43 -39 98l11 14h616l10 -10 l35 -86l-6 -16q-172 -14 -268.5 -79t-96.5 -167q0 -76 53.5 -120t145.5 -44q109 0 206 73t193 228q0 59 -8 355l-4 112h-905q-23 35 -39 90z" />
<glyph unicode="&#x91b;" horiz-adv-x="1419" d="M-41 1165l10 15h1446l10 -11l35 -77l-6 -17h-307q-41 0 -56.5 -14t-17.5 -55l-2 -91q104 -37 172 -128t68 -207q0 -150 -107.5 -290t-270.5 -227.5t-315 -87.5q-109 0 -205 46.5t-154 122t-58 159.5q0 102 96 174q-90 72 -138 142.5t-48 154.5q0 178 225 178 q90 0 192 -30l37 -117l-12 -14q-80 37 -150 36q-70 0 -116.5 -33.5t-46.5 -93.5q0 -45 30.5 -94t91.5 -90q78 41 213 76l13 -4l53 -103l-4 -16q-322 -74 -322 -231q0 -68 54.5 -109t150.5 -41q125 0 263.5 69.5t244.5 180.5q-139 92 -212 198.5t-73 206.5q0 88 52.5 138.5 t140.5 54.5l-2 139h-936q-23 35 -39 90zM872 659q0 -137 203 -266q109 137 109 269q0 73 -37 117t-103 44q-70 0 -121 -46t-51 -118z" />
<glyph unicode="&#x91c;" horiz-adv-x="1458" d="M-41 1165l10 15h1485l10 -11l35 -77l-6 -17h-133q-51 0 -72.5 -20.5t-23.5 -75.5q-20 -352 -21 -573l8 -461l-32 -15l-113 70l8 186q14 281 14 410l-2 100h-370q82 -72 120.5 -134t38.5 -140q0 -106 -69.5 -181t-212.5 -75q-367 0 -557 553l2 8l57 29l17 -8 q92 -270 202.5 -365.5t212.5 -95.5q90 0 154.5 53t64.5 141q0 90 -70.5 140.5t-193.5 76.5q-31 59 -39 97l11 14h630l-8 266h-1118q-23 35 -39 90z" />
<glyph unicode="&#x91d;" horiz-adv-x="1509" d="M-41 1165l10 15h1536l11 -11l34 -77l-6 -17h-133q-51 0 -72.5 -20.5t-23.5 -75.5q-20 -352 -21 -573l9 -461l-33 -15l-113 70l21 459q-37 -31 -81 -49.5t-69 -18.5q-88 0 -151 21q23 -51 22 -103q0 -88 -62.5 -154.5t-153.5 -106.5t-177 -52q61 -102 105 -143t94 -41 q39 0 88 24l22 -6l49 -139q-66 -25 -114 -25q-53 0 -98.5 29t-97.5 98.5t-126 198.5q-68 6 -139.5 36.5t-134.5 80.5l-4 22q39 100 104 166h51q51 -53 78 -90t61 -101q336 115 336 293q0 76 -65 76q-43 0 -140 -35q-111 -41 -165 -41q-76 0 -142.5 52.5t-106.5 132.5 t-40 151q0 150 201 150l344 -4l-4 194h-664q-23 35 -39 90zM240 633q0 -49 20.5 -82t63.5 -33q23 0 59.5 10.5t73.5 22.5q119 41 176 41q63 0 129 -41q49 -27 80.5 -37t70.5 -10q184 0 263 305l-9 266h-293q-39 0 -55 -14t-18 -55l-8 -220l-17 -18l-325 12 q-109 0 -160 -33.5t-51 -113.5z" />
<glyph unicode="&#x91e;" horiz-adv-x="1449" d="M-41 1165l10 15h1477l10 -11l35 -77l-6 -17h-133q-51 0 -73 -20.5t-24 -75.5q-20 -352 -20 -573l8 -461l-33 -15l-112 70l10 244q6 94 10 262q-53 -33 -100 -33q-55 0 -154 49v-26q0 -147 -74.5 -230.5t-216.5 -83.5q-184 0 -339.5 141.5t-249.5 391.5l63 30l12 -6 q82 -221 189.5 -321.5t247.5 -100.5q121 0 192.5 69t71.5 196q0 100 -45 139t-129 39q-57 0 -100.5 -16.5t-116.5 -61.5l-103 133q113 80 230 80q121 0 221 -73.5t133 -207.5q53 -29 102 -28q53 0 97.5 34.5t68.5 104.5l-10 350h-1110q-23 35 -39 90z" />
<glyph unicode="&#x91f;" horiz-adv-x="997" d="M-41 1165l10 15h1024l11 -11l34 -77l-8 -17h-160q-39 0 -55 -14t-18 -55l-9 -220l-16 -18l-256 10q-133 0 -206.5 -67.5t-73.5 -196.5q0 -127 67.5 -192.5t177.5 -65.5q80 0 173.5 35t176.5 96l21 -2l72 -123q-78 -57 -169 -86t-182 -29q-125 0 -231 56.5t-169.5 161 t-63.5 243.5q0 145 80.5 212t263.5 65l209 -4l-5 194h-659q-23 35 -39 90z" />
<glyph unicode="&#x920;" horiz-adv-x="1126" d="M-41 1165l10 15h1153l11 -11l34 -77l-8 -17h-266q-39 0 -55.5 -14t-18.5 -55l-6 -191q104 -70 155.5 -165t51.5 -195q0 -154 -110.5 -245t-297.5 -91q-164 0 -277.5 69.5t-168.5 181t-55 234.5q0 150 85 217.5t259 63.5l231 -4l-4 194h-684q-23 35 -39 90zM242 506 q0 -131 73.5 -202t212.5 -71q113 0 195 45.5t124 116t42 148.5q0 133 -137 227l-232 10q-133 0 -205.5 -70.5t-72.5 -203.5z" />
<glyph unicode="&#x921;" horiz-adv-x="1032" d="M-41 1165l10 15h1059l10 -11l35 -77l-8 -17h-143q-41 0 -56.5 -15.5t-17.5 -53.5l-8 -220l-17 -18l-319 12q-111 0 -161 -34.5t-50 -112.5q0 -55 22.5 -85t63.5 -30q23 0 57.5 10.5t71.5 22.5q55 20 95 31.5t77 11.5q68 0 129 -41t99 -109.5t38 -142.5q0 -82 -47 -147.5 t-130 -102.5t-187 -37q-164 0 -287 97.5t-211 298.5l2 8l57 31l17 -9q63 -150 159.5 -232.5t204.5 -82.5q76 0 146.5 39t113.5 102.5t43 130.5q0 80 -61 80q-23 0 -56.5 -10t-68.5 -25q-117 -43 -172 -43q-72 0 -140.5 48.5t-111.5 125t-43 156.5t49 118t152 38l338 -4 l-4 194h-711q-23 35 -39 90z" />
<glyph unicode="&#x922;" horiz-adv-x="1105" d="M-41 1165l10 15h1133l10 -11l35 -77l-8 -17h-201q-39 0 -55.5 -14t-18.5 -55l-8 -220l-16 -18l-322 12q-131 0 -205.5 -81t-74.5 -216q0 -143 86 -228t239 -85l37 2q-119 100 -119 227q0 88 58.5 149.5t165.5 61.5q84 0 154.5 -37.5t112.5 -104.5t42 -144 q0 -121 -100.5 -194t-266.5 -73q-156 0 -278.5 68t-191 187.5t-68.5 269.5q0 156 81.5 232.5t262.5 70.5l276 -4l-4 194h-727q-23 35 -39 90zM616 336q0 -72 43 -156q100 18 164 78.5t64 147.5q0 49 -22.5 70.5t-73.5 21.5q-78 0 -126.5 -43t-48.5 -119z" />
<glyph unicode="&#x923;" horiz-adv-x="1439" d="M-41 1165l10 15h1467l10 -11l35 -77l-6 -17h-134q-51 0 -72.5 -20.5t-23.5 -75.5q-20 -352 -20 -573l8 -461l-33 -15l-113 70l9 186q14 281 14 410q0 57 -8 356l-4 123h-191q-53 0 -82.5 -30.5t-29.5 -92.5l-9 -342q-2 -70 -33.5 -139.5t-98 -116.5t-165.5 -47 q-102 0 -186 50.5t-132 123t-46 133.5l8 461h-135q-23 35 -39 90zM248 580q0 -88 41 -127t110 -39q121 0 192 98t71 236l-7 327h-301q-39 0 -56 -14t-22 -51q-8 -82 -18 -232.5t-10 -197.5z" />
<glyph unicode="&#x924;" horiz-adv-x="1081" d="M-41 1165l10 15h1108l10 -11l35 -77l-6 -17h-133q-51 0 -72.5 -20.5t-23.5 -75.5q-20 -352 -21 -573l8 -461l-32 -15l-113 70l8 186q14 281 15 410v82l-281 10q-121 0 -182.5 -62.5t-61.5 -160.5q0 -104 62.5 -229t181.5 -256l-2 -17l-63 -39q-170 176 -248 325.5 t-78 287.5q0 129 86 197.5t227 68.5l355 -10l-9 282h-741q-20 35 -39 90z" />
<glyph unicode="&#x925;" horiz-adv-x="1167" d="M74 1040q0 76 52 120t136 44q82 0 154.5 -43t115.5 -113.5t43 -148.5q0 -76 -54 -147.5t-212 -204.5q29 -70 84.5 -109t128.5 -39q94 0 179 64.5t137 173.5q-4 182 -13 438h-202q-23 35 -39 90l10 15h569l11 -11l34 -77l-6 -17h-133q-51 0 -72.5 -20.5t-23.5 -75.5 q-20 -352 -21 -573l9 -461l-33 -15l-113 70l16 360q-96 -74 -217 -73q-100 0 -194 49t-159.5 131t-82.5 176q119 104 176.5 160.5t80 96.5t22.5 81q0 55 -31 84t-84 29q-61 0 -100 -36t-39 -89q0 -72 61 -133l-41 -43q-70 49 -109.5 115.5t-39.5 131.5z" />
<glyph unicode="&#x926;" horiz-adv-x="1101" d="M-41 1165l10 15h1129l10 -11l35 -77l-8 -17h-193q-39 0 -55.5 -14t-18.5 -55l-8 -220l-16 -18l-342 12q-125 0 -192.5 -66.5t-67.5 -199.5q0 -131 65.5 -201.5t192.5 -70.5q61 0 110 17t99 52q-45 88 -56 162l49 47q170 -23 304 -141v-39q-55 -72 -152 -133 q94 -129 128 -192.5t34 -120.5q0 -123 -144 -203l-124 108l2 25q80 53 109.5 85t29.5 62q0 33 -21.5 74t-76.5 129q-102 -45 -220 -45q-147 0 -250.5 70.5t-155.5 182.5t-52 234q0 141 76.5 206t246.5 63l297 -4l-4 194h-731q-23 35 -39 90z" />
<glyph unicode="&#x927;" horiz-adv-x="1226" d="M88 1024q0 119 67.5 179.5t166.5 60.5q104 0 183 -63.5t79 -160.5q0 -94 -74 -135t-156 -41q-66 0 -139 37q20 -106 141 -184q84 31 203 43l12 -4l54 -103l-4 -16q-174 -12 -249 -63.5t-75 -124.5q0 -70 56.5 -113t144.5 -43q135 0 240.5 103.5t158.5 285.5l-6 180 l-6 213h-203q-23 35 -39 90l10 15h570l10 -11l35 -77l-6 -17h-134q-51 0 -72.5 -20.5t-23.5 -75.5q-20 -352 -20 -573l8 -461l-33 -15l-113 70l15 309l-10 4q-115 -80 -172.5 -106.5t-118.5 -26.5q-98 0 -192.5 45t-155 121t-60.5 164q0 109 99 170q-86 68 -138.5 156 t-52.5 188zM211 948l65 2q86 4 141.5 53.5t55.5 108.5q0 25 -12 35t-43 10q-78 0 -142.5 -53t-64.5 -156z" />
<glyph unicode="&#x928;" horiz-adv-x="1038" d="M-41 1165l10 15h1065l10 -11l35 -77l-6 -17h-133q-51 0 -72.5 -20.5t-23.5 -75.5q-20 -352 -21 -573l8 -461l-32 -15l-113 70l10 250q10 236 13 307q-164 10 -297 10h-62v-184l-57 -18q-160 92 -225 260l18 34q90 23 250 23q156 0 373 -18q-4 174 -13 411h-698 q-20 35 -39 90z" />
<glyph unicode="&#x929;" horiz-adv-x="1038" d="M-41 1165l10 15h1065l10 -11l35 -77l-6 -17h-133q-51 0 -72.5 -20.5t-23.5 -75.5q-20 -352 -21 -573l8 -461l-32 -15l-113 70l10 250q10 236 13 307q-164 10 -297 10h-62v-184l-57 -18q-160 92 -225 260l18 34q90 23 250 23q156 0 373 -18q-4 174 -13 411h-698 q-20 35 -39 90zM108 12q20 45 59.5 77t86.5 46q45 -20 76.5 -59t46.5 -86q-20 -45 -59.5 -77t-86.5 -46q-45 20 -76.5 59t-46.5 86z" />
<glyph unicode="&#x92a;" horiz-adv-x="1038" d="M-41 1165l10 15h1065l10 -11l35 -77l-6 -17h-133q-51 0 -72.5 -20.5t-23.5 -75.5q-20 -352 -21 -573l8 -461l-32 -15l-113 70l19 397l-13 4q-61 -41 -120.5 -66.5t-94.5 -25.5q-98 0 -179 50.5t-127 122t-46 132.5l16 461h-143q-23 35 -39 90zM246 567q0 -72 41 -112.5 t100 -40.5q82 0 174 63.5t148 169.5q-5 180 -13 428h-338q-39 0 -56 -14t-21 -51q-10 -92 -22.5 -236.5t-12.5 -206.5z" />
<glyph unicode="&#x92b;" horiz-adv-x="1470" d="M-41 1165l10 15h1497l9 -11l36 -77l-8 -17h-608q-51 0 -72.5 -20.5t-23.5 -75.5l-4 -61l-9 -203q113 84 242 84q96 0 173 -41t121 -116t44 -169q0 -115 -64.5 -211t-171.5 -164l-16 2l-84 93l2 24q102 70 157.5 163t55.5 185q0 68 -31.5 99.5t-101.5 31.5q-92 0 -166 -49 t-168 -143v-98l8 -461l-32 -15l-113 70l18 403q-51 -39 -99 -60t-103 -21q-84 0 -163 48t-126 119.5t-45 135.5l14 450h-139q-23 35 -39 90zM244 578q0 -68 37.5 -111t95.5 -43q55 0 102 25.5t82 59.5t103 105q0 57 -9 349l-4 112h-297q-39 0 -55 -13t-23 -54 q-6 -45 -19 -206t-13 -224z" />
</font>
</defs>
</svg>
