<?xml version="1.0" standalone="no"?>
<!DOCTYPE svg PUBLIC "-//W3C//DTD SVG 1.1//EN" "http://www.w3.org/Graphics/SVG/1.1/DTD/svg11.dtd" >
<svg xmlns="http://www.w3.org/2000/svg" xmlns:xlink="http://www.w3.org/1999/xlink" version="1.1">
<metadata></metadata>
<defs>
<font id="tillanaregular" horiz-adv-x="0" >
<font-face units-per-em="2048" ascent="1638" descent="-410" />
<missing-glyph horiz-adv-x="884" />
<glyph unicode="&#xfb01;" horiz-adv-x="989" d="M385 956l375 66q68 29 105.5 31t72.5 -31l-64 -215q-12 -102 -81 -807q-145 -14 -195 63q70 229 160 691l-4 143l-379 -31q-53 -453 -125 -866q-133 -12 -174 49q111 358 182 797l-260 -49q-55 70 4 143l270 2l2 14l-4 506q82 94 155 143.5t175 61.5q123 -12 208 -130 t85 -239q-39 -76 -193 -28q12 231 -108 289q-88 -20 -172 -89q2 -164 -35 -514z" />
<glyph unicode="&#xfb02;" horiz-adv-x="1097" d="M260 901l8 559q176 174 445 205q137 -14 235.5 -67.5t138.5 -122.5l-77 -287q-51 -457 -138 -1188q-150 -14 -194 63q147 584 213 1043l-2 405q-90 33 -182 25q-166 -18 -291 -109q0 -172 -39 -512l270 64q29 -14 28 -57t-32 -86l-276 -15q-59 -483 -121 -821 q-133 -12 -174 49q115 365 174 752l-256 -49q-59 74 4 143l266 2v4z" />
<glyph unicode="ff" horiz-adv-x="1185" d="M1264 935q0 -42 -31 -85l-385 -19q-51 -430 -121 -831q-133 -12 -174 49q111 358 178 776l-215 -10l-158 -18q-51 -420 -116 -797q-133 -12 -174 49q109 352 172 735l-250 -28q-55 70 4 143l264 2l8 55l-4 506q127 180 330 205q150 -31 223 -131q119 115 262 131 q115 -18 195 -110.5t88 -200.5q-39 -31 -88 -40t-82 11q-8 88 -35 136t-86 96q-88 -20 -172 -89q4 -182 -37 -534l377 57q27 -16 27 -58zM668 905l77 13l7 38l-4 447q-20 129 -164 156q-88 -18 -172 -89q2 -184 -41 -567z" />
<glyph unicode="ft" horiz-adv-x="1245" d="M1145 868l-219 -12q-33 -217 -88 -719q162 45 266 119q47 2 59.5 -16.5t7.5 -61.5q-66 -57 -175 -107.5t-208 -70.5q-125 27 -143 106q104 406 168 744l-319 -16l-121 -15q-57 -469 -121 -819q-133 -12 -174 49q119 385 174 754l-256 -31q-59 74 4 143h266l8 545 q186 184 471 205q207 -33 308 -190l-78 -287q-12 -74 -33 -213l207 37q29 -14 28 -57.5t-32 -86.5zM608 918l223 38q16 98 25 150l-2 405q-133 41 -246 5q-88 -27 -186 -89q0 -172 -39 -509h225z" />
<glyph unicode="tt" horiz-adv-x="1277" d="M1270 983l-309 -14q-4 -33 -95 -832q160 45 264 119q47 2 59.5 -16.5t8.5 -61.5q-66 -57 -175.5 -107.5t-207.5 -70.5q-94 18 -135 86q100 455 174 877l-170 -9l-242 -28q-14 -131 -45.5 -393.5t-48.5 -399.5q86 23 191 72q90 -4 57 -92q-141 -76 -297 -113 q-125 27 -143 106q154 686 176 805l-258 -30q-55 70 4 143l272 4v342q121 84 205 21l-102 -355v-6l182 2l233 35l-2 303q121 84 205 21l-94 -308l297 45q29 -16 28 -58t-32 -87z" />
<glyph />
<glyph unicode="&#xd;" horiz-adv-x="884" />
<glyph unicode=" "  horiz-adv-x="884" />
<glyph unicode="&#x09;" horiz-adv-x="884" />
<glyph unicode="&#xa0;" horiz-adv-x="884" />
<glyph unicode="!" horiz-adv-x="583" d="M235.5 26.5q-57.5 -32.5 -97.5 -32.5t-64.5 23.5t-26.5 62.5q10 55 63.5 108.5t104.5 59.5q37 0 73 -46t40 -96q-35 -47 -92.5 -79.5zM471 1292l-186 -886q-39 -27 -88 8l82 383l118 964q74 14 123 3t96 -60z" />
<glyph unicode="&#x22;" horiz-adv-x="620" d="M522 1378l90 449q33 20 67 19t52 -19l-22 -156l-107 -315q-57 -7 -80 22zM256 1378l92 449q31 20 64.5 19t54.5 -19l-25 -156l-106 -315q-53 -7 -80 22z" />
<glyph unicode="#" horiz-adv-x="1382" d="M1362 1180l-264 -4l-123 -580l301 22q55 -33 -21 -124l-297 -5l-69 -532q-88 -29 -176 41l112 489l-333 -4l-68 -526q-88 -29 -176 41l110 483l-239 -4q-45 43 12 121l252 -10l76 325l45 254l-279 -4q-45 39 8 119l289 -10l86 495q121 20 201 -41l-152 -460l136 -4 l192 14l88 491q121 20 201 -41l-146 -440l252 19q54 -33 -18 -125zM922 913l47 261l-338 -5l-125 -585l182 -9l160 13z" />
<glyph unicode="$" horiz-adv-x="1157" d="M786 1376l-30 -84l-78 -467q156 -92 256 -173t143 -177q-25 -168 -160 -290t-378 -175l-45 -274q-104 -25 -154 76l74 221q-137 63 -245 173.5t-126 207.5q41 57 77 69.5t95 -8.5q41 -125 89 -192.5t149 -135.5l32 103l88 481q-170 96 -273 187.5t-122 203.5 q61 154 219 264.5t322 133.5l45 243q100 33 145 -61l-82 -217q184 -102 277 -291q-6 -39 -46 -63.5t-100 -18.5q-63 170 -172 264zM653 686l-94 -565q160 49 260.5 143t100.5 205q-2 47 -68 96t-199 121zM600 870l98 537q-131 -39 -246.5 -131t-113.5 -155.5t67.5 -119 t194.5 -131.5z" />
<glyph unicode="%" horiz-adv-x="1345" d="M666 772l464 930q119 14 156 -45l-1028 -1821q-98 -18 -139 37zM1053 750q-117 -84 -162 -338q-29 -158 -17 -267q16 -57 82 -84q113 88 160 342q27 162 19 265q-19 62 -82 82zM1136 102.5q-85 -112.5 -184.5 -112.5t-166 103.5t-33.5 305.5q35 188 120.5 310t186 120 t165 -110.5t31 -306t-118.5 -310zM455 1411q-115 -84 -160 -338q-29 -154 -19 -266q16 -55 82 -84q115 88 162 340q29 168 17 266q-19 64 -82 82zM539 764q-84 -113 -184.5 -113t-166 102.5t-33 298t119.5 318.5t187.5 121t165 -110.5t30 -306t-118.5 -310.5z" />
<glyph unicode="&#x26;" horiz-adv-x="1234" d="M569 29q57 14 86 -6l2 -302q-57 -31 -89.5 -32.5t-75.5 26.5zM846 1444q-59 -14 -88 6l-2 301q59 33 92 35t74 -27zM842 1331q92 0 166.5 -44t117.5 -109q0 -80 -133 -103l-125 168q-158 -4 -264 -69.5t-194 -174.5q41 -63 96 -99t151 -64q61 12 166 43q72 -41 41 -134 q-188 -25 -304 -78t-198 -175q23 -80 91.5 -137.5t160.5 -82.5q279 84 408 242q61 16 93 -18.5t15 -87.5q-209 -166 -520 -242q-170 33 -279.5 121t-142.5 182q66 135 147 196.5t216 104.5q-127 27 -214 91.5t-104 137.5q117 164 276 248t333 84z" />
<glyph unicode="'" horiz-adv-x="356" d="M256 1378l92 449q31 20 64.5 19t54.5 -19l-25 -156l-106 -315q-53 -7 -80 22z" />
<glyph unicode="(" horiz-adv-x="1019" d="M819 1462q-106 -139 -183 -358t-93.5 -445.5t26.5 -381t179 -334.5q-51 -55 -113 -45q-137 168 -207 360.5t-51 443.5q25 319 195.5 596t435.5 439q66 0 92 -62z" />
<glyph unicode=")" horiz-adv-x="1019" d="M104 -104q-63 0 -92 61l283 213q106 141 182 360.5t88 399.5q23 272 -20 425.5t-180 334.5q51 53 112 47q293 -352 260 -807q-27 -319 -198 -595.5t-435 -438.5z" />
<glyph unicode="*" horiz-adv-x="722" d="M602 1616l234 26q14 -49 -13 -98l-221 27l162 -144q-25 -51 -80 -71l-123 184l-2 -229q-49 -18 -98 0l53 225l-162 -178q-43 20 -63 72l194 141l-229 -27q-12 51 14 98l228 -26l-168 145q33 51 80 70l120 -178l2 223q51 16 101 0l-56 -225l164 178q45 -18 62 -70z" />
<glyph unicode="+" horiz-adv-x="1372" d="M782 725l443 27q25 -14 16.5 -56.5t-47.5 -85.5l-436 -6l-92 -471q-25 -16 -60 -3t-65 52l96 420l-449 -6q-47 47 23 133l451 -8l65 459q18 23 58 5t75 -67z" />
<glyph unicode="," horiz-adv-x="419" d="M274 86q-33 -100 -125 -195.5t-188 -154.5q-51 12 -70 47l162 164v264q82 41 144.5 1t76.5 -126z" />
<glyph unicode="-" horiz-adv-x="1017" d="M938 752q25 -14 16.5 -56.5t-47.5 -85.5l-786 -14q-45 45 22 133l379 -8z" />
<glyph unicode="." horiz-adv-x="452" d="M189.5 34q-54.5 -34 -94.5 -34t-66.5 24.5t-32.5 61.5q4 55 51 108.5t98 59.5q37 0 78 -46t51 -95q-30 -45 -84.5 -79z" />
<glyph unicode="/" horiz-adv-x="935" d="M494 772l464 930q119 14 156 -45l-1028 -1821q-98 -18 -139 37z" />
<glyph unicode="0" horiz-adv-x="1116" d="M668 1401q-274 -176 -355 -658q-49 -311 -10 -510q53 -113 211 -159q135 84 225 256t134.5 441t5.5 470q-53 115 -211 160zM487 -8q-154 0 -272 164q-127 174 -72 567q59 336 213 553t334 214t294 -196.5t56 -541.5q-63 -356 -214 -558t-339 -202z" />
<glyph unicode="1" horiz-adv-x="653" d="M526 1081l-159 -721l-27 -362q-88 -14 -176 39l262 1159l41 127l-27 8l-141 -215q-80 -27 -96 19l174 366q104 18 163.5 -2t110.5 -84z" />
<glyph unicode="2" horiz-adv-x="978" d="M565 1391q-121 0 -227 -148l82 -162q-23 -39 -84 -49q-92 76 -158 172q70 141 186.5 230.5t248.5 89.5t242 -166t110 -344t-326 -453l-498 -418l13 -12l675 27q16 -35 0 -86.5t-51 -83.5l-549 39l-135 -33q-96 51 -92 176l518 461q193 172 303 373q-29 174 -96.5 280.5 t-161.5 106.5z" />
<glyph unicode="3" horiz-adv-x="1048" d="M324.5 1436q117.5 88 262 88t278.5 -130t132 -294q-2 -61 -46 -106.5t-152 -100.5l-236 -119q123 -33 213 -75t154.5 -116.5t56.5 -168.5q-16 -164 -263 -269.5t-636 -148.5q-61 45 -43 98q319 57 498.5 119.5t314.5 173.5q-41 180 -446 324l26 88l410 272 q-10 125 -104.5 215t-184.5 90q-150 0 -262 -133l82 -162q-23 -39 -84 -49q-92 76 -158 172q70 144 187.5 232z" />
<glyph unicode="4" horiz-adv-x="1075" d="M895 1511q104 0 180 -96l-125 -334l-119 -542l244 10q16 -37 5 -82t-42 -78l-237 10l-8 -39l-27 -362q-88 -14 -178 39l84 369l-70 4l-469 -13q-55 33 -72 117l748 987q39 10 86 10zM414 522l288 13l74 325l146 526l-27 9l-260 -342l-420 -535z" />
<glyph unicode="5" horiz-adv-x="1105" d="M956 586q0 -193 -164.5 -389.5t-349 -196.5t-352.5 84q-6 145 72 170l342 -156q285 174 334 486q-27 68 -81.5 104.5t-156.5 50.5l-250 37q-72 10 -95.5 47t-2.5 119l90 377q35 143 111 172l98 -33l473 58q47 -39 59.5 -90.5t-14.5 -82.5l-526 15l-203 -473l225 -11 q199 -12 295 -80.5t96 -207.5z" />
<glyph unicode="6" horiz-adv-x="1169" d="M582.5 803q146.5 172 282.5 172t193.5 -83t22.5 -271q-23 -129 -104.5 -273.5t-192 -248t-206.5 -105.5q-139 -4 -256 80q-129 94 -164 319q-18 117 8 277q45 291 191.5 491.5t342 284.5t416.5 65q41 -51 -12 -157q-313 18 -500 -78q-94 -123 -137 -189.5t-91 -187.5 t-77 -281q-20 -176 23 -296q114 309 260.5 481zM799 842q-131 -92 -253 -270.5t-177 -348.5q74 -111 206 -104q86 6 204 165.5t145 286.5q35 113 9.5 192t-134.5 79z" />
<glyph unicode="7" horiz-adv-x="929" d="M924 1499q137 -61 61 -205l-725 -1290q-55 -33 -127 16l576 1086l151 244l-6 10l-698 -17q-47 55 43 173l628 -50z" />
<glyph unicode="8" horiz-adv-x="1087" d="M1090 1178q0 -59 -29 -98.5t-48.5 -59t-60.5 -50t-68.5 -50t-87 -58.5t-94.5 -63q127 -88 196 -172t64.5 -187.5t-59.5 -191.5t-134 -144.5t-170 -87t-169 -24.5q-145 4 -232 92t-79 209t75.5 197.5t294.5 254.5q-119 88 -183 167t-58 182.5t94 209t203 162.5 q258 131 440 -61q105 -110 105 -227zM846 377q-4 55 -50 113.5t-92.5 95.5t-136.5 102q-211 -180 -321 -326q-2 -141 85 -202.5t285 -42.5q148 96 230 260zM621 854q164 119 321 270q-18 250 -252 301q-90 -43 -184 -124.5t-139 -167.5q6 -74 69.5 -136.5t184.5 -142.5z" />
<glyph unicode="9" horiz-adv-x="1171" d="M710.5 1520q178.5 0 292 -188.5t70.5 -517.5t-221 -524.5t-543 -314.5q-33 18 -55.5 55.5t-24.5 75.5q346 80 555 246q119 217 150 482q18 186 -27 321q-113 -295 -256 -460t-266 -165t-188.5 94.5t-36.5 260.5q39 236 205.5 435.5t345 199.5zM442 664q127 90 245 258 t175 333q-63 106 -170 134q-98 -25 -226 -187t-155 -311q-6 -59 -9 -109.5t31.5 -84t108.5 -33.5z" />
<glyph unicode=":" horiz-adv-x="493" d="M343 775q-54 -34 -94 -34t-66.5 23.5t-35.5 62.5q6 55 53.5 108.5t98.5 59.5q37 0 77 -46t50 -95q-29 -45 -83 -79zM232.5 34q-54.5 -34 -94.5 -34t-66.5 23.5t-34.5 62.5q6 55 53 108.5t98 59.5q37 0 77 -46t50 -95q-28 -45 -82.5 -79z" />
<glyph unicode=";" horiz-adv-x="477" d="M297 86q-33 -100 -125 -195.5t-190 -154.5q-51 12 -68 47l162 164v264q82 41 144.5 1t76.5 -126zM343 775q-54 -34 -94 -34t-66.5 23.5t-35.5 62.5q6 55 53.5 108.5t98.5 59.5q37 0 77 -46t50 -95q-29 -45 -83 -79z" />
<glyph unicode="&#x3c;" horiz-adv-x="1214" d="M690 903l-409 -186l757 -410q-4 -37 -28.5 -66.5t-61.5 -39.5l-395 239l-410 211q-18 72 25 142l915 413q35 -25 44.5 -68.5t-11.5 -80.5z" />
<glyph unicode="=" horiz-adv-x="1290" d="M1157 580q25 -14 16.5 -56.5t-47.5 -85.5l-1007 -16q-45 45 22 135l512 -8zM1221 973q25 -14 16.5 -56.5t-47.5 -85.5l-1006 -14q-47 47 21 133l512 -8z" />
<glyph unicode="&#x3e;" horiz-adv-x="1214" d="M229 1100q4 35 29 65.5t61 40.5l805 -450q18 -72 -24 -142l-482 -208l-434 -205q-35 23 -45 67.5t11 81.5l839 340l-401 238z" />
<glyph unicode="?" horiz-adv-x="1327" d="M426 26.5q-57 -32.5 -97 -32.5t-63.5 23.5t-27.5 62.5q10 55 63 108.5t105 59.5q37 0 72.5 -46t39.5 -96q-35 -47 -92 -79.5zM504 1210q-41 -18 -62.5 -18t-46 36t-40 101.5t-3.5 128.5q172 133 355.5 206t343 73t224 -119t1 -300t-252.5 -294t-497 -186l-86 -498 q-47 -12 -61 -3t-14 44l4 438q27 84 118 139q563 111 674 418q47 150 -61 250q-324 -12 -623 -231z" />
<glyph unicode="@" horiz-adv-x="1843" d="M1100 334l-269 -307q-158 2 -241.5 92t-85.5 250.5t73.5 336t202.5 288t258 112.5q121 -53 203 -199l2 8q6 135 33 203q82 2 122 -11t72 -54l-155 -305q-27 -164 -94 -586q182 94 311 233.5t172 302.5q-25 291 -141.5 453t-399.5 270q-408 -33 -685 -311.5t-277 -632.5 q0 -150 53 -272.5t147 -208.5q180 -164 422 -229q209 78 336 210q55 2 73.5 -19t18.5 -71q-113 -129 -420 -219q-342 68 -563 287t-221 543q0 264 160 500.5t406.5 373.5t504.5 137q195 0 355.5 -111.5t247.5 -286.5t87 -381t-185 -396.5t-437 -267.5q-61 61 -74.5 118.5 t10.5 130.5zM659 371q0 -156 115 -224q186 184 361 349l69 301q-33 70 -69.5 112.5t-104.5 87.5q-174 -72 -272.5 -240.5t-98.5 -385.5z" />
<glyph unicode="A" horiz-adv-x="1161" d="M920 694l208 43q25 -16 22 -58t-36 -87l-186 -10l43 -582q-125 -14 -176 51l-2 522l-275 -14l-123 -18l-248 -541q-133 -12 -170 49l250 467l-161 -24q-53 70 14 143l215 10l135 252l234 557q113 72 254 29l-31 -357zM446 653l347 17l-23 653l-18 -4z" />
<glyph unicode="B" horiz-adv-x="1198" d="M1108 487q0 -223 -164 -403q-287 -102 -643 -84q-80 23 -120 56.5t-48 86.5q113 422 172 748l72 465l-74 -17q-43 29 -50 70t15 66q145 31 314 30q258 0 407.5 -111.5t148.5 -259t-57.5 -223t-199.5 -157.5l-2 -15q104 -31 196 -104q33 -68 33 -148zM322 113 q309 -4 501 63q117 135 119 301q0 55 -14 101q-92 82 -203 107.5t-309 4.5zM969 1118q0 123 -116 201t-327 59l-102 -585q254 -4 414 67q8 8 32.5 27.5t28.5 25t20.5 20.5t19.5 24.5t12.5 26.5t10.5 34.5t4 43t3 56.5z" />
<glyph unicode="C" horiz-adv-x="1187" d="M411 1110q-173 -219 -173 -443.5t88 -346t280 -193.5q106 45 212 118.5t161 141.5q47 12 74.5 -18.5t23.5 -67.5q-57 -74 -187 -160t-261 -141q-289 76 -414 238.5t-129 412.5q0 197 135 445q293 367 662 428q119 -45 191.5 -156t80.5 -227q-100 -78 -197 -43 q-18 195 -106 293l-31 -2q-237 -60 -410 -279z" />
<glyph unicode="D" horiz-adv-x="1265" d="M584 1505q301 0 473 -184t178 -475q4 -240 -110.5 -437.5t-344.5 -324.5q-244 -82 -506 -84q-137 37 -172 127q156 516 224 895l4 334l-74 -17q-43 29 -50 70t15 66q146 30 363 30zM387 727l-80 -582q252 0 424 43q180 129 260 283t76 352q-6 252 -148.5 406.5 t-392.5 134.5q-116 -522 -139 -637z" />
<glyph unicode="E" horiz-adv-x="1017" d="M422 797q418 35 442 39q18 -27 12 -76t-34 -94q-295 20 -439 14l-143 -543q256 33 569 94q43 -20 41 -71t-32 -101l-596 -59q-156 43 -158 135q174 457 248 873l39 329q-29 18 -95 23q-37 68 0 104q332 33 801 27q41 -31 22.5 -108.5t-73.5 -122.5l-129 83 q-184 29 -356 11l-60 -224z" />
<glyph unicode="F" horiz-adv-x="1024" d="M541 1356l-60 -223l-49 -371q57 6 216 17.5t229 21.5q16 -25 9 -76t-36 -94q-297 20 -440 12q-45 -315 -78 -637q-39 -14 -100.5 0t-92.5 51q98 371 215 1004l17 278q-29 18 -95 23q-37 68 0 104q332 33 801 27q41 -31 22.5 -108.5t-73.5 -122.5l-129 84q-184 28 -356 10 z" />
<glyph unicode="G" horiz-adv-x="1261" d="M422 242q74 -53 211 -115q258 225 387 508l-8 10l-340 -57q-37 45 -39 88t35 74q219 -39 465 0q31 -61 37 -131t-21 -186t-48.5 -185.5t-80.5 -247.5q-104 -8 -137 53q147 301 180 453l-16 4q-129 -328 -392 -510q-295 88 -416.5 233.5t-125.5 391.5q-2 195 135 444 q233 379 661 451q119 -45 192 -156t81 -227q-100 -78 -197 -43q-18 190 -106 292l-31 -2q-240 -59 -412 -281t-172 -483t158 -378z" />
<glyph unicode="H" horiz-adv-x="1370" d="M356 1454q84 51 130 51t85 -18l-153 -666l-4 -35l352 13l252 41q18 100 31 178l30 436q84 51 130 51t85 -18l-145 -627l151 25q25 -16 21 -58.5t-39 -85.5l-152 -12q-10 -92 -42.5 -339t-47.5 -390q-150 -14 -194 63q123 512 151 656l-573 -43l-23 -4q-82 -639 -86 -672 q-145 -14 -194 63q106 436 137 588l-119 -18q-49 70 21 143l125 4q18 96 41 238z" />
<glyph unicode="I" horiz-adv-x="460" d="M281 1454q84 51 129 51t86 -18l-154 -666q-10 -104 -47 -383.5t-53 -437.5q-150 -14 -195 63q150 614 203 955z" />
<glyph unicode="J" horiz-adv-x="1089" d="M631 1376l-359 -30q-61 61 -18 118q549 29 981 13q23 -16 14.5 -53.5t-45.5 -71.5l-379 24l-137 -579q-10 -94 -40 -318.5t-44 -355.5q-27 -59 -97.5 -91t-146.5 -32q-125 72 -205.5 180.5t-97.5 206.5q35 55 79 74.5t85 -2.5q18 -190 176 -336l29 14q143 645 186 897z " />
<glyph unicode="K" horiz-adv-x="1204" d="M309 1454q84 51 129 51t86 -18l-153 -666l-2 -18l274 188l455 514q53 -8 77.5 -30.5t36.5 -67.5q-109 -129 -326.5 -320.5t-402.5 -308.5q182 -463 572 -622q39 -106 -92 -156q-168 92 -314.5 292t-249.5 445l-41 -32q-8 -63 -40.5 -309t-47.5 -396q-150 -14 -194 63 q150 614 203 955z" />
<glyph unicode="L" horiz-adv-x="913" d="M281 1454q70 43 114.5 51t100.5 -18l-160 -721l-135 -635q254 31 592 96q41 -23 38.5 -70.5t-30.5 -93.5l-619 -63q-156 39 -157 129q121 319 229 889z" />
<glyph unicode="M" horiz-adv-x="1400" d="M1266 1481q70 25 115.5 24.5t76.5 -18.5l-153 -666q-10 -98 -47 -376.5t-54 -444.5q-147 -14 -196 63q129 518 204 955l2 123l-417 -719q-68 -12 -103 -5t-86 44q-156 281 -223 676l-61 -316q-10 -98 -48 -376.5t-55 -444.5q-150 -14 -194 63q150 614 202 955l31 457 q55 29 116.5 28.5t86.5 -30.5q14 -190 55 -413.5t92 -363.5l115 -159l301 475z" />
<glyph unicode="N" horiz-adv-x="1282" d="M1135 1454q84 51 130 51t85 -18l-160 -666q-10 -94 -50 -373.5t-59 -447.5q-127 -10 -192 49q-252 485 -481 1202l-93 -430q-10 -102 -49 -381.5t-57 -439.5q-147 -14 -197 63q106 414 143.5 589t69.5 366l35 436q88 51 131 51t84 -18q145 -516 346 -1006l127 -223 q12 57 37 167t39 177q43 207 76 416z" />
<glyph unicode="O" horiz-adv-x="1243" d="M1055 735q-27 227 -85.5 390t-172.5 276q-240 -113 -385.5 -315.5t-145.5 -442.5q2 -168 77 -318.5t214 -218.5q199 115 311.5 264.5t186.5 364.5zM809 1505q90 0 181 -114.5t149.5 -292.5t60.5 -355q2 -129 -108.5 -307t-264 -307t-266 -129t-221.5 102.5t-169 242.5 t-62 263q-2 217 103 428t270 340t327 129z" />
<glyph unicode="P" horiz-adv-x="1089" d="M578 1505q258 0 394 -114.5t138 -272.5q8 -319 -287 -479q-219 -76 -432 -86q-20 -203 -69 -547q-39 -14 -101.5 -1t-93.5 46q74 270 178 869l53 446l-98 -10q-23 39 -17.5 73.5t29.5 45.5q134 30 306 30zM530 1378l-116 -544q-8 -121 -15 -187q231 33 369 98 q90 53 142.5 147.5t50.5 203.5q-4 143 -110 220.5t-321 61.5z" />
<glyph unicode="Q" horiz-adv-x="1290" d="M563 0q-115 0 -223.5 102.5t-168.5 242.5t-62 263q-2 217 103 428t270 340t327 129q90 0 181 -114.5t149.5 -292.5t60.5 -350.5t-173 -404.5t-353 -314l67 -115l191 -117q16 -98 -146 -127l-206 330h-17zM557 106q199 115 311.5 264.5t186.5 364.5q-27 227 -85.5 390 t-172.5 276q-240 -113 -385.5 -315.5t-145.5 -442.5q2 -168 77 -318.5t214 -218.5z" />
<glyph unicode="R" horiz-adv-x="1163" d="M573 1509q254 0 384 -105.5t130 -256t-76.5 -253.5t-248.5 -198q-162 -20 -268 -24q70 -201 178 -316.5t315 -205.5q20 -45 -11.5 -87.5t-101.5 -62.5q-190 121 -301.5 297t-146.5 373l-31 -2q-25 -276 -88 -662q-39 -14 -100.5 -1t-93.5 46q63 229 89.5 361.5 t39.5 185.5q25 123 59 334l59 432l-104 -6q-23 39 -18.5 73.5t30.5 45.5q141 32 305 32zM410 846q0 -41 -7 -90q168 6 322 47q109 72 152 144.5t43 190t-96.5 190.5t-291.5 58z" />
<glyph unicode="S" horiz-adv-x="1157" d="M1077 475q-27 -176 -172 -301t-411 -174q-158 49 -293 176t-158 238q41 57 77 69.5t95 -8.5q45 -141 103.5 -211.5t195.5 -154.5q176 43 291 142t115 218q-4 76 -248 211q-104 55 -211 117.5t-187.5 148.5t-95.5 176q66 162 234 274.5t338 127.5q244 -102 354 -330 q-6 -39 -46 -63.5t-100 -18.5q-45 119 -96 184.5t-127 120.5q-137 -31 -268 -129t-128 -167.5t101.5 -145.5t221 -140.5t247.5 -163t168 -196.5z" />
<glyph unicode="T" horiz-adv-x="1099" d="M596 1372l-369 -26q-61 61 -16 118q446 29 1024 21q23 -16 14.5 -54t-45.5 -73l-411 24l-134 -585q-14 -125 -47.5 -395.5t-48.5 -401.5q-145 -14 -194 61q137 528 213 973z" />
<glyph unicode="U" horiz-adv-x="1167" d="M508 0q-178 0 -285.5 110.5t-128.5 229.5q8 51 40 230.5t41 238.5t30 190q31 195 53 455q84 51 130 51t85 -18q-215 -719 -215 -1131q0 -82 63.5 -150.5t165 -89t226.5 39.5q127 125 188.5 321.5t118.5 540.5v436q84 51 130 51t85 -18q-27 -117 -69 -351.5t-71.5 -380 t-58 -250t-76 -208.5t-104.5 -164q-131 -133 -348 -133z" />
<glyph unicode="V" horiz-adv-x="1097" d="M991 1130l-26 316q150 63 231 0q14 -158 -78 -356q-66 -121 -209 -370t-219 -390l-117 -324q-131 -33 -211 39l-141 1399q41 27 94.5 34t87.5 -18l39 -954l54 -369z" />
<glyph unicode="W" horiz-adv-x="1619" d="M1528 1137l-27 321q152 59 234 0q12 -172 -78 -360l-363 -762l-96 -328q-45 -16 -110.5 -7t-104.5 44l-72 662l-198 -377l-127 -324q-129 -33 -209 39l-154 1411q39 27 92.5 33t90.5 -19l45 -964l51 -332l387 721l-43 416q90 74 178 37l27 -791l63 -416z" />
<glyph unicode="X" horiz-adv-x="1218" d="M670 825l481 678q57 4 91 -23.5t52 -95.5q-190 -180 -596 -632q227 -461 402 -611q4 -51 -37 -90t-115 -51q-84 96 -182 300t-135 359l-475 -659q-76 12 -107 45t-31 86q150 127 594 621q-184 387 -422 596q-12 127 134 153q117 -113 209 -295t137 -381z" />
<glyph unicode="Y" horiz-adv-x="1161" d="M238 1460q35 31 87 42t89 -11l73 -348l177 -451h6l43 80l336 453l-70 243q102 39 154.5 36t103.5 -42q0 -164 -92 -278q-225 -293 -402 -514q-66 -205 -90 -670q-31 -14 -91 -4t-103 43q78 219 123 582q-84 239 -344 839z" />
<glyph unicode="Z" horiz-adv-x="1169" d="M184 84l-10 -10l16 -35q-35 -49 -155 -39q-29 49 -28 99.5t79 141.5t200 215t252 261t256 303t193 309l-14 17q-440 -4 -584 26q-59 -80 -65 -205q-137 -25 -174 47q49 223 202 291q106 -33 312 -52t348 -15l39 86q70 -2 98.5 -16.5t48.5 -47.5q-37 -147 -222 -405 t-390 -483.5t-369 -374.5l10 -19q516 0 650 -22q39 74 55 155q141 31 176 -53q-37 -139 -203 -258q-104 43 -334.5 66.5t-386.5 17.5z" />
<glyph unicode="[" horiz-adv-x="1034" d="M854 1612l-133 -8l-96 -324l-150 -782l-72 -488l361 53q27 -43 -29 -102l-413 -82q-80 41 -101 101l209 872l141 868l514 13q8 -33 0 -57.5t-36 -76.5z" />
<glyph unicode="\" horiz-adv-x="935" d="M131 1718q10 43 50 64.5t71 7.5l268 -1049l316 -966q-51 -55 -134 -17z" />
<glyph unicode="]" horiz-adv-x="1087" d="M696 485l-30 -522l-582 -90q-53 84 -12 158l430 8l143 813l150 760l-387 -10q-29 35 -36 72.5t11 58.5l510 -29q55 -49 63 -139z" />
<glyph unicode="^" horiz-adv-x="907" d="M109 850l428 678q96 23 145 -17l221 -673q-33 -29 -78 -31t-63 16l-193 613l-393 -629q-55 -6 -67 43z" />
<glyph unicode="_" horiz-adv-x="1282" d="M1030 -104q25 -12 16.5 -55.5t-47.5 -86.5l-1005 -14q-23 20 -16.5 57t38.5 76l510 -8z" />
<glyph unicode="`" horiz-adv-x="464" d="M395 1612l166 -383q-10 -35 -69 -29l-105 150l-176 180q14 53 65 74.5t119 7.5z" />
<glyph unicode="a" horiz-adv-x="1026" d="M657 334l-268 -307q-158 2 -242 92t-86 250.5t74 336t203 288t258 112.5q121 -53 203 -199l2 6q6 135 33 205q145 0 194 -65l-154 -301q-37 -238 -77 -752q-139 -16 -209 59l92 256zM217 371q0 -156 115 -224q186 184 360 349l70 301q-33 70 -70 112.5t-104 87.5 q-174 -72 -272.5 -240.5t-98.5 -385.5z" />
<glyph unicode="b" horiz-adv-x="1005" d="M297 805l25 -27q131 172 296 328q166 -59 238 -158.5t113 -279.5q-63 -260 -251 -436.5t-474 -231.5q-158 55 -168 158q102 426 194 948l37 506q72 43 116 51t99 -16l-116 -467l-50 -265zM225 121q250 49 405.5 201.5t192.5 349.5q-18 115 -64 181.5t-141 107.5 q-178 -170 -299 -328q-55 -346 -94 -512z" />
<glyph unicode="c" horiz-adv-x="989" d="M627 1106q115 -18 192.5 -110.5t85.5 -200.5q-39 -33 -90 -41.5t-84 12.5q-4 88 -29.5 136t-85.5 95l-36 -4q-143 -70 -240.5 -204t-101.5 -248q-10 -164 40 -264.5t195 -159.5q96 33 193.5 85t146.5 103q43 2 55.5 -19.5t8.5 -64.5q-59 -66 -191.5 -135.5t-232.5 -85.5 q-201 51 -293 189.5t-82 316.5q6 102 39 194q86 141 218 256t292 150z" />
<glyph unicode="d" horiz-adv-x="946" d="M659 336l-270 -309q-158 2 -242 92t-86 250.5t74 336t203 288t250 112.5t205 -176q25 115 36 176l11 506q78 43 122 51t99 -16l-119 -459q-80 -600 -176 -1188q-135 -12 -176 49l92 266zM217 371q0 -156 115 -224q186 184 360 349l70 301q-45 94 -83 138t-81 73 q-176 -72 -278.5 -247t-102.5 -390z" />
<glyph unicode="e" horiz-adv-x="985" d="M563 1122q180 -47 254 -171t60 -294q-344 -164 -656 -229q12 -115 69.5 -189.5t180.5 -119.5q221 80 326 178q41 0 53 -18.5t8 -67.5q-41 -55 -170 -123t-223 -88q-203 45 -303.5 181t-95.5 327q2 82 38 203q176 296 459 411zM215 547v-17q258 66 520 183 q0 117 -31.5 184.5t-125.5 114.5l-29 -6q-135 -66 -232.5 -205t-101.5 -254z" />
<glyph unicode="f" horiz-adv-x="708" d="M774 972q0 -42 -31 -85l-368 -21q-53 -453 -125 -866q-133 -12 -174 49q111 358 182 797l-260 -49q-55 70 4 143l270 2l2 14l-4 506q82 94 155 143.5t175 61.5q115 -18 194.5 -110.5t88.5 -200.5q-39 -31 -88.5 -40t-81.5 11q-8 88 -35 136t-86 96q-88 -20 -172 -89 q2 -162 -35 -512l363 72q26 -16 26 -58z" />
<glyph unicode="g" horiz-adv-x="970" d="M657 334l-268 -307q-158 2 -242 92t-86 250.5t74 336t203 288t252 112.5t211 -193q6 135 33 205q145 0 192 -65l-170 -365q-47 -190 -86 -436t-69.5 -446.5t-43.5 -274.5q-29 -35 -107.5 -60.5t-143.5 -23.5q-141 70 -224.5 177.5t-97.5 209.5q37 55 82 75.5t84 -3.5 q16 -203 188 -336q29 -2 56 14q57 197 110 518l76 213zM217 371q0 -156 115 -224q186 184 360 349l70 301q-45 94 -83 138t-81 73q-176 -72 -278.5 -247t-102.5 -390z" />
<glyph unicode="h" horiz-adv-x="1038" d="M313 813l23 -29q172 236 385 322q111 -10 178.5 -86t83.5 -166l-74 -182q-39 -309 -57 -672q-127 -14 -182 51q53 342 139 795q-10 84 -86 115q-199 -86 -387 -328q-53 -342 -109 -633q-133 -12 -174 49q113 385 236 1057l22 506q74 43 117 51t98 -16l-114 -473l-29 -269 z" />
<glyph unicode="i" horiz-adv-x="464" d="M231 754l-6 319q92 39 135 33t66 -33l-76 -266q-35 -297 -82 -807q-150 -14 -194 63q67 232 157 691zM428 1230q-31 -32 -78 -32t-79.5 32t-36 78t28.5 76.5t79 30.5t79 -30.5t35 -76.5t-28 -78z" />
<glyph unicode="j" horiz-adv-x="534" d="M-98 -94q25 -197 182 -336l27 14q16 109 63 449q90 649 205 1085q143 0 194 -65l-174 -398q-76 -453 -120 -1101q-18 -47 -88 -77t-144 -30q-127 72 -209 180.5t-98 206.5q33 55 78 76t84 -4zM605 1233q-30 -29 -71.5 -29t-72.5 29t-34 72t26.5 72.5t72.5 29.5t74 -29.5 t33 -72.5t-28 -72z" />
<glyph unicode="k" horiz-adv-x="995" d="M260 745l8 -16q262 221 561 377q49 -8 66.5 -51t-4.5 -92q-379 -152 -582 -322q168 -324 565 -504q20 -37 -6 -74.5t-88 -62.5q-135 78 -273 208t-239 277q-39 -205 -86 -485q-135 -12 -176 49q131 444 242 1163l-21 390q80 74 199 59q-2 -168 -115 -844z" />
<glyph unicode="l" horiz-adv-x="501" d="M295 1106l24 506q72 43 116 51t97 -16l-118 -459q-51 -457 -138 -1188q-150 -14 -194 63q139 545 213 1043z" />
<glyph unicode="m" horiz-adv-x="1519" d="M795 0q-127 -14 -183 51q78 465 162 805q-35 84 -108 115q-86 -45 -159 -120t-185 -216q-61 -395 -107 -635q-131 -12 -176 49q115 381 180 713l-43 293q86 80 203 63q10 -49 -23 -223l-55 -100l18 -15q2 6 32 41t52.5 62.5t31.5 37t31.5 33t36 34.5t36 30.5t41.5 32.5 q55 37 92 55q90 -14 154.5 -61.5t91.5 -104.5l-54 -92l19 -12q154 182 321 270q121 -23 187.5 -93.5t72.5 -158.5l-73 -182q-39 -340 -58 -672q-125 -14 -180 51q43 283 139 795q-12 80 -86 115q-156 -57 -323 -254q-68 -203 -88 -707z" />
<glyph unicode="n" horiz-adv-x="1024" d="M301 795l18 -13q172 233 390 324q111 -10 177 -86t83 -166l-74 -182q-39 -340 -57 -672q-125 -14 -181 51q43 283 140 795q-12 84 -86 115q-197 -86 -389 -328q-45 -291 -107 -633q-131 -12 -176 49q115 381 180 713l-43 293q86 80 203 63q10 -49 -23 -223z" />
<glyph unicode="o" horiz-adv-x="991" d="M57 471q0 133 86 291t210 264.5t226.5 106.5t221.5 -190.5t122 -324t-86 -277.5t-217 -242.5t-230.5 -98.5t-217.5 143.5t-115 327.5zM563 1018q-164 -92 -248 -216t-120 -292q8 -137 53 -233.5t139 -176.5q182 78 277.5 197t130.5 299q-18 109 -80 225.5t-152 196.5z " />
<glyph unicode="p" horiz-adv-x="1005" d="M301 795l21 -15q121 164 294 326q182 -57 265.5 -174t103.5 -299q-45 -201 -178 -351.5t-371 -281.5q-102 23 -194 88q-47 -367 -111 -639q-131 -12 -176 49q158 606 264 1264l-43 293q86 80 203 63q10 -49 -23 -223zM424 119q317 186 414 518q-20 244 -222 324 q-184 -176 -297 -326q-23 -143 -59 -422q64 -63 164 -94z" />
<glyph unicode="q" horiz-adv-x="989" d="M664 344l-277 -317q-158 2 -242 92t-86 250.5t74 336t202 288t257 112.5q113 0 196 -170q8 123 33 182q143 0 195 -65l-156 -301q-41 -209 -100.5 -547t-97.5 -529l10 -10q203 203 237 236q51 10 58 -47q-43 -61 -154 -198.5t-162 -209.5q-174 23 -174 117q6 29 51 203 q91 362 136 577zM215 371q0 -156 115 -224q184 180 358 347l72 303h-2q-43 94 -81 138t-81 73q-176 -72 -278.5 -247t-102.5 -390z" />
<glyph unicode="r" horiz-adv-x="782" d="M311 795l25 -17q113 147 268 328q84 -12 137.5 -81t53.5 -161q-104 -78 -185 -35q6 94 -39 113q-100 -115 -235 -291q-55 -365 -111 -651q-133 -12 -174 49q123 424 178 713l-41 293q45 45 90.5 59t110.5 4q10 -49 -22 -223z" />
<glyph unicode="s" horiz-adv-x="950" d="M680 350q0 63 -250 170q-94 41 -183 107.5t-110 140.5q25 147 164 249.5t311 115.5q98 -43 161 -107.5t85 -177.5q-6 -33 -48 -48.5t-116 -0.5q-6 123 -96 239q-109 -31 -204 -108.5t-95 -130.5q0 -57 246 -170q94 -43 183 -118t110 -159q-35 -160 -163 -252t-331 -100 q-113 33 -202 125t-103 182q37 55 70.5 72.5t85.5 7.5q37 -193 165 -297q152 31 236 106.5t84 153.5z" />
<glyph unicode="t" horiz-adv-x="761" d="M782 1008l-333 -11q-14 -137 -48 -422.5t-51 -437.5q160 45 264 119q47 2 59.5 -16.5t8.5 -61.5q-66 -57 -175.5 -107.5t-207.5 -70.5q-125 27 -143 106q150 680 184 873l-258 -49q-55 70 4 143l266 2l-2 295q121 84 205 21l-94 -301l325 63q29 -16 28 -58t-32 -87z" />
<glyph unicode="u" horiz-adv-x="1026" d="M694 483v4q68 365 137 631q145 0 195 -65l-154 -301q-45 -293 -71 -752q-125 -14 -183 51l101 268l-25 21q-123 -160 -303 -340q-281 39 -334 193l105 354q31 348 26 571q63 8 102.5 -5t88.5 -58q-33 -291 -154 -828q27 -63 144 -98q204 184 325 354z" />
<glyph unicode="v" horiz-adv-x="901" d="M727 1059q145 84 213 4q-119 -627 -516 -1063q-72 0 -132.5 25.5t-72.5 72.5q37 254 38 385t-42 299l-170 211q12 55 61.5 86t116.5 27q213 -289 158 -959l16 -10q301 379 379 694z" />
<glyph unicode="w" horiz-adv-x="1386" d="M903 143l15 -6q244 283 354 705l-55 227q141 88 213 10q-78 -614 -474 -1079q-72 -4 -133 24.5t-73 73.5q59 295 36 539l-12 4q-94 -279 -377 -641q-72 0 -132 25.5t-72 72.5q39 238 44 379t-22 305l-170 211q12 55 61.5 86t116.5 27q203 -305 131 -959l17 -4 q215 289 360 670l-125 193q18 53 70.5 79.5t118.5 16.5q102 -248 125.5 -458t-17.5 -501z" />
<glyph unicode="x" horiz-adv-x="1062" d="M553 653l324 453q59 2 91.5 -24.5t53.5 -94.5q-147 -104 -297 -266q-47 -53 -147 -166q109 -258 319 -385q14 -57 -20.5 -102t-104.5 -68q-213 180 -260 473l-356 -473q-131 23 -144 131q195 150 477 440q-127 260 -317 357q-6 129 129 178q203 -164 252 -453z" />
<glyph unicode="y" horiz-adv-x="962" d="M684 487q84 471 141 631q145 0 193 -65l-170 -342q-49 -231 -115.5 -655.5t-81.5 -514.5q-35 -49 -117.5 -73.5t-164.5 -20.5q-139 72 -222.5 179.5t-97.5 207.5q35 55 81 75.5t85 -3.5q16 -207 188 -336q57 -8 82 14q72 229 125 572l80 145l-24 23q-53 -66 -232 -230 q-184 31 -268 85t-107 134l101 293q12 102 17 269t-1 243q63 8 103 -5t88 -58q-29 -203 -53.5 -325t-90.5 -380q23 -53 61 -81.5t124 -53.5q192 145 276 272z" />
<glyph unicode="z" horiz-adv-x="1032" d="M233 178h187q156 0 293 -24q43 84 51 157q145 31 154 -59q-33 -152 -189 -252q-102 53 -259 72.5t-275 11.5l-9 -10l15 -35q-29 -49 -152 -39q-25 47 -24.5 104.5t53.5 118t141 130t185.5 146t203 187.5t172.5 225l-12 17q-188 -4 -420 47q-59 -88 -59 -207 q-121 -29 -160 45q39 225 193 293q291 -90 481 -86l35 86q72 -4 102.5 -20.5t50.5 -53.5q-12 -152 -274 -401q-203 -193 -341 -307.5t-153 -126.5z" />
<glyph unicode="{" horiz-adv-x="1327" d="M811 1753q129 0 299 -141q-4 -66 -63 -88l-240 137l-88 -51q133 -270 63 -486q-35 -115 -126 -187.5t-212 -82.5l-4 -25q213 -141 211 -360q-6 -248 -252 -465l64 -82l280 58q61 -45 39 -101q-176 -55 -305 -63q-168 53 -227 245q244 152 250 424q2 104 -58.5 186.5 t-146.5 121.5l45 159q117 0 211 101.5t105.5 249t-101.5 313.5q45 59 116.5 98t139.5 39z" />
<glyph unicode="|" horiz-adv-x="438" d="M358 1948q82 53 128 53t87 -19l-264 -1161q-10 -98 -69.5 -567t-75.5 -635q-150 -14 -195 66q104 426 248 1333z" />
<glyph unicode="}" horiz-adv-x="1329" d="M860 1096q-2 -104 58.5 -187.5t148.5 -122.5l-47 -159q-115 0 -209 -101.5t-105.5 -249t99.5 -313.5q-80 -125 -256 -147q-133 41 -299 151q4 70 63 88l240 -137l88 51q-133 270 -63 486q37 115 128 188.5t209 81.5l5 25q-211 139 -209 360q2 248 250 465l-64 82 l-281 -58q-61 45 -38 103q141 57 282 61q88 2 152.5 -68.5t97.5 -176.5q-244 -152 -250 -422z" />
<glyph unicode="~" horiz-adv-x="1327" d="M412 836q193 -31 297 -82q39 -18 122 -70l15 -2l174 141q53 8 89 -9t40 -50q-76 -106 -283 -189q-170 29 -265 64t-171 96l-14 -6l-144 -147q-57 -2 -95 16t-36 43q115 146 271 195z" />
<glyph unicode="&#xa1;" horiz-adv-x="780" d="M467 1155q57 33 97 33t63.5 -23.5t27.5 -62.5q-10 -55 -63 -108.5t-105 -59.5q-37 0 -72.5 46t-39.5 95q35 47 92 80zM231 -111l187 887q39 27 88 -8l-82 -383l-119 -965q-74 -14 -123 -2.5t-96 60.5z" />
<glyph unicode="&#xa2;" horiz-adv-x="989" d="M633 983l-152 -864q236 84 332 186q43 2 55.5 -19.5t8.5 -64.5q-59 -66 -187.5 -133.5t-228.5 -85.5l-47 -266q-102 -25 -154 76l96 221q-150 66 -218 192.5t-61 254.5t40 220q76 125 190.5 232.5t253.5 154.5l47 273q100 33 146 -62l-84 -202q96 -31 161.5 -117 t73.5 -184q-39 -33 -90 -41.5t-84 12.5q-4 82 -26.5 129t-71.5 88zM397 156l144 817q-129 -76 -214 -201t-91.5 -249t28.5 -216t133 -151z" />
<glyph unicode="&#xa3;" horiz-adv-x="1327" d="M930 121l100 92q139 -61 31 -213q-350 14 -699 63q-49 -59 -143 -63q-170 125 -35 233l109 -26q125 240 188 461l-264 -6q-35 41 12 118l277 -24q35 135 57 305l-63 282q152 176 372 205q115 -18 195 -110t90 -201q-39 -33 -88 -41t-82 12q-8 88 -34.5 136.5t-88.5 95.5 q-150 -37 -213 -88q39 -266 -24 -584l356 37q45 -27 -20 -125l-357 -8q-68 -274 -180 -506q240 -43 504 -45z" />
<glyph unicode="&#xa4;" horiz-adv-x="1304" d="M602 227q-82 0 -172 86l-211 -225q-74 8 -96.5 37t-9.5 80l252 178q-94 129 -94.5 288.5t155.5 358.5l-252 219q-6 53 19.5 80t99.5 27l194 -256q166 172 308 172q72 0 166 -105l194 207q74 -8 96.5 -36.5t10.5 -82.5l-242 -168q113 -170 117 -301q2 -178 -201 -378 l254 -181q27 -106 -107 -116l-219 233q-147 -117 -262 -117zM600 319q182 74 277.5 182.5t128.5 274.5q-16 98 -79 206t-151 183q-166 -84 -250 -197.5t-118 -269.5q8 -129 53 -217t139 -162z" />
<glyph unicode="&#xa5;" horiz-adv-x="1163" d="M1110 731q0 -41 -31 -86l-344 -4q-25 -86 -45 -227l393 65q27 -16 27 -58t-31 -85l-401 -21q-14 -143 -25 -315q-31 -14 -91 -4t-103 43q39 106 69 260l-282 -53q-55 70 4 143l297 2q23 135 35 227l-336 -63q-55 74 4 143l303 2q-76 209 -315 760q35 31 87 42t89 -11 l73 -348l166 -477h6l35 82l355 477l-70 243q102 39 154.5 36t103.5 -42q0 -164 -92 -278q-119 -154 -212 -273.5t-132 -169.5l282 50q27 -19 27 -60z" />
<glyph unicode="&#xa6;" horiz-adv-x="458" d="M129 608q57 29 119.5 29t91.5 -23l-145 -530q-2 -45 -18.5 -215t-22.5 -248q-98 -49 -203 25q104 406 123 524zM385 1966q78 29 124 29t91 -17l-149 -542q-2 -47 -18.5 -214t-22.5 -245q-121 -18 -201 29q16 70 45 184q57 221 76 332z" />
<glyph unicode="&#xa7;" horiz-adv-x="1157" d="M274 588q0 -82 156 -172q127 -72 258 -131q135 82 194.5 155.5t61.5 161.5q0 53 -86 107q-70 43 -266 141q-318 -188 -318 -262zM352 1182q0 -98 320 -244q125 -57 248.5 -146.5t164.5 -183.5q-45 -260 -309 -379q4 -2 29.5 -14t32 -15t30 -15.5t31.5 -18.5t27.5 -18.5 t27.5 -20.5q47 -47 62 -80q-49 -174 -188.5 -273.5t-378.5 -144.5q-141 53 -260 145.5t-152 180.5q59 119 141 90q47 -113 102.5 -174t188.5 -135q180 47 283.5 121.5t105.5 173.5q0 37 -105.5 92t-234.5 110.5t-246.5 149.5t-138.5 197q117 209 363 321q-94 55 -138.5 84 t-96.5 82t-68 111q92 162 250.5 245.5t322.5 100.5q248 -104 350 -330q-12 -70 -117 -70q-55 121 -111.5 184.5t-137.5 108.5q-102 -14 -250 -99t-148 -136z" />
<glyph unicode="&#xa8;" horiz-adv-x="573" d="M260 1440q41 0 68.5 -28t27.5 -67.5t-28.5 -68.5t-68.5 -29t-67.5 29t-27.5 68.5t27.5 67.5t68.5 28zM592 1440q41 0 68.5 -28t27.5 -67.5t-28.5 -68.5t-68.5 -29t-67.5 29t-27.5 68.5t27.5 67.5t68.5 28z" />
<glyph unicode="&#xa9;" horiz-adv-x="1546" d="M1143 975q-33 -27 -77 -34t-71 9q-4 78 -26.5 120t-73.5 83l-33 -4q-123 -59 -207 -176t-90 -217q-6 -139 38 -225.5t169 -139.5q199 66 291 164q37 2 48 -16.5t7 -57.5q-51 -57 -164.5 -116.5t-199.5 -71.5q-174 41 -253 160.5t-71 273.5q6 92 35 168 q72 123 185.5 222.5t252.5 127.5q100 -14 167 -94t73 -176zM1419 750q-25 371 -162 520q-121 131 -366 198q-299 -47 -474 -243.5t-216 -452.5q31 -285 147.5 -448.5t364.5 -247.5q168 18 299 82.5t211 163.5q151 186 196 428zM84 774q59 297 240 502q201 229 577 278 q289 -47 438 -198q127 -131 172 -369q18 -100 27 -235q-49 -283 -240 -494q-98 -109 -250.5 -179.5t-345.5 -88.5q-315 66 -463.5 279.5t-154.5 504.5z" />
<glyph unicode="&#xaa;" horiz-adv-x="792" d="M600 920l-192 -236q-125 2 -201 73.5t-78 184.5q-4 209 128 397.5t290 188.5q92 -39 160 -156l2 6q2 106 22 162q135 0 174 -53l-121 -236q-31 -233 -61 -587q-53 -6 -105.5 6t-76.5 41l71 200zM276 952q0 -63 18.5 -97t65.5 -58q31 29 81.5 78t94.5 92t85 84l53 229 q-47 90 -123 137q-129 -63 -202 -193.5t-73 -271.5z" />
<glyph unicode="&#xab;" horiz-adv-x="1095" d="M920 451q14 -53 -13.5 -101.5t-66.5 -48.5l-320 424q0 41 17 72l245 180l203 166q45 -16 51 -59.5t-32 -106.5l-369 -242l119 -135zM522 451q14 -53 -13.5 -101.5t-66.5 -48.5l-321 424q0 37 18 72l211 180l201 166q45 -16 52 -59.5t-32 -106.5l-333 -242l118 -135z" />
<glyph unicode="&#xac;" horiz-adv-x="1828" d="M936 813l803 33q31 -20 18 -84l-78 -420q-53 -47 -131 23l76 337l-1464 -14q-47 47 22 135z" />
<glyph unicode="&#xad;" horiz-adv-x="1017" d="M938 752q25 -14 16.5 -56.5t-47.5 -85.5l-786 -14q-45 45 22 133l379 -8z" />
<glyph unicode="&#xae;" horiz-adv-x="964" d="M631 1513q201 -35 273.5 -144t84.5 -306q-31 -170 -146.5 -290t-324.5 -140q-176 37 -259 157.5t-87 284.5q74 387 459 438zM524 684q182 18 277.5 123.5t122.5 253.5q-14 172 -71.5 265t-227.5 138q-168 -27 -266.5 -137t-120.5 -254q16 -160 81.5 -251t204.5 -138z M473 1343q61 10 134 10.5t121 -38.5t48 -92q0 -100 -119 -164q-16 -2 -42.5 -5t-41.5 -5q25 -72 63 -111t112 -72q10 -16 -4.5 -33.5t-43.5 -25.5q-137 92 -161 240h-17q-10 -119 -30 -236q-43 -12 -70 18q43 143 90 467h-43q-19 33 4 47zM709 1221q0 94 -138 84l-43 -191 l-2 -29q43 0 115 17q68 47 68 119z" />
<glyph unicode="&#xaf;" horiz-adv-x="686" d="M786 1393q53 -31 -30 -125l-586 -17q-41 41 23 121l311 -10z" />
<glyph unicode="&#xb0;" horiz-adv-x="829" d="M569 1473q-160 -92 -200 -287q10 -145 104 -236q98 47 149.5 115t69.5 170q-19 140 -123 238zM592 1550q74 0 158 -111.5t88 -197.5q2 -109 -133.5 -232.5t-249.5 -123.5q-72 0 -153 84t-81 198.5t129 248.5t242 134z" />
<glyph unicode="&#xb1;" horiz-adv-x="1384" d="M823 946l443 27q25 -14 16.5 -56.5t-47.5 -85.5l-436 -6l-64 -329q-55 -37 -127 49l68 278l-449 -6q-45 45 23 133l450 -8l41 326q18 20 58.5 3.5t74.5 -63.5zM1182 424q25 -12 16.5 -55t-47.5 -86l-1008 -15q-47 47 23 135l510 -10z" />
<glyph unicode="&#xb2;" horiz-adv-x="565" d="M434 1395q-70 0 -129 -72l35 -80q-12 -23 -45 -26q-53 39 -111 129q37 78 102.5 128t139.5 50t136.5 -93.5t62.5 -177.5t-40 -143t-126 -133l-234 -193l6 -6l322 15q8 -23 -1 -68t-32 -61l-307 22l-76 -20q-25 14 -49.5 57t-21.5 78l290 258q119 106 179 217 q-25 119 -101 119z" />
<glyph unicode="&#xb3;" horiz-adv-x="604" d="M414 1399q-78 0 -133 -66l38 -73q-14 -23 -51 -31q-61 45 -106 117q41 80 105.5 129t145.5 49t156.5 -73t73.5 -167q-2 -33 -26.5 -58.5t-86.5 -56.5l-100 -49q100 -29 161.5 -76t53.5 -120q-8 -92 -157.5 -163t-354.5 -93q-16 12 -23.5 37.5t-3.5 42.5 q160 37 255.5 76.5t162.5 103.5q-16 41 -62 71.5t-149 69.5l17 74l190 147q-18 109 -106 109z" />
<glyph unicode="&#xb4;" horiz-adv-x="350" d="M332 1577q66 18 134.5 -6.5t70.5 -59.5l-326 -319q-61 0 -68 35l127 190z" />
<glyph unicode="&#xb5;" horiz-adv-x="1026" d="M694 483v4q68 365 137 631q145 0 195 -65l-154 -301q-45 -293 -71 -752q-125 -14 -183 51l101 268l-25 21q-123 -160 -303 -340q-127 10 -215 63q-76 -313 -139 -583q-49 -25 -93 -12.5t-73 53.5q244 762 305 1071q12 119 12 526q63 8 102.5 -5t88.5 -58 q-23 -223 -166 -836q59 -63 156 -90q204 184 325 354z" />
<glyph unicode="&#xb6;" horiz-adv-x="1216" d="M1079 1503l43 195q121 23 201 -39l-166 -393l-143 -760q-35 -242 -68 -506q-82 -31 -176 39l168 715l117 637q-98 4 -152 -9l-205 -876l-65 -506q-82 -29 -178 39q39 166 147 631q-231 29 -343 115.5t-95.5 238.5t91.5 250t204 147t274 66.5t346 15.5z" />
<glyph unicode="&#xb7;" horiz-adv-x="497" d="M312.5 541.5q-54.5 -33.5 -94.5 -33.5t-66.5 24.5t-32.5 61.5q4 55 51 108.5t98 59.5q37 0 78 -46t51 -95q-30 -46 -84.5 -79.5z" />
<glyph unicode="&#xb8;" horiz-adv-x="636" d="M188 -166q66 61 138.5 61.5t110.5 -52t21.5 -140.5t-92 -141.5t-176 -53.5t-186.5 38t-139 104q4 72 45 76q111 -111 234.5 -111t148.5 98q10 49 -17 88q-72 -8 -133 -61q-74 0 -92 55l115 244h129z" />
<glyph unicode="&#xb9;" horiz-adv-x="403" d="M426 1270l-88 -404l-14 -202q-90 -14 -150 22l141 625l29 82l-14 8l-80 -111q-18 -8 -55 -5t-39 15l96 205q63 12 141 -1t103 -46z" />
<glyph unicode="&#xba;" horiz-adv-x="796" d="M235.5 782.5q-90.5 108.5 -90.5 260t133.5 317.5t280.5 166q90 0 182.5 -140.5t96.5 -252.5q2 -141 -144.5 -300t-277.5 -159q-90 0 -180.5 108.5zM537 1438q-201 -139 -242 -377q8 -170 131 -297q117 57 180.5 144t83.5 218q-28 177 -153 312z" />
<glyph unicode="&#xbb;" horiz-adv-x="1095" d="M233 993q-12 55 14.5 102.5t65.5 47.5l322 -424q0 -43 -19 -72l-245 -180l-201 -166q-98 37 -20 166l370 244l-121 135zM633 993q-14 55 13.5 102.5t66.5 47.5l319 -424q0 -41 -16 -72l-211 -180l-201 -166q-100 39 -20 166l334 244l-119 135z" />
<glyph unicode="&#xbc;" horiz-adv-x="1378" d="M1055 836q131 0 172 -52l-70 -186l-61 -281l145 5q8 -18 -4 -55.5t-31 -55.5l-133 4l-4 -20l-16 -203q-74 -16 -138 20l48 207l-39 2l-236 -6q-59 27 -74.5 39t-17.5 25l410 552q37 5 49 5zM748 303l237 10l37 160l78 289l-17 4l-141 -203zM602 772l465 930 q119 14 156 -45l-1028 -1821q-98 -18 -140 37zM395 1401l-80 -111q-18 -8 -55 -5t-39 15l96 205q63 12 141.5 -1t102.5 -46l-69 -188l-89 -404l-14 -202q-90 -14 -149 22l141 625l29 82z" />
<glyph unicode="&#xbd;" horiz-adv-x="1374" d="M602 772l465 930q119 14 156 -45l-1028 -1821q-98 -18 -140 37zM494 1270l-88 -404l-15 -202q-90 -14 -149 22l141 625l29 82l-15 8l-80 -111q-18 -8 -55 -5t-39 15l96 205q63 12 141.5 -1t102.5 -46zM1087 680q-70 0 -129 -72l35 -80q-12 -23 -45 -26q-53 39 -110 129 q37 78 102.5 128t139 50t136 -93t62.5 -177t-40 -143.5t-126 -133.5l-233 -192l6 -7l321 15q8 -23 -1 -68t-31 -61l-308 22l-75 -20q-25 14 -49.5 57t-22.5 78l291 258q119 106 178 217q-25 119 -101 119z" />
<glyph unicode="&#xbe;" horiz-adv-x="1327" d="M1153 836q131 0 172 -52l-72 -186l-61 -281l145 5q8 -18 -4 -55.5t-30 -55.5l-134 4l-4 -20l-14 -203q-76 -16 -137 20l47 207l-39 2l-238 -6q-4 2 -30 14q-57 29 -62 50l412 552q37 5 49 5zM846 303l235 10l37 160l78 289l-14 4l-142 -203zM698 772l465 930 q119 14 156 -45l-1028 -1821q-98 -18 -139 37zM414 1399q-78 0 -133 -66l38 -73q-14 -23 -51 -31q-61 45 -106 117q41 80 105.5 129t145.5 49t156.5 -73t73.5 -167q-2 -33 -26.5 -58.5t-86.5 -56.5l-100 -49q100 -29 161.5 -76t53.5 -120q-8 -92 -157.5 -163t-354.5 -93 q-16 12 -23.5 37.5t-3.5 42.5q160 37 255.5 76.5t162.5 103.5q-16 41 -62 71.5t-149 69.5l17 74l190 147q-18 109 -106 109z" />
<glyph unicode="&#xbf;" horiz-adv-x="1327" d="M821.5 1171.5q57.5 32.5 97 32.5t64.5 -23.5t27 -62.5q-10 -55 -63.5 -108.5t-104.5 -59.5q-37 0 -73 46t-40 96q35 47 92.5 79.5zM743 -12q39 18 61.5 18t47.5 -36t40 -101.5t3 -128.5q-172 -133 -355.5 -206t-343 -73t-224 119t-1 300t253 294t496.5 186l86 498 q47 12 61.5 3t14.5 -44l-4 -438q-27 -84 -119 -139q-563 -111 -674 -418q-47 -150 61 -250q324 12 623 231z" />
<glyph unicode="&#xc0;" horiz-adv-x="1161" d="M920 694l208 43q25 -16 22 -58t-36 -87l-186 -10l43 -582q-125 -14 -176 51l-2 522l-275 -14l-123 -18l-248 -541q-133 -12 -170 49l250 467l-161 -24q-53 70 14 143l215 10l135 252l234 557q113 72 254 29l-31 -357zM446 653l347 17l-23 653l-18 -4zM854 1614l-104 149 l-177 181q14 53 65.5 74.5t119.5 6.5l166 -383q-11 -34 -70 -28z" />
<glyph unicode="&#xc1;" horiz-adv-x="1161" d="M920 694l208 43q25 -16 22 -58t-36 -87l-186 -10l43 -582q-125 -14 -176 51l-2 522l-275 -14l-123 -18l-248 -541q-133 -12 -170 49l250 467l-161 -24q-53 70 14 143l215 10l135 252l234 557q113 72 254 29l-31 -357zM446 653l347 17l-23 653l-18 -4zM1253 1925 l-325 -319q-61 0 -68 34l127 191l62 160q66 18 134 -6.5t70 -59.5z" />
<glyph unicode="&#xc2;" horiz-adv-x="1161" d="M920 694l208 43q25 -16 22 -58t-36 -87l-186 -10l43 -582q-125 -14 -176 51l-2 522l-275 -14l-123 -18l-248 -541q-133 -12 -170 49l250 467l-161 -24q-53 70 14 143l215 10l135 252l234 557q113 72 254 29l-31 -357zM446 653l347 17l-23 653l-18 -4zM932 1849l-258 -227 q-57 8 -62 53l289 267q90 23 143 -17l136 -283q-33 -29 -78 -30.5t-66 16.5z" />
<glyph unicode="&#xc3;" horiz-adv-x="1161" d="M1020 1718l121 142q43 8 69.5 -10.5t16.5 -49.5q-59 -102 -228 -188q-104 35 -160.5 69.5t-88.5 87.5l-11 -4l-106 -145q-37 -2 -63.5 16.5t-24.5 42.5q31 43 55.5 72t76.5 66.5t114 56.5q166 -68 221 -154zM920 694l208 43q25 -16 22 -58t-36 -87l-186 -10l43 -582 q-125 -14 -176 51l-2 522l-275 -14l-123 -18l-248 -541q-133 -12 -170 49l250 467l-161 -24q-53 70 14 143l215 10l135 252l234 557q113 72 254 29l-31 -357zM446 653l347 17l-23 653l-18 -4z" />
<glyph unicode="&#xc4;" horiz-adv-x="1161" d="M920 694l208 43q25 -16 22 -58t-36 -87l-186 -10l43 -582q-125 -14 -176 51l-2 522l-275 -14l-123 -18l-248 -541q-133 -12 -170 49l250 467l-161 -24q-53 70 14 143l215 10l135 252l234 557q113 72 254 29l-31 -357zM446 653l347 17l-23 653l-18 -4zM764 1689.5 q-29 -28.5 -69 -28.5t-67.5 28.5t-27.5 68.5t27.5 67.5t68.5 27.5t69 -27.5t28 -67.5t-29 -68.5zM1095.5 1689.5q-28.5 -28.5 -68.5 -28.5t-67.5 28.5t-27.5 68.5t27.5 67.5t68.5 27.5t68.5 -27.5t27.5 -67.5t-28.5 -68.5z" />
<glyph unicode="&#xc5;" horiz-adv-x="1161" d="M881.5 1954.5q70.5 62.5 153.5 62.5t119 -59.5t6 -143t-102.5 -146t-154.5 -62.5t-117.5 59t-7.5 147q33 80 103.5 142.5zM999 1956q-12 0 -57 -23q-33 -45 -57 -121q-47 -145 51 -145q29 0 65 25q37 53 52 120q42 144 -54 144zM920 694l208 43q25 -16 22 -58t-36 -87 l-186 -10l43 -582q-125 -14 -176 51l-2 522l-275 -14l-123 -18l-248 -541q-133 -12 -170 49l250 467l-161 -24q-53 70 14 143l215 10l135 252l234 557q113 72 254 29l-31 -357zM446 653l347 17l-23 653l-18 -4z" />
<glyph unicode="&#xc6;" horiz-adv-x="1550" d="M758 1319l-283 -584l279 6l20 582zM1264 1497q158 0 260 -6q43 -31 21.5 -108.5t-85.5 -122.5l-112 100q-141 23 -351 -2l-61 -176l-31 -426q256 12 443 41q41 -72 -19 -170q-141 12 -219 12t-225 -14l-62 -371v-125q117 2 275.5 34t261.5 68q49 -18 52 -75.5t-21 -96.5 q-305 -59 -562 -59q-68 0 -88 11.5t-27 14.5t-19.5 15t-16.5 17t-19.5 21.5t-19.5 22.5l111 531l-328 -12l-303 -621q-135 -12 -168 49l315 561l-180 -12q-49 70 18 143l234 -2l88 138l244 567q215 53 594 53z" />
<glyph unicode="&#xc7;" horiz-adv-x="1187" d="M411 1110q-173 -219 -173 -443.5t88 -346t280 -193.5q106 45 212 118.5t161 141.5q47 12 74.5 -18.5t23.5 -67.5q-51 -66 -156.5 -139.5t-224.5 -130.5l-102 -197q66 61 138.5 61.5t110.5 -52t21.5 -140.5t-92.5 -141.5t-176 -53.5t-186 38t-140 104q4 72 45 76 q111 -111 235 -111t148 98q10 49 -16 88q-72 -8 -133 -61q-74 0 -92 55l104 223q-250 82 -360.5 240t-114.5 393q0 197 135 445q293 367 662 428q119 -45 191.5 -156t80.5 -227q-100 -78 -197 -43q-18 195 -106 293l-31 -2q-237 -60 -410 -279z" />
<glyph unicode="&#xc8;" horiz-adv-x="1017" d="M616 2025l166 -383q-10 -35 -69 -28l-105 149l-176 181q14 53 65 74t119 7zM422 797q418 35 442 39q18 -27 12 -76t-34 -94q-295 20 -439 14l-143 -543q256 33 569 94q43 -20 41 -71t-32 -101l-596 -59q-156 43 -158 135q174 457 248 873l39 329q-29 18 -95 23 q-37 68 0 104q332 33 801 27q41 -31 22.5 -108.5t-73.5 -122.5l-129 83q-184 29 -356 11l-60 -224z" />
<glyph unicode="&#xc9;" horiz-adv-x="1017" d="M422 797q418 35 442 39q18 -27 12 -76t-34 -94q-295 20 -439 14l-143 -543q256 33 569 94q43 -20 41 -71t-32 -101l-596 -59q-156 43 -158 135q174 457 248 873l39 329q-29 18 -95 23q-37 68 0 104q332 33 801 27q41 -31 22.5 -108.5t-73.5 -122.5l-129 83 q-184 29 -356 11l-60 -224zM907 1991q66 18 134.5 -6.5t70.5 -59.5l-326 -319q-61 0 -67 34l127 191z" />
<glyph unicode="&#xca;" horiz-adv-x="1017" d="M422 797q418 35 442 39q18 -27 12 -76t-34 -94q-295 20 -439 14l-143 -543q256 33 569 94q43 -20 41 -71t-32 -101l-596 -59q-156 43 -158 135q174 457 248 873l39 329q-29 18 -95 23q-37 68 0 104q332 33 801 27q41 -31 22.5 -108.5t-73.5 -122.5l-129 83 q-184 29 -356 11l-60 -224zM471 1675l289 267q90 23 143 -17l135 -283q-33 -29 -78 -30.5t-65 16.5l-104 221l-259 -227q-57 8 -61 53z" />
<glyph unicode="&#xcb;" horiz-adv-x="1017" d="M555 1853q41 0 68.5 -27.5t27.5 -67.5t-28.5 -68.5t-68.5 -28.5t-67.5 28.5t-27.5 68.5t27.5 67.5t68.5 27.5zM887 1853q41 0 68.5 -27.5t27.5 -67.5t-28.5 -68.5t-68.5 -28.5t-67.5 28.5t-27.5 68.5t27.5 67.5t68.5 27.5zM422 797q418 35 442 39q18 -27 12 -76t-34 -94 q-295 20 -439 14l-143 -543q256 33 569 94q43 -20 41 -71t-32 -101l-596 -59q-156 43 -158 135q174 457 248 873l39 329q-29 18 -95 23q-37 68 0 104q332 33 801 27q41 -31 22.5 -108.5t-73.5 -122.5l-129 83q-184 29 -356 11l-60 -224z" />
<glyph unicode="&#xcc;" horiz-adv-x="460" d="M279 2025l165 -383q-10 -35 -69 -28l-105 149l-176 181q14 53 65.5 74t119.5 7zM281 1454q84 51 129 51t86 -18l-154 -666q-10 -104 -47 -383.5t-53 -437.5q-150 -14 -195 63q150 614 203 955z" />
<glyph unicode="&#xcd;" horiz-adv-x="460" d="M569 1991q66 18 134.5 -6.5t70.5 -59.5l-325 -319q-61 0 -68 34l127 191zM281 1454q84 51 129 51t86 -18l-154 -666q-10 -104 -47 -383.5t-53 -437.5q-150 -14 -195 63q150 614 203 955z" />
<glyph unicode="&#xce;" horiz-adv-x="460" d="M133 1675l289 267q90 23 143 -17l135 -283q-33 -29 -77.5 -30.5t-65.5 16.5l-104 221l-258 -227q-58 8 -62 53zM281 1454q84 51 129 51t86 -18l-154 -666q-10 -104 -47 -383.5t-53 -437.5q-150 -14 -195 63q150 614 203 955z" />
<glyph unicode="&#xcf;" horiz-adv-x="460" d="M281 1454q84 51 129 51t86 -18l-154 -666q-10 -104 -47 -383.5t-53 -437.5q-150 -14 -195 63q150 614 203 955zM217 1853q41 0 68.5 -27.5t27.5 -67.5t-28.5 -68.5t-68.5 -28.5t-67.5 28.5t-27.5 68.5t27.5 67.5t68.5 27.5zM549 1853q41 0 68.5 -27.5t27.5 -67.5 t-28.5 -68.5t-68.5 -28.5t-67.5 28.5t-27.5 68.5t27.5 67.5t68.5 27.5z" />
<glyph unicode="&#xd0;" horiz-adv-x="1265" d="M584 1505q301 0 473 -184t178 -475q4 -240 -110.5 -437.5t-344.5 -324.5q-244 -82 -506 -84q-137 37 -172 127q111 365 164 594l-186 -14q-41 27 -45 66.5t26 55.5l224 -16q27 125 41 209l4 334l-74 -17q-43 29 -50 70t15 66q146 30 363 30zM387 731v-4l-80 -582 q252 0 424 43q180 129 260 283t76 352q-6 252 -148.5 406.5t-392.5 134.5q-20 -94 -62 -281.5t-58 -267.5l358 35q33 -14 42 -49t-24 -66l-393 -4h-2z" />
<glyph unicode="&#xd1;" horiz-adv-x="1282" d="M1135 1454q84 51 130 51t85 -18l-160 -666q-10 -94 -50 -373.5t-59 -447.5q-127 -10 -192 49q-252 485 -481 1202l-93 -430q-10 -102 -49 -381.5t-57 -439.5q-147 -14 -197 63q106 414 143.5 589t69.5 366l35 436q88 51 131 51t84 -18q145 -516 346 -1006l127 -223 q12 57 37 167t39 177q43 207 76 416zM705 1765l-107 -145q-37 -2 -63.5 16.5t-24.5 42.5q31 43 55.5 72t76.5 66.5t114 56.5q166 -68 221 -154l8 -2l121 142q43 8 69.5 -10.5t16.5 -49.5q-59 -102 -227 -188q-104 35 -160.5 69.5t-89.5 87.5z" />
<glyph unicode="&#xd2;" horiz-adv-x="1243" d="M733 2030l166 -383q-10 -35 -70 -29l-104 149l-176 181q14 53 65 74.5t119 7.5zM1055 735q-27 227 -85.5 390t-172.5 276q-240 -113 -385.5 -315.5t-145.5 -442.5q2 -168 77 -318.5t214 -218.5q199 115 311.5 264.5t186.5 364.5zM809 1505q90 0 181 -114.5t149.5 -292.5 t60.5 -355q2 -129 -108.5 -307t-264 -307t-266 -129t-221.5 102.5t-169 242.5t-62 263q-2 217 103 428t270 340t327 129z" />
<glyph unicode="&#xd3;" horiz-adv-x="1243" d="M1055 735q-27 227 -85.5 390t-172.5 276q-240 -113 -385.5 -315.5t-145.5 -442.5q2 -168 77 -318.5t214 -218.5q199 115 311.5 264.5t186.5 364.5zM809 1505q90 0 181 -114.5t149.5 -292.5t60.5 -355q2 -129 -108.5 -307t-264 -307t-266 -129t-221.5 102.5t-169 242.5 t-62 263q-2 217 103 428t270 340t327 129zM1024 1995q66 18 134.5 -6.5t70.5 -59.5l-326 -319q-61 0 -67 35l127 190z" />
<glyph unicode="&#xd4;" horiz-adv-x="1243" d="M1055 735q-27 227 -85.5 390t-172.5 276q-240 -113 -385.5 -315.5t-145.5 -442.5q2 -168 77 -318.5t214 -218.5q199 115 311.5 264.5t186.5 364.5zM809 1505q90 0 181 -114.5t149.5 -292.5t60.5 -355q2 -129 -108.5 -307t-264 -307t-266 -129t-221.5 102.5t-169 242.5 t-62 263q-2 217 103 428t270 340t327 129zM588 1679l289 267q90 23 143 -17l135 -282q-33 -29 -78 -31t-65 16l-105 221l-258 -227q-57 8 -61 53z" />
<glyph unicode="&#xd5;" horiz-adv-x="1243" d="M766 1878q166 -68 221 -154l8 -2l121 142q43 8 69.5 -10.5t16.5 -49.5q-59 -102 -227 -188q-104 35 -160.5 69.5t-89.5 88.5l-10 -5l-107 -145q-37 -2 -63.5 16.5t-24.5 42.5q31 43 55.5 72t77 67t113.5 56zM1055 735q-27 227 -85.5 390t-172.5 276 q-240 -113 -385.5 -315.5t-145.5 -442.5q2 -168 77 -318.5t214 -218.5q199 115 311.5 264.5t186.5 364.5zM809 1505q90 0 181 -114.5t149.5 -292.5t60.5 -355q2 -129 -108.5 -307t-264 -307t-266 -129t-221.5 102.5t-169 242.5t-62 263q-2 217 103 428t270 340t327 129z" />
<glyph unicode="&#xd6;" horiz-adv-x="1243" d="M672 1858q41 0 68.5 -28t27.5 -68t-28.5 -68.5t-68.5 -28.5t-68 28.5t-28 68.5t28 68t69 28zM1003.5 1858q40.5 0 68.5 -28t28 -68t-29 -68.5t-68.5 -28.5t-67.5 28.5t-28 68.5t28 68t68.5 28zM809 1505q90 0 181 -114.5t149.5 -292.5t60.5 -355q2 -129 -108.5 -307 t-264 -307t-266 -129t-221.5 102.5t-169 242.5t-62 263q-2 217 103 428t270 340t327 129zM1055 735q-27 227 -85.5 390t-172.5 276q-240 -113 -385.5 -315.5t-145.5 -442.5q2 -168 77 -318.5t214 -218.5q199 115 311.5 264.5t186.5 364.5z" />
<glyph unicode="&#xd7;" horiz-adv-x="1327" d="M688 733l410 463q47 0 76.5 -23.5t21.5 -72.5l-455 -426l338 -350q-18 -55 -52 -77t-69 -5l-292 362l-398 -371q-94 14 -98 95l442 344l-338 418q-4 51 27 77.5t80 26.5z" />
<glyph unicode="&#xd8;" horiz-adv-x="1443" d="M635 0q-176 0 -326 225l-143 -225q-154 33 -154 147l230 203q-59 137 -64 258q-2 217 104.5 428t271.5 340t327 129q76 0 151.5 -81t136.5 -216l181 293q72 -14 119 -51t49 -88l-304 -275q53 -170 58 -344q0 -129 -110.5 -307t-264 -307t-262.5 -129zM336 643 q0 -96 26 -184l695 620q-66 199 -191 322q-240 -113 -385 -316.5t-145 -441.5zM1085 973l-686 -619q82 -176 230 -248q197 113 309.5 262.5t187.5 366.5q-16 140 -41 238z" />
<glyph unicode="&#xd9;" horiz-adv-x="1167" d="M618 2025l166 -383q-10 -35 -69 -28l-105 149l-176 181q14 53 65 74t119 7zM508 0q-178 0 -285.5 110.5t-128.5 229.5q8 51 40 230.5t41 238.5t30 190q31 195 53 455q84 51 130 51t85 -18q-215 -719 -215 -1131q0 -82 63.5 -150.5t165 -89t226.5 39.5 q127 125 188.5 321.5t118.5 540.5v436q84 51 130 51t85 -18q-27 -117 -69 -351.5t-71.5 -380t-58 -250t-76 -208.5t-104.5 -164q-131 -133 -348 -133z" />
<glyph unicode="&#xda;" horiz-adv-x="1167" d="M508 0q-178 0 -285.5 110.5t-128.5 229.5q8 51 40 230.5t41 238.5t30 190q31 195 53 455q84 51 130 51t85 -18q-215 -719 -215 -1131q0 -82 63.5 -150.5t165 -89t226.5 39.5q127 125 188.5 321.5t118.5 540.5v436q84 51 130 51t85 -18q-27 -117 -69 -351.5t-71.5 -380 t-58 -250t-76 -208.5t-104.5 -164q-131 -133 -348 -133zM909 1991q66 18 134.5 -6.5t70.5 -59.5l-326 -319q-61 0 -67 34l127 191z" />
<glyph unicode="&#xdb;" horiz-adv-x="1167" d="M508 0q-178 0 -285.5 110.5t-128.5 229.5q8 51 40 230.5t41 238.5t30 190q31 195 53 455q84 51 130 51t85 -18q-215 -719 -215 -1131q0 -82 63.5 -150.5t165 -89t226.5 39.5q127 125 188.5 321.5t118.5 540.5v436q84 51 130 51t85 -18q-27 -117 -69 -351.5t-71.5 -380 t-58 -250t-76 -208.5t-104.5 -164q-131 -133 -348 -133zM473 1675l289 267q90 23 143 -17l135 -283q-33 -29 -77.5 -30.5t-65.5 16.5l-104 221l-258 -227q-58 8 -62 53z" />
<glyph unicode="&#xdc;" horiz-adv-x="1167" d="M557 1853q41 0 68.5 -27.5t27.5 -67.5t-28.5 -68.5t-68.5 -28.5t-67.5 28.5t-27.5 68.5t27.5 67.5t68.5 27.5zM889 1853q41 0 68.5 -27.5t27.5 -67.5t-28.5 -68.5t-68.5 -28.5t-67.5 28.5t-27.5 68.5t27.5 67.5t68.5 27.5zM1020 1454q84 51 130 51t85 -18 q-27 -117 -69 -351.5t-71.5 -380t-58 -250t-76 -208.5t-104.5 -164q-131 -133 -348 -133q-178 0 -285.5 110.5t-128.5 229.5q8 51 40 230.5t41 238.5t30 190q31 195 53 455q84 51 130 51t85 -18q-215 -719 -215 -1131q0 -82 63.5 -150.5t165 -89t226.5 39.5 q127 125 188.5 321.5t118.5 540.5v436z" />
<glyph unicode="&#xdd;" horiz-adv-x="1161" d="M942 1989q66 18 134.5 -6.5t70.5 -59.5l-326 -319q-61 0 -67 34l127 191zM238 1460q35 31 87 42t89 -11l73 -348l177 -451h6l43 80l336 453l-70 243q102 39 154.5 36t103.5 -42q0 -164 -92 -278q-225 -293 -402 -514q-66 -205 -90 -670q-31 -14 -91 -4t-103 43 q78 219 123 582q-84 239 -344 839z" />
<glyph unicode="&#xde;" horiz-adv-x="1089" d="M592 1647l-113 -461q145 63 293 53q154 -43 243 -144.5t92 -224t-59.5 -213t-211.5 -196.5q-279 -55 -457 6q-31 -266 -57 -461q-39 -14 -101.5 -1t-93.5 46q63 227 129 562t100 493l23 506q72 43 116 51.5t97 -16.5zM776 569q94 82 138 145.5t41 151.5t-66.5 161 t-169.5 103q-104 12 -258 -59q-37 -231 -72 -528q172 -25 387 26z" />
<glyph unicode="&#xdf;" horiz-adv-x="1157" d="M1073 487q0 -172 -139 -313t-387 -174q-178 6 -240 102q18 66 73.5 115t119.5 47l82 -145q154 25 246 137.5t92 230.5q0 248 -230 306l-149 -54q-47 55 -56 109q-14 94 78 149l117 -34q209 88 209 305q0 121 -102.5 199.5t-278.5 56.5l-109 -181q-123 -897 -194 -1343 q-133 -12 -174 49q197 788 229 1258q35 129 96.5 212t167.5 128q227 12 366.5 -101.5t141.5 -271.5q-4 -272 -291 -383l-2 -14q170 -49 252 -154t82 -236z" />
<glyph unicode="&#xe0;" horiz-adv-x="1026" d="M657 334l-268 -307q-158 2 -242 92t-86 250.5t74 336t203 288t258 112.5q121 -53 203 -199l2 6q6 135 33 205q145 0 194 -65l-154 -301q-37 -238 -77 -752q-139 -16 -209 59l92 256zM217 371q0 -156 115 -224q186 184 360 349l70 301q-33 70 -70 112.5t-104 87.5 q-174 -72 -272.5 -240.5t-98.5 -385.5zM700 1200l-104 150l-176 180q14 53 65.5 74.5t118.5 7.5l166 -383q-11 -35 -70 -29z" />
<glyph unicode="&#xe1;" horiz-adv-x="1026" d="M657 334l-268 -307q-158 2 -242 92t-86 250.5t74 336t203 288t258 112.5q121 -53 203 -199l2 6q6 135 33 205q145 0 194 -65l-154 -301q-37 -238 -77 -752q-139 -16 -209 59l92 256zM217 371q0 -156 115 -224q186 184 360 349l70 301q-33 70 -70 112.5t-104 87.5 q-174 -72 -272.5 -240.5t-98.5 -385.5zM1100 1511l-326 -319q-61 0 -67 35l127 190l61 160q66 18 134.5 -6.5t70.5 -59.5z" />
<glyph unicode="&#xe2;" horiz-adv-x="1026" d="M657 334l-268 -307q-158 2 -242 92t-86 250.5t74 336t203 288t258 112.5q121 -53 203 -199l2 6q6 135 33 205q145 0 194 -65l-154 -301q-37 -238 -77 -752q-139 -16 -209 59l92 256zM217 371q0 -156 115 -224q186 184 360 349l70 301q-33 70 -70 112.5t-104 87.5 q-174 -72 -272.5 -240.5t-98.5 -385.5zM778 1436l-258 -228q-57 8 -61 54l289 266q90 23 143 -17l135 -282q-33 -29 -78 -31t-65 16z" />
<glyph unicode="&#xe3;" horiz-adv-x="1026" d="M866 1305l121 141q43 8 69.5 -10.5t16.5 -49.5q-59 -102 -227 -188q-104 35 -160.5 70t-89.5 88l-10 -4l-107 -146q-37 -2 -63.5 16.5t-24.5 43.5q31 43 55.5 71.5t76.5 66.5t114 56q166 -68 221 -153zM657 334l-268 -307q-158 2 -242 92t-86 250.5t74 336t203 288 t258 112.5q121 -53 203 -199l2 6q6 135 33 205q145 0 194 -65l-154 -301q-37 -238 -77 -752q-139 -16 -209 59l92 256zM217 371q0 -156 115 -224q186 184 360 349l70 301q-33 70 -70 112.5t-104 87.5q-174 -72 -272.5 -240.5t-98.5 -385.5z" />
<glyph unicode="&#xe4;" horiz-adv-x="1026" d="M657 334l-268 -307q-158 2 -242 92t-86 250.5t74 336t203 288t258 112.5q121 -53 203 -199l2 6q6 135 33 205q145 0 194 -65l-154 -301q-37 -238 -77 -752q-139 -16 -209 59l92 256zM217 371q0 -156 115 -224q186 184 360 349l70 301q-33 70 -70 112.5t-104 87.5 q-174 -72 -272.5 -240.5t-98.5 -385.5zM610.5 1276q-28.5 -29 -68.5 -29t-68 29t-28 68.5t28 67.5t69 28t68.5 -28t27.5 -67.5t-28.5 -68.5zM942 1276q-29 -29 -68.5 -29t-67.5 29t-28 68.5t28 67.5t68.5 28t68.5 -28t28 -67.5t-29 -68.5z" />
<glyph unicode="&#xe5;" horiz-adv-x="1026" d="M657 334l-268 -307q-158 2 -242 92t-86 250.5t74 336t203 288t258 112.5q121 -53 203 -199l2 6q6 135 33 205q145 0 194 -65l-154 -301q-37 -238 -77 -752q-139 -16 -209 59l92 256zM217 371q0 -156 115 -224q186 184 360 349l70 301q-33 70 -70 112.5t-104 87.5 q-174 -72 -272.5 -240.5t-98.5 -385.5zM904 1254.5q-73 -62.5 -154.5 -62.5t-117.5 59.5t-7 147.5q33 80 103.5 142.5t153.5 62.5t118.5 -59.5t6 -143.5t-102.5 -146.5zM782 1253q29 0 66 25q37 53 51 121q43 143 -53 143q-12 0 -58 -22q-33 -45 -57 -121q-47 -146 51 -146z " />
<glyph unicode="&#xe6;" horiz-adv-x="1613" d="M217 371q0 -156 115 -224q186 184 360 349q6 119 70 301q-33 70 -70 112.5t-104 87.5q-174 -72 -272.5 -240.5t-98.5 -385.5zM1208 1012l-28 -6q-141 -70 -241.5 -204t-102.5 -270q293 72 520 181q-2 113 -31 180.5t-117 118.5zM657 334l-268 -307q-158 2 -242 92 t-86 250.5t74 336t203 288t258 112.5q119 -49 203 -197q8 141 35 209q119 10 153 -45l-63 -133q51 57 133 110.5t155 71.5q166 -47 236 -171t57 -294q-336 -160 -667 -227q29 -231 249 -311q260 98 347 190q41 0 53 -18.5t8 -67.5q-57 -63 -191.5 -135t-234.5 -88 q-205 59 -289 217l-32 -217q-61 -6 -92 7t-68 52l92 256z" />
<glyph unicode="&#xe7;" horiz-adv-x="989" d="M473 -166q66 61 138.5 61.5t110.5 -52t21.5 -140.5t-92.5 -141.5t-176 -53.5t-186 38t-139 104q4 72 45 76q111 -111 234.5 -111t148.5 98q10 49 -17 88q-72 -8 -133 -61q-74 0 -92 55l98 209q-193 55 -279.5 191.5t-76.5 310.5q6 102 39 194q86 141 218 256t292 150 q115 -18 192.5 -110.5t85.5 -200.5q-39 -33 -90 -41.5t-84 12.5q-4 88 -29.5 136t-85.5 95l-36 -4q-143 -70 -240.5 -204t-101.5 -248q-10 -164 40 -264.5t195 -159.5q96 33 193.5 85t146.5 103q43 2 55.5 -19.5t8.5 -64.5q-90 -98 -297 -184z" />
<glyph unicode="&#xe8;" horiz-adv-x="985" d="M563 1122q180 -47 254 -171t60 -294q-344 -164 -656 -229q12 -115 69.5 -189.5t180.5 -119.5q221 80 326 178q41 0 53 -18.5t8 -67.5q-41 -55 -170 -123t-223 -88q-203 45 -303.5 181t-95.5 327q2 82 38 203q176 296 459 411zM215 547v-17q258 66 520 183 q0 117 -31.5 184.5t-125.5 114.5l-29 -6q-135 -66 -232.5 -205t-101.5 -254zM578 1200l-105 150l-176 180q14 53 65.5 74.5t118.5 7.5l166 -383q-10 -35 -69 -29z" />
<glyph unicode="&#xe9;" horiz-adv-x="985" d="M563 1122q180 -47 254 -171t60 -294q-344 -164 -656 -229q12 -115 69.5 -189.5t180.5 -119.5q221 80 326 178q41 0 53 -18.5t8 -67.5q-41 -55 -170 -123t-223 -88q-203 45 -303.5 181t-95.5 327q2 82 38 203q176 296 459 411zM215 547v-17q258 66 520 183 q0 117 -31.5 184.5t-125.5 114.5l-29 -6q-135 -66 -232.5 -205t-101.5 -254zM977 1511l-326 -319q-61 0 -67 35l127 190l61 160q66 18 134.5 -6.5t70.5 -59.5z" />
<glyph unicode="&#xea;" horiz-adv-x="985" d="M563 1122q180 -47 254 -171t60 -294q-344 -164 -656 -229q12 -115 69.5 -189.5t180.5 -119.5q221 80 326 178q41 0 53 -18.5t8 -67.5q-41 -55 -170 -123t-223 -88q-203 45 -303.5 181t-95.5 327q2 82 38 203q176 296 459 411zM215 547v-17q258 66 520 183 q0 117 -31.5 184.5t-125.5 114.5l-29 -6q-135 -66 -232.5 -205t-101.5 -254zM655 1436l-258 -228q-57 8 -61 54l289 266q90 23 143 -17l135 -282q-33 -29 -78 -31t-65 16z" />
<glyph unicode="&#xeb;" horiz-adv-x="985" d="M563 1122q180 -47 254 -171t60 -294q-344 -164 -656 -229q12 -115 69.5 -189.5t180.5 -119.5q221 80 326 178q41 0 53 -18.5t8 -67.5q-41 -55 -170 -123t-223 -88q-203 45 -303.5 181t-95.5 327q2 82 38 203q176 296 459 411zM215 547v-17q258 66 520 183 q0 117 -31.5 184.5t-125.5 114.5l-29 -6q-135 -66 -232.5 -205t-101.5 -254zM487.5 1276q-28.5 -29 -68.5 -29t-67.5 29t-27.5 68.5t27.5 67.5t68.5 28t68.5 -28t27.5 -67.5t-28.5 -68.5zM819.5 1276q-28.5 -29 -68.5 -29t-68 29t-28 68.5t28 67.5t69 28t68.5 -28 t27.5 -67.5t-28.5 -68.5z" />
<glyph unicode="&#xec;" horiz-adv-x="464" d="M252 1612l166 -383q-10 -35 -70 -29l-104 150l-176 180q14 53 65 74.5t119 7.5zM231 754l-6 319q92 39 135 33t66 -33l-76 -266q-35 -297 -82 -807q-150 -14 -194 63q67 232 157 691z" />
<glyph unicode="&#xed;" horiz-adv-x="464" d="M231 754l-6 319q92 39 135 33t66 -33l-76 -266q-35 -297 -82 -807q-150 -14 -194 63q67 232 157 691zM543 1577q66 18 134 -6.5t71 -59.5l-326 -319q-61 0 -68 35l127 190z" />
<glyph unicode="&#xee;" horiz-adv-x="464" d="M231 754l-6 319q92 39 135 33t66 -33l-76 -266q-35 -297 -82 -807q-150 -14 -194 63q67 232 157 691zM106 1262l289 266q90 23 144 -17l135 -282q-33 -29 -78 -31t-66 16l-104 222l-258 -228q-58 9 -62 54z" />
<glyph unicode="&#xef;" horiz-adv-x="464" d="M190.5 1440q40.5 0 68.5 -28t28 -67.5t-29 -68.5t-68.5 -29t-67.5 29t-28 68.5t28 67.5t68.5 28zM522 1440q41 0 68.5 -28t27.5 -67.5t-28.5 -68.5t-68.5 -29t-67.5 29t-27.5 68.5t27.5 67.5t68.5 28zM231 754l-6 319q92 39 135 33t66 -33l-76 -266q-35 -297 -82 -807 q-150 -14 -194 63q67 232 157 691z" />
<glyph unicode="&#xf0;" horiz-adv-x="933" d="M752 1352q96 -248 96 -521.5t-102.5 -500t-321.5 -330.5q-174 35 -266 155.5t-92 307t121.5 370t342.5 265.5q137 -92 203 -226q-8 233 -84 449l-260 -84q-47 16 -61.5 54t12.5 61l262 45l-147 178q18 43 44.5 56.5t82.5 8.5q76 -84 133 -202l207 86q35 -4 53 -37t-4 -72 zM211 444q0 -244 203 -331q281 197 315 604q-51 98 -97 154.5t-126 99.5q-150 -86 -222.5 -224.5t-72.5 -302.5z" />
<glyph unicode="&#xf1;" horiz-adv-x="1024" d="M301 795l18 -13q172 233 390 324q111 -10 177 -86t83 -166l-74 -182q-39 -340 -57 -672q-125 -14 -181 51q43 283 140 795q-12 84 -86 115q-197 -86 -389 -328q-45 -291 -107 -633q-131 -12 -176 49q115 381 180 713l-43 293q86 80 203 63q10 -49 -23 -223zM471 1352 l-106 -146q-37 -2 -64 16.5t-25 43.5q31 43 55.5 71.5t77 66.5t113.5 56q166 -68 221 -153l9 -2l120 141q43 8 70 -10.5t16 -49.5q-59 -102 -227 -188q-104 35 -160.5 70t-89.5 88z" />
<glyph unicode="&#xf2;" horiz-adv-x="991" d="M57 471q0 133 86 291t210 264.5t226.5 106.5t221.5 -190.5t122 -324t-86 -277.5t-217 -242.5t-230.5 -98.5t-217.5 143.5t-115 327.5zM563 1018q-164 -92 -248 -216t-120 -292q8 -137 53 -233.5t139 -176.5q182 78 277.5 197t130.5 299q-18 109 -80 225.5t-152 196.5z M489 1612l166 -383q-10 -35 -69 -29l-105 150l-176 180q14 53 65 74.5t119 7.5z" />
<glyph unicode="&#xf3;" horiz-adv-x="991" d="M719 1417l61 160q66 18 134.5 -6.5t70.5 -59.5l-326 -319q-61 0 -67 35zM57 471q0 133 86 291t210 264.5t226.5 106.5t221.5 -190.5t122 -324t-86 -277.5t-217 -242.5t-230.5 -98.5t-217.5 143.5t-115 327.5zM563 1018q-164 -92 -248 -216t-120 -292q8 -137 53 -233.5 t139 -176.5q182 78 277.5 197t130.5 299q-18 109 -80 225.5t-152 196.5z" />
<glyph unicode="&#xf4;" horiz-adv-x="991" d="M344 1262l289 266q90 23 143 -17l135 -282q-33 -29 -78 -31t-65 16l-104 222l-258 -228q-58 9 -62 54zM57 471q0 133 86 291t210 264.5t226.5 106.5t221.5 -190.5t122 -324t-86 -277.5t-217 -242.5t-230.5 -98.5t-217.5 143.5t-115 327.5zM563 1018q-164 -92 -248 -216 t-120 -292q8 -137 53 -233.5t139 -176.5q182 78 277.5 197t130.5 299q-18 109 -80 225.5t-152 196.5z" />
<glyph unicode="&#xf5;" horiz-adv-x="991" d="M57 471q0 133 86 291t210 264.5t226.5 106.5t221.5 -190.5t122 -324t-86 -277.5t-217 -242.5t-230.5 -98.5t-217.5 143.5t-115 327.5zM563 1018q-164 -92 -248 -216t-120 -292q8 -137 53 -233.5t139 -176.5q182 78 277.5 197t130.5 299q-18 109 -80 225.5t-152 196.5z M471 1352l-106 -146q-37 -2 -64 16.5t-25 43.5q31 43 55.5 71.5t77 66.5t113.5 56q166 -68 221 -153l9 -2l120 141q43 8 70 -10.5t16 -49.5q-59 -102 -227 -188q-104 35 -160.5 70t-89.5 88z" />
<glyph unicode="&#xf6;" horiz-adv-x="991" d="M428 1440q41 0 68.5 -28t27.5 -67.5t-28.5 -68.5t-68.5 -29t-67.5 29t-27.5 68.5t27.5 67.5t68.5 28zM760 1440q41 0 68.5 -28t27.5 -67.5t-28.5 -68.5t-68.5 -29t-67.5 29t-27.5 68.5t27.5 67.5t68.5 28zM57 471q0 133 86 291t210 264.5t226.5 106.5t221.5 -190.5 t122 -324t-86 -277.5t-217 -242.5t-230.5 -98.5t-217.5 143.5t-115 327.5zM563 1018q-164 -92 -248 -216t-120 -292q8 -137 53 -233.5t139 -176.5q182 78 277.5 197t130.5 299q-18 109 -80 225.5t-152 196.5z" />
<glyph unicode="&#xf7;" horiz-adv-x="1392" d="M832.5 918.5q-54.5 -33.5 -95.5 -33.5t-67.5 24.5t-32.5 61.5q4 55 51 108.5t98 59.5q37 0 78 -46t51 -96q-28 -45 -82.5 -78.5zM722 232.5q-54 -33.5 -95 -33.5t-68 24.5t-33 61.5q4 55 51.5 108t98.5 60q37 0 79 -45.5t50 -96.5q-29 -45 -83 -78.5zM1335 752 q25 -14 16.5 -56.5t-46.5 -85.5l-1205 -14q-47 47 21 133l600 -8z" />
<glyph unicode="&#xf8;" horiz-adv-x="1144" d="M489 0q-55 0 -123.5 50t-121.5 132l-117 -182q-61 10 -92 40t-43 91l196 164q-31 92 -30 176q0 133 86 291t210 264.5t226 106.5t223 -195l129 186q113 -16 123 -123l-197 -163q61 -131 64.5 -242t-86.5 -255t-218.5 -242.5t-228.5 -98.5zM309 395l506 424 q-59 113 -151 199q-166 -94 -250 -217t-119 -291q4 -66 14 -115zM850 745l-516 -436q45 -117 153 -209q180 78 276.5 197t129.5 299q-8 61 -43 149z" />
<glyph unicode="&#xf9;" horiz-adv-x="1026" d="M694 483v4q68 365 137 631q145 0 195 -65l-154 -301q-45 -293 -71 -752q-125 -14 -183 51l101 268l-25 21q-123 -160 -303 -340q-281 39 -334 193l105 354q31 348 26 571q63 8 102.5 -5t88.5 -58q-33 -291 -154 -828q27 -63 144 -98q204 184 325 354zM594 1200l-105 150 l-176 180q14 53 65.5 74.5t119.5 7.5l166 -383q-11 -35 -70 -29z" />
<glyph unicode="&#xfa;" horiz-adv-x="1026" d="M694 483v4q68 365 137 631q145 0 195 -65l-154 -301q-45 -293 -71 -752q-125 -14 -183 51l101 268l-25 21q-123 -160 -303 -340q-281 39 -334 193l105 354q31 348 26 571q63 8 102.5 -5t88.5 -58q-33 -291 -154 -828q27 -63 144 -98q204 184 325 354zM993 1511l-325 -319 q-61 0 -68 35l127 190l61 160q66 18 134.5 -6.5t70.5 -59.5z" />
<glyph unicode="&#xfb;" horiz-adv-x="1026" d="M694 483v4q68 365 137 631q145 0 195 -65l-154 -301q-45 -293 -71 -752q-125 -14 -183 51l101 268l-25 21q-123 -160 -303 -340q-281 39 -334 193l105 354q31 348 26 571q63 8 102.5 -5t88.5 -58q-33 -291 -154 -828q27 -63 144 -98q204 184 325 354zM672 1436l-258 -228 q-57 8 -62 54l289 266q90 23 143 -17l136 -282q-33 -29 -78 -31t-66 16z" />
<glyph unicode="&#xfc;" horiz-adv-x="1026" d="M694 483v4q68 365 137 631q145 0 195 -65l-154 -301q-45 -293 -71 -752q-125 -14 -183 51l101 268l-25 21q-123 -160 -303 -340q-281 39 -334 193l105 354q31 348 26 571q63 8 102.5 -5t88.5 -58q-33 -291 -154 -828q27 -63 144 -98q204 184 325 354zM503.5 1276 q-28.5 -29 -68.5 -29t-67.5 29t-27.5 68.5t27.5 67.5t68.5 28t68.5 -28t27.5 -67.5t-28.5 -68.5zM835.5 1276q-28.5 -29 -68.5 -29t-67.5 29t-27.5 68.5t27.5 67.5t68.5 28t68.5 -28t27.5 -67.5t-28.5 -68.5z" />
<glyph unicode="&#xfd;" horiz-adv-x="962" d="M684 487q84 471 141 631q145 0 193 -65l-170 -342q-49 -231 -115.5 -655.5t-81.5 -514.5q-35 -49 -117.5 -73.5t-164.5 -20.5q-139 72 -222.5 179.5t-97.5 207.5q35 55 81 75.5t85 -3.5q16 -207 188 -336q57 -8 82 14q72 229 125 572l80 145l-24 23q-53 -66 -232 -230 q-184 31 -268 85t-107 134l101 293q12 102 17 269t-1 243q63 8 103 -5t88 -58q-29 -203 -53.5 -325t-90.5 -380q23 -53 61 -81.5t124 -53.5q192 145 276 272zM1010 1511l-326 -319q-61 0 -68 35l127 190l62 160q66 18 134.5 -6.5t70.5 -59.5z" />
<glyph unicode="&#xfe;" horiz-adv-x="1005" d="M297 805l25 -25q133 172 296 326q166 -59 238 -158.5t113 -279.5q-66 -270 -253.5 -445.5t-488.5 -218.5q-45 -324 -98 -555q-135 -12 -176 49q113 461 176.5 784.5t140.5 823.5l37 506q72 43 116 51t99 -16l-116 -467l-50 -265zM246 125q242 51 391 201.5t186 345.5 q-18 115 -64 181.5t-141 107.5q-188 -180 -303 -334q-10 -66 -69 -502z" />
<glyph unicode="&#xff;" horiz-adv-x="962" d="M684 487q84 471 141 631q145 0 193 -65l-170 -342q-49 -231 -115.5 -655.5t-81.5 -514.5q-35 -49 -117.5 -73.5t-164.5 -20.5q-139 72 -222.5 179.5t-97.5 207.5q35 55 81 75.5t85 -3.5q16 -207 188 -336q57 -8 82 14q72 229 125 572l80 145l-24 23q-53 -66 -232 -230 q-184 31 -268 85t-107 134l101 293q12 102 17 269t-1 243q63 8 103 -5t88 -58q-29 -203 -53.5 -325t-90.5 -380q23 -53 61 -81.5t124 -53.5q192 145 276 272zM520.5 1276q-28.5 -29 -68.5 -29t-68 29t-28 68.5t28 67.5t69 28t68.5 -28t27.5 -67.5t-28.5 -68.5zM852 1276 q-29 -29 -69 -29t-67.5 29t-27.5 68.5t27.5 67.5t68.5 28t69 -28t28 -67.5t-29 -68.5z" />
<glyph unicode="&#x100;" horiz-adv-x="1161" d="M920 694l208 43q25 -16 22 -58t-36 -87l-186 -10l43 -582q-125 -14 -176 51l-2 522l-275 -14l-123 -18l-248 -541q-133 -12 -170 49l250 467l-161 -24q-53 70 14 143l215 10l135 252l234 557q113 72 254 29l-31 -357zM446 653l347 17l-23 653l-18 -4zM1122 1681l-585 -16 q-41 41 22 121l311 -10l283 30q53 -31 -31 -125z" />
<glyph unicode="&#x101;" horiz-adv-x="1026" d="M657 334l-268 -307q-158 2 -242 92t-86 250.5t74 336t203 288t258 112.5q121 -53 203 -199l2 6q6 135 33 205q145 0 194 -65l-154 -301q-37 -238 -77 -752q-139 -16 -209 59l92 256zM217 371q0 -156 115 -224q186 184 360 349l70 301q-33 70 -70 112.5t-104 87.5 q-174 -72 -272.5 -240.5t-98.5 -385.5zM969 1268l-586 -17q-41 41 23 121l311 -10l282 31q54 -31 -30 -125z" />
<glyph unicode="&#x102;" horiz-adv-x="1161" d="M920 694l208 43q25 -16 22 -58t-36 -87l-186 -10l43 -582q-125 -14 -176 51l-2 522l-275 -14l-123 -18l-248 -541q-133 -12 -170 49l250 467l-161 -24q-53 70 14 143l215 10l135 252l234 557q113 72 254 29l-31 -357zM446 653l347 17l-23 653l-18 -4zM893 1636 q-211 0 -279 238q18 16 70 16q39 -117 139 -147q141 25 158 147q117 33 168 -43q-23 -94 -92.5 -152.5t-163.5 -58.5z" />
<glyph unicode="&#x103;" horiz-adv-x="1026" d="M657 334l-268 -307q-158 2 -242 92t-86 250.5t74 336t203 288t258 112.5q121 -53 203 -199l2 6q6 135 33 205q145 0 194 -65l-154 -301q-37 -238 -77 -752q-139 -16 -209 59l92 256zM217 371q0 -156 115 -224q186 184 360 349l70 301q-33 70 -70 112.5t-104 87.5 q-174 -72 -272.5 -240.5t-98.5 -385.5zM739 1223q-211 0 -278 237q18 16 69 17q39 -117 140 -148q141 25 157 148q117 33 168 -43q-23 -94 -92.5 -152.5t-163.5 -58.5z" />
<glyph unicode="&#x104;" horiz-adv-x="1161" d="M707 -225q39 -76 154.5 -76t199.5 72q45 -4 55 -52q-117 -125 -268 -125q-94 0 -171 50.5t-77 122t65.5 143.5t157.5 115q-20 16 -28 26l-2 522l-275 -14l-123 -18l-248 -541q-133 -12 -170 49l250 467l-161 -24q-53 70 14 143l215 10l135 252l234 557q113 72 254 29 l-31 -357l33 -432l208 43q25 -16 22 -58t-36 -87l-186 -10l43 -582q-102 -8 -174 -79.5t-90 -145.5zM446 653l347 17l-23 653l-18 -4z" />
<glyph unicode="&#x105;" horiz-adv-x="1015" d="M657 334l-268 -307q-158 2 -242 92t-86 250.5t74 336t203 288t258 112.5q121 -53 203 -199l2 6q6 135 33 205q145 0 194 -65l-154 -301q-37 -238 -77 -752q-225 -59 -273 -262q66 -51 166.5 -42t161.5 75q45 -4 55 -52q-98 -125 -258 -125q-104 0 -167.5 47.5t-63.5 119 t60.5 145.5t154.5 119q-29 16 -45 34l92 256zM217 371q0 -156 115 -224q186 184 360 349l70 301q-33 70 -70 112.5t-104 87.5q-174 -72 -272.5 -240.5t-98.5 -385.5z" />
<glyph unicode="&#x106;" horiz-adv-x="1187" d="M411 1110q-173 -219 -173 -443.5t88 -346t280 -193.5q106 45 212 118.5t161 141.5q47 12 74.5 -18.5t23.5 -67.5q-57 -74 -187 -160t-261 -141q-289 76 -414 238.5t-129 412.5q0 197 135 445q293 367 662 428q119 -45 191.5 -156t80.5 -227q-100 -78 -197 -43 q-18 195 -106 293l-31 -2q-237 -60 -410 -279zM956 1991q66 18 134.5 -6.5t70.5 -59.5l-325 -319q-61 0 -68 34l127 191z" />
<glyph unicode="&#x107;" horiz-adv-x="989" d="M627 1106q115 -18 192.5 -110.5t85.5 -200.5q-39 -33 -90 -41.5t-84 12.5q-4 88 -29.5 136t-85.5 95l-36 -4q-143 -70 -240.5 -204t-101.5 -248q-10 -164 40 -264.5t195 -159.5q96 33 193.5 85t146.5 103q43 2 55.5 -19.5t8.5 -64.5q-59 -66 -191.5 -135.5t-232.5 -85.5 q-201 51 -293 189.5t-82 316.5q6 102 39 194q86 141 218 256t292 150zM834 1577q66 18 134 -6.5t70 -59.5l-325 -319q-61 0 -68 35l127 190z" />
<glyph unicode="&#x10c;" horiz-adv-x="1187" d="M411 1110q-173 -219 -173 -443.5t88 -346t280 -193.5q106 45 212 118.5t161 141.5q47 12 74.5 -18.5t23.5 -67.5q-57 -74 -187 -160t-261 -141q-289 76 -414 238.5t-129 412.5q0 197 135 445q293 367 662 428q119 -45 191.5 -156t80.5 -227q-100 -78 -197 -43 q-18 195 -106 293l-31 -2q-237 -60 -410 -279zM819 1622q-88 -25 -143 16l-125 234q29 47 82 24l102 -202l209 221q113 33 131 -55z" />
<glyph unicode="&#x10d;" horiz-adv-x="989" d="M627 1106q115 -18 192.5 -110.5t85.5 -200.5q-39 -33 -90 -41.5t-84 12.5q-4 88 -29.5 136t-85.5 95l-36 -4q-143 -70 -240.5 -204t-101.5 -248q-10 -164 40 -264.5t195 -159.5q96 33 193.5 85t146.5 103q43 2 55.5 -19.5t8.5 -64.5q-59 -66 -191.5 -135.5t-232.5 -85.5 q-201 51 -293 189.5t-82 316.5q6 102 39 194q86 141 218 256t292 150zM696 1208q-88 -25 -143 17l-125 233q29 47 82 25l102 -203l209 221q113 33 131 -55z" />
<glyph unicode="&#x10e;" horiz-adv-x="1265" d="M584 1505q301 0 473 -184t178 -475q4 -240 -110.5 -437.5t-344.5 -324.5q-244 -82 -506 -84q-137 37 -172 127q156 516 224 895l4 334l-74 -17q-43 29 -50 70t15 66q146 30 363 30zM387 727l-80 -582q252 0 424 43q180 129 260 283t76 352q-6 252 -148.5 406.5 t-392.5 134.5q-116 -522 -139 -637zM952 1860l-256 -238q-88 -25 -143 16l-125 234q29 47 82 24l102 -202l209 221q113 33 131 -55z" />
<glyph unicode="&#x10f;" horiz-adv-x="1177" d="M1219 1595l-48 230q66 49 127.5 25.5t87.5 -95.5q-10 -92 -73.5 -191.5t-138.5 -166.5q-45 -4 -66 28zM659 336l-270 -309q-158 2 -242 92t-86 250.5t74 336t203 288t250 112.5t205 -176q25 115 36 176l11 506q78 43 122 51t99 -16l-119 -459q-80 -600 -176 -1188 q-135 -12 -176 49l92 266zM217 371q0 -156 115 -224q186 184 360 349l70 301q-45 94 -83 138t-81 73q-176 -72 -278.5 -247t-102.5 -390z" />
<glyph unicode="&#x110;" horiz-adv-x="1265" d="M584 1505q301 0 473 -184t178 -475q4 -240 -110.5 -437.5t-344.5 -324.5q-244 -82 -506 -84q-137 37 -172 127q111 365 164 594l-186 -14q-41 27 -45 66.5t26 55.5l224 -16q27 125 41 209l4 334l-74 -17q-43 29 -50 70t15 66q146 30 363 30zM387 731v-4l-80 -582 q252 0 424 43q180 129 260 283t76 352q-6 252 -148.5 406.5t-392.5 134.5q-20 -94 -62 -281.5t-58 -267.5l358 35q33 -14 42 -49t-24 -66l-393 -4h-2z" />
<glyph unicode="&#x111;" horiz-adv-x="946" d="M659 336l-270 -309q-158 2 -242 92t-86 250.5t74 336t203 288t250 112.5t205 -176q25 115 36 176l2 151l-223 -6q-41 41 23 121l205 -6l4 246q78 43 122 51t99 -16l-72 -281l236 27q53 -31 -31 -125l-233 -6l-19 -74q-80 -600 -176 -1188q-135 -12 -176 49l92 266z M217 371q0 -156 115 -224q186 184 360 349l70 301q-45 94 -83 138t-81 73q-176 -72 -278.5 -247t-102.5 -390z" />
<glyph unicode="&#x112;" horiz-adv-x="1017" d="M1012 1806q53 -31 -31 -125l-586 -16q-41 41 23 121l311 -10zM422 797q418 35 442 39q18 -27 12 -76t-34 -94q-295 20 -439 14l-143 -543q256 33 569 94q43 -20 41 -71t-32 -101l-596 -59q-156 43 -158 135q174 457 248 873l39 329q-29 18 -95 23q-37 68 0 104 q332 33 801 27q41 -31 22.5 -108.5t-73.5 -122.5l-129 83q-184 29 -356 11l-60 -224z" />
<glyph unicode="&#x113;" horiz-adv-x="985" d="M563 1122q180 -47 254 -171t60 -294q-344 -164 -656 -229q12 -115 69.5 -189.5t180.5 -119.5q221 80 326 178q41 0 53 -18.5t8 -67.5q-41 -55 -170 -123t-223 -88q-203 45 -303.5 181t-95.5 327q2 82 38 203q176 296 459 411zM215 547v-17q258 66 520 183 q0 117 -31.5 184.5t-125.5 114.5l-29 -6q-135 -66 -232.5 -205t-101.5 -254zM846 1268l-586 -17q-41 41 23 121l311 -10l283 31q53 -31 -31 -125z" />
<glyph unicode="&#x116;" horiz-adv-x="1017" d="M821.5 1689.5q-28.5 -28.5 -68.5 -28.5t-68 28.5t-28 68.5t28 67.5t69 27.5t68.5 -27.5t27.5 -67.5t-28.5 -68.5zM422 797q418 35 442 39q18 -27 12 -76t-34 -94q-295 20 -439 14l-143 -543q256 33 569 94q43 -20 41 -71t-32 -101l-596 -59q-156 43 -158 135 q174 457 248 873l39 329q-29 18 -95 23q-37 68 0 104q332 33 801 27q41 -31 22.5 -108.5t-73.5 -122.5l-129 83q-184 29 -356 11l-60 -224z" />
<glyph unicode="&#x117;" horiz-adv-x="985" d="M563 1122q180 -47 254 -171t60 -294q-344 -164 -656 -229q12 -115 69.5 -189.5t180.5 -119.5q221 80 326 178q41 0 53 -18.5t8 -67.5q-41 -55 -170 -123t-223 -88q-203 45 -303.5 181t-95.5 327q2 82 38 203q176 296 459 411zM215 547v-17q258 66 520 183 q0 117 -31.5 184.5t-125.5 114.5l-29 -6q-135 -66 -232.5 -205t-101.5 -254zM686 1276q-29 -29 -68.5 -29t-67.5 29t-28 68.5t28 67.5t68.5 28t68.5 -28t28 -67.5t-29 -68.5z" />
<glyph unicode="&#x118;" horiz-adv-x="1003" d="M422 797q418 35 442 39q18 -27 12 -76t-34 -94q-295 20 -439 14l-143 -543q256 33 569 94q43 -20 41 -71t-32 -101q-98 -33 -203 -124t-111 -166q49 -76 164 -76t213 78q27 2 39 -10.5t16 -41.5q-98 -125 -268 -125q-111 0 -191.5 53.5t-80.5 135.5q0 127 217 256 l-391 -39q-156 43 -158 135q174 457 248 873l39 329q-29 18 -95 23q-37 68 0 104q332 33 801 27q41 -31 22.5 -108.5t-73.5 -122.5l-129 83q-184 29 -356 11l-60 -224z" />
<glyph unicode="&#x119;" horiz-adv-x="980" d="M508 -301q102 0 201 72q53 4 55 -52q-117 -125 -291 -125q-106 0 -184 55.5t-78 133.5q0 133 164 244q-158 59 -236 186t-73 295q2 82 38 203q176 297 459 411q180 -47 254 -171t60 -294q-344 -164 -656 -229q12 -115 69.5 -189.5t180.5 -119.5q221 80 326 178 q41 0 53 -18.5t8 -67.5q-63 -88 -297 -180q-80 -31 -148.5 -109t-84.5 -147q41 -76 180 -76zM215 547v-17q258 66 520 183q0 117 -31.5 184.5t-125.5 114.5l-29 -6q-135 -66 -232.5 -205t-101.5 -254z" />
<glyph unicode="&#x11a;" horiz-adv-x="1017" d="M422 797q418 35 442 39q18 -27 12 -76t-34 -94q-295 20 -439 14l-143 -543q256 33 569 94q43 -20 41 -71t-32 -101l-596 -59q-156 43 -158 135q174 457 248 873l39 329q-29 18 -95 23q-37 68 0 104q332 33 801 27q41 -31 22.5 -108.5t-73.5 -122.5l-129 83 q-184 29 -356 11l-60 -224zM770 1622q-88 -25 -143 16l-125 234q29 47 82 24l102 -202l209 221q113 33 131 -55z" />
<glyph unicode="&#x11b;" horiz-adv-x="985" d="M563 1122q180 -47 254 -171t60 -294q-344 -164 -656 -229q12 -115 69.5 -189.5t180.5 -119.5q221 80 326 178q41 0 53 -18.5t8 -67.5q-41 -55 -170 -123t-223 -88q-203 45 -303.5 181t-95.5 327q2 82 38 203q176 296 459 411zM215 547v-17q258 66 520 183 q0 117 -31.5 184.5t-125.5 114.5l-29 -6q-135 -66 -232.5 -205t-101.5 -254zM891 1446l-256 -238q-88 -25 -143 17l-125 233q29 47 82 25l102 -203l209 221q113 33 131 -55z" />
<glyph unicode="&#x11e;" horiz-adv-x="1261" d="M954 1636q-211 0 -278 238q18 16 69 16q39 -117 140 -147q141 25 157 147q117 33 168 -43q-23 -94 -92.5 -152.5t-163.5 -58.5zM422 242q74 -53 211 -115q258 225 387 508l-8 10l-340 -57q-37 45 -39 88t35 74q219 -39 465 0q31 -61 37 -131t-21 -186t-48.5 -185.5 t-80.5 -247.5q-104 -8 -137 53q147 301 180 453l-16 4q-129 -328 -392 -510q-295 88 -416.5 233.5t-125.5 391.5q-2 195 135 444q233 379 661 451q119 -45 192 -156t81 -227q-100 -78 -197 -43q-18 190 -106 292l-31 -2q-240 -59 -412 -281t-172 -483t158 -378z" />
<glyph unicode="&#x11f;" horiz-adv-x="970" d="M657 334l-268 -307q-158 2 -242 92t-86 250.5t74 336t203 288t252 112.5t211 -193q6 135 33 205q145 0 192 -65l-170 -365q-47 -190 -86 -436t-69.5 -446.5t-43.5 -274.5q-29 -35 -107.5 -60.5t-143.5 -23.5q-141 70 -224.5 177.5t-97.5 209.5q37 55 82 75.5t84 -3.5 q16 -203 188 -336q29 -2 56 14q57 197 110 518l76 213zM217 371q0 -156 115 -224q186 184 360 349l70 301q-45 94 -83 138t-81 73q-176 -72 -278.5 -247t-102.5 -390zM698 1223q-211 0 -278 237q18 16 69 17q39 -117 140 -148q141 25 157 148q117 33 168 -43 q-23 -94 -92.5 -152.5t-163.5 -58.5z" />
<glyph unicode="&#x122;" horiz-adv-x="1261" d="M422 242q74 -53 211 -115q258 225 387 508l-8 10l-340 -57q-37 45 -39 88t35 74q219 -39 465 0q31 -61 37 -131t-21 -186t-48.5 -185.5t-80.5 -247.5q-104 -8 -137 53q147 301 180 453l-16 4q-129 -328 -392 -510q-295 88 -416.5 233.5t-125.5 391.5q-2 195 135 444 q233 379 661 451q119 -45 192 -156t81 -227q-100 -78 -197 -43q-18 190 -106 292l-31 -2q-240 -59 -412 -281t-172 -483t158 -378zM520 -502q-45 -4 -65 29l110 170l-47 229q66 49 127.5 25.5t87.5 -94.5q-10 -92 -73.5 -191.5t-139.5 -167.5z" />
<glyph unicode="&#x123;" horiz-adv-x="970" d="M657 334l-268 -307q-158 2 -242 92t-86 250.5t74 336t203 288t252 112.5t211 -193q6 135 33 205q145 0 192 -65l-170 -365q-47 -190 -86 -436t-69.5 -446.5t-43.5 -274.5q-29 -35 -107.5 -60.5t-143.5 -23.5q-141 70 -224.5 177.5t-97.5 209.5q37 55 82 75.5t84 -3.5 q16 -203 188 -336q29 -2 56 14q57 197 110 518l76 213zM217 371q0 -156 115 -224q186 184 360 349l70 301q-45 94 -83 138t-81 73q-176 -72 -278.5 -247t-102.5 -390zM709 1464l59 -190q-41 -63 -109.5 -75.5t-107.5 32.5q-35 217 182 457q49 4 80 -31z" />
<glyph unicode="&#x12a;" horiz-adv-x="460" d="M674 1806q53 -31 -31 -125l-586 -16q-41 41 23 121l311 -10zM281 1454q84 51 129 51t86 -18l-154 -666q-10 -104 -47 -383.5t-53 -437.5q-150 -14 -195 63q150 614 203 955z" />
<glyph unicode="&#x12b;" horiz-adv-x="464" d="M647 1393q53 -31 -31 -125l-585 -17q-41 41 22 121l312 -10zM231 754l-6 319q92 39 135 33t66 -33l-76 -266q-35 -297 -82 -807q-150 -14 -194 63q67 232 157 691z" />
<glyph unicode="&#x12e;" horiz-adv-x="460" d="M23 -256q53 -53 162.5 -53t193.5 80q45 -4 55 -52q-117 -125 -268 -125q-121 0 -184.5 50.5t-63.5 122t48 137t136 110.5q-37 16 -55 49q150 614 203 955l31 436q84 51 129 51t86 -18l-154 -666q-10 -104 -47 -383.5t-53 -437.5q-92 -37 -154.5 -103.5t-64.5 -152.5z" />
<glyph unicode="&#x12f;" horiz-adv-x="464" d="M39 -250q47 -59 167 -59t200 80q45 -4 55 -52q-43 -55 -115 -90t-174 -35t-171 52.5t-69 123t53.5 137t141.5 109.5q-37 16 -53 47q68 231 157 691l-6 319q92 39 135 33t66 -33l-76 -266q-35 -297 -82 -807q-202 -84 -229 -250zM428 1230q-31 -32 -78 -32t-79.5 32 t-36 78t28.5 76.5t79 30.5t79 -30.5t35 -76.5t-28 -78z" />
<glyph unicode="&#x130;" horiz-adv-x="460" d="M483.5 1689.5q-28.5 -28.5 -68.5 -28.5t-68 28.5t-28 68.5t28 67.5t69 27.5t68.5 -27.5t27.5 -67.5t-28.5 -68.5zM281 1454q84 51 129 51t86 -18l-154 -666q-10 -104 -47 -383.5t-53 -437.5q-150 -14 -195 63q150 614 203 955z" />
<glyph unicode="&#x131;" horiz-adv-x="464" d="M231 754l-6 319q92 39 135 33t66 -33l-76 -266q-35 -297 -82 -807q-150 -14 -194 63q67 232 157 691z" />
<glyph unicode="&#x136;" horiz-adv-x="1204" d="M309 1454q84 51 129 51t86 -18l-153 -666l-2 -18l274 188l455 514q53 -8 77.5 -30.5t36.5 -67.5q-109 -129 -326.5 -320.5t-402.5 -308.5q182 -463 572 -622q39 -106 -92 -156q-168 92 -314.5 292t-249.5 445l-41 -32q-8 -63 -40.5 -309t-47.5 -396q-150 -14 -194 63 q150 614 203 955zM457 -303l-47 229q66 49 127 25.5t88 -94.5q-10 -92 -74 -191.5t-139 -167.5q-45 -4 -66 29z" />
<glyph unicode="&#x137;" horiz-adv-x="995" d="M260 745l8 -16q262 221 561 377q49 -8 66.5 -51t-4.5 -92q-379 -152 -582 -322q168 -324 565 -504q20 -37 -6 -74.5t-88 -62.5q-135 78 -273 208t-239 277q-39 -205 -86 -485q-135 -12 -176 49q131 444 242 1163l-21 390q80 74 199 59q-2 -168 -115 -844zM354 -303 l-47 229q66 49 127.5 25.5t87.5 -94.5q-10 -92 -73.5 -191.5t-139.5 -167.5q-45 -4 -65 29z" />
<glyph unicode="&#x139;" horiz-adv-x="913" d="M281 1454q70 43 114.5 51t100.5 -18l-160 -721l-135 -635q254 31 592 96q41 -23 38.5 -70.5t-30.5 -93.5l-619 -63q-156 39 -157 129q121 319 229 889zM526 1991q66 18 134.5 -6.5t70.5 -59.5l-325 -319q-61 0 -68 34l127 191z" />
<glyph unicode="&#x13a;" horiz-adv-x="501" d="M295 1106l24 506q72 43 116 51t97 -16l-118 -459q-51 -457 -138 -1188q-150 -14 -194 63q139 545 213 1043zM571 2114q66 18 134.5 -6.5t70.5 -59.5l-325 -319q-61 0 -68 34l127 191z" />
<glyph unicode="&#x13b;" horiz-adv-x="913" d="M281 1454q70 43 114.5 51t100.5 -18l-160 -721l-135 -635q254 31 592 96q41 -23 38.5 -70.5t-30.5 -93.5l-619 -63q-156 39 -157 129q121 319 229 889zM309 -502q-45 -4 -65 29l110 170l-47 229q66 49 127.5 25.5t87.5 -94.5q-10 -92 -73.5 -191.5t-139.5 -167.5z" />
<glyph unicode="&#x13c;" horiz-adv-x="501" d="M295 1106l24 506q72 43 116 51t97 -16l-118 -459q-51 -457 -138 -1188q-150 -14 -194 63q139 545 213 1043zM68 -502q-45 -4 -66 29l111 170l-47 229q66 49 127 25.5t88 -94.5q-10 -92 -73.5 -191.5t-139.5 -167.5z" />
<glyph unicode="&#x13d;" horiz-adv-x="913" d="M281 1454q70 43 114.5 51t100.5 -18l-160 -721l-135 -635q254 31 592 96q41 -23 38.5 -70.5t-30.5 -93.5l-619 -63q-156 39 -157 129q121 319 229 889zM690 1233q-45 -4 -65 29l110 170l-47 229q66 49 127.5 25.5t87.5 -95.5q-10 -92 -73.5 -191t-139.5 -167z" />
<glyph unicode="&#x13e;" horiz-adv-x="641" d="M295 1106l24 506q72 43 116 51t97 -16l-118 -459q-51 -457 -138 -1188q-150 -14 -194 63q139 545 213 1043zM637 1397q-45 -4 -66 28l111 170l-47 230q66 49 127 25.5t88 -95.5q-10 -92 -73.5 -191t-139.5 -167z" />
<glyph unicode="&#x141;" horiz-adv-x="1026" d="M442 735l-129 -604q254 31 592 96q41 -23 39 -70.5t-31 -93.5l-618 -63q-156 39 -158 129q92 244 166 571l-172 -47q-45 20 -57.5 57.5t16.5 59.5l232 21q18 84 45 227l26 436q70 43 115 51t100 -18l-143 -649l215 71q33 -4 48 -38.5t-7 -69.5z" />
<glyph unicode="&#x142;" horiz-adv-x="722" d="M489 891l191 80q35 -6 52.5 -38t-5.5 -71l-250 -71q-37 -322 -92 -791q-150 -14 -195 63q102 403 154 687l-199 -66q-47 16 -60 54t13 61l264 47q4 27 41 260l25 506q72 43 116 51t97 -16l-119 -459q-10 -86 -33 -297z" />
<glyph unicode="&#x143;" horiz-adv-x="1282" d="M1135 1454q84 51 130 51t85 -18l-160 -666q-10 -94 -50 -373.5t-59 -447.5q-127 -10 -192 49q-252 485 -481 1202l-93 -430q-10 -102 -49 -381.5t-57 -439.5q-147 -14 -197 63q106 414 143.5 589t69.5 366l35 436q88 51 131 51t84 -18q145 -516 346 -1006l127 -223 q12 57 37 167t39 177q43 207 76 416zM1219 1925l-326 -319q-61 0 -68 34l127 191l62 160q66 18 134.5 -6.5t70.5 -59.5z" />
<glyph unicode="&#x144;" horiz-adv-x="1024" d="M301 795l18 -13q172 233 390 324q111 -10 177 -86t83 -166l-74 -182q-39 -340 -57 -672q-125 -14 -181 51q43 283 140 795q-12 84 -86 115q-197 -86 -389 -328q-45 -291 -107 -633q-131 -12 -176 49q115 381 180 713l-43 293q86 80 203 63q10 -49 -23 -223zM985 1511 l-326 -319q-61 0 -67 35l127 190l61 160q66 18 134.5 -6.5t70.5 -59.5z" />
<glyph unicode="&#x145;" horiz-adv-x="1282" d="M1135 1454q84 51 130 51t85 -18l-160 -666q-10 -94 -50 -373.5t-59 -447.5q-127 -10 -192 49q-252 485 -481 1202l-93 -430q-10 -102 -49 -381.5t-57 -439.5q-147 -14 -197 63q106 414 143.5 589t69.5 366l35 436q88 51 131 51t84 -18q145 -516 346 -1006l127 -223 q12 57 37 167t39 177q43 207 76 416zM498 -303l-47 229q66 49 127 25.5t88 -94.5q-10 -92 -74 -191.5t-139 -167.5q-45 -4 -66 29z" />
<glyph unicode="&#x146;" horiz-adv-x="1024" d="M301 795l18 -13q172 233 390 324q111 -10 177 -86t83 -166l-74 -182q-39 -340 -57 -672q-125 -14 -181 51q43 283 140 795q-12 84 -86 115q-197 -86 -389 -328q-45 -291 -107 -633q-131 -12 -176 49q115 381 180 713l-43 293q86 80 203 63q10 -49 -23 -223zM401 -303 l-47 229q66 49 127.5 25.5t87.5 -94.5q-10 -92 -73.5 -191.5t-139.5 -167.5q-45 -4 -65 29z" />
<glyph unicode="&#x147;" horiz-adv-x="1282" d="M1135 1454q84 51 130 51t85 -18l-160 -666q-10 -94 -50 -373.5t-59 -447.5q-127 -10 -192 49q-252 485 -481 1202l-93 -430q-10 -102 -49 -381.5t-57 -439.5q-147 -14 -197 63q106 414 143.5 589t69.5 366l35 436q88 51 131 51t84 -18q145 -516 346 -1006l127 -223 q12 57 37 167t39 177q43 207 76 416zM1133 1860l-256 -238q-88 -25 -144 16l-125 234q29 47 82 24l103 -202l208 221q114 33 132 -55z" />
<glyph unicode="&#x148;" horiz-adv-x="1024" d="M301 795l18 -13q172 233 390 324q111 -10 177 -86t83 -166l-74 -182q-39 -340 -57 -672q-125 -14 -181 51q43 283 140 795q-12 84 -86 115q-197 -86 -389 -328q-45 -291 -107 -633q-131 -12 -176 49q115 381 180 713l-43 293q86 80 203 63q10 -49 -23 -223zM899 1446 l-256 -238q-88 -25 -143 17l-125 233q29 47 82 25l102 -203l209 221q113 33 131 -55z" />
<glyph unicode="&#x14c;" horiz-adv-x="1243" d="M1055 735q-27 227 -85.5 390t-172.5 276q-240 -113 -385.5 -315.5t-145.5 -442.5q2 -168 77 -318.5t214 -218.5q199 115 311.5 264.5t186.5 364.5zM809 1505q90 0 181 -114.5t149.5 -292.5t60.5 -355q2 -129 -108.5 -307t-264 -307t-266 -129t-221.5 102.5t-169 242.5 t-62 263q-2 217 103 428t270 340t327 129zM1128 1810q53 -31 -30 -124l-586 -17q-41 41 23 121l311 -10z" />
<glyph unicode="&#x14d;" horiz-adv-x="991" d="M602 1362l283 31q53 -31 -31 -125l-586 -17q-41 41 23 121zM57 471q0 133 86 291t210 264.5t226.5 106.5t221.5 -190.5t122 -324t-86 -277.5t-217 -242.5t-230.5 -98.5t-217.5 143.5t-115 327.5zM563 1018q-164 -92 -248 -216t-120 -292q8 -137 53 -233.5t139 -176.5 q182 78 277.5 197t130.5 299q-18 109 -80 225.5t-152 196.5z" />
<glyph unicode="&#x150;" horiz-adv-x="1243" d="M1055 735q-27 227 -85.5 390t-172.5 276q-240 -113 -385.5 -315.5t-145.5 -442.5q2 -168 77 -318.5t214 -218.5q199 115 311.5 264.5t186.5 364.5zM809 1505q90 0 181 -114.5t149.5 -292.5t60.5 -355q2 -129 -108.5 -307t-264 -307t-266 -129t-221.5 102.5t-169 242.5 t-62 263q-2 217 103 428t270 340t327 129zM1153 1962q43 0 59 -14l-53 -109l-164 -221q-47 -6 -73 16l153 314q35 14 78 14zM889 1962q43 0 59 -14l-53 -109l-164 -221q-45 -4 -76 16l156 314q35 14 78 14z" />
<glyph unicode="&#x151;" horiz-adv-x="991" d="M645 1544q43 0 60 -14l-54 -109l-164 -221q-45 -4 -75 17l155 313q35 14 78 14zM909 1544q43 0 60 -14l-54 -109l-163 -221q-47 -6 -74 17l153 313q35 14 78 14zM57 471q0 133 86 291t210 264.5t226.5 106.5t221.5 -190.5t122 -324t-86 -277.5t-217 -242.5t-230.5 -98.5 t-217.5 143.5t-115 327.5zM563 1018q-164 -92 -248 -216t-120 -292q8 -137 53 -233.5t139 -176.5q182 78 277.5 197t130.5 299q-18 109 -80 225.5t-152 196.5z" />
<glyph unicode="&#x152;" horiz-adv-x="1761" d="M270 643q-4 -231 131 -401q72 -88 174 -136q207 106 323 278.5t144 379.5q-14 236 -59 369t-182 268q-240 -113 -385.5 -316.5t-145.5 -441.5zM1165 797l441 39q18 -27 14 -76t-33 -94q-281 18 -430 14l-139 -530q176 12 563 81q31 -10 41 -41q16 -57 -29 -131l-579 -59 q-70 20 -110 53t-64 97q-150 -150 -268.5 -150t-227 102.5t-169 242.5t-62.5 263q-2 217 104.5 428t270 340t325.5 129q92 0 225 -162q113 92 258.5 120t444.5 28q41 -33 23.5 -109.5t-70.5 -121.5l-129 83q-195 29 -377 -20l-66 -100z" />
<glyph unicode="&#x153;" horiz-adv-x="1685" d="M610 92q-123 -92 -223 -92t-215 143.5t-115 327.5q0 133 86 291t210 264.5t229 106.5q68 0 150.5 -96.5t137.5 -225.5q199 252 428 311q166 -47 236 -171t59 -294q-332 -158 -667 -229q23 -223 239 -309q264 94 355 190q41 0 53 -18.5t8 -67.5q-55 -63 -189.5 -135 t-236.5 -88q-254 104 -334 315q-88 -131 -211 -223zM387 100q178 76 275.5 194t132.5 306q-18 106 -81 222t-151 196q-164 -92 -248 -216t-120 -292q8 -137 53 -233.5t139 -176.5zM922 547v-15q299 74 520 181q-2 113 -31 180.5t-117 118.5l-28 -6q-137 -68 -238.5 -202 t-105.5 -257z" />
<glyph unicode="&#x154;" horiz-adv-x="1163" d="M573 1509q254 0 384 -105.5t130 -256t-76.5 -253.5t-248.5 -198q-162 -20 -268 -24q70 -201 178 -316.5t315 -205.5q20 -45 -11.5 -87.5t-101.5 -62.5q-190 121 -301.5 297t-146.5 373l-31 -2q-25 -276 -88 -662q-39 -14 -100.5 -1t-93.5 46q63 229 89.5 361.5 t39.5 185.5q25 123 59 334l59 432l-104 -6q-23 39 -18.5 73.5t30.5 45.5q141 32 305 32zM410 846q0 -41 -7 -90q168 6 322 47q109 72 152 144.5t43 190t-96.5 190.5t-291.5 58zM1038 1925l-325 -319q-61 0 -68 34l127 191l62 160q66 18 134 -6.5t70 -59.5z" />
<glyph unicode="&#x155;" horiz-adv-x="782" d="M311 795l25 -17q113 147 268 328q84 -12 137.5 -81t53.5 -161q-104 -78 -185 -35q6 94 -39 113q-100 -115 -235 -291q-55 -365 -111 -651q-133 -12 -174 49q123 424 178 713l-41 293q45 45 90.5 59t110.5 4q10 -49 -22 -223zM842 1511l-326 -319q-61 0 -67 35l126 190 l62 160q66 18 134.5 -6.5t70.5 -59.5z" />
<glyph unicode="&#x156;" horiz-adv-x="1163" d="M573 1509q254 0 384 -105.5t130 -256t-76.5 -253.5t-248.5 -198q-162 -20 -268 -24q70 -201 178 -316.5t315 -205.5q20 -45 -11.5 -87.5t-101.5 -62.5q-190 121 -301.5 297t-146.5 373l-31 -2q-25 -276 -88 -662q-39 -14 -100.5 -1t-93.5 46q63 229 89.5 361.5 t39.5 185.5q25 123 59 334l59 432l-104 -6q-23 39 -18.5 73.5t30.5 45.5q141 32 305 32zM410 846q0 -41 -7 -90q168 6 322 47q109 72 152 144.5t43 190t-96.5 190.5t-291.5 58zM477 -303l-47 229q66 49 127 25.5t88 -94.5q-10 -92 -73.5 -191.5t-139.5 -167.5q-45 -4 -65 29 z" />
<glyph unicode="&#x157;" horiz-adv-x="782" d="M311 795l25 -17q113 147 268 328q84 -12 137.5 -81t53.5 -161q-104 -78 -185 -35q6 94 -39 113q-100 -115 -235 -291q-55 -365 -111 -651q-133 -12 -174 49q123 424 178 713l-41 293q45 45 90.5 59t110.5 4q10 -49 -22 -223zM72 -303l-47 229q66 49 127 25.5t88 -94.5 q-10 -92 -74 -191.5t-139 -167.5q-45 -4 -66 29z" />
<glyph unicode="&#x158;" horiz-adv-x="1163" d="M573 1509q254 0 384 -105.5t130 -256t-76.5 -253.5t-248.5 -198q-162 -20 -268 -24q70 -201 178 -316.5t315 -205.5q20 -45 -11.5 -87.5t-101.5 -62.5q-190 121 -301.5 297t-146.5 373l-31 -2q-25 -276 -88 -662q-39 -14 -100.5 -1t-93.5 46q63 229 89.5 361.5 t39.5 185.5q25 123 59 334l59 432l-104 -6q-23 39 -18.5 73.5t30.5 45.5q141 32 305 32zM410 846q0 -41 -7 -90q168 6 322 47q109 72 152 144.5t43 190t-96.5 190.5t-291.5 58zM952 1860l-256 -238q-88 -25 -143 16l-125 234q29 47 82 24l102 -202l209 221q113 33 131 -55z " />
<glyph unicode="&#x159;" horiz-adv-x="782" d="M311 795l25 -17q113 147 268 328q84 -12 137.5 -81t53.5 -161q-104 -78 -185 -35q6 94 -39 113q-100 -115 -235 -291q-55 -365 -111 -651q-133 -12 -174 49q123 424 178 713l-41 293q45 45 90.5 59t110.5 4q10 -49 -22 -223zM756 1446l-256 -238q-88 -25 -144 17 l-125 233q29 47 82 25l103 -203l209 221q113 33 131 -55z" />
<glyph unicode="&#x15a;" horiz-adv-x="1157" d="M1077 475q-27 -176 -172 -301t-411 -174q-158 49 -293 176t-158 238q41 57 77 69.5t95 -8.5q45 -141 103.5 -211.5t195.5 -154.5q176 43 291 142t115 218q-4 76 -248 211q-104 55 -211 117.5t-187.5 148.5t-95.5 176q66 162 234 274.5t338 127.5q244 -102 354 -330 q-6 -39 -46 -63.5t-100 -18.5q-45 119 -96 184.5t-127 120.5q-137 -31 -268 -129t-128 -167.5t101.5 -145.5t221 -140.5t247.5 -163t168 -196.5zM954 1991q66 18 134.5 -6.5t70.5 -59.5l-325 -319q-61 0 -68 34l127 191z" />
<glyph unicode="&#x15b;" horiz-adv-x="950" d="M680 350q0 63 -250 170q-94 41 -183 107.5t-110 140.5q25 147 164 249.5t311 115.5q98 -43 161 -107.5t85 -177.5q-6 -33 -48 -48.5t-116 -0.5q-6 123 -96 239q-109 -31 -204 -108.5t-95 -130.5q0 -57 246 -170q94 -43 183 -118t110 -159q-35 -160 -163 -252t-331 -100 q-113 33 -202 125t-103 182q37 55 70.5 72.5t85.5 7.5q37 -193 165 -297q152 31 236 106.5t84 153.5zM770 1577q66 18 134.5 -6.5t70.5 -59.5l-326 -319q-61 0 -67 35l127 190z" />
<glyph unicode="&#x15e;" horiz-adv-x="1157" d="M492 -166q66 61 138 61.5t110 -52t21.5 -140.5t-92 -141.5t-176 -53.5t-186.5 38t-139 104q4 72 45 76q111 -111 234.5 -111t148.5 98q10 49 -16 88q-72 -8 -134 -61q-74 0 -92 55l103 217q-147 57 -270.5 177t-143.5 225q41 57 77 69.5t95 -8.5q45 -141 103.5 -211.5 t195.5 -154.5q176 43 291 142t115 218q-4 76 -248 211q-104 55 -211 117.5t-187.5 148.5t-95.5 176q66 162 234 274.5t338 127.5q244 -102 354 -330q-6 -39 -46 -63.5t-100 -18.5q-45 119 -96 184.5t-127 120.5q-137 -31 -268 -129t-128 -167.5t101.5 -145.5t221 -140.5 t247.5 -163t168 -196.5q-25 -160 -146.5 -278.5t-342.5 -176.5z" />
<glyph unicode="&#x15f;" horiz-adv-x="950" d="M680 350q0 63 -250 170q-94 41 -183 107.5t-110 140.5q25 147 164 249.5t311 115.5q98 -43 161 -107.5t85 -177.5q-6 -33 -48 -48.5t-116 -0.5q-6 123 -96 239q-109 -31 -204 -108.5t-95 -130.5q0 -57 246 -170q94 -43 183 -118t110 -159q-31 -137 -129.5 -225 t-255.5 -115l-93 -178q66 61 138.5 61.5t110.5 -52t21.5 -140.5t-92 -141.5t-176 -53.5t-186.5 38t-139 104q4 72 45 76q111 -111 234.5 -111t148.5 98q10 49 -16 88q-72 -8 -134 -61q-74 0 -92 55l101 211q-106 39 -188.5 128t-96.5 173q37 55 70.5 72.5t85.5 7.5 q37 -193 165 -297q152 31 236 106.5t84 153.5z" />
<glyph unicode="&#x160;" horiz-adv-x="1157" d="M1077 475q-27 -176 -172 -301t-411 -174q-158 49 -293 176t-158 238q41 57 77 69.5t95 -8.5q45 -141 103.5 -211.5t195.5 -154.5q176 43 291 142t115 218q-4 76 -248 211q-104 55 -211 117.5t-187.5 148.5t-95.5 176q66 162 234 274.5t338 127.5q244 -102 354 -330 q-6 -39 -46 -63.5t-100 -18.5q-45 119 -96 184.5t-127 120.5q-137 -31 -268 -129t-128 -167.5t101.5 -145.5t221 -140.5t247.5 -163t168 -196.5zM817 1622q-88 -25 -143 16l-125 234q29 47 82 24l102 -202l209 221q113 33 131 -55z" />
<glyph unicode="&#x161;" horiz-adv-x="950" d="M680 350q0 63 -250 170q-94 41 -183 107.5t-110 140.5q25 147 164 249.5t311 115.5q98 -43 161 -107.5t85 -177.5q-6 -33 -48 -48.5t-116 -0.5q-6 123 -96 239q-109 -31 -204 -108.5t-95 -130.5q0 -57 246 -170q94 -43 183 -118t110 -159q-35 -160 -163 -252t-331 -100 q-113 33 -202 125t-103 182q37 55 70.5 72.5t85.5 7.5q37 -193 165 -297q152 31 236 106.5t84 153.5zM633 1208q-88 -25 -144 17l-124 233q29 47 81 25l103 -203l209 221q113 33 131 -55z" />
<glyph unicode="&#x162;" horiz-adv-x="1099" d="M563 0l-26 -2l-86 -164q66 61 138.5 61.5t110 -52t21.5 -140.5t-92 -141.5t-176.5 -53.5t-186.5 38t-139 104q4 72 45 76q111 -111 234.5 -111t148.5 98q10 49 -16 88q-72 -8 -133 -61q-74 0 -93 55l105 223q-31 12 -49 43q137 528 213 973l14 338l-369 -26 q-61 61 -16 118q446 29 1024 21q23 -16 14.5 -54t-45.5 -73l-411 24l-134 -585q-14 -125 -48 -395.5t-48 -401.5z" />
<glyph unicode="&#x163;" horiz-adv-x="761" d="M279 -166q66 61 138 61.5t110 -52t21.5 -140.5t-92 -141.5t-176 -53.5t-186.5 38t-139 104q4 72 45 76q111 -111 234.5 -111t148.5 98q10 49 -16 88q-72 -8 -134 -61q-74 0 -92 55l105 221q-76 29 -90 90q150 680 184 873l-258 -49q-55 70 4 143l266 2l-2 295 q121 84 205 21l-94 -301l325 63q29 -16 28 -58t-32 -87l-333 -11q-14 -137 -48 -422.5t-51 -437.5q160 45 264 119q47 2 59.5 -16.5t8.5 -61.5q-106 -94 -307 -158z" />
<glyph unicode="&#x164;" horiz-adv-x="1099" d="M596 1372l-369 -26q-61 61 -16 118q446 29 1024 21q23 -16 14.5 -54t-45.5 -73l-411 24l-134 -585q-14 -125 -47.5 -395.5t-48.5 -401.5q-145 -14 -194 61q137 528 213 973zM1034 1860l-256 -238q-88 -25 -143 16l-125 234q29 47 82 24l102 -202l209 221q113 33 131 -55z " />
<glyph unicode="&#x165;" horiz-adv-x="761" d="M449 1006l337 65q29 -16 28 -58t-32 -87l-342 -11h-2q-12 -121 -41.5 -376.5t-46.5 -401.5q160 45 264 119q47 2 59.5 -16.5t8.5 -61.5q-66 -57 -175.5 -107.5t-207.5 -70.5q-125 27 -143 106q137 616 170 787l-244 -45q-55 70 4 143l258 2l8 51l-2 326q121 84 205 21 l-100 -324zM715 1329l-47 230q66 49 127 25.5t88 -95.5q-10 -92 -74 -191.5t-139 -167.5q-45 -4 -66 29z" />
<glyph unicode="&#x16a;" horiz-adv-x="1167" d="M1014 1806q53 -31 -31 -125l-586 -16q-41 41 23 121l311 -10zM508 0q-178 0 -285.5 110.5t-128.5 229.5q8 51 40 230.5t41 238.5t30 190q31 195 53 455q84 51 130 51t85 -18q-215 -719 -215 -1131q0 -82 63.5 -150.5t165 -89t226.5 39.5q127 125 188.5 321.5t118.5 540.5 v436q84 51 130 51t85 -18q-27 -117 -69 -351.5t-71.5 -380t-58 -250t-76 -208.5t-104.5 -164q-131 -133 -348 -133z" />
<glyph unicode="&#x16b;" horiz-adv-x="1026" d="M694 483v4q68 365 137 631q145 0 195 -65l-154 -301q-45 -293 -71 -752q-125 -14 -183 51l101 268l-25 21q-123 -160 -303 -340q-281 39 -334 193l105 354q31 348 26 571q63 8 102.5 -5t88.5 -58q-33 -291 -154 -828q27 -63 144 -98q204 184 325 354zM862 1268l-586 -17 q-41 41 23 121l311 -10l283 31q53 -31 -31 -125z" />
<glyph unicode="&#x16e;" horiz-adv-x="1167" d="M508 0q-178 0 -285.5 110.5t-128.5 229.5q8 51 40 230.5t41 238.5t30 190q31 195 53 455q84 51 130 51t85 -18q-215 -719 -215 -1131q0 -82 63.5 -150.5t165 -89t226.5 39.5q127 125 188.5 321.5t118.5 540.5v436q84 51 130 51t85 -18q-27 -117 -69 -351.5t-71.5 -380 t-58 -250t-76 -208.5t-104.5 -164q-131 -133 -348 -133zM860 1956q-12 0 -57 -23q-33 -45 -58 -121q-47 -145 52 -145q29 0 65 25q37 53 51 120q43 144 -53 144zM742.5 1954.5q70.5 62.5 153.5 62.5t119 -59.5t6 -143t-102.5 -146t-154.5 -62.5t-118 59t-7 147 q33 80 103.5 142.5z" />
<glyph unicode="&#x16f;" horiz-adv-x="1026" d="M694 483v4q68 365 137 631q145 0 195 -65l-154 -301q-45 -293 -71 -752q-125 -14 -183 51l101 268l-25 21q-123 -160 -303 -340q-281 39 -334 193l105 354q31 348 26 571q63 8 102.5 -5t88.5 -58q-33 -291 -154 -828q27 -63 144 -98q204 184 325 354zM797.5 1254.5 q-72.5 -62.5 -154.5 -62.5t-118 59.5t-7 147.5q33 80 103.5 142.5t153.5 62.5t119 -59.5t6 -143.5t-102.5 -146.5zM676 1253q29 0 65 25q37 53 52 121q43 143 -54 143q-12 0 -57 -22q-33 -45 -57 -121q-47 -146 51 -146z" />
<glyph unicode="&#x170;" horiz-adv-x="1167" d="M1038 1958q43 0 60 -14l-54 -109l-163 -221q-47 -6 -74 16l154 314q34 14 77 14zM774 1958q43 0 60 -14l-54 -109l-164 -221q-45 -4 -75 16l155 314q35 14 78 14zM508 0q-178 0 -285.5 110.5t-128.5 229.5q8 51 40 230.5t41 238.5t30 190q31 195 53 455q84 51 130 51 t85 -18q-215 -719 -215 -1131q0 -82 63.5 -150.5t165 -89t226.5 39.5q127 125 188.5 321.5t118.5 540.5v436q84 51 130 51t85 -18q-27 -117 -69 -351.5t-71.5 -380t-58 -250t-76 -208.5t-104.5 -164q-131 -133 -348 -133z" />
<glyph unicode="&#x171;" horiz-adv-x="1026" d="M694 483v4q68 365 137 631q145 0 195 -65l-154 -301q-45 -293 -71 -752q-125 -14 -183 51l101 268l-25 21q-123 -160 -303 -340q-281 39 -334 193l105 354q31 348 26 571q63 8 102.5 -5t88.5 -58q-33 -291 -154 -828q27 -63 144 -98q204 184 325 354zM653 1544 q43 0 60 -14l-54 -109l-163 -221q-45 -4 -76 17l155 313q35 14 78 14zM917.5 1544q43.5 0 59.5 -14l-53 -109l-164 -221q-47 -6 -74 17l154 313q34 14 77.5 14z" />
<glyph unicode="&#x172;" horiz-adv-x="1167" d="M1020 1454q84 51 130 51t85 -18q-27 -117 -69 -351.5t-70.5 -374.5t-55 -238.5t-68.5 -201t-93 -161.5q-115 -137 -297 -156q-197 -80 -230 -248q66 -66 168.5 -65.5t198.5 80.5q45 -4 55 -52q-117 -125 -268 -125q-121 0 -188.5 52.5t-67.5 122.5q0 143 170 239 q-141 29 -225 129.5t-101 202.5q8 51 40 230.5t41 238.5t30 190q31 195 53 455q84 51 130 51t85 -18q-215 -719 -215 -1131q0 -82 63.5 -150.5t165 -89t226.5 39.5q127 125 188.5 321.5t118.5 540.5v436z" />
<glyph unicode="&#x173;" horiz-adv-x="1026" d="M653 -406q-104 0 -167.5 47.5t-63.5 119t61.5 146.5t159.5 122q-8 6 -25 22l101 268l-25 21q-123 -160 -303 -340q-281 39 -334 193l105 354q31 348 26 571q63 8 102.5 -5t88.5 -58q-33 -291 -154 -828q27 -63 144 -98q205 184 325 354v4q68 365 137 631q145 0 195 -65 l-154 -301q-45 -293 -71 -752q-225 -59 -273 -262q66 -51 166.5 -42t161.5 75q45 -4 55 -52q-98 -125 -258 -125z" />
<glyph unicode="&#x178;" horiz-adv-x="1161" d="M1049 1225l-70 243q102 39 154.5 36t103.5 -42q0 -164 -92 -278q-225 -293 -402 -514q-66 -205 -90 -670q-31 -14 -91 -4t-103 43q78 219 123 582q-84 240 -344 839q35 31 87 42t89 -11l73 -348l177 -451h6l43 80zM590 1851q41 0 68.5 -27.5t27.5 -67.5t-28.5 -68.5 t-68.5 -28.5t-67.5 28.5t-27.5 68.5t27.5 67.5t68.5 27.5zM922 1851q41 0 68.5 -27.5t27.5 -67.5t-28.5 -68.5t-68.5 -28.5t-68 28.5t-28 68.5t28 67.5t69 27.5z" />
<glyph unicode="&#x179;" horiz-adv-x="1169" d="M184 84l-10 -10l16 -35q-35 -49 -155 -39q-29 49 -28 99.5t79 141.5t200 215t252 261t256 303t193 309l-14 17q-440 -4 -584 26q-59 -80 -65 -205q-137 -25 -174 47q49 223 202 291q106 -33 312 -52t348 -15l39 86q70 -2 98.5 -16.5t48.5 -47.5q-37 -147 -222 -405 t-390 -483.5t-369 -374.5l10 -19q516 0 650 -22q39 74 55 155q141 31 176 -53q-37 -139 -203 -258q-104 43 -334.5 66.5t-386.5 17.5zM920 1991q66 18 134 -6.5t70 -59.5l-325 -319q-61 0 -68 34l127 191z" />
<glyph unicode="&#x17a;" horiz-adv-x="1032" d="M233 178h187q156 0 293 -24q43 84 51 157q145 31 154 -59q-33 -152 -189 -252q-102 53 -259 72.5t-275 11.5l-9 -10l15 -35q-29 -49 -152 -39q-25 47 -24.5 104.5t53.5 118t141 130t185.5 146t203 187.5t172.5 225l-12 17q-188 -4 -420 47q-59 -88 -59 -207 q-121 -29 -160 45q39 225 193 293q291 -90 481 -86l35 86q72 -4 102.5 -20.5t50.5 -53.5q-12 -152 -274 -401q-203 -193 -341 -307.5t-153 -126.5zM766 1577q66 18 134.5 -6.5t70.5 -59.5l-326 -319q-61 0 -67 35l127 190z" />
<glyph unicode="&#x17b;" horiz-adv-x="1169" d="M833.5 1689.5q-28.5 -28.5 -68.5 -28.5t-67.5 28.5t-27.5 68.5t27.5 67.5t68.5 27.5t68.5 -27.5t27.5 -67.5t-28.5 -68.5zM184 84l-10 -10l16 -35q-35 -49 -155 -39q-29 49 -28 99.5t79 141.5t200 215t252 261t256 303t193 309l-14 17q-440 -4 -584 26q-59 -80 -65 -205 q-137 -25 -174 47q49 223 202 291q106 -33 312 -52t348 -15l39 86q70 -2 98.5 -16.5t48.5 -47.5q-37 -147 -222 -405t-390 -483.5t-369 -374.5l10 -19q516 0 650 -22q39 74 55 155q141 31 176 -53q-37 -139 -203 -258q-104 43 -334.5 66.5t-386.5 17.5z" />
<glyph unicode="&#x17c;" horiz-adv-x="1032" d="M680 1276q-29 -29 -69 -29t-67.5 29t-27.5 68.5t27.5 67.5t68.5 28t69 -28t28 -67.5t-29 -68.5zM233 178h187q156 0 293 -24q43 84 51 157q145 31 154 -59q-33 -152 -189 -252q-102 53 -259 72.5t-275 11.5l-9 -10l15 -35q-29 -49 -152 -39q-25 47 -24.5 104.5t53.5 118 t141 130t185.5 146t203 187.5t172.5 225l-12 17q-188 -4 -420 47q-59 -88 -59 -207q-121 -29 -160 45q39 225 193 293q291 -90 481 -86l35 86q72 -4 102.5 -20.5t50.5 -53.5q-12 -152 -274 -401q-203 -193 -341 -307.5t-153 -126.5z" />
<glyph unicode="&#x17d;" horiz-adv-x="1169" d="M184 84l-10 -10l16 -35q-35 -49 -155 -39q-29 49 -28 99.5t79 141.5t200 215t252 261t256 303t193 309l-14 17q-440 -4 -584 26q-59 -80 -65 -205q-137 -25 -174 47q49 223 202 291q106 -33 312 -52t348 -15l39 86q70 -2 98.5 -16.5t48.5 -47.5q-37 -147 -222 -405 t-390 -483.5t-369 -374.5l10 -19q516 0 650 -22q39 74 55 155q141 31 176 -53q-37 -139 -203 -258q-104 43 -334.5 66.5t-386.5 17.5zM782 1622q-88 -25 -143 16l-125 234q29 47 82 24l102 -202l209 221q113 33 131 -55z" />
<glyph unicode="&#x17e;" horiz-adv-x="1032" d="M233 178h187q156 0 293 -24q43 84 51 157q145 31 154 -59q-33 -152 -189 -252q-102 53 -259 72.5t-275 11.5l-9 -10l15 -35q-29 -49 -152 -39q-25 47 -24.5 104.5t53.5 118t141 130t185.5 146t203 187.5t172.5 225l-12 17q-188 -4 -420 47q-59 -88 -59 -207 q-121 -29 -160 45q39 225 193 293q291 -90 481 -86l35 86q72 -4 102.5 -20.5t50.5 -53.5q-12 -152 -274 -401q-203 -193 -341 -307.5t-153 -126.5zM629 1208q-88 -25 -144 17l-125 233q29 47 82 25l103 -203l209 221q113 33 131 -55z" />
<glyph unicode="&#x192;" horiz-adv-x="958" d="M565 813l357 80q29 -14 27.5 -57t-31.5 -86l-363 -21q-57 -457 -188 -1081q-82 -80 -213 -45l-170 309q23 63 88 49l164 -221q127 399 208 971l-272 -52q-55 70 4 144l279 -12l6 49l-6 622q86 96 158.5 144.5t172.5 60.5q115 -18 194 -110.5t87 -200.5q-39 -31 -89 -40 t-83 11q-4 88 -30.5 136t-86.5 96q-88 -20 -172 -89q6 -260 -41 -657z" />
<glyph unicode="&#x218;" horiz-adv-x="1157" d="M1077 475q-27 -176 -172 -301t-411 -174q-158 49 -293 176t-158 238q41 57 77 69.5t95 -8.5q45 -141 103.5 -211.5t195.5 -154.5q176 43 291 142t115 218q-4 76 -248 211q-104 55 -211 117.5t-187.5 148.5t-95.5 176q66 162 234 274.5t338 127.5q244 -102 354 -330 q-6 -39 -46 -63.5t-100 -18.5q-45 119 -96 184.5t-127 120.5q-137 -31 -268 -129t-128 -167.5t101.5 -145.5t221 -140.5t247.5 -163t168 -196.5zM412 -502q-45 -4 -66 29l111 170l-47 229q66 49 127 25.5t88 -94.5q-10 -92 -73.5 -191.5t-139.5 -167.5z" />
<glyph unicode="&#x219;" horiz-adv-x="950" d="M680 350q0 63 -250 170q-94 41 -183 107.5t-110 140.5q25 147 164 249.5t311 115.5q98 -43 161 -107.5t85 -177.5q-6 -33 -48 -48.5t-116 -0.5q-6 123 -96 239q-109 -31 -204 -108.5t-95 -130.5q0 -57 246 -170q94 -43 183 -118t110 -159q-35 -160 -163 -252t-331 -100 q-113 33 -202 125t-103 182q37 55 70.5 72.5t85.5 7.5q37 -193 165 -297q152 31 236 106.5t84 153.5zM268 -502q-45 -4 -65 29l110 170l-47 229q66 49 127.5 25.5t87.5 -94.5q-10 -92 -73.5 -191.5t-139.5 -167.5z" />
<glyph unicode="&#x21a;" horiz-adv-x="1099" d="M596 1372l-369 -26q-61 61 -16 118q446 29 1024 21q23 -16 14.5 -54t-45.5 -73l-411 24l-134 -585q-14 -125 -47.5 -395.5t-48.5 -401.5q-145 -14 -194 61q137 528 213 973zM375 -303l-47 229q66 49 127 25.5t88 -94.5q-10 -92 -73.5 -191.5t-139.5 -167.5q-45 -4 -66 29 z" />
<glyph unicode="&#x21b;" horiz-adv-x="761" d="M782 1008l-333 -11q-14 -137 -48 -422.5t-51 -437.5q160 45 264 119q47 2 59.5 -16.5t8.5 -61.5q-66 -57 -175.5 -107.5t-207.5 -70.5q-125 27 -143 106q150 680 184 873l-258 -49q-55 70 4 143l266 2l-2 295q121 84 205 21l-94 -301l325 63q29 -16 28 -58t-32 -87z M252 -303l-47 229q66 49 127 25.5t88 -94.5q-10 -92 -73.5 -191.5t-139.5 -167.5q-45 -4 -66 29z" />
<glyph unicode="&#x2bc;" horiz-adv-x="608" d="M397 1319q-51 -4 -73 31l125 192l-54 258q74 55 143.5 28.5t98.5 -106.5q-12 -104 -84 -215.5t-156 -187.5z" />
<glyph unicode="&#x2c6;" horiz-adv-x="616" d="M141 1262l289 266q90 23 143 -17l136 -282q-33 -29 -78 -31t-66 16l-104 222l-258 -228q-58 9 -62 54z" />
<glyph unicode="&#x2c7;" horiz-adv-x="571" d="M451 1208q-88 -25 -144 17l-125 233q29 47 82 25l103 -203l208 221q113 33 132 -55z" />
<glyph unicode="&#x2c9;" horiz-adv-x="686" d="M786 1393q53 -31 -30 -125l-586 -17q-41 41 23 121l311 -10z" />
<glyph unicode="&#x2d8;" horiz-adv-x="585" d="M463 1223q-211 0 -279 237q18 16 70 17q39 -117 139 -148q141 25 158 148q117 33 168 -43q-23 -94 -92.5 -152.5t-163.5 -58.5z" />
<glyph unicode="&#x2d9;" horiz-adv-x="241" d="M327.5 1276q-28.5 -29 -68.5 -29t-67.5 29t-27.5 68.5t27.5 67.5t68.5 28t68.5 -28t27.5 -67.5t-28.5 -68.5z" />
<glyph unicode="&#x2da;" horiz-adv-x="434" d="M395 1542q-12 0 -57 -22q-33 -45 -57 -121q-47 -145 51 -146q29 0 65 25q37 53 52 121q42 143 -54 143zM277.5 1541.5q70.5 62.5 153.5 62.5t119 -59.5t6 -143.5t-102.5 -146.5t-154.5 -62.5t-118 59.5t-7 147.5q33 80 103.5 142.5z" />
<glyph unicode="&#x2db;" horiz-adv-x="598" d="M18 -231q39 -70 154 -70t199 72q45 -4 55 -52q-117 -125 -268 -125q-121 0 -202 61.5t-67 149.5q27 160 277 213q86 0 74 -47q-96 -18 -154 -71t-68 -131z" />
<glyph unicode="&#x2dc;" horiz-adv-x="712" d="M391 1460q166 -68 221 -153l9 -2l120 141q43 8 70 -10.5t16 -49.5q-59 -102 -227 -188q-104 35 -160.5 70t-89.5 88l-10 -4l-107 -146q-37 -2 -63.5 16.5t-24.5 43.5q31 43 55.5 71.5t77 66.5t113.5 56z" />
<glyph unicode="&#x2dd;" horiz-adv-x="546" d="M637 1544q43 0 59 -14l-53 -109l-164 -221q-47 -6 -73 17l153 313q35 14 78 14zM373 1544q43 0 59 -14l-53 -109l-164 -221q-45 -4 -76 17l156 313q35 14 78 14z" />
<glyph unicode="&#x3c0;" horiz-adv-x="1542" d="M1212 872h-26q-119 -358 -113 -809q74 20 197 87q96 -20 53 -138q-76 -41 -154.5 -50t-203.5 -3q-51 410 106 920q-170 12 -328 51q-113 -600 -264 -916q-59 -63 -180 -55q-135 80 -178 160q-16 29 -51 108q33 49 61.5 65.5t75.5 4.5q25 -98 50.5 -150.5t82.5 -103.5 q20 4 29 6q70 111 148.5 393.5t111.5 518.5q-94 29 -178 65l-11 -2l-180 -135q-57 10 -57 47q68 119 233 225q426 -182 740 -198l12 6l223 194q98 -23 121 -108q-59 -74 -133 -112t-187 -71z" />
<glyph unicode="&#x901;" d="M248 1469.5q-117 -68.5 -215.5 -68.5t-198.5 118.5t-131 245.5q61 88 141 60q8 -104 58.5 -197.5t122.5 -146.5q190 25 288 221q82 14 107 -70q-55 -94 -172 -162.5zM156.5 1615q-29.5 -30 -71.5 -30t-71.5 30t-29.5 72t29.5 71.5t71.5 29.5t71.5 -29.5t29.5 -71.5 t-29.5 -72z" />
<glyph unicode="&#x902;" d="M49 1442q-37 0 -63.5 26.5t-26.5 63.5t25.5 62.5t63.5 25.5t63.5 -25.5t25.5 -62.5t-25.5 -63.5t-62.5 -26.5z" />
<glyph unicode="&#x903;" horiz-adv-x="456" d="M273.5 117q-33.5 -35 -84 -35t-85 35t-34.5 84t34.5 83.5t85 34.5t84 -34.5t33.5 -83.5t-33.5 -84zM363.5 801q-33.5 -35 -84 -35t-85 35t-34.5 84t34.5 84t85 35t84 -35t33.5 -84t-33.5 -84z" />
<glyph unicode="&#x905;" horiz-adv-x="1310" d="M537 604q-80 43 -181 43q-35 16 -51 57t-2 84q41 12 90 35q127 55 196.5 134t80.5 200l-6 8q-80 16 -173.5 -21.5t-168.5 -119.5q-41 10 -70 39t-27 59q178 176 408 176q158 -29 178 -176q-45 -260 -322 -374l5 -9q94 -20 168 -73q272 137 458 247l62 261h-224l-24 22 q14 49 51 72h219l15 61q133 0 178 -61h202l25 -23q-14 -49 -51 -71h-219l-125 -271l-146 -903q-117 -14 -165 47l155 666l70 86l-21 22q-190 -115 -391 -225q39 -51 39 -96q0 -102 -101.5 -207t-229.5 -165t-218 -60q-80 6 -151.5 62t-71.5 110q0 68 160 161q125 76 379 203 zM238 176q88 0 238.5 98.5t150.5 196.5q0 25 -17 57q-397 -219 -446 -266q-16 -16 -16.5 -32.5t29.5 -35t61 -18.5z" />
<glyph unicode="&#x906;" horiz-adv-x="1705" d="M537 604q-80 43 -181 43q-35 16 -51 57t-2 84q41 12 90 35q127 55 196.5 134t80.5 200l-6 8q-80 16 -173.5 -21.5t-168.5 -119.5q-41 10 -70 39t-27 59q178 176 408 176q158 -29 178 -176q-45 -260 -322 -374l5 -9q94 -20 168 -73q272 137 458 247l62 261h-224l-24 22 q14 49 51 72h219l15 61q133 0 178 -61h202l15 61q133 0 178 -61h203l24 -23q-14 -49 -51 -71h-219l-125 -271l-145 -903q-117 -14 -166 47l264 1127h-223l-125 -271l-146 -903q-117 -14 -165 47l155 666l70 86l-21 22q-190 -115 -391 -225q39 -51 39 -96q0 -102 -101.5 -207 t-229.5 -165t-218 -60q-80 6 -151.5 62t-71.5 110q0 68 160 161q125 76 379 203zM238 176q88 0 238.5 98.5t150.5 196.5q0 25 -17 57q-397 -219 -446 -266q-16 -16 -16.5 -32.5t29.5 -35t61 -18.5z" />
<glyph unicode="&#x907;" horiz-adv-x="882" d="M786 399q0 -92 -141 -191t-258 -99q-72 0 -225 106l-8 -8q72 -74 164 -203t143 -231q0 -27 -31 -46.5t-70 -23.5q-193 365 -358 526q74 139 158 125q45 -47 114.5 -87t129 -40t140.5 56.5t107 107.5v17q-23 39 -124 71.5t-226 76.5t-190 103q0 49 18 100.5t51 74.5 q16 8 209 67.5t246 93.5l2 6q-68 92 -209 173h-385l-25 22q14 49 52 72h1101l25 -23q-14 -49 -51 -71h-518q96 -63 147 -140q0 -88 -51 -133q-68 -41 -250 -97t-211 -73l-6 -20q29 -37 230.5 -101.5t265.5 -122.5q34 -45 34 -88z" />
<glyph unicode="&#x908;" horiz-adv-x="882" d="M786 399q0 -92 -141 -191t-258 -99q-72 0 -225 106l-8 -8q72 -74 164 -203t143 -231q0 -27 -31 -46.5t-70 -23.5q-193 365 -358 526q74 139 158 125q45 -47 114.5 -87t129 -40t140.5 56.5t107 107.5v17q-23 39 -124 71.5t-226 76.5t-190 103q0 49 18 100.5t51 74.5 q16 8 209 67.5t246 93.5l2 6q-68 92 -209 173h-385l-25 22q14 49 52 72h1101l25 -23q-14 -49 -51 -71h-518q96 -63 147 -140q0 -88 -51 -133q-68 -41 -250 -97t-211 -73l-6 -20q29 -37 230.5 -101.5t265.5 -122.5q34 -45 34 -88zM502 1753l-25 -20q6 -154 94 -357 q-12 -37 -73 -37q-72 172 -179 344q84 180 213 191q72 -12 139.5 -51t104.5 -86q8 -72 -104 -101q-64 90 -170 117z" />
<glyph unicode="&#x909;" horiz-adv-x="1013" d="M891 502q0 -131 -161 -279.5t-290 -148.5q-117 6 -240.5 143t-181.5 295q23 49 60 67.5t72 2.5q39 -137 138 -268.5t168.5 -131.5t180.5 107.5t111 183.5t-168 111q-59 12 -121 12q-35 16 -51.5 57t-1.5 84q39 12 90 35q274 121 295 354l-7 9q-80 16 -173 -22t-169 -120 q-41 10 -69.5 39t-26.5 60q59 55 103 82h-488l-24 22q14 49 51 72h1315l24 -23q-14 -49 -51 -71h-371q20 -35 27 -82q-18 -127 -103.5 -217.5t-244.5 -167.5l6 -11q121 -6 211 -69.5t90 -124.5z" />
<glyph unicode="&#x90a;" horiz-adv-x="1228" d="M872 502q0 -131 -160.5 -279.5t-289.5 -148.5q-117 6 -241 143t-181 295q23 49 59.5 67.5t71.5 2.5q39 -137 138.5 -268.5t169 -131.5t180 107.5t110.5 183.5q0 70 -143 107q-76 16 -146 16q-35 16 -51 57t-2 84q39 12 90 35q274 121 295 354l-6 9q-80 16 -173 -22 t-169 -120q-41 10 -69.5 39t-26.5 60q59 55 102 82h-469l-24 22q14 49 51 72h1532l24 -23q-14 -49 -51 -71h-606q20 -35 26 -82q-16 -139 -149 -218l6 -8l131 52q113 -35 183.5 -91.5t136.5 -156.5q-31 -225 -236 -394q-53 10 -74.5 34t-17.5 55q164 117 213 288 q-47 102 -205 166q-162 -35 -336 -121l6 -10q121 -6 211 -65.5t90 -120.5z" />
<glyph unicode="&#x90b;" horiz-adv-x="1593" d="M1349.5 59.5q-92.5 -59.5 -168 -59.5t-146 61.5t-70.5 122.5q0 113 118.5 281t251.5 266l-229 2q-160 -125 -260 -219l-82 -514q-117 -14 -166 47l74 313l57 78l-18 19q-96 -102 -283.5 -233.5t-376.5 -223.5q-102 51 -69 115q393 152 706 440q-129 145 -344 281l-53 -97 q-158 14 -180 105q23 57 81 98t99 41q72 0 199.5 -106.5t263.5 -258.5l18 19l-29 39l119 498h-819l-25 22q14 49 52 72h815l14 61q133 0 178 -61h805l25 -23q-14 -49 -52 -71h-821l-125 -271l-43 -268q82 72 146 135q-33 31 -39 53q27 57 79 90t105 33q41 -47 21 -121 q131 -10 213 19q57 -14 78.5 -47t19.5 -101q-147 -53 -267 -202.5t-153 -321.5q37 -74 109 -88q111 16 225 164q25 2 47.5 -20.5t24.5 -51.5q-33 -57 -125.5 -116.5z" />
<glyph unicode="&#x90c;" horiz-adv-x="1394" d="M1132.5 46q-94.5 -58 -159 -58t-156.5 71.5t-92 147.5q0 59 217 213q80 57 150.5 135t76.5 147q-31 70 -94 80q-143 -178 -430 -389q-74 4 -115 34t-41 65q45 78 56 145q-6 57 -39 109.5t-76 60.5q-90 -37 -150.5 -120t-72.5 -171q18 -129 76.5 -229.5t187.5 -177.5 q16 -31 -8.5 -64t-87.5 -45q-127 88 -213 226.5t-86 281.5q0 76 77.5 196.5t190.5 190.5q82 20 170 10q70 -49 100.5 -111.5t42.5 -154.5q-8 -47 -32 -115l10 -6q188 135 407 379q53 0 101 -20q104 145 86 297h-1176l-24 22q14 49 51 72h1472l25 -23q-14 -49 -51 -71h-176 q12 -172 -127 -353q49 -49 73 -123q-35 -86 -95 -162.5t-110.5 -120.5t-129 -105.5t-113.5 -94.5q12 -41 51 -80t78 -55q125 51 205 174q49 -4 71.5 -27.5t12.5 -60.5q-39 -62 -133.5 -120z" />
<glyph unicode="&#x90d;" horiz-adv-x="933" d="M944 1174q0 -115 -39 -250.5t-114 -231.5q-45 2 -75 20.5t-30 45.5q98 135 111 266l-11 150h-321q-35 -154 -57.5 -244t-68.5 -226.5t-97 -234.5l18 -12l287 168q119 6 164 -93q14 -186 -54.5 -405t-193.5 -340q-90 14 -107 76q100 111 152.5 230.5t83.5 275.5l-6 139 l-17 12l-329 -198q-59 10 -104.5 41.5t-55.5 74.5q158 315 207 545v191h-244l-25 22q14 49 52 72h1153l24 -23q-14 -49 -51 -71h-252zM817 1339q-78 0 -168 119t-129 246q61 88 142 59q39 -248 167 -344q178 29 279 221q82 14 106 -69q-57 -90 -170.5 -161t-226.5 -71z" />
<glyph unicode="&#x90f;" horiz-adv-x="933" d="M944 1174q0 -115 -39 -250.5t-114 -231.5q-45 2 -75 20.5t-30 45.5q98 135 111 266l-11 150h-321q-35 -154 -57.5 -244t-68.5 -226.5t-97 -234.5l18 -12l287 168q119 6 164 -93q14 -186 -54.5 -405t-193.5 -340q-90 14 -107 76q100 111 152.5 230.5t83.5 275.5l-6 139 l-17 12l-329 -198q-59 10 -104.5 41.5t-55.5 74.5q158 315 207 545v191h-244l-25 22q14 49 52 72h1153l24 -23q-14 -49 -51 -71h-252z" />
<glyph unicode="&#x910;" horiz-adv-x="933" d="M944 1174q0 -115 -39 -250.5t-114 -231.5q-45 2 -75 20.5t-30 45.5q98 135 111 266l-11 150h-321q-35 -154 -57.5 -244t-68.5 -226.5t-97 -234.5l18 -12l287 168q119 6 164 -93q14 -186 -54.5 -405t-193.5 -340q-90 14 -107 76q100 111 152.5 230.5t83.5 275.5l-6 139 l-17 12l-329 -198q-59 10 -104.5 41.5t-55.5 74.5q158 315 207 545v191h-244l-25 22q14 49 52 72h1153l24 -23q-14 -49 -51 -71h-252zM573 1874q53 0 125 -93t122 -194.5t95 -210.5q-4 -37 -71 -37q-111 238 -223 373l-68 -61q-147 37 -150 135q64 88 170 88z" />
<glyph unicode="&#x911;" horiz-adv-x="1705" d="M1710 1401q-78 0 -168 118.5t-129 245.5q61 88 141 60q39 -248 168 -344q178 29 279 221q82 14 106 -70q-57 -90 -170.5 -160.5t-226.5 -70.5zM537 604q-80 43 -181 43q-35 16 -51 57t-2 84q41 12 90 35q127 55 196.5 134t80.5 200l-6 8q-80 16 -173.5 -21.5 t-168.5 -119.5q-41 10 -70 39t-27 59q178 176 408 176q158 -29 178 -176q-45 -260 -322 -374l5 -9q94 -20 168 -73q272 137 458 247l62 261h-224l-24 22q14 49 51 72h219l15 61q133 0 178 -61h202l15 61q133 0 178 -61h203l24 -23q-14 -49 -51 -71h-219l-125 -271l-145 -903 q-117 -14 -166 47l264 1127h-223l-125 -271l-146 -903q-117 -14 -165 47l155 666l70 86l-21 22q-190 -115 -391 -225q39 -51 39 -96q0 -102 -101.5 -207t-229.5 -165t-218 -60q-80 6 -151.5 62t-71.5 110q0 68 160 161q125 76 379 203zM238 176q88 0 238.5 98.5t150.5 196.5 q0 25 -17 57q-397 -219 -446 -266q-16 -16 -16.5 -32.5t29.5 -35t61 -18.5z" />
<glyph unicode="&#x913;" horiz-adv-x="1705" d="M537 604q-80 43 -181 43q-35 16 -51 57t-2 84q41 12 90 35q127 55 196.5 134t80.5 200l-6 8q-80 16 -173.5 -21.5t-168.5 -119.5q-41 10 -70 39t-27 59q178 176 408 176q158 -29 178 -176q-45 -260 -322 -374l5 -9q94 -20 168 -73q272 137 458 247l62 261h-224l-24 22 q14 49 51 72h219l15 61q133 0 178 -61h202l15 61q133 0 178 -61h203l24 -23q-14 -49 -51 -71h-219l-125 -271l-145 -903q-117 -14 -166 47l264 1127h-223l-125 -271l-146 -903q-117 -14 -165 47l155 666l70 86l-21 22q-190 -115 -391 -225q39 -51 39 -96q0 -102 -101.5 -207 t-229.5 -165t-218 -60q-80 6 -151.5 62t-71.5 110q0 68 160 161q125 76 379 203zM238 176q88 0 238.5 98.5t150.5 196.5q0 25 -17 57q-397 -219 -446 -266q-16 -16 -16.5 -32.5t29.5 -35t61 -18.5zM1393 1935q53 0 124.5 -93t122 -194.5t95.5 -209.5q-4 -37 -72 -37 q-111 238 -223 373l-68 -62q-147 37 -149 135q64 88 170 88z" />
<glyph unicode="&#x914;" horiz-adv-x="1705" d="M537 604q-80 43 -181 43q-35 16 -51 57t-2 84q41 12 90 35q127 55 196.5 134t80.5 200l-6 8q-80 16 -173.5 -21.5t-168.5 -119.5q-41 10 -70 39t-27 59q178 176 408 176q158 -29 178 -176q-45 -260 -322 -374l5 -9q94 -20 168 -73q272 137 458 247l62 261h-224l-24 22 q14 49 51 72h219l15 61q133 0 178 -61h202l15 61q133 0 178 -61h203l24 -23q-14 -49 -51 -71h-219l-125 -271l-145 -903q-117 -14 -166 47l264 1127h-223l-125 -271l-146 -903q-117 -14 -165 47l155 666l70 86l-21 22q-190 -115 -391 -225q39 -51 39 -96q0 -102 -101.5 -207 t-229.5 -165t-218 -60q-80 6 -151.5 62t-71.5 110q0 68 160 161q125 76 379 203zM238 176q88 0 238.5 98.5t150.5 196.5q0 25 -17 57q-397 -219 -446 -266q-16 -16 -16.5 -32.5t29.5 -35t61 -18.5zM1386 1935q61 0 138 -92q141 -170 209 -391q-8 -51 -78 -51 q-49 53 -82 79.5t-88 43.5l-62 -74q-137 27 -145 121q53 82 140 82t208 -135l6 6q-106 199 -207 250l-67 -62q-147 37 -150 135q63 88 178 88z" />
<glyph unicode="&#x915;" horiz-adv-x="1232" d="M1217 791q0 -289 -347 -584q-72 25 -63 61q258 238 258 508q0 125 -102 135q-29 -35 -127.5 -146.5t-135.5 -156.5l-98 -608q-117 -14 -166 47l66 281l76 153l-23 15q-152 -180 -236 -287q-123 8 -191.5 72.5t-68.5 188.5t53.5 255t144.5 219t189 88q39 0 75 -29.5 t51.5 -54t52.5 -84.5l4 2l71 308h-657l-25 22q14 49 52 72h653l14 61q133 0 178 -61h607l24 -23q-14 -49 -51 -71h-618l-170 -412l14 -10q43 51 120 144t95 114q127 18 204 -41t77 -178zM455 928q-80 0 -162 -147.5t-82 -313.5q0 -123 72 -158q182 190 290 328l27 111 q-69 180 -145 180z" />
<glyph unicode="&#x916;" horiz-adv-x="1497" d="M684 1012q0 49 -35 98t-83 49t-110.5 -30.5t-107.5 -84.5q-70 14 -74 68q14 25 56 62h-287l-25 22q14 49 52 72h1304l15 61q133 0 178 -61h219l24 -23q-14 -49 -51 -71h-235l-125 -271l-146 -903q-117 -14 -166 47l74 311l56 80l-21 19q-76 -102 -285 -222t-344 -137 q-131 25 -239 127q-100 96 -177 189.5t-102 122.5q43 141 144 149l22 -20q190 20 329.5 120.5t139.5 225.5zM1145 926q-76 0 -138.5 -132t-62.5 -228.5t82 -96.5q51 0 114.5 63.5t96.5 141.5l16 74q-12 68 -41.5 123t-66.5 55zM776 1174q59 -72 59.5 -162t-100 -201 t-242 -180.5t-262.5 -69.5l-10 -16q160 -197 234.5 -258.5t128.5 -61.5q90 0 383 162l-6 10q-68 0 -114 51.5t-46 128t38 180t118.5 188.5t179 85t145.5 -137l6 2l64 279h-576z" />
<glyph unicode="&#x917;" horiz-adv-x="954" d="M1241 1268l25 -23q-14 -49 -52 -71h-215l-125 -271l-145 -903q-117 -14 -166 47l264 1127h-278q-66 -438 -154 -777q-47 -47 -110 -67q-203 18 -283 166q4 76 49 106q147 90 314 207q10 53 22 160l-16 205h-330l-25 22q14 49 52 72h782l14 61q133 0 178 -61h199zM244 451 l18 14q41 98 76 223q-143 -98 -215 -145q47 -67 121 -92z" />
<glyph unicode="&#x918;" horiz-adv-x="1103" d="M1393 1268l24 -23q-14 -49 -51 -71h-219l-125 -271l-145 -903q-117 -14 -166 47l106 457l70 88l-17 18q-133 -133 -310 -251.5t-300 -151.5q-66 23 -110 66.5t-44 93.5q164 205 349 350l-9 10q-154 -49 -272 -63q-51 23 -84 71.5t-29 98.5q133 168 392 340h-410l-25 22 q14 49 52 72h927l15 61q133 0 178 -61h203zM891 819l84 355h-326q-287 -176 -461 -377l13 -19q109 10 266 62q43 -2 73.5 -42t41.5 -100q-231 -195 -342 -354l14 -14q176 68 352 208t285 281z" />
<glyph unicode="&#x919;" horiz-adv-x="872" d="M1161 1268l25 -23q-14 -49 -51 -71h-498q94 -59 145 -136q4 -29 -9 -67.5t-42 -65.5q-78 -53 -255 -114.5t-222 -83.5l-2 -13q63 -45 253.5 -111.5t262.5 -121.5q18 -41 4 -110.5t-39 -92.5q-90 -76 -292.5 -138.5t-385.5 -84.5q-86 74 -37 129q442 39 650 198l2 15 q-70 53 -275 123.5t-278 136.5q-12 139 61 174q358 102 477 186l4 15q-45 72 -223 162h-393l-25 22q14 49 52 72h1091zM807 797q35 0 60.5 -26t25.5 -60.5t-25.5 -60t-60.5 -25.5t-60.5 25.5t-25.5 60t25.5 60.5t60.5 26z" />
<glyph unicode="&#x91a;" horiz-adv-x="1222" d="M722 400.5q-134 -93.5 -234.5 -93.5t-202 87t-101.5 165q0 57 103 117q127 70 282 137l-2 14q-322 -39 -477 -28q-18 31 -21 84t15 71q299 -51 588 -34q18 -6 31.5 -55.5t9.5 -82.5q-346 -139 -346 -207q0 -43 57 -90t113 -47q82 0 237.5 128t241.5 274l78 334h-1051 l-25 22q14 49 52 72h1046l14 61q133 0 179 -61h202l25 -23q-14 -49 -51 -71h-219l-125 -271l-146 -903q-117 -14 -166 47l101 422l80 147l-29 23q-125 -145 -259 -238.5z" />
<glyph unicode="&#x91b;" horiz-adv-x="1187" d="M1372 1268l25 -23q-14 -49 -51 -71h-211q8 -80 -48 -197q72 -70 70 -129q-8 -139 -207 -328q35 -178 32 -247.5t-122 -172t-237 -161.5q-80 47 -62 92q78 43 126 71.5t105.5 77.5t88.5 99q-6 82 -25 159q-139 -113 -298 -202t-271 -117q-66 27 -112 70.5t-44 95.5 q197 281 354 391l-8 10q-195 -57 -282 -63q-53 29 -88 81t-29 99q68 84 182.5 187.5t233.5 183.5h-441l-24 22q14 49 51 72h1292zM1030 844q2 20 -24.5 47t-57.5 41q-29 -8 -39 -62.5t17 -210.5q102 115 104 185zM264 262l23 -18q123 37 272.5 126t267.5 195 q-29 123 -37 187.5t7 185.5q25 35 76 70.5t106 40.5q14 -6 29 -15q29 78 14 140h-317q-137 -76 -272.5 -190t-223.5 -212l16 -29q57 4 279 58q129 -35 106 -152q-205 -176 -346 -387z" />
<glyph unicode="&#x91c;" horiz-adv-x="1259" d="M350 242q-113 0 -187.5 132t-60.5 277q8 74 56.5 155t128.5 128q66 12 92 -68q-119 -100 -131 -211q-25 -229 121 -301q94 25 173 108t85 150q4 31 -22.5 51.5t-63.5 32.5q12 59 52 103.5t81 42.5q37 -39 110 -76q152 12 291 172l55 236h-1095l-25 22q14 49 51 72h1092 l14 61q133 0 179 -61h202l25 -23q-14 -49 -51 -71h-219l-125 -271l-146 -903q-117 -14 -166 47l138 584l83 151l-12 11q-170 -143 -303 -136l-51 25l-10 -12l34 -47q-10 -135 -156.5 -258t-238.5 -123z" />
<glyph unicode="&#x91d;" horiz-adv-x="1333" d="M805 412q0 -106 -148 -209q-164 -111 -348 -80q-78 31 -155 94l-11 -10q193 -213 342 -434q0 -27 -30.5 -46.5t-69.5 -23.5q-137 233 -391 506q31 63 82 108t100 31q68 -74 176 -117q113 0 196 43t128 111l-2 14q-18 43 -124 76t-233 75t-184 105q0 49 19.5 102.5 t52.5 76.5q14 6 203.5 65t246.5 94l4 8q-45 70 -206 173h-410l-25 22q14 49 52 72h1157l14 61q133 0 178 -61h203l25 -23q-14 -49 -52 -71h-219l-125 -271l-145 -903q-117 -14 -166 47l150 631l65 80l-14 18q-227 -143 -447 -237q111 -45 111 -127zM1141 901l63 273h-553 q96 -63 148 -140q0 -88 -51 -133q-66 -37 -249.5 -99.5t-213.5 -74.5l-6 -20q37 -35 135 -70t161 -43q139 57 300.5 143t265.5 164z" />
<glyph unicode="&#x91e;" horiz-adv-x="1179" d="M1468 1268l25 -23q-14 -49 -51 -71h-219l-125 -271l-146 -903q-117 -14 -166 47l148 621l63 75l-14 25q-119 -86 -293 -164q-35 -156 -162 -266.5t-266 -101.5q-57 4 -116.5 89t-79.5 197q70 43 112 21q39 -168 109 -201q86 14 178 105.5t98 216.5q6 94 -23.5 152 t-111.5 93q-109 -10 -217 -100q-80 43 -72 94q154 121 297 113q115 -8 183.5 -94t78.5 -201q207 98 291 197l62 256h-1008l-25 22q14 49 52 72h1003l14 61q133 0 179 -61h202z" />
<glyph unicode="&#x91f;" horiz-adv-x="933" d="M674 1001q-39 70 -217 173h-394l-24 22q14 49 51 72h1090l24 -23q-14 -49 -51 -71h-510q104 -66 158 -156q-4 -59 -41 -109q-68 -57 -233 -158.5t-191 -119.5q-152 -102 -150 -178q4 -133 207 -215q221 25 381 227q82 0 96 -86q-70 -86 -208 -160t-287 -78 q-145 31 -244.5 120t-99.5 188q0 72 52 129t121.5 101t172.5 103q211 121 295 205z" />
<glyph unicode="&#x920;" horiz-adv-x="1052" d="M27 459q0 72 66.5 136t152.5 117.5t190.5 110t160.5 96t87 82.5l4 19q-45 74 -188 154h-443l-24 22q14 49 51 72h1171l25 -23q-14 -49 -51 -71h-551q104 -68 139 -146q-8 -59 -51 -110q-63 -49 -143 -97q119 -45 228.5 -118.5t141.5 -153.5q-8 -182 -185 -308t-380 -141 q-162 23 -281.5 128.5t-119.5 230.5zM223 342q74 -100 211 -152q162 18 288 125t134 222q-80 111 -328 227q-199 -119 -232.5 -147.5t-64.5 -55.5q-53 -49 -53 -103.5t45 -115.5z" />
<glyph unicode="&#x921;" horiz-adv-x="872" d="M1161 1268l25 -23q-14 -49 -51 -71h-498q94 -59 145 -136q4 -29 -9 -67.5t-42 -65.5q-78 -53 -255 -114.5t-222 -83.5l-2 -13q63 -45 253.5 -111.5t262.5 -121.5q18 -41 4 -110.5t-39 -92.5q-90 -76 -292.5 -138.5t-385.5 -84.5q-86 74 -37 129q442 39 650 198l2 15 q-70 53 -275 123.5t-278 136.5q-12 139 61 174q358 102 477 186l4 15q-45 72 -223 162h-393l-25 22q14 49 52 72h1091z" />
<glyph unicode="&#x922;" horiz-adv-x="999" d="M193 442q0 -88 96 -174q51 41 179 147.5t218 174.5q84 -8 158 -72.5t74 -122.5q0 -86 -173.5 -196.5t-296 -110.5t-247.5 106.5t-164 225.5q4 82 51 137q66 57 315.5 203.5t303.5 212.5l8 22q-27 49 -71 84t-138 95h-424l-25 22q14 49 52 72h1142l25 -23q-14 -49 -51 -71 h-551q129 -84 151.5 -142.5t-21.5 -118t-150.5 -130t-207.5 -124.5q-253 -141 -253 -217zM690 477q-70 -45 -336 -258q45 -27 97 -43q246 49 329 213q-10 57 -90 88z" />
<glyph unicode="&#x923;" horiz-adv-x="1214" d="M608 468q-131 -91 -228 -91t-186.5 118.5t-89.5 229.5q0 76 78 202t197 247h-336l-25 22q14 49 52 72h1038l14 61q133 0 178 -61h205l25 -23q-14 -49 -51 -71h-222l-124 -271l-146 -903q-117 -14 -166 47l264 1127h-372q104 -215 82 -459q-56 -156 -187 -247zM571 1174 h-34q-109 -90 -192 -221.5t-97 -237.5q18 -168 139 -234q98 31 178 104.5t101 172.5q-1 183 -95 416z" />
<glyph unicode="&#x924;" horiz-adv-x="991" d="M1280 1268l25 -23q-14 -49 -52 -71h-219l-125 -271l-145 -903q-117 -14 -166 47l152 643l47 58l-13 16q-121 -68 -289.5 -133.5t-281.5 -95.5q-33 -39 -43 -89q47 -182 250 -376q0 -55 -88 -76q-127 113 -201 213t-111 231q12 70 50.5 135.5t97.5 90.5q313 45 625 215 l69 295h-819l-25 22q14 49 52 72h815l14 61q133 0 178 -61h203z" />
<glyph unicode="&#x925;" horiz-adv-x="1081" d="M588 416q-137 -92 -238.5 -92t-201 84t-99.5 167q0 53 58.5 109.5t181.5 139.5t170 120l-164 35q-106 74 -106.5 148.5t109.5 179t220 104.5q82 0 148.5 -78t70.5 -164q-4 -78 -61.5 -157.5t-137 -144t-158.5 -121t-134.5 -103.5t-55.5 -83t54.5 -82t113.5 -46 q104 0 267 138.5t254 285.5l73 318h-108l-25 22q14 49 51 72h105l14 61q133 0 178 -61h203l25 -23q-14 -49 -52 -71h-219l-125 -271l-145 -903q-117 -14 -166 47l103 436l81 150l-22 18q-125 -143 -262 -235zM537 1016q72 82 71.5 138t-35 102.5t-78.5 46.5t-114 -61.5 t-70 -98.5t39 -72z" />
<glyph unicode="&#x926;" horiz-adv-x="960" d="M723 438q-276 -350 -279 -354q-166 27 -289.5 129t-123.5 221q0 76 86 156t194 139q313 168 381 262l4 15q-31 66 -194 168h-451l-24 22q14 49 51 72h1079l25 -23q-14 -49 -52 -71h-452q117 -78 151 -146q14 -57 -45 -143q-53 -49 -201.5 -135t-265 -169t-141.5 -155 q25 -68 89.5 -125t142.5 -78q39 43 297 350q104 10 169 -96q-78 -182 -258 -776q-109 0 -124 59q29 80 83 230q133 358 158 442z" />
<glyph unicode="&#x927;" horiz-adv-x="1159" d="M1448 1268l25 -23q-14 -49 -52 -71h-219l-125 -271l-145 -903q-117 -14 -166 47l111 477l69 86l-20 23q-133 -133 -322.5 -258t-329.5 -168q-66 23 -109.5 66.5t-43.5 93.5q168 211 358 360l-8 10q-119 -53 -262 -71q-61 31 -107.5 86t-40.5 108q49 129 226.5 303 t378.5 250q51 4 94 -39t59 -119q-37 -123 -190.5 -241.5t-302.5 -161.5l-125 20q-12 -25 -17 -36q2 -35 41 -58q109 8 267 72q43 -2 73.5 -42t40.5 -99q-240 -203 -352 -365l14 -14q160 57 369 208.5t309 280.5l84 355h-141l-25 22q14 49 51 72h138l14 61q133 0 178 -61h203 zM240 938l75 14q102 25 226.5 123.5t158.5 188.5q-6 33 -32 39q-106 -51 -230 -155t-198 -210z" />
<glyph unicode="&#x928;" horiz-adv-x="1011" d="M1300 1268l25 -23q-14 -49 -51 -71h-1231l-25 22q14 49 52 72h1230zM840 983l-19 8q-199 -143 -432 -297q47 -121 41 -284q-49 -49 -125 -74q-193 18 -276 160q10 74 51 112q18 12 93 57.5t101.5 61.5t94 58t101.5 64.5t93.5 61.5t100.5 68q92 66 182 133q111 -6 172 -74 l-100 -219l-134 -819q-117 -14 -166 47zM283 451l18 14q16 84 -2 170l-147 -98q51 -66 131 -86z" />
<glyph unicode="&#x92a;" horiz-adv-x="923" d="M1212 1268l25 -23q-14 -49 -51 -71h-219l-125 -271l-146 -903q-117 -14 -166 47l148 633l41 78l-19 12q-264 -248 -469 -422q-43 -4 -102 23.5t-86 68.5q147 553 193 734h-193l-25 22q14 49 52 72h747l14 61q133 0 179 -61h202zM733 911l62 263h-361l-137 -291 q-10 -63 -34.5 -189.5t-35.5 -189.5l19 -10q266 204 487 417z" />
<glyph unicode="&#x92b;" horiz-adv-x="1292" d="M1242.5 996.5q68.5 -68.5 68.5 -166t-28 -173t-87 -147.5t-117.5 -126t-152.5 -130l-64 61q150 123 223.5 236t73.5 243t-102 160q-53 -51 -162 -154.5t-162 -154.5l-104 -645q-117 -14 -166 47l135 582l37 78l-14 14q-227 -213 -406 -365q-43 -4 -102.5 24t-85.5 69 l206 725h-190l-25 22q14 49 52 72h680l14 61q133 0 178 -61h592l25 -23q-14 -49 -52 -71h-608l-123 -271l-51 -133l12 -12q254 254 303 305q134 2 202.5 -66.5zM653 864l74 310h-293l-137 -291q-14 -61 -43 -185.5t-43 -185.5l18 -10q201 149 424 362z" />
<glyph unicode="&#x92c;" horiz-adv-x="827" d="M573 545q-25 -29 -288 -336q-123 8 -191.5 72.5t-68.5 185.5q0 203 121.5 384t289.5 181q121 0 187 -172l4 2l71 312h-655l-25 22q14 49 52 72h651l14 61q133 0 178 -61h203l25 -23q-14 -49 -51 -71h-220l-125 -271l-145 -903q-117 -14 -166 47l84 354l74 129zM250 764 q-74 -137 -74 -278.5t72 -176.5q203 209 205 211q-109 115 -203 244zM444 928q-74 0 -139 -82q98 -137 211 -260l59 61l23 98q-74 183 -154 183z" />
<glyph unicode="&#x92d;" horiz-adv-x="1028" d="M1235 1268l25 -23q-14 -49 -52 -71h-403l-25 22q14 49 51 72h404zM185.5 957q-60.5 42 -60.5 82t39 79q74 45 185.5 134t174.5 157q37 4 86 -14.5t66 -42.5q-53 -240 -96 -455q186 127 294 215q111 -6 173 -74l-101 -219l-133 -819q-117 -14 -166 47l221 936l-16 8 q-109 -80 -297 -209q-68 -309 -84 -385q-39 -39 -127 -67q-203 18 -283 166q4 76 50 106q20 12 313 195q2 8 27 118l26 56l-12 14l-160 -70q-59 0 -119.5 42zM299 1006l178 49q39 186 43 205l-6 4l-270 -222q18 -28 55 -36zM303 451l19 10q25 68 69 215l-209 -133 q43 -63 121 -92z" />
<glyph unicode="&#x92e;" horiz-adv-x="974" d="M1264 1268l24 -23q-14 -49 -51 -71h-692q-18 -115 -47 -281q137 92 313 219q111 -6 172 -74l-100 -219l-133 -819q-117 -14 -166 47l221 936l-21 10q-180 -127 -309 -213q-49 -248 -84 -383q-47 -47 -110 -67q-203 18 -283 166q4 76 49 106q229 145 311 201q14 80 25 166 l-16 205h-324l-25 22q14 49 52 72h1194zM332 684l-213 -139q45 -70 121 -94l18 14q45 108 74 219z" />
<glyph unicode="&#x92f;" horiz-adv-x="1069" d="M570.5 413.5q-150.5 -104.5 -239.5 -104.5t-193.5 89t-104.5 154.5t84 137.5t184 131.5t184 136t84 140.5q0 29 -29.5 47t-64.5 18q-98 0 -229 -106q-72 18 -66 69q23 25 53 48h-190l-25 22q14 49 52 72h893l14 61q133 0 178 -61h203l24 -23q-14 -49 -51 -71h-219 l-125 -271l-145 -903q-117 -14 -166 47l106 447l80 147l-22 18q-119 -141 -269.5 -245.5zM713 1104q0 -74 -84 -162t-185 -151q-268 -174 -268 -238q0 -41 56.5 -91t111.5 -50q82 0 260 144t260 290l76 328h-256q29 -33 29 -70z" />
<glyph unicode="&#x930;" horiz-adv-x="735" d="M647 1024q0 47 -37 91t-86 44q-113 0 -213 -115q-70 14 -73 68q14 25 55 62h-250l-25 22q14 49 52 72h954l25 -23q-14 -49 -52 -71h-256q57 -74 58 -150q-2 -111 -102.5 -222.5t-241 -178t-260.5 -66.5l-11 -16q223 -272 400 -469q-10 -35 -34 -54.5t-46 -17.5 q-55 57 -235.5 260t-256.5 277q43 141 144 149q33 -12 71 -10q135 6 277.5 109.5t142.5 238.5z" />
<glyph unicode="&#x931;" horiz-adv-x="735" d="M647 1024q0 47 -37 91t-86 44q-113 0 -213 -115q-70 14 -73 68q14 25 55 62h-250l-25 22q14 49 52 72h954l25 -23q-14 -49 -52 -71h-256q57 -74 58 -150q-2 -111 -102.5 -222.5t-241 -178t-260.5 -66.5l-11 -16q223 -272 400 -469q-10 -35 -34 -54.5t-46 -17.5 q-55 57 -235.5 260t-256.5 277q43 141 144 149q33 -12 71 -10q135 6 277.5 109.5t142.5 238.5zM5 132q30 30 72 30t71.5 -30t29.5 -72t-29.5 -71.5t-71.5 -29.5t-72 29.5t-30 71.5t30 72z" />
<glyph unicode="&#x932;" horiz-adv-x="1218" d="M55 510q0 86 91.5 213t177.5 172q31 10 89 13t81 -3q127 -82 143 -266q-12 -68 -33 -115l8 -6q199 141 420 412l58 244h-1047l-25 22q14 49 52 72h1042l14 61q133 0 179 -61h202l25 -23q-14 -49 -51 -71h-219l-125 -271l-146 -903q-117 -14 -166 47l133 569l52 91l-19 18 q-268 -248 -368 -326q-59 -2 -106.5 26t-47.5 67q49 86 55 145q-23 135 -112 170q-80 -25 -146.5 -113t-79.5 -176q35 -276 265 -409q16 -39 -12.5 -69t-84.5 -40q-150 106 -224.5 245.5t-74.5 264.5z" />
<glyph unicode="&#x933;" horiz-adv-x="1523" d="M1430 584q0 -190 -132.5 -366.5t-326.5 -217.5q-129 61 -262 248q-178 -170 -359 -248q-145 31 -239.5 133.5t-94.5 225t156 293.5t338 190q168 -188 250 -387q55 59 138 154.5t128 145.5t103.5 94t105.5 50q53 176 41 275h-1235l-25 22q14 49 52 72h1744l25 -23 q-14 -49 -51 -71h-400q8 -117 -59 -310q43 -43 73 -125.5t30 -154.5zM342 113q180 102 350 272q-94 190 -217 330q-117 -45 -212 -157t-109 -214q26 -172 188 -231zM1218.5 307q88.5 127 88.5 242t-62 223q-68 -37 -138.5 -102.5t-171.5 -180t-153 -167.5q100 -139 213 -207 q135 65 223.5 192z" />
<glyph unicode="&#x935;" horiz-adv-x="851" d="M594 537l-264 -328q-137 8 -213 87t-76 212q0 199 122 361.5t292 162.5q117 0 194 -172l13 6l65 308h-684l-25 22q14 49 52 72h678l12 61q133 0 178 -61h203l24 -23q-14 -49 -51 -71h-219l-125 -271l-145 -903q-117 -14 -166 47l82 354l75 117zM463 928q-100 0 -185 -127 t-85 -285t100 -207l307 338l23 101q-70 180 -160 180z" />
<glyph unicode="&#x936;" horiz-adv-x="1187" d="M1477 1268l24 -23q-14 -49 -51 -71h-219l-125 -271l-145 -903q-117 -14 -166 47l264 1127h-178l-25 22q14 49 51 72h174l15 61q133 0 178 -61h203zM233 1130q0 72 110 176.5t215.5 104.5t175 -102.5t69.5 -233.5q0 -197 -182.5 -352.5t-421.5 -165.5l-11 -16 q223 -272 400 -469q-10 -35 -34 -54.5t-46 -17.5q-55 57 -235.5 260t-256.5 277q43 141 144 149q139 -39 303 68q102 66 160 159l-252 37q-45 25 -91.5 83t-46.5 97zM655 989q12 39 12.5 108.5t-31.5 137.5t-86 68t-124 -61.5t-70 -104.5q0 -23 23.5 -52.5t46.5 -44.5z" />
<glyph unicode="&#x937;" horiz-adv-x="923" d="M1212 1268l25 -23q-14 -49 -51 -71h-219l-125 -271l-146 -903q-117 -14 -166 47l148 633l41 78l-19 12q-264 -248 -469 -422q-43 -4 -102 23.5t-86 68.5q147 553 193 734h-193l-25 22q14 49 52 72h747l14 61q133 0 179 -61h202zM227 504l19 -10q150 115 325 270 q-152 147 -211 254l-63 -135q-10 -63 -35 -189.5t-35 -189.5zM733 911l62 263h-361l-33 -72q102 -139 242 -275q55 51 90 84z" />
<glyph unicode="&#x938;" horiz-adv-x="1255" d="M537 535q-23 0 -131 67q-115 -47 -213 -45l-11 -16q223 -272 400 -469q-10 -35 -34 -54.5t-46 -17.5q-55 57 -235.5 260t-256.5 277q43 141 144 149q39 -18 102 -8q133 18 261 118.5t128 215.5q0 49 -35 98t-75 49q-125 0 -226 -115q-70 14 -73 68q14 25 55 62h-248 l-25 22q14 49 52 72h1079l14 61q133 0 178 -61h203l25 -23q-14 -49 -51 -71h-220l-124 -271l-146 -903q-117 -14 -166 47l142 598l61 82l-18 27q-111 -86 -272.5 -152.5t-237.5 -66.5zM737 1174q59 -72 59.5 -157t-82.5 -186.5t-206 -175.5q29 -16 41 -16q74 0 250 81 t264 181l63 273h-389z" />
<glyph unicode="&#x939;" horiz-adv-x="935" d="M494 408q68 61 67.5 103t-63.5 42q-92 0 -203 -67.5t-141 -174.5q12 -86 94 -155.5t205 -87.5q164 16 274 120q68 -4 78 -94q-47 -49 -149.5 -86t-202.5 -43q-164 6 -298.5 113.5t-134.5 237.5t155 226.5t345 88.5l6 12q-29 18 -113.5 57t-136.5 52q-23 35 3 101.5 t65 82.5q293 10 438 113l4 14q-31 53 -143 111h-508l-24 22q14 49 51 72h962l25 -23q-14 -49 -51 -71h-289q57 -45 78 -103q2 -74 -64 -127q-154 -84 -422 -113l-4 -16q190 -92 244.5 -139t56.5 -98q0 -111 -102 -228q-41 -2 -70.5 16.5t-31.5 41.5z" />
<glyph unicode="&#x93c;" d="M210 -11.5q-30 -29.5 -72 -29.5t-71.5 29.5t-29.5 71.5t29.5 72t71.5 30t72 -30t30 -72t-30 -71.5z" />
<glyph unicode="&#x93d;" horiz-adv-x="1089" d="M444 0q-100 0 -219 73.5t-176 145.5q-4 33 13.5 55.5t46.5 22.5q68 -70 162 -125t182 -76q131 37 247.5 162t118.5 219q4 66 -287 166q-106 39 -196 93.5t-88 112.5t78.5 179t171.5 174q365 84 860 66q29 -12 19.5 -53t-50.5 -64q-412 18 -780 -45q-127 -92 -160 -256 q76 -51 232.5 -113.5t249 -119t89.5 -130.5q-4 -154 -191.5 -320.5t-322.5 -166.5z" />
<glyph unicode="&#x93e;" horiz-adv-x="395" d="M684 1268l25 -23q-14 -49 -52 -71h-219l-125 -271l-145 -903q-117 -14 -166 47l264 1127h-223l-25 22q14 49 52 72h219l14 61q133 0 178 -61h203z" />
<glyph unicode="&#x93f;" horiz-adv-x="421" d="M385 1831q31 41 83 70.5t107 33.5q223 -168 459 -534q-4 -63 -84 -66q-84 143 -194.5 277.5t-214.5 210.5l-17 -11l-110 -544h268l25 -23q-14 -49 -52 -71h-260q-141 -705 -219 -1174q-121 -10 -166 47l275 1127h-242l-25 22q14 49 52 72h233z" />
<glyph unicode="&#x940;" horiz-adv-x="395" d="M406 1935q41 0 91 -31.5t68 -78.5q-152 -463 -180 -557h299l25 -23q-14 -49 -52 -71h-299l-190 -1174q-117 -14 -166 47q33 133 252 1127h-211l-25 22q14 49 52 72h204q82 369 119 516l-14 10q-143 -104 -328 -436q-39 2 -70.5 21.5t-37.5 52.5q82 158 232.5 330.5 t230.5 172.5z" />
<glyph unicode="&#x941;" d="M-334 -41q59 0 142 -55.5t83 -98.5q0 -100 -150.5 -187t-289.5 -95q-129 8 -250 95t-182 200q59 88 145 80q43 -113 104.5 -178.5t178.5 -116.5q117 20 203 75.5t86 131.5q-23 27 -47 28q-66 -4 -154 -61q-49 16 -74.5 48t-13.5 71q98 63 219 63z" />
<glyph unicode="&#x942;" d="M-623 -244q0 68 64.5 135.5t146.5 67.5t250 -112.5t264 -211.5q12 -74 -104 -112q-203 268 -406 338q-70 0 -94 -84q51 -74 176 -121q27 -80 -67 -107q-86 33 -158 98.5t-72 108.5z" />
<glyph unicode="&#x943;" d="M-412 -477q-59 0 -113.5 48t-54.5 93q0 74 95.5 163t208.5 132q55 -14 75.5 -42t12.5 -54q-119 -37 -178.5 -80t-100.5 -123l27 -45q111 -14 210 33t160 112q100 -20 80 -90q-168 -147 -422 -147z" />
<glyph unicode="&#x944;" d="M-559 -215q123 111 293 174q104 -6 78 -90q-154 -39 -254 -113l10 -22q72 12 133 26q45 -16 62.5 -59t-1.5 -76q-168 -55 -245 -133l24 -29q133 4 262 111q33 0 50.5 -33t11.5 -61q-61 -49 -153.5 -77t-182.5 -26q-68 14 -98.5 56.5t-22.5 91.5q96 82 238 133l-6 12 q-100 -35 -155.5 10.5t-43.5 104.5z" />
<glyph unicode="&#x945;" d="M18 1401q-78 0 -168 118.5t-129 245.5q61 88 142 60q39 -248 168 -344q178 29 278 221q82 14 107 -70q-57 -90 -171 -160.5t-227 -70.5z" />
<glyph unicode="&#x947;" d="M-299 1935q53 0 125 -93t122 -194.5t95 -209.5q-4 -37 -72 -37q-111 238 -223 373l-67 -62q-147 37 -150 135q64 88 170 88z" />
<glyph unicode="&#x948;" d="M-303 1935q61 0 139 -92q139 -170 207 -391q-8 -51 -78 -51q-49 53 -82 79.5t-88 43.5l-61 -74q-137 27 -146 121q53 82 140.5 82t208.5 -135l6 6q-106 199 -207 250l-68 -62q-147 37 -149 135q63 88 178 88z" />
<glyph unicode="&#x949;" horiz-adv-x="395" d="M422 1401q-78 0 -168 118.5t-129 245.5q61 88 141 60q39 -248 168 -344q178 29 279 221q82 14 106 -70q-57 -90 -170.5 -160.5t-226.5 -70.5zM481 1268h203l25 -23q-14 -49 -52 -71h-219l-125 -271l-145 -903q-117 -14 -166 47l264 1127h-223l-25 22q14 49 52 72h219 l14 61q133 0 178 -61z" />
<glyph unicode="&#x94b;" horiz-adv-x="395" d="M684 1268l25 -23q-14 -49 -52 -71h-219l-125 -271l-145 -903q-117 -14 -166 47l264 1127h-223l-25 22q14 49 52 72h219l14 61q133 0 178 -61h203zM82 1935q53 0 125 -93t122 -194.5t95 -209.5q-4 -37 -72 -37q-111 238 -223 373l-68 -62q-147 37 -149 135q64 88 170 88z " />
<glyph unicode="&#x94c;" horiz-adv-x="395" d="M684 1268l25 -23q-14 -49 -52 -71h-219l-125 -271l-145 -903q-117 -14 -166 47l264 1127h-223l-25 22q14 49 52 72h219l14 61q133 0 178 -61h203zM-33 1571q53 82 140.5 82t207.5 -135l7 6q-106 199 -207 250l-68 -62q-147 37 -149 135q63 88 178 88q61 0 137 -92 q141 -170 209 -391q-8 -51 -78 -51q-49 53 -82 79.5t-88 43.5l-61 -74q-138 27 -146 121z" />
<glyph unicode="&#x94d;" d="M45 -457q-154 115 -280.5 181.5t-309.5 121.5q-2 100 74 115q145 -51 299 -152.5t256 -218.5q6 -33 -39 -47z" />
<glyph unicode="&#x950;" horiz-adv-x="2183" d="M1245 430q0 -129 -179 -272.5t-400 -157.5q-178 59 -306.5 182t-197.5 281q39 123 143 96q125 -346 377 -455q152 31 273.5 123t158.5 199q-16 55 -74.5 125t-117.5 115q-86 -41 -187 -64q-82 35 -35 103q203 53 295 122.5t164 214.5q-57 135 -186 179q-61 -14 -99 -34 t-53.5 -27t-51.5 -30.5t-43 -28.5l-49 -35t-44 -32q-61 2 -89 36t-7 71q127 86 228 131t234 57q102 -25 184.5 -102.5t112.5 -165.5q-25 -109 -106.5 -202t-200.5 -159q45 -23 88 -53l137 31q66 49 153 148.5t164 173t150 94.5q135 -74 195.5 -196t71.5 -318 q-43 -168 -191.5 -329t-374.5 -251q-96 43 -59 117q182 53 322.5 187t193.5 292q-14 145 -52 232t-114 143q-84 -49 -208 -188.5t-181 -190.5l-125 -12q86 -91 86 -150zM1700 1262.5q-117 -68.5 -215.5 -68.5t-198.5 119t-131 246q61 88 141 59q8 -104 58.5 -197.5 t122.5 -146.5q190 25 288 221q82 14 107 -70q-55 -94 -172 -162.5zM1608.5 1408q-29.5 -30 -71.5 -30t-71.5 30t-29.5 72t29.5 71.5t71.5 29.5t71.5 -29.5t29.5 -71.5t-29.5 -72z" />
<glyph unicode="&#x958;" horiz-adv-x="1232" d="M1217 791q0 -289 -347 -584q-72 25 -63 61q258 238 258 508q0 125 -102 135q-29 -35 -127.5 -146.5t-135.5 -156.5l-98 -608q-117 -14 -166 47l66 281l76 153l-23 15q-152 -180 -236 -287q-123 8 -191.5 72.5t-68.5 188.5t53.5 255t144.5 219t189 88q39 0 75 -29.5 t51.5 -54t52.5 -84.5l4 2l71 308h-657l-25 22q14 49 52 72h653l14 61q133 0 178 -61h607l24 -23q-14 -49 -51 -71h-618l-170 -412l14 -10q43 51 120 144t95 114q127 18 204 -41t77 -178zM455 928q-80 0 -162 -147.5t-82 -313.5q0 -123 72 -158q182 190 290 328l27 111 q-69 180 -145 180zM103.5 132q29.5 30 71.5 30t71.5 -30t29.5 -72t-29.5 -71.5t-71.5 -29.5t-71.5 29.5t-29.5 71.5t29.5 72z" />
<glyph unicode="&#x959;" horiz-adv-x="1497" d="M684 1012q0 49 -35 98t-83 49t-110.5 -30.5t-107.5 -84.5q-70 14 -74 68q14 25 56 62h-287l-25 22q14 49 52 72h1304l15 61q133 0 178 -61h219l24 -23q-14 -49 -51 -71h-235l-125 -271l-146 -903q-117 -14 -166 47l74 311l56 80l-21 19q-76 -102 -285 -222t-344 -137 q-131 25 -239 127q-100 96 -177 189.5t-102 122.5q43 141 144 149l22 -20q190 20 329.5 120.5t139.5 225.5zM1145 926q-76 0 -138.5 -132t-62.5 -228.5t82 -96.5q51 0 114.5 63.5t96.5 141.5l16 74q-12 68 -41.5 123t-66.5 55zM776 1174q59 -72 59.5 -162t-100 -201 t-242 -180.5t-262.5 -69.5l-10 -16q160 -197 234.5 -258.5t128.5 -61.5q90 0 383 162l-6 10q-68 0 -114 51.5t-46 128t38 180t118.5 188.5t179 85t145.5 -137l6 2l64 279h-576zM101.5 132q29.5 30 71.5 30t71.5 -30t29.5 -72t-29.5 -71.5t-71.5 -29.5t-71.5 29.5t-29.5 71.5 t29.5 72z" />
<glyph unicode="&#x95a;" horiz-adv-x="954" d="M1241 1268l25 -23q-14 -49 -52 -71h-215l-125 -271l-145 -903q-117 -14 -166 47l264 1127h-278q-66 -438 -154 -777q-47 -47 -110 -67q-203 18 -283 166q4 76 49 106q147 90 314 207q10 53 22 160l-16 205h-330l-25 22q14 49 52 72h782l14 61q133 0 178 -61h199zM244 451 l18 14q41 98 76 223q-143 -98 -215 -145q47 -67 121 -92zM64.5 132q29.5 30 71.5 30t72 -30t30 -72t-30 -71.5t-72 -29.5t-71.5 29.5t-29.5 71.5t29.5 72z" />
<glyph unicode="&#x95b;" horiz-adv-x="1259" d="M350 242q-113 0 -187.5 132t-60.5 277q8 74 56.5 155t128.5 128q66 12 92 -68q-119 -100 -131 -211q-25 -229 121 -301q94 25 173 108t85 150q4 31 -22.5 51.5t-63.5 32.5q12 59 52 103.5t81 42.5q37 -39 110 -76q152 12 291 172l55 236h-1095l-25 22q14 49 51 72h1092 l14 61q133 0 179 -61h202l25 -23q-14 -49 -51 -71h-219l-125 -271l-146 -903q-117 -14 -166 47l138 584l83 151l-12 11q-170 -143 -303 -136l-51 25l-10 -12l34 -47q-10 -135 -156.5 -258t-238.5 -123zM85 132q30 30 72 30t71.5 -30t29.5 -72t-29.5 -71.5t-71.5 -29.5 t-72 29.5t-30 71.5t30 72z" />
<glyph unicode="&#x95c;" horiz-adv-x="872" d="M1161 1268l25 -23q-14 -49 -51 -71h-498q94 -59 145 -136q4 -29 -9 -67.5t-42 -65.5q-78 -53 -255 -114.5t-222 -83.5l-2 -13q63 -45 253.5 -111.5t262.5 -121.5q18 -41 4 -110.5t-39 -92.5q-90 -76 -292.5 -138.5t-385.5 -84.5q-86 74 -37 129q442 39 650 198l2 15 q-70 53 -275 123.5t-278 136.5q-12 139 61 174q358 102 477 186l4 15q-45 72 -223 162h-393l-25 22q14 49 52 72h1091zM224.5 -68.5q29.5 29.5 71.5 29.5t71.5 -29.5t29.5 -71.5t-29.5 -72t-71.5 -30t-71.5 30t-29.5 72t29.5 71.5z" />
<glyph unicode="&#x95d;" horiz-adv-x="999" d="M193 442q0 -88 96 -174q51 41 179 147.5t218 174.5q84 -8 158 -72.5t74 -122.5q0 -86 -173.5 -196.5t-296 -110.5t-247.5 106.5t-164 225.5q4 82 51 137q66 57 315.5 203.5t303.5 212.5l8 22q-27 49 -71 84t-138 95h-424l-25 22q14 49 52 72h1142l25 -23q-14 -49 -51 -71 h-551q129 -84 151.5 -142.5t-21.5 -118t-150.5 -130t-207.5 -124.5q-253 -141 -253 -217zM690 477q-70 -45 -336 -258q45 -27 97 -43q246 49 329 213q-10 57 -90 88zM328.5 -68.5q29.5 29.5 71.5 29.5t72 -29.5t30 -71.5t-30 -72t-72 -30t-71.5 30t-29.5 72t29.5 71.5z" />
<glyph unicode="&#x95e;" horiz-adv-x="1292" d="M1242.5 996.5q68.5 -68.5 68.5 -166t-28 -173t-87 -147.5t-117.5 -126t-152.5 -130l-64 61q150 123 223.5 236t73.5 243t-102 160q-53 -51 -162 -154.5t-162 -154.5l-104 -645q-117 -14 -166 47l135 582l37 78l-14 14q-227 -213 -406 -365q-43 -4 -102.5 24t-85.5 69 l206 725h-190l-25 22q14 49 52 72h680l14 61q133 0 178 -61h592l25 -23q-14 -49 -52 -71h-608l-123 -271l-51 -133l12 -12q254 254 303 305q134 2 202.5 -66.5zM653 864l74 310h-293l-137 -291q-14 -61 -43 -185.5t-43 -185.5l18 -10q201 149 424 362zM142.5 214 q29.5 30 71.5 30t71.5 -30t29.5 -72t-29.5 -71.5t-71.5 -29.5t-71.5 29.5t-29.5 71.5t29.5 72z" />
<glyph unicode="&#x960;" horiz-adv-x="1593" d="M291 983q72 0 199.5 -106.5t263.5 -258.5l18 19l-29 39l119 498h-819l-25 22q14 49 52 72h815l14 61q133 0 178 -61h805l25 -23q-14 -49 -52 -71h-821l-125 -271l-37 -223q78 53 156 119q-68 51 -55 96q162 119 264 94q59 -66 12 -158q51 -16 162 -26q55 -14 72.5 -78.5 t-19.5 -118.5q-66 -4 -171 -41t-185 -84q8 -33 27 -45q94 -4 174 35q49 -10 67.5 -66.5t-10.5 -89.5q-156 -31 -276 -151q25 -59 77 -90q86 16 144.5 49t120.5 94q33 0 50 -32.5t11 -61.5q-74 -59 -148.5 -88t-185.5 -37q-82 14 -128 69.5t-46 129.5q106 104 244 153l-12 17 q-98 -35 -164 11t-54 142q119 102 367 176l-2 21l-211 29l-299 -185l-90 -563q-117 -14 -166 47l74 313l57 78l-18 19q-96 -102 -283.5 -233.5t-376.5 -223.5q-102 51 -69 115q393 152 706 440q-129 145 -344 281l-53 -97q-158 14 -180 105q23 57 81 98t99 41z" />
<glyph unicode="&#x961;" horiz-adv-x="1394" d="M76 508q0 76 77.5 196.5t190.5 190.5q82 20 170 10q70 -49 100.5 -111.5t42.5 -154.5q-8 -47 -32 -115l10 -6q188 135 407 379q51 0 97 -16q98 141 82 293h-1168l-24 22q14 49 51 72h1472l25 -23q-14 -49 -51 -71h-185q12 -166 -120 -347q45 -49 57 -94 q-66 -240 -344 -368l8 -27q82 4 164 24q45 -16 62.5 -59t-1.5 -76q-133 -51 -241 -145l18 -25q133 4 262 111q33 0 50.5 -33t11.5 -61q-61 -49 -153.5 -77t-182.5 -26q-68 14 -98.5 56.5t-22.5 91.5q96 88 240 141l-7 12q-117 -43 -175 9.5t-31 134.5q293 137 319 305 q-8 18 -34.5 39.5t-47.5 21.5q-61 -78 -189 -192.5t-243 -198.5q-76 4 -116 34t-38 67q45 78 56 145q-6 57 -39 109.5t-76 60.5q-90 -37 -150.5 -120t-72.5 -171q18 -129 76.5 -229.5t187.5 -177.5q16 -31 -8.5 -64t-87.5 -45q-127 88 -213 226.5t-86 281.5z" />
<glyph unicode="&#x962;" d="M-104.5 -454.5q-53.5 -34.5 -91 -34.5t-86 37.5t-48.5 72.5q0 41 106.5 103.5t121.5 95.5q6 47 -41 61q-49 -63 -152 -139q-39 -2 -73.5 19.5t-41.5 48.5q25 27 25 61q-18 23 -47 27q-70 -45 -90 -129q23 -125 125 -185q8 -18 -9.5 -40.5t-56.5 -24.5q-63 45 -105 111.5 t-42 119.5t37.5 112.5t93.5 94.5q39 10 92 6q74 -39 88 -90q0 -23 -16 -51l8 -6q55 39 141 143q63 0 104.5 -44t41.5 -93q-20 -49 -59.5 -83t-89.5 -62.5t-73 -49.5q10 -31 52 -53q47 27 77 84q35 6 52.5 -10.5t17.5 -42.5q-8 -25 -61.5 -59.5z" />
<glyph unicode="&#x963;" d="M-567 -370.5q-43 65.5 -43 119.5t39 112.5t92 95.5q43 12 94 6q25 -14 37 -20q33 -23 49 -72q0 -27 -16 -49l8 -6q72 55 143 145q57 -4 96 -39t50 -82q-20 -35 -64.5 -73.5t-99.5 -61.5l4 -8q45 0 100 20q25 -10 34 -34.5t1 -51.5q-70 -23 -135 -73l4 -13q76 8 147 64 q20 0 30.5 -17.5t2.5 -35.5q-72 -51 -180 -60q-78 25 -68 84q27 25 140 78l-2 6q-72 -27 -115 -3t-37 71q121 55 156 100q-14 47 -43 47q-66 -78 -152 -137q-41 -2 -76 21.5t-39 48.5q29 23 25 59q-14 20 -47 27q-59 -35 -90 -129q23 -121 125 -185q10 -20 -9.5 -41.5 t-56.5 -23.5q-61 45 -104 110.5z" />
<glyph unicode="&#x964;" horiz-adv-x="722" d="M489 879l56 563q72 33 106.5 37t75.5 -29l-137 -596q-86 -633 -111 -852q-135 -18 -180 57q114 425 190 820z" />
<glyph unicode="&#x965;" horiz-adv-x="1118" d="M489 879l56 563q72 33 106.5 37t75.5 -29l-137 -596q-86 -633 -111 -852q-135 -18 -180 57q114 425 190 820zM885 879l55 563q72 33 106.5 37t75.5 -29l-137 -596q-86 -633 -111 -852q-135 -18 -180 57q115 425 191 820z" />
<glyph unicode="&#x966;" horiz-adv-x="940" d="M594 1067q-45 -2 -82 -25q-96 -68 -179 -185.5t-120 -256.5q23 -184 168 -309q160 39 255 128t124 208q12 98 -37 230t-129 210zM179.5 330.5q-101.5 142.5 -101.5 253t113.5 282.5t230.5 252q127 66 240 64q129 -129 177 -266.5t52 -327.5q-53 -164 -203.5 -282 t-325.5 -118q-81 0 -182.5 142.5z" />
<glyph unicode="&#x967;" horiz-adv-x="923" d="M614 1360q94 0 148.5 -107.5t56.5 -228.5q0 -47 -203.5 -421t-201.5 -435q4 -43 48 -43t130 48t170 122q53 0 61 -31q4 -10 8 -41q-131 -141 -370 -223q-98 20 -147.5 66.5t-51.5 101.5q0 33 54.5 128t133 232.5t119.5 235.5l66 55l-17 23q-129 -72 -237 -105 q-111 39 -179.5 104.5t-76.5 147.5q57 139 203.5 255t285.5 116zM602 1245q-86 0 -190.5 -87t-141.5 -171q16 -53 42 -83t79 -58q160 51 271 106q57 96 4 232q-25 61 -64 61z" />
<glyph unicode="&#x968;" horiz-adv-x="845" d="M580 1358q123 0 210 -137.5t80.5 -266.5t-168 -279.5t-362.5 -217.5q72 -326 244 -482q10 -37 -16.5 -66.5t-86.5 -39.5q-197 270 -239 561q-33 -6 -90 -10q-106 88 -82 194q31 47 107.5 61.5t133.5 -26.5q4 -53 8 -78q334 119 437 379q-6 111 -46 181.5t-139 123.5 q-180 -35 -297 -161q-51 12 -72.5 42.5t-2.5 67.5q76 63 186.5 108.5t194.5 45.5z" />
<glyph unicode="&#x969;" horiz-adv-x="983" d="M530 633l-145 -58q-59 45 -75.5 113t18.5 113q14 0 73.5 -10.5t102.5 -10.5q178 90 251.5 161t98.5 183l-27 39q-27 39 -94 74q-190 -39 -360 -133q-94 35 -74 113q219 109 459 129q96 -29 153.5 -103t77.5 -153q-92 -254 -377 -359l13 -18q147 -45 203.5 -102.5 t52.5 -131.5q-4 -102 -95 -196q-168 -172 -421 -226l-154 234l-23 -23q18 -98 72.5 -259t73.5 -275q-12 -45 -123 -33q-66 406 -184 676q109 104 182 88q29 -35 98.5 -138.5t108.5 -148.5q139 41 244.5 124t108.5 151.5t-61.5 117t-177.5 62.5z" />
<glyph unicode="&#x96a;" horiz-adv-x="1083" d="M467 96q78 27 123 60.5t82 95.5q8 276 -84 487q-182 -209 -287 -417q18 -100 86 -162q27 -23 80 -64zM1122 1343q74 8 66 -69q-317 -242 -508 -436q123 -266 121 -605q-100 -188 -332 -233q-129 41 -211 127t-94 199q139 270 371 518q-121 209 -377 389q35 94 100 106 q236 -164 371 -401q200 196 493 405z" />
<glyph unicode="&#x96b;" horiz-adv-x="884" d="M144.5 333q-91.5 95 -91.5 229t123 297t284 283t304 179q33 -4 53.5 -21.5t18.5 -42.5q-156 -92 -291 -198.5t-236.5 -243.5t-101.5 -254q0 -78 36 -127t119 -98q117 168 206 314.5t110 178.5q92 16 146.5 -12.5t58.5 -85.5q-141 -608 -297 -967q-100 4 -103 64 q158 375 252 829l-22 11q-72 -98 -295 -465q-182 35 -273.5 130z" />
<glyph unicode="&#x96c;" horiz-adv-x="983" d="M569 616l-129 58q-121 -31 -183 -96.5t-62 -145.5t62 -149.5t177 -104.5q158 172 232 287q74 16 182 -88q-119 -270 -184 -676q-111 -12 -123 33q18 115 72.5 275.5t72.5 258.5l-22 23l-195 -234q-190 37 -296.5 140.5t-106.5 216.5q0 231 307 348l16 18 q-121 61 -177 133t-69 177q43 82 120 154.5t179 101.5q238 -20 424 -129q0 -78 -102 -113q-143 92 -326 133q-90 -43 -149 -113q12 -123 47 -173t170 -130q43 0 105.5 10.5t76.5 10.5q20 -47 -13.5 -114t-105.5 -112z" />
<glyph unicode="&#x96d;" horiz-adv-x="1132" d="M979 629l-223 -101q-102 41 -159.5 105.5t-68.5 130.5q-20 131 45 227q90 94 267 123q156 -45 215 -137t75 -250q-59 -215 -280 -459q-102 -113 -237.5 -188.5t-268.5 -79.5q-133 115 -198.5 279.5t-63.5 334.5q2 344 147 621q68 31 107 14.5t35 -69.5 q-115 -178 -150 -480q-18 -152 24 -312.5t146 -281.5q319 76 529 445l75 49zM782 633q78 25 234 82l2 -4q-8 123 -50 183t-151 116l-74 -21q-100 -63 -92 -181t131 -175z" />
<glyph unicode="&#x96e;" horiz-adv-x="1040" d="M477 27q-135 0 -275.5 138t-158.5 296q98 195 323.5 432t456.5 397q41 -6 58 -61q-223 -184 -401.5 -388t-289.5 -388q39 -223 287 -318q135 63 228.5 149.5t191.5 217.5q41 -6 60.5 -21.5t17.5 -44.5q-82 -123 -239 -266t-259 -143z" />
<glyph unicode="&#x96f;" horiz-adv-x="694" d="M271.5 1178.5q150.5 115.5 281.5 115.5t173 -137t-32 -332l-303 -172q137 -205 170 -266q23 -27 8.5 -80t-57.5 -92q-98 -94 -241.5 -191.5t-258.5 -140.5q-68 29 -43 88q301 145 484 328l8 33q-39 98 -191.5 319t-150.5 289q2 123 152.5 238.5zM344 721l240 145 q49 86 44 186.5t-85 143.5q-94 -12 -179 -79.5t-135 -184.5q29 -70 115 -211z" />
<glyph unicode="&#x970;" horiz-adv-x="581" d="M334 782q-106 -61 -131 -186q6 -94 67 -154q119 57 144 185q-14 89 -80 155zM348 834q47 0 102.5 -74t57.5 -137.5t-86 -143.5t-164 -80q-47 0 -99.5 54.5t-52.5 130t84 163t158 87.5z" />
<glyph unicode="&#x972;" horiz-adv-x="1310" d="M1329 1401q-78 0 -168 118.5t-129 245.5q61 88 142 60q39 -248 167 -344q178 29 279 221q82 14 106 -70q-57 -90 -170.5 -160.5t-226.5 -70.5zM537 604q-80 43 -181 43q-35 16 -51 57t-2 84q41 12 90 35q127 55 196.5 134t80.5 200l-6 8q-80 16 -173.5 -21.5 t-168.5 -119.5q-41 10 -70 39t-27 59q178 176 408 176q158 -29 178 -176q-45 -260 -322 -374l5 -9q94 -20 168 -73q272 137 458 247l62 261h-224l-24 22q14 49 51 72h219l15 61q133 0 178 -61h202l25 -23q-14 -49 -51 -71h-219l-125 -271l-146 -903q-117 -14 -165 47 l155 666l70 86l-21 22q-190 -115 -391 -225q39 -51 39 -96q0 -102 -101.5 -207t-229.5 -165t-218 -60q-80 6 -151.5 62t-71.5 110q0 68 160 161q125 76 379 203zM238 176q88 0 238.5 98.5t150.5 196.5q0 25 -17 57q-397 -219 -446 -266q-16 -16 -16.5 -32.5t29.5 -35 t61 -18.5z" />
<glyph unicode="&#x2000;" horiz-adv-x="1060" />
<glyph unicode="&#x2001;" horiz-adv-x="2121" />
<glyph unicode="&#x2002;" horiz-adv-x="1060" />
<glyph unicode="&#x2003;" horiz-adv-x="2121" />
<glyph unicode="&#x2004;" horiz-adv-x="707" />
<glyph unicode="&#x2005;" horiz-adv-x="530" />
<glyph unicode="&#x2006;" horiz-adv-x="353" />
<glyph unicode="&#x2007;" horiz-adv-x="353" />
<glyph unicode="&#x2008;" horiz-adv-x="265" />
<glyph unicode="&#x2009;" horiz-adv-x="424" />
<glyph unicode="&#x200a;" horiz-adv-x="117" />
<glyph unicode="&#x200b;" />
<glyph unicode="&#x200c;" d="M49 -471h-96v2132h96v-2132z" />
<glyph unicode="&#x200d;" d="M49 -471h-96v1771l-141 -149l-68 68l190 190l-194 195l67 67l195 -194l197 194l65 -65l-196 -197l196 -195l-67 -67l-148 153v-1771z" />
<glyph unicode="&#x2010;" horiz-adv-x="1017" d="M938 752q25 -14 16.5 -56.5t-47.5 -85.5l-786 -14q-45 45 22 133l379 -8z" />
<glyph unicode="&#x2011;" horiz-adv-x="1017" d="M938 752q25 -14 16.5 -56.5t-47.5 -85.5l-786 -14q-45 45 22 133l379 -8z" />
<glyph unicode="&#x2012;" horiz-adv-x="1017" d="M938 752q25 -14 16.5 -56.5t-47.5 -85.5l-786 -14q-45 45 22 133l379 -8z" />
<glyph unicode="&#x2013;" horiz-adv-x="1282" d="M1182 752q25 -14 16.5 -56.5t-47.5 -85.5l-1008 -14q-47 47 23 133l510 -8z" />
<glyph unicode="&#x2014;" horiz-adv-x="1945" d="M1845 752q25 -14 16.5 -56.5t-46.5 -85.5l-1672 -14q-47 47 23 133l821 -8z" />
<glyph unicode="&#x2018;" horiz-adv-x="581" d="M526 1845q49 4 80 -30l-104 -193l59 -190q-41 -63 -109.5 -76t-107.5 33q-35 216 182 456z" />
<glyph unicode="&#x2019;" horiz-adv-x="608" d="M397 1319q-51 -4 -73 31l125 192l-54 258q74 55 143.5 28.5t98.5 -106.5q-12 -104 -84 -215.5t-156 -187.5z" />
<glyph unicode="&#x201a;" horiz-adv-x="532" d="M285 86q-33 -100 -125 -195.5t-189 -154.5q-51 12 -69 47l161 164v264q82 41 145 1t77 -126z" />
<glyph unicode="&#x201c;" horiz-adv-x="946" d="M526 1845q49 4 80 -30l-104 -193l59 -190q-41 -63 -109.5 -76t-107.5 33q-35 216 182 456zM891 1845q49 4 80 -30l-105 -193l60 -190q-41 -63 -109.5 -76t-107.5 33q-35 216 182 456z" />
<glyph unicode="&#x201d;" horiz-adv-x="983" d="M772 1319q-51 -4 -74 31l125 192l-53 258q74 55 143.5 28.5t98.5 -106.5q-12 -104 -84 -215.5t-156 -187.5zM397 1319q-51 -4 -73 31l125 192l-54 258q74 55 143.5 28.5t98.5 -106.5q-12 -104 -84 -215.5t-156 -187.5z" />
<glyph unicode="&#x201e;" horiz-adv-x="874" d="M508 -53v264q82 41 144.5 1t76.5 -126q-33 -100 -125 -195.5t-188 -154.5q-51 12 -70 47zM53 -53v264q82 41 144.5 1t76.5 -126q-33 -100 -125 -195.5t-188 -154.5q-51 12 -70 47z" />
<glyph unicode="&#x2020;" horiz-adv-x="884" d="M623 1176l288 47q25 -12 17 -60.5t-47 -91.5l-283 8l-12 -47l-279 -1567q-39 -33 -96 5l233 1480l17 125l-277 -20q-23 20 -16.5 63t37.5 82l266 -37l57 457q55 33 114.5 35t98.5 -31z" />
<glyph unicode="&#x2021;" horiz-adv-x="884" d="M600 1079l-123 -526l-67 -530l280 20q23 -23 16.5 -66t-38.5 -81l-271 38l-53 -456q-53 -33 -111.5 -36t-99.5 32l125 448l-295 -49q-25 14 -16.5 62.5t47.5 91.5l289 -9l112 504l70 553l-281 -20q-23 20 -16.5 63t37.5 82l270 -39l53 459q55 33 114.5 35t98.5 -31 l-118 -448l288 47q25 -12 17 -60.5t-47 -91.5z" />
<glyph unicode="&#x2022;" horiz-adv-x="688" d="M481.5 616.5q-100.5 -61.5 -175.5 -61.5t-125 44t-62 116q10 102 98 201.5t180 109.5q68 0 144.5 -84t95.5 -178q-55 -86 -155.5 -147.5z" />
<glyph unicode="&#x2026;" horiz-adv-x="1314" d="M1074 34q-54 -34 -94 -34t-66.5 24.5t-32.5 61.5q4 55 51 108.5t98 59.5q37 0 78 -46t51 -95q-31 -45 -85 -79zM632 34q-54 -34 -94 -34t-67 24.5t-33 61.5q4 55 51.5 108.5t98.5 59.5q37 0 78 -46t51 -95q-31 -45 -85 -79zM189.5 34q-54.5 -34 -94.5 -34t-66.5 24.5 t-32.5 61.5q4 55 51 108.5t98 59.5q37 0 78 -46t51 -95q-30 -45 -84.5 -79z" />
<glyph unicode="&#x202f;" horiz-adv-x="424" />
<glyph unicode="&#x2030;" horiz-adv-x="1941" d="M666 772l464 930q119 14 156 -45l-1028 -1821q-98 -18 -139 37zM1651 750q-117 -84 -162 -338q-29 -154 -19 -267q20 -57 82 -84q115 88 162 342q27 162 19 265q-21 64 -82 82zM1733 102.5q-84 -112.5 -183.5 -112.5t-166 103.5t-34 298t119.5 317t187.5 120.5 t165 -110.5t30 -306t-118.5 -310zM1053 750q-117 -84 -162 -338q-29 -158 -17 -267q16 -57 82 -84q113 88 160 342q27 162 19 265q-19 62 -82 82zM1136 102.5q-85 -112.5 -184.5 -112.5t-166 103.5t-33.5 305.5q35 188 120.5 310t186 120t165 -110.5t31 -306t-118.5 -310z M537 1329q-18 63 -82 82q-115 -84 -160 -338q-29 -154 -19 -266q16 -55 82 -84q115 88 162 340q29 168 17 266zM539 764q-84 -113 -184.5 -113t-166 102.5t-33 298t119.5 318.5t187.5 121t165 -110.5t30 -306t-118.5 -310.5z" />
<glyph unicode="&#x2039;" horiz-adv-x="696" d="M522 451q14 -53 -13.5 -101.5t-66.5 -48.5l-321 424q0 37 18 72l246 180l201 166q45 -16 52 -59.5t-32 -106.5l-368 -242l118 -135z" />
<glyph unicode="&#x203a;" horiz-adv-x="696" d="M233 993q-12 55 14.5 102.5t65.5 47.5l322 -424q0 -43 -19 -72l-245 -180l-201 -166q-98 37 -20 166l370 244l-121 135z" />
<glyph unicode="&#x2044;" horiz-adv-x="935" d="M494 772l464 930q119 14 156 -45l-1028 -1821q-98 -18 -139 37z" />
<glyph unicode="&#x205f;" horiz-adv-x="530" />
<glyph unicode="&#x20a8;" horiz-adv-x="1949" d="M1546 629q94 -43 183.5 -118t109.5 -159q-35 -160 -163 -252t-330 -100q-113 33 -202 125t-104 182q37 55 71 72.5t85 7.5q37 -193 166 -297q152 31 235.5 106.5t83.5 153.5q0 63 -247 170q-96 41 -185.5 107.5t-109.5 140.5q25 147 164 249.5t311 115.5 q98 -43 160.5 -107.5t85.5 -177.5q-6 -33 -48.5 -48.5t-115.5 -0.5q-6 123 -97 239q-109 -31 -204 -108.5t-95 -132.5t246 -168zM573 1509q254 0 384 -105.5t130 -256t-76.5 -253.5t-248.5 -198q-162 -20 -268 -24q70 -201 178 -316.5t315 -205.5q20 -45 -11.5 -87.5 t-101.5 -62.5q-190 121 -301.5 297t-146.5 373l-31 -2q-25 -276 -88 -662q-39 -14 -100.5 -1t-93.5 46q63 229 89.5 361.5t39.5 185.5q25 123 59 334l59 432l-104 -6q-23 39 -18.5 73.5t30.5 45.5q141 32 305 32zM410 846q0 -41 -7 -90q168 6 322 47q109 72 152 144.5 t43 190t-96.5 190.5t-291.5 58z" />
<glyph unicode="&#x20ac;" horiz-adv-x="1347" d="M270 594q-2 18 -2 70.5t13 119.5l-172 -14q-41 37 14 119l182 -4q31 102 82 221q98 131 249.5 249t315.5 169q117 -47 198 -134t105 -194q-78 -68 -174 -43q-25 78 -51 124t-86 114l-31 -2q-147 -78 -266 -209t-180 -283l453 64q53 -31 -23 -130l-463 -36 q-16 -76 -16 -125t2 -66l473 66q51 -29 -25 -127l-438 -35q27 -143 114 -233.5t242 -147.5q88 31 192.5 103.5t182.5 156.5q45 12 74 -18.5t25 -67.5q-57 -74 -187.5 -160t-263.5 -141q-455 119 -526 496l-201 -17q-45 39 16 121z" />
<glyph unicode="&#x20b9;" horiz-adv-x="1081" d="M535 1389q39 45 103 45t120 -43l411 24q39 -31 -24 -117l-307 -4q57 -111 57 -211l217 13q39 -31 -25 -117l-204 -4q-43 -170 -200 -278.5t-361 -94.5l112 -262l316 -211q10 -51 -31 -91t-98 -38q-160 137 -280 299t-169 309q14 92 98 119q178 -45 365 53q76 88 96 193 l-579 -8q-33 39 16 110l446 -8l127 8q0 145 -67 215l-465 -6q-33 39 16 111z" />
<glyph unicode="&#x20ba;" horiz-adv-x="913" d="M979 1187q0 -40 -29 -93l-325 -76l-45 -170l364 106q25 -10 25 -50t-29 -93l-395 -92l-160 -586l180 23q160 57 338 225q68 8 94.5 -53.5t-16.5 -118.5q-197 -125 -567 -209q-98 23 -143.5 59.5t-59.5 108.5q100 217 190 516l-229 -53q-55 33 -4 135l270 51q25 86 43 166 l-299 -70q-55 33 -4 136l324 61l28 344q154 102 218 33l-89 -336l295 86q25 -10 25 -50z" />
<glyph unicode="&#x20bd;" horiz-adv-x="1089" d="M248 639q-104 -6 -168 -6q-41 43 -10 88q47 0 194 8l37 203l59 432l-104 -6q-23 39 -18.5 73.5t30.5 45.5q141 33 305 32q254 0 384 -105.5t130 -256t-76.5 -253.5t-248.5 -198q-135 -31 -369 -49q-4 -43 -22 -205l403 45q63 -39 -4 -118l-412 -25q-25 -180 -51 -338 q-39 -14 -100.5 -1t-93.5 46q43 152 73 285l-200 -12q-51 45 -6 110l229 4q10 51 39 201zM877 947q43 73 43 190.5t-96.5 190.5t-291.5 58l-122 -540q-4 -70 -9 -105q223 27 324 62q109 71 152 144z" />
<glyph unicode="&#x2113;" horiz-adv-x="759" d="M117 831l254 72q49 238 98 506q43 96 98.5 154.5t147.5 93.5q125 -49 139 -322q-96 -266 -354 -432q-16 -90 -37 -201q-31 -166 -92 -514l22 -14q55 31 217 154q27 2 38 -11.5t11 -42.5q-68 -76 -164 -154.5t-141 -119.5q-143 31 -159 117q92 381 159 706 q-92 -45 -207 -88q-35 10 -44 36.5t14 59.5zM666 1546q-78 -215 -146 -532q182 164 228 327q0 139 -82 205z" />
<glyph unicode="&#x2122;" horiz-adv-x="1466" d="M1384 1495q45 10 91.5 10t64.5 -10l-84 -373q-4 -41 -25.5 -200.5t-31.5 -259.5q-100 -8 -129 36q76 311 112 535v31l-213 -367q-55 -12 -106 23q-76 141 -117 340l-26 -138q-6 -63 -28 -224t-30 -236q-39 -4 -81 5t-56 31q78 315 115 535l16 256q31 14 82 14t63 -14 q27 -281 84 -436l39 -54l146 234zM168 1433.5q0 32.5 14 49.5q246 16 572 10q14 -8 8 -49t-27 -60l-196 19l-68 -295q-6 -68 -25.5 -217.5t-27.5 -228.5q-102 -8 -131 34q76 285 121 547l6 160l-226 -23q-20 21 -20 53.5z" />
<glyph unicode="&#x2126;" horiz-adv-x="1703" d="M399 606q0 -37 4.5 -66.5t16.5 -64.5t21.5 -59.5t29.5 -57.5q49 -78 79 -111.5t55.5 -61t27.5 -31.5q14 -92 -47 -134q-274 -66 -557 0q-35 96 39 146q209 -55 405 -33q-106 125 -165.5 275.5t-37.5 261.5q63 283 300 507t470 224q106 0 221 -103.5t181.5 -254t41 -289 t-126 -311.5t-241.5 -316q221 -2 393 61q70 -23 11 -137q-236 -74 -512 -39q-53 68 -45 111q348 346 407 649q-14 217 -88 334t-262 203q-213 -51 -397 -240q-224 -232 -224 -463z" />
<glyph unicode="&#x212e;" horiz-adv-x="1236" d="M276 635h691v301q-113 162 -343.5 162t-347.5 -185v-278zM1139 242q-221 -242 -484.5 -242t-422 150.5t-158.5 417t147.5 440.5t405.5 174t408.5 -160t150.5 -381v-102h-910v-277q129 -178 367 -178q123 0 222.5 54.5t213.5 166.5z" />
<glyph unicode="&#x2202;" horiz-adv-x="933" d="M848 836q0 -279 -102.5 -505.5t-321.5 -330.5q-174 35 -266 155.5t-92 307t121.5 370t342.5 265.5q137 -90 203 -226q-10 303 -131 486l-338 194q-2 45 13.5 63.5t54.5 29.5q516 -229 516 -809zM211 444q0 -244 203 -331q279 182 315 604q-51 98 -97 154.5t-126 99.5 q-150 -86 -222.5 -224.5t-72.5 -302.5z" />
<glyph unicode="&#x2206;" horiz-adv-x="1378" d="M885 1430l344 -1305q-18 -84 -82 -121l-1055 -4q-41 23 -62.5 57.5t-15.5 67.5l725 1321q97 23 146 -16zM150 121l266 -25l645 41l-285 1178z" />
<glyph unicode="&#x220f;" horiz-adv-x="1126" d="M1006 1079q-70 -520 -5 -1106q-43 -49 -172 -34q-16 377 23 784t109 651l-453 29q-45 -303 -154.5 -741.5t-216.5 -722.5q-119 -8 -164 63q143 305 216 517t145 515l35 357l-138 -19q-35 100 11 146l780 -48l207 31q37 -61 -17 -147l-122 4z" />
<glyph unicode="&#x2211;" horiz-adv-x="1568" d="M438 180l-98 -104q346 -49 815 -17q92 133 102 236q121 29 199 -57q-2 -96 -59.5 -169t-161.5 -151q-524 -35 -965 4q-195 100 -110 238l440 303l236 258l-598 502q2 82 45 138t94 73q496 43 985 10q111 -45 151 -158q4 -150 -79 -256q-59 -14 -112.5 5.5t-84.5 56.5 q57 98 74.5 142t19.5 83q-518 43 -919 -8l528 -496q41 -106 -39 -229z" />
<glyph unicode="&#x2212;" horiz-adv-x="1282" d="M1182 752q25 -14 16.5 -56.5t-47.5 -85.5l-1008 -14q-47 47 23 133l510 -8z" />
<glyph unicode="&#x2215;" horiz-adv-x="698" d="M481 967l279 835q59 18 103 1t55 -54l-799 -1905q-111 -20 -144 62z" />
<glyph unicode="&#x2219;" horiz-adv-x="1228" d="M666.5 486.5q-54.5 -33.5 -94.5 -33.5t-66.5 24.5t-32.5 61.5q4 55 51 108t99 60q37 0 77.5 -46.5t51.5 -95.5q-31 -45 -85.5 -78.5z" />
<glyph unicode="&#x221a;" horiz-adv-x="1120" d="M905 1139l150 706q113 25 144.5 21t62.5 -31l-756 -2247q-76 -39 -140.5 -32.5t-103.5 57.5q-45 106 -120.5 336.5t-96.5 290.5q35 70 111 32q41 -106 116.5 -304.5t106.5 -278.5z" />
<glyph unicode="&#x221e;" horiz-adv-x="1654" d="M1362 1038q94 0 184 -121.5t90 -250.5q0 -174 -140 -338t-390 -246q-199 113 -293 315q-137 -152 -246.5 -233.5t-228.5 -81.5t-212 113.5t-89 276.5t171 330t359 222q233 -96 334 -365q113 123 178.5 191t147.5 128t135 60zM162 446q0 -195 186 -278q92 23 208 128 t280 290q-111 229 -295 334q-166 -78 -272.5 -204.5t-106.5 -269.5zM1524 659q0 184 -160 281q-80 -49 -176 -139t-145.5 -143.5t-161.5 -182.5q39 -92 106.5 -169t145.5 -107q141 51 266 189t125 271z" />
<glyph unicode="&#x222b;" horiz-adv-x="983" d="M735 1673q-61 -1126 -241 -1851q-29 -33 -98.5 -56.5t-133.5 -19.5q-188 145 -231 309q57 119 149 74q33 -152 123 -260l43 20q123 356 229 1307l11 508q35 41 61 65q70 61 193 80q96 -18 168.5 -111t76.5 -200q-41 -31 -91 -40t-83 11q-2 88 -24.5 134.5t-73.5 82.5 q-20 2 -45 -15.5t-33 -37.5z" />
<glyph unicode="&#x2248;" horiz-adv-x="1228" d="M217 631q88 53 168 53t253 -79t218 -89h10l156 168q68 8 98.5 -12.5t34.5 -69.5q-35 -57 -127 -125.5t-171 -68.5t-252 81.5t-193.5 81.5t-49 -17t-48 -35.5t-52.5 -53.5t-45 -47q-119 10 -125 102q37 58 125 111zM266 952.5q88 53.5 168 53.5t253 -79t218 -89h10 l156 168q68 8 98.5 -12.5t34.5 -69.5q-35 -57 -127 -126t-171 -69t-252 82t-193.5 82t-49 -17.5t-48 -36t-52 -53t-45.5 -47.5q-119 10 -125 103q37 57 125 110.5z" />
<glyph unicode="&#x2260;" horiz-adv-x="1296" d="M1192 831l-371 -6l-155 -276l493 31q25 -14 16.5 -56.5t-47.5 -85.5l-528 -8l-238 -426q-100 -18 -141 37l234 387l-334 -6q-45 45 22 135l387 -6l134 221l26 53l-504 -8q-47 47 21 133l512 -8l31 2l194 387q98 10 133 -45l-186 -334l332 21q25 -14 16.5 -56.5 t-47.5 -85.5z" />
<glyph unicode="&#x2264;" horiz-adv-x="1196" d="M1022 319q20 -20 5 -60t-64 -69l-844 256q-16 25 -3 61t52 62l389 -139zM1157 1069l-848 -233l783 -199q8 -84 -64 -125l-405 115l-447 110q-27 39 -16.5 92.5t45.5 88.5l919 301q35 -25 44 -69t-11 -81z" />
<glyph unicode="&#x2265;" horiz-adv-x="1261" d="M154 257q0 38 26 62l506 111l442 139q31 -29 31 -62.5t-26 -60.5l-940 -256q-39 29 -39 67zM152 637l858 199l-518 188l-291 66q-8 45 15.5 80.5t72.5 52.5l856 -305q23 -31 11.5 -88.5t-52.5 -92.5l-488 -110l-450 -115q-55 39 -14 125z" />
<glyph unicode="&#x25ca;" horiz-adv-x="1157" d="M422 653l127 -379l285 392l-144 385zM963 647l-369 -518q-76 -6 -137 47l-172 496l362 524q66 10 135 -45z" />
<glyph unicode="&#x25cc;" horiz-adv-x="1351" d="M526 1147q0 41 26 65.5t64.5 24.5t64.5 -24.5t26 -65.5t-26 -65.5t-64.5 -24.5t-64.5 24.5t-26 65.5zM811 1052.5q-27 26.5 -27 64.5t26 64.5t65.5 26.5t64.5 -25.5t25 -64.5t-26 -65.5t-63.5 -26.5t-64.5 26.5zM979 977q0 39 25.5 65.5t64.5 26.5t64.5 -25.5t25.5 -65.5 t-25.5 -65.5t-64.5 -25.5t-64.5 25.5t-25.5 64.5zM1081 735q0 39 24.5 64.5t64.5 25.5t66 -25.5t26 -64.5t-26 -64.5t-66 -25.5t-64.5 25.5t-24.5 64.5zM1061 461q0 39 26.5 65.5t64.5 26.5t63.5 -26.5t25.5 -65.5t-25.5 -64.5t-63.5 -25.5t-64.5 25.5t-26.5 64.5zM911 260 q0 39 26 64.5t64.5 25.5t65.5 -25.5t27 -64.5t-27 -64.5t-65.5 -25.5t-64.5 25.5t-26 64.5zM664 152q0 41 24.5 65.5t65.5 24.5t66.5 -26t25.5 -64.5t-25.5 -64.5t-66.5 -26t-65.5 25t-24.5 66zM430 116.5q-27 26.5 -27 65.5t27 65.5t66 26.5t64.5 -26.5t25.5 -65.5 t-25.5 -65.5t-64.5 -26.5t-66 26.5zM197 338q0 39 25.5 64.5t64.5 25.5t64.5 -25.5t25.5 -64.5t-25.5 -64.5t-65.5 -25.5t-64.5 25.5t-24.5 64.5zM90 575.5q0 38.5 25.5 65.5t64.5 27t64.5 -26t25.5 -65.5t-25.5 -64.5t-64.5 -25t-64.5 25t-25.5 63.5zM117 833.5 q0 38.5 26.5 64.5t65.5 26t65.5 -26t26.5 -64.5t-26.5 -64.5t-65.5 -26t-65.5 26t-26.5 64.5zM310.5 992.5q-25.5 25.5 -25.5 65.5t25.5 65.5t64.5 25.5t64.5 -25.5t25.5 -65.5t-25.5 -65.5t-64.5 -25.5t-64.5 25.5z" />
<glyph unicode="&#x25fc;" horiz-adv-x="1105" d="M0 1106h1106v-1106h-1106v1106z" />
<glyph unicode="&#xf0001;" />
<glyph unicode="&#xf0002;" horiz-adv-x="681" />
<glyph unicode="&#xf01b5;" horiz-adv-x="1236" d="M737 666q-72 0 -174 59q-133 -96 -350 -213q-84 -72 -25 -231q129 -76 256 -93q29 37 94.5 141.5t79.5 127.5q61 4 97.5 -15.5t72.5 -74.5q-31 -76 -117.5 -335t-121.5 -354q-115 -6 -150 64q59 100 142.5 285.5t113.5 283.5l-14 8l-156 -251q-119 10 -228.5 49 t-164.5 82q-66 92 -67.5 201.5t69.5 174.5q236 113 379 213q-88 70 -146.5 150t-58.5 149q0 94 122 209t241 115q90 0 168 -109.5t78 -185.5q0 -137 -224 -321q43 -20 95.5 -20.5t140.5 34.5t155 90l64 275h-127l-25 22q14 49 52 72h122l15 61q133 0 178 -61h203l24 -23 q-14 -49 -51 -71h-219l-125 -271l-145 -903q-117 -14 -166 47l147 625l68 84l-12 16q-173 -106 -310 -106zM408 1087q39 -141 149 -235q154 127 201 252q-29 147 -129 205q-68 -8 -136.5 -79t-84.5 -143z" />
<glyph unicode="&#xf01b6;" horiz-adv-x="1091" d="M627 659q0 -104 -134.5 -195t-318.5 -99l-8 -13q119 -160 332 -256q23 -74 -68 -96q-123 59 -238.5 171t-181.5 214q10 57 49 90t84 33q14 -29 45 -64q145 23 229.5 82.5t84.5 128.5q0 45 -38 72t-104 18q-35 29 -32 64q0 66 80 106q174 -49 280 -45q147 74 244 170 l31 134h-1002l-24 22q14 49 51 72h997l14 61q133 0 179 -61h202l25 -23q-14 -49 -51 -71h-219l-125 -271l-146 -903q-117 -14 -166 47l183 776l71 97l-12 14q-117 -104 -227 -158q-106 -8 -191 21l-4 -15q109 -45 109 -123z" />
<glyph unicode="&#xf01b7;" horiz-adv-x="962" d="M128 281.5q-69 64.5 -69 188.5t53.5 255t144.5 219t189 88q39 0 75 -29.5t51.5 -54t52.5 -84.5l4 2l71 308h-657l-25 22q14 49 52 72h653l14 61q133 0 178 -61h359l24 -23q-14 -49 -51 -71h-370l-170 -412l14 -10q43 51 120 144t95 114q147 16 210.5 -48.5t70.5 -162.5 l-146 -94q20 76 -10.5 141t-97.5 65q-29 -35 -127.5 -146.5t-135.5 -156.5l-98 -608q-117 -14 -166 47l66 281l76 153l-23 15q-152 -180 -236 -287q-122 8 -191 72.5zM455 928q-80 0 -162 -147.5t-82 -313.5q0 -123 72 -158q182 190 290 328l27 111q-69 180 -145 180z" />
<glyph unicode="&#xf01b8;" horiz-adv-x="1085" d="M776 1174q59 -72 59.5 -162t-100 -201t-242 -180.5t-262.5 -69.5l-10 -16q160 -197 234.5 -258.5t128.5 -61.5q117 0 383 162l-6 10q-68 0 -114 51.5t-46 128t38 180t118.5 188.5t170 85t130 -79t73.5 -234l-31 -103q-68 -172 -304 -325.5t-429 -190.5q-131 25 -239 127 q-100 96 -177 189.5t-102 122.5q43 141 144 149l22 -20q190 20 329.5 120.5t139.5 225.5q0 49 -35 98t-83 49t-110.5 -30.5t-107.5 -84.5q-70 14 -74 68q14 25 56 62h-287l-25 22q14 49 52 72h1386l25 -23q-14 -49 -51 -71h-654zM1145 926q-76 0 -138.5 -132t-62.5 -229 q0 -41 25.5 -68.5t67.5 -27.5t103.5 61.5t88.5 135.5l16 73q-30 187 -100 187z" />
<glyph unicode="&#xf01b9;" horiz-adv-x="561" d="M895 1268l25 -23q-14 -49 -52 -71h-319q-66 -438 -154 -777q-47 -47 -110 -67q-203 18 -283 166q4 76 49 106q147 90 314 207q10 53 22 160l-16 205h-330l-25 22q14 49 52 72h827zM244 451l18 14q41 98 76 223q-143 -98 -215 -145q47 -67 121 -92z" />
<glyph unicode="&#xf01ba;" horiz-adv-x="708" d="M1083 1268l25 -23q-14 -49 -51 -71h-408q-287 -176 -461 -377l13 -19q109 10 266 62q43 -2 73.5 -42t41.5 -100q-231 -195 -342 -354l14 -14q176 68 353 209t286 282l92 -76q-102 -147 -333.5 -321t-391.5 -217q-66 23 -110 66.5t-44 93.5q164 205 349 350l-9 10 q-154 -49 -272 -63q-51 23 -84 71.5t-29 98.5q133 168 392 340h-410l-25 22q14 49 52 72h1013z" />
<glyph unicode="&#xf01bb;" horiz-adv-x="872" d="M1161 1268l25 -23q-14 -49 -51 -71h-498q94 -59 145 -136q4 -29 -9 -67.5t-42 -65.5q-78 -53 -255 -114.5t-222 -83.5l-2 -13q63 -45 253.5 -111.5t262.5 -121.5q18 -41 4 -110.5t-39 -92.5q-90 -76 -292.5 -138.5t-385.5 -84.5q-86 74 -37 129q442 39 650 198l2 15 q-70 53 -275 123.5t-278 136.5q-12 139 61 174q358 102 477 186l4 15q-45 72 -223 162h-393l-25 22q14 49 52 72h1091zM807 797q35 0 60.5 -26t25.5 -60.5t-25.5 -60t-60.5 -25.5t-60.5 25.5t-25.5 60t25.5 60.5t60.5 26zM190 -39q145 -51 299 -152.5t256 -218.5 q6 -33 -38 -47q-154 115 -281 181.5t-309 121.5q-3 101 73 115z" />
<glyph unicode="&#xf01bc;" horiz-adv-x="827" d="M367 575q0 -43 57 -90t113 -47q82 0 239.5 129t241.5 277l74 -64q-135 -193 -306.5 -333t-304.5 -140q-94 0 -195.5 87t-101.5 165q0 57 103 117q127 70 282 137l-2 14q-322 -39 -477 -28q-18 31 -21 84t15 71q299 -51 588 -34q18 -6 31.5 -55.5t9.5 -82.5 q-346 -139 -346 -207zM1165 1174h-1122l-25 22q14 49 52 72h1122l25 -23q-15 -48 -52 -71z" />
<glyph unicode="&#xf01bd;" horiz-adv-x="1187" d="M1372 1268l25 -23q-14 -49 -51 -71h-682q-207 -123 -455 -402l16 -29q57 4 279 58q129 -35 106 -152q-88 -76 -179 -193.5t-136 -211.5l18 -17q274 70 508 305q-98 201 -76 357q23 43 75 86t108 47q57 -14 116.5 -73.5t67.5 -121.5q-31 -199 -297 -431t-504 -294 q-70 27 -115.5 71t-39.5 93q158 289 329 410l-8 10q-195 -57 -282 -63q-53 29 -88 81t-29 99q68 84 182.5 187.5t233.5 183.5h-441l-24 22q14 49 51 72h1292zM858 864q-20 -127 33 -256q92 115 106 209q-29 72 -88 96q-45 -26 -51 -49z" />
<glyph unicode="&#xf01be;" horiz-adv-x="864" d="M350 242q-113 0 -187.5 132t-60.5 277q8 74 56.5 155t128.5 128q66 12 92 -68q-119 -100 -131 -211q-25 -229 121 -301q94 25 173 108t85 150q4 31 -22.5 51.5t-63.5 32.5q12 59 52 103.5t81 42.5q37 -39 110 -76q152 12 293 174l82 -74q-231 -217 -387 -209l-51 25 l-10 -12l34 -47q-10 -135 -156.5 -258t-238.5 -123zM1210 1174h-1175l-25 22q14 49 51 72h1176l25 -23q-15 -48 -52 -71z" />
<glyph unicode="&#xf01bf;" horiz-adv-x="937" d="M805 412q0 -106 -148 -209q-164 -111 -348 -80q-78 31 -155 94l-11 -10q193 -213 342 -434q0 -27 -30.5 -46.5t-69.5 -23.5q-137 233 -391 506q31 63 82 108t100 31q68 -74 176 -117q113 0 196 43t128 111l-2 14q-18 43 -124 76t-233 75t-184 105q0 49 19.5 102.5 t52.5 76.5q14 6 203.5 65t246.5 94l4 8q-45 70 -206 173h-410l-25 22q14 49 52 72h1235l24 -23q-14 -49 -51 -71h-627q96 -63 148 -140q0 -88 -51 -133q-66 -37 -249.5 -99.5t-213.5 -74.5l-6 -20q37 -35 135 -70t161 -43q139 57 300 143t266 164l76 -74 q-252 -172 -523 -288q111 -45 111 -127z" />
<glyph unicode="&#xf01c0;" horiz-adv-x="784" d="M1165 1268l25 -23q-14 -49 -51 -71h-1096l-25 22q14 49 52 72h1095zM1004 934l49 -113q-133 -117 -363 -217q-35 -156 -162 -266.5t-266 -101.5q-57 4 -116.5 89t-79.5 197q70 43 112 21q39 -168 109 -201q86 14 178 105.5t98 216.5q6 94 -23.5 152t-111.5 93 q-109 -10 -217 -100q-80 43 -72 94q154 121 297 113q115 -8 183.5 -94t78.5 -201q234 113 306 213z" />
<glyph unicode="&#xf01c1;" horiz-adv-x="933" d="M674 1001q-39 70 -217 173h-394l-24 22q14 49 51 72h1090l24 -23q-14 -49 -51 -71h-510q104 -66 158 -156q-4 -59 -41 -109q-68 -57 -233 -158.5t-191 -119.5q-152 -102 -150 -178q4 -133 207 -215q221 25 381 227q82 0 96 -86q-70 -86 -208 -160t-287 -78 q-145 31 -244.5 120t-99.5 188q0 72 52 129t121.5 101t172.5 103q211 121 295 205zM197 61q145 -51 298.5 -152.5t256.5 -217.5q6 -33 -39 -47q-154 115 -281 181t-309 122q-2 100 74 114z" />
<glyph unicode="&#xf01c2;" horiz-adv-x="1052" d="M27 459q0 72 66.5 136t152.5 117.5t190.5 110t160.5 96t87 82.5l4 19q-45 74 -188 154h-443l-24 22q14 49 51 72h1171l25 -23q-14 -49 -51 -71h-551q104 -68 139 -146q-8 -59 -51 -110q-63 -49 -143 -97q119 -45 228.5 -118.5t141.5 -153.5q-8 -182 -185 -308t-380 -141 q-162 23 -281.5 128.5t-119.5 230.5zM223 342q74 -100 211 -152q162 18 288 125t134 222q-80 111 -328 227q-199 -119 -232.5 -147.5t-64.5 -55.5q-53 -49 -53 -103.5t45 -115.5zM360 -39q145 -51 299 -152.5t256 -218.5q6 -33 -38 -47q-154 115 -281 181.5t-309 121.5 q-3 101 73 115z" />
<glyph unicode="&#xf01c3;" horiz-adv-x="872" d="M1161 1268l25 -23q-14 -49 -51 -71h-498q94 -59 145 -136q4 -29 -9 -67.5t-42 -65.5q-78 -53 -255 -114.5t-222 -83.5l-2 -13q63 -45 253.5 -111.5t262.5 -121.5q18 -41 4 -110.5t-39 -92.5q-90 -76 -292.5 -138.5t-385.5 -84.5q-86 74 -37 129q442 39 650 198l2 15 q-70 53 -275 123.5t-278 136.5q-12 139 61 174q358 102 477 186l4 15q-45 72 -223 162h-393l-25 22q14 49 52 72h1091zM176 -39q145 -51 299 -152.5t256 -218.5q6 -33 -39 -47q-154 115 -280.5 181.5t-309.5 121.5q-2 101 74 115z" />
<glyph unicode="&#xf01c4;" horiz-adv-x="999" d="M193 442q0 -88 96 -174q51 41 179 147.5t218 174.5q84 -8 158 -72.5t74 -122.5q0 -86 -173.5 -196.5t-296 -110.5t-247.5 106.5t-164 225.5q4 82 51 137q66 57 315.5 203.5t303.5 212.5l8 22q-27 49 -71 84t-138 95h-424l-25 22q14 49 52 72h1142l25 -23q-14 -49 -51 -71 h-551q129 -84 151.5 -142.5t-21.5 -118t-150.5 -130t-207.5 -124.5q-253 -141 -253 -217zM690 477q-70 -45 -336 -258q45 -27 97 -43q246 49 329 213q-10 57 -90 88zM279 -39q145 -51 298.5 -152.5t256.5 -218.5q6 -33 -39 -47q-154 115 -281 181.5t-309 121.5 q-2 101 74 115z" />
<glyph unicode="&#xf01c5;" horiz-adv-x="819" d="M608 468q-131 -91 -228 -91t-186.5 118.5t-89.5 229.5q0 76 78 202t197 247h-336l-25 22q14 49 52 72h1044l25 -23q-14 -49 -52 -71h-374q104 -215 82 -459q-56 -156 -187 -247zM571 1174h-34q-109 -90 -192 -221.5t-97 -237.5q18 -168 139 -234q98 31 178 104.5 t101 172.5q-1 183 -95 416z" />
<glyph unicode="&#xf01c6;" horiz-adv-x="595" d="M797 881l49 -78q-111 -76 -305.5 -155t-327.5 -113q-33 -39 -43 -89q47 -182 250 -376q0 -55 -88 -76q-127 113 -201 213t-111 231q12 70 50.5 135.5t97.5 90.5q314 45 629 217zM952 1174h-909l-25 22q14 49 52 72h909l25 -23q-15 -48 -52 -71z" />
<glyph unicode="&#xf01c7;" horiz-adv-x="686" d="M1122 1268l25 -23q-14 -49 -51 -71h-252l-25 22q14 49 51 72h252zM295 979q-106 74 -106.5 148.5t109.5 179t220 104.5q82 0 148.5 -78t70.5 -164q-4 -78 -61.5 -157.5t-137 -144t-158.5 -121t-134.5 -103.5t-55.5 -83t54.5 -82t113.5 -46q104 0 269.5 140.5t253.5 287.5 l80 -67q-127 -186 -305.5 -327.5t-307.5 -141.5q-100 0 -199.5 84t-99.5 167q0 53 58.5 109.5t181.5 139.5t170 120zM537 1016q72 82 71.5 138t-35 102.5t-78.5 46.5t-114 -61.5t-70 -98.5t39 -72z" />
<glyph unicode="&#xf01c8;" horiz-adv-x="960" d="M723 438q-276 -350 -279 -354q-166 27 -289.5 129t-123.5 221q0 76 86 156t194 139q313 168 381 262l4 15q-31 66 -194 168h-451l-24 22q14 49 51 72h1079l25 -23q-14 -49 -52 -71h-452q117 -78 151 -146q14 -57 -45 -143q-53 -49 -201.5 -135t-265 -169t-141.5 -155 q25 -68 89.5 -125t142.5 -78q39 43 297 350q104 10 169 -96q-78 -182 -258 -776q-109 0 -124 59q29 80 83 230q133 358 158 442zM207 -233q129 -31 269 -105t239 -164q16 -35 -31 -55q-141 86 -256 131t-278 76q-13 99 57 117z" />
<glyph unicode="&#xf01c9;" horiz-adv-x="763" d="M1176 1268l24 -23q-14 -49 -51 -71h-260l-25 22q14 49 51 72h261zM254 344l14 -14q158 57 369 209.5t311 281.5l82 -67q-98 -145 -338.5 -318.5t-417.5 -228.5q-66 23 -109.5 66.5t-43.5 93.5q168 211 358 360l-8 10q-119 -53 -262 -71q-61 31 -107.5 86t-40.5 108 q49 129 226.5 303t378.5 250q51 4 94 -39t59 -119q-37 -123 -190.5 -241.5t-302.5 -161.5l-125 20q-12 -25 -17 -36q2 -35 41 -58q109 8 267 72q43 -2 73.5 -42t40.5 -99q-239 -203 -352 -365zM240 938l75 14q102 25 226.5 123.5t158.5 188.5q-6 33 -32 39 q-106 -51 -230 -155t-198 -210z" />
<glyph unicode="&#xf01ca;" horiz-adv-x="618" d="M1116 1268l25 -23q-14 -49 -51 -71h-1047l-25 22q14 49 52 72h1046zM870 1110l62 -57q-217 -160 -541 -363q45 -123 39 -280q-49 -49 -125 -74q-193 18 -276 160q10 74 51 112q53 33 244 146q353 209 546 356zM283 451l18 14q16 84 -2 166q-98 -61 -147 -94 q51 -66 131 -86z" />
<glyph unicode="&#xf01cb;" horiz-adv-x="528" d="M883 1268l24 -23q-14 -49 -51 -71h-422l-137 -293q-12 -61 -34.5 -187.5t-35.5 -189.5l19 -10q270 207 491 421l56 -59q-297 -287 -562 -508q-43 -4 -102 23.5t-86 68.5q147 553 193 734h-193l-25 22q14 49 52 72h813z" />
<glyph unicode="&#xf01cc;" horiz-adv-x="1071" d="M1282 823l-115 -73q20 76 -10.5 141t-97.5 65q-49 -43 -168 -161.5t-158 -155.5l-104 -639q-117 -14 -166 47l135 582l37 78l-14 14q-227 -213 -406 -365q-43 -4 -102.5 24t-85.5 69l206 725h-190l-25 22q14 49 52 72h680l14 61q133 0 178 -61h279l24 -23 q-14 -49 -51 -71h-295l-123 -271l-51 -133l14 -14q279 285 293 299q236 14 250 -232zM211 512l18 -10q201 150 424 362l74 310h-293l-137 -291q-14 -61 -43 -185.5t-43 -185.5z" />
<glyph unicode="&#xf01cd;" horiz-adv-x="432" d="M815 1268l25 -23q-14 -49 -52 -71h-745l-25 22q14 49 52 72h745zM633 614q-229 -270 -348 -405q-123 8 -191.5 72.5t-68.5 185.5q0 203 121.5 384t289.5 181q98 0 162 -114q25 -49 59 -134l-57 -43q-70 186 -156 187q-74 0 -139 -82q98 -137 211 -260l59 61zM176 467 q0 -123 72 -158q203 209 205 211q-109 115 -201 246q-76 -135 -76 -299z" />
<glyph unicode="&#xf01ce;" horiz-adv-x="667" d="M1079 1268l25 -23q-14 -49 -51 -71h-248l-25 22q14 49 51 72h248zM185.5 957q-60.5 42 -60.5 82t39 79q74 45 185.5 134t174.5 157q37 4 86 -14.5t66 -42.5q-29 -125 -101 -471q180 115 347 231l59 -57q-184 -129 -430 -287q-53 -256 -80 -371q-39 -39 -127 -67 q-203 18 -283 166q4 76 50 106q133 74 309 180q18 68 31 133l26 56l-12 14l-160 -70q-59 0 -119.5 42zM299 1006l178 49q39 186 43 205l-6 4l-270 -222q18 -28 55 -36zM303 451l19 10q35 96 65 203q-84 -55 -203 -125q45 -63 119 -88z" />
<glyph unicode="&#xf01cf;" horiz-adv-x="587" d="M997 1268l25 -23q-14 -49 -51 -71h-426q-25 -160 -49 -287q168 106 344 225l61 -57q-190 -127 -426 -279q-39 -197 -84 -379q-47 -47 -110 -67q-203 18 -283 166q4 76 48 104.5t149.5 95t162.5 103.5q14 78 25 170l-16 205h-324l-25 22q14 49 52 72h927zM240 451l18 14 q41 98 74 217l-213 -137q45 -69 121 -94z" />
<glyph unicode="&#xf01d0;" horiz-adv-x="673" d="M713 1104q0 -74 -84 -162t-185 -151q-268 -174 -268 -238q0 -41 56.5 -91t111.5 -50q82 0 260 144t260 290l68 -58q-102 -170 -295 -324.5t-313 -154.5q-82 0 -186.5 89t-104.5 154.5t84 137.5t184 131.5t184 136t84 140.5q0 29 -29.5 47t-64.5 18q-98 0 -229 -106 q-72 18 -66 69q23 25 53 48h-190l-25 22q14 49 52 72h991l24 -23q-14 -49 -51 -71h-350q29 -33 29 -70z" />
<glyph unicode="&#xf01d1;" horiz-adv-x="735" d="M647 1024q0 47 -37 91t-86 44q-113 0 -213 -115q-70 14 -73 68q14 25 55 62h-250l-25 22q14 49 52 72h954l25 -23q-14 -49 -52 -71h-256q57 -74 58 -150q-2 -111 -102.5 -222.5t-241 -178t-260.5 -66.5l-11 -16q223 -272 400 -469q-10 -35 -34 -54.5t-46 -17.5 q-55 57 -235.5 260t-256.5 277q43 141 144 149q33 -12 71 -10q135 6 277.5 109.5t142.5 238.5zM90 -39q145 -51 299 -152.5t256 -218.5q6 -33 -39 -47q-154 115 -280.5 181.5t-309.5 121.5q-2 101 74 115z" />
<glyph unicode="&#xf01d2;" horiz-adv-x="823" d="M219 489q0 -223 248 -395q-10 -37 -43 -65.5t-70 -34.5q-143 109 -221 252t-78 272q0 90 84 208t170 163q33 12 96.5 17t100.5 -1q59 -35 96 -100q61 -113 33 -225l10 -9q227 172 391 375l41 -143q-6 -6 -127 -117q-236 -219 -327 -287q-37 -4 -92.5 21.5t-71.5 54.5 q63 106 49 191.5t-102 119.5q-88 -45 -137.5 -124t-49.5 -173zM1171 1174h-1128l-25 22q14 49 52 72h1128l25 -23q-15 -48 -52 -71z" />
<glyph unicode="&#xf01d3;" horiz-adv-x="456" d="M829 1174h-786l-25 22q14 49 52 72h786l25 -23q-15 -48 -52 -71zM657 614l-327 -405q-137 8 -213 87t-76 212q0 199 122 361.5t292 162.5q90 0 145 -86q45 -68 82 -162l-57 -43q-70 186 -162 187q-100 0 -185 -127t-85 -285t100 -207l307 338z" />
<glyph unicode="&#xf01d4;" horiz-adv-x="792" d="M233 1130q0 72 110 176.5t215.5 104.5t175 -102.5t69.5 -233.5q0 -197 -182.5 -352.5t-421.5 -165.5l-11 -16q223 -272 400 -469q-10 -35 -34 -54.5t-46 -17.5q-55 57 -235.5 260t-256.5 277q43 141 144 149q139 -39 303 68q102 66 160 159l-252 37q-45 25 -91.5 83 t-46.5 97zM655 989q12 39 12.5 108.5t-31.5 137.5t-86 68t-124 -61.5t-70 -104.5q0 -23 23.5 -52.5t46.5 -44.5z" />
<glyph unicode="&#xf01d5;" horiz-adv-x="528" d="M883 1268l24 -23q-14 -49 -51 -71h-422l-33 -72q123 -162 240 -277q55 49 96 90l56 -59q-297 -287 -562 -508q-43 -4 -102 23.5t-86 68.5q147 553 193 734h-193l-25 22q14 49 52 72h813zM227 504l19 -10q150 115 325 270q-113 113 -217 242l-57 -125q-12 -61 -35 -187.5 t-35 -189.5z" />
<glyph unicode="&#xf01d6;" horiz-adv-x="860" d="M737 1174q59 -72 59.5 -157t-82.5 -186.5t-206 -175.5q29 -16 41 -16q76 0 255 83t263 185l57 -78q-82 -104 -285.5 -199t-301.5 -95q-23 0 -131 67q-115 -47 -213 -45l-11 -16q223 -272 400 -469q-10 -35 -34 -54.5t-46 -17.5q-55 57 -235.5 260t-256.5 277 q43 141 144 149q39 -18 102 -8q133 18 261 118.5t128 215.5q0 49 -35 98t-75 49q-125 0 -226 -115q-70 14 -73 68q14 25 55 62h-248l-25 22q14 49 52 72h1161l24 -23q-14 -49 -51 -71h-467z" />
<glyph unicode="&#xf01d7;" horiz-adv-x="935" d="M494 408q68 61 67.5 103t-63.5 42q-92 0 -203 -67.5t-141 -174.5q12 -86 94 -155.5t205 -87.5q164 16 274 120q68 -4 78 -94q-47 -49 -149.5 -86t-202.5 -43q-164 6 -298.5 113.5t-134.5 237.5t155 226.5t345 88.5l6 12q-29 18 -113.5 57t-136.5 52q-23 35 3 101.5 t65 82.5q293 10 438 113l4 14q-31 53 -143 111h-508l-24 22q14 49 51 72h962l25 -23q-14 -49 -51 -71h-289q57 -45 78 -103q2 -74 -64 -127q-154 -84 -422 -113l-4 -16q190 -92 244.5 -139t56.5 -98q0 -111 -102 -228q-41 -2 -70.5 16.5t-31.5 41.5zM176 -39 q145 -51 299 -152.5t256 -218.5q6 -33 -39 -47q-154 115 -280.5 181.5t-309.5 121.5q-2 101 74 115z" />
<glyph unicode="&#xf01d8;" horiz-adv-x="1523" d="M1812 1268l25 -23q-14 -49 -51 -71h-1745l-25 22q14 49 52 72h1744zM1255 901q68 0 121.5 -106.5t53.5 -210.5q0 -190 -132.5 -366.5t-326.5 -217.5q-129 61 -262 248q-178 -170 -359 -248q-145 31 -239.5 133.5t-94.5 225t156 293.5t338 190q168 -188 250 -387 q55 59 144 162.5t134 151.5t106.5 90t110.5 42zM342 113q180 102 350 272q-94 190 -217 330q-117 -45 -212 -157t-109 -214q26 -172 188 -231zM1218.5 307q88.5 127 88.5 242t-62 223q-68 -37 -138.5 -102.5t-171.5 -180t-153 -167.5q100 -139 213 -207q135 65 223.5 192z " />
<glyph unicode="&#xf01d9;" horiz-adv-x="841" d="M920.5 708q-103.5 -42 -179 -42t-178.5 59q-133 -96 -350 -213q-84 -72 -25 -231q129 -76 256 -93q29 37 94.5 141.5t79.5 127.5q61 4 97.5 -15.5t72.5 -74.5q-31 -76 -117.5 -335t-121.5 -354q-115 -6 -150 64q59 100 142.5 285.5t113.5 283.5l-14 8l-156 -251 q-119 10 -228.5 49t-164.5 82q-66 92 -67.5 201.5t69.5 174.5q236 113 379 213q-88 70 -146.5 150t-58.5 149q0 94 122 209t241 115q90 0 168 -109.5t78 -185.5q0 -137 -224 -321q43 -20 95.5 -20.5t140.5 34.5t155 90l56 -88q-76 -61 -179.5 -103zM408 1087 q39 -141 149 -235q154 127 201 252q-29 147 -129 205q-68 -8 -136.5 -79t-84.5 -143z" />
<glyph unicode="&#xf01da;" horiz-adv-x="696" d="M502 655q0 45 -38 72t-104 18q-35 29 -32 64q0 66 80 106q174 -49 280 -45q147 74 246 172l59 -57q-125 -133 -280 -209q-106 -8 -191 21l-4 -15q109 -45 109 -123q0 -104 -134.5 -195t-318.5 -99l-8 -13q119 -160 332 -256q23 -74 -68 -96q-123 59 -238.5 171 t-181.5 214q10 57 49 90t84 33q14 -29 45 -64q145 23 229.5 82t84.5 129zM1106 1174h-1145l-24 22q14 49 51 72h1145l24 -23q-14 -48 -51 -71z" />
<glyph unicode="&#xf01db;" horiz-adv-x="962" d="M128 281.5q-69 64.5 -69 188.5t53.5 255t144.5 219t189 88q39 0 75 -29.5t51.5 -54t52.5 -84.5l4 2l71 308h-657l-25 22q14 49 52 72h653l14 61q133 0 178 -61h359l24 -23q-14 -49 -51 -71h-370l-170 -412l14 -10q43 51 120 144t95 114q147 16 210.5 -48.5t70.5 -162.5 l-146 -94q20 76 -10.5 141t-97.5 65q-29 -35 -127.5 -146.5t-135.5 -156.5l-98 -608q-117 -14 -166 47l66 281l76 153l-23 15q-152 -180 -236 -287q-122 8 -191 72.5zM455 928q-80 0 -162 -147.5t-82 -313.5q0 -123 72 -158q182 190 290 328l27 111q-69 180 -145 180z M103.5 132q29.5 30 71.5 30t71.5 -30t29.5 -72t-29.5 -71.5t-71.5 -29.5t-71.5 29.5t-29.5 71.5t29.5 72z" />
<glyph unicode="&#xf01dc;" horiz-adv-x="1085" d="M776 1174q59 -72 59.5 -162t-100 -201t-242 -180.5t-262.5 -69.5l-10 -16q160 -197 234.5 -258.5t128.5 -61.5q117 0 383 162l-6 10q-68 0 -114 51.5t-46 128t38 180t118.5 188.5t170 85t130 -79t73.5 -234l-31 -103q-68 -172 -304 -325.5t-429 -190.5q-131 25 -239 127 q-100 96 -177 189.5t-102 122.5q43 141 144 149l22 -20q190 20 329.5 120.5t139.5 225.5q0 49 -35 98t-83 49t-110.5 -30.5t-107.5 -84.5q-70 14 -74 68q14 25 56 62h-287l-25 22q14 49 52 72h1386l25 -23q-14 -49 -51 -71h-654zM1145 926q-76 0 -138.5 -132t-62.5 -229 q0 -41 25.5 -68.5t67.5 -27.5t103.5 61.5t88.5 135.5l16 73q-30 187 -100 187zM101.5 132q29.5 30 71.5 30t71.5 -30t29.5 -72t-29.5 -71.5t-71.5 -29.5t-71.5 29.5t-29.5 71.5t29.5 72z" />
<glyph unicode="&#xf01dd;" horiz-adv-x="561" d="M895 1268l25 -23q-14 -49 -52 -71h-319q-66 -438 -154 -777q-47 -47 -110 -67q-203 18 -283 166q4 76 49 106q147 90 314 207q10 53 22 160l-16 205h-330l-25 22q14 49 52 72h827zM244 451l18 14q41 98 76 223q-143 -98 -215 -145q47 -67 121 -92zM66.5 132 q29.5 30 71.5 30t72 -30t30 -72t-30 -71.5t-72 -29.5t-71.5 29.5t-29.5 71.5t29.5 72z" />
<glyph unicode="&#xf01de;" horiz-adv-x="864" d="M230.5 -11.5q-29.5 -29.5 -71.5 -29.5t-72 29.5t-30 71.5t30 72t72 30t71.5 -30t29.5 -72t-29.5 -71.5zM350 242q-113 0 -187.5 132t-60.5 277q8 74 56.5 155t128.5 128q66 12 92 -68q-119 -100 -131 -211q-25 -229 121 -301q94 25 173 108t85 150q4 31 -22.5 51.5 t-63.5 32.5q12 59 52 103.5t81 42.5q37 -39 110 -76q152 12 293 174l82 -74q-231 -217 -387 -209l-51 25l-10 -12l34 -47q-10 -135 -156.5 -258t-238.5 -123zM1210 1174h-1175l-25 22q14 49 51 72h1176l25 -23q-15 -48 -52 -71z" />
<glyph unicode="&#xf01df;" horiz-adv-x="1071" d="M1282 823l-115 -73q20 76 -10.5 141t-97.5 65q-49 -43 -168 -161.5t-158 -155.5l-104 -639q-117 -14 -166 47l135 582l37 78l-14 14q-227 -213 -406 -365q-43 -4 -102.5 24t-85.5 69l206 725h-190l-25 22q14 49 52 72h680l14 61q133 0 178 -61h279l24 -23 q-14 -49 -51 -71h-295l-123 -271l-51 -133l14 -14q279 285 293 299q236 14 250 -232zM211 512l18 -10q201 150 424 362l74 310h-293l-137 -291q-14 -61 -43 -185.5t-43 -185.5zM142.5 214q29.5 30 71.5 30t71.5 -30t29.5 -72t-29.5 -71.5t-71.5 -29.5t-71.5 29.5t-29.5 71.5 t29.5 72z" />
<glyph unicode="&#xf01e0;" horiz-adv-x="3375" d="M2718 459v379h401v-379h-401zM2718 920v378h401v-378h-401zM2234 0v1298h402v-1298h-402zM1751 920v378h401v-378h-401zM1268 0v1298h401v-1298h-401zM784 920v378h402v-378h-402zM301 0v1298h401v-1298h-401z" />
<glyph unicode="&#xf01e1;" d="M-203 1745q84 180 213 190q72 -12 139.5 -51t104.5 -86q8 -72 -104 -100q-63 90 -170 117l-25 -21q6 -154 94 -356q-12 -37 -74 -37q-72 172 -178 344z" />
<glyph unicode="&#xf01e2;" horiz-adv-x="415" d="M217 489q-133 41 -188 115q18 127 151 113q39 -82 80 -125q154 43 285 106l26 -55q-141 -99 -354 -154zM682 1174h-721l-24 22q14 49 51 72h721l24 -23q-14 -48 -51 -71z" />
<glyph unicode="&#xf01e3;" d="M-299 -408q6 -55 -72 -69q-143 154 -129 338l-10 6q-137 -113 -199 -344q-68 -4 -99.5 23.5t-29.5 66.5q164 260 306 346q68 0 122 -55q6 -111 28 -174.5t83 -137.5z" />
<glyph unicode="&#xf01e4;" horiz-adv-x="1232" d="M1217 791q0 -289 -347 -584q-68 27 -63 61q258 238 258 508q0 125 -102 135q-29 -35 -126.5 -145.5t-134.5 -155.5l-100 -610q-117 -14 -166 47l80 199l-14 8q-141 -160 -338 -295q-49 31 -62.5 56.5t-7.5 58.5q291 168 461 360l-23 27q-90 -78 -247 -195 q-215 35 -215 258q0 172 118.5 340t257.5 168q39 0 75 -29.5t51.5 -54t52.5 -84.5l4 2l71 308h-657l-25 22q14 49 52 72h653l14 61q133 0 178 -61h607l24 -23q-14 -49 -51 -71h-618l-170 -412l14 -10q43 51 120 144t95 114q127 18 204 -41t77 -178zM600 748 q-70 180 -146.5 180t-153.5 -137.5t-77 -256t60 -157.5q125 76 270 194z" />
<glyph unicode="&#xf01e5;" horiz-adv-x="1497" d="M684 1012q0 49 -35 98t-83 49t-110.5 -30.5t-107.5 -84.5q-70 14 -74 68q14 25 56 62h-287l-25 22q14 49 52 72h1306l15 61q133 0 178 -61h217l24 -23q-14 -49 -51 -71h-233l-125 -271l-146 -903q-117 -14 -165 47l110 295l-14 8q-80 -94 -229.5 -201.5t-303.5 -189.5 q-49 31 -62 56.5t-7 58.5q440 176 651 446l-21 19q-74 -96 -320.5 -218t-387.5 -141q-98 25 -184 94q-35 27 -54.5 42.5t-57.5 52.5t-50 51q-94 100 -111 117q43 141 144 149l22 -20q190 20 329.5 120.5t139.5 225.5zM1145 926q-59 0 -120.5 -98.5t-61.5 -180.5 q0 -43 25.5 -69.5t68.5 -26.5t98 39t86 102l12 56q-12 68 -41.5 123t-66.5 55zM776 1174q59 -72 59.5 -162t-100 -201t-242 -180.5t-262.5 -69.5l-10 -16q217 -238 301 -238q68 0 225.5 59.5t235.5 108.5l-6 10q-70 0 -114 47.5t-44 120.5q0 106 94.5 241.5t225.5 135.5 q96 0 143 -137l6 2l66 279h-578z" />
<glyph unicode="&#xf01e6;" horiz-adv-x="952" d="M1241 1268l25 -23q-14 -49 -52 -71h-215l-125 -271l-145 -903q-117 -14 -166 47l111 295l-15 8q-80 -94 -229 -201.5t-303 -189.5q-49 31 -62.5 56.5t-7.5 58.5q352 145 611 415l159 685h-278q-66 -438 -154 -777q-47 -47 -110 -67q-203 18 -283 166q4 76 49 106 q147 90 314 207q10 53 22 160l-16 205h-330l-25 22q14 49 52 72h782l14 61q133 0 178 -61h199zM244 451l18 14q41 98 76 223q-143 -98 -215 -145q47 -67 121 -92z" />
<glyph unicode="&#xf01e7;" horiz-adv-x="1103" d="M1393 1268l24 -23q-14 -49 -51 -71h-219l-125 -271l-145 -903q-117 -14 -166 47l110 295l-14 8q-80 -94 -229.5 -201.5t-303.5 -189.5q-49 31 -62 56.5t-7 58.5q215 88 404.5 229t277.5 291l-17 16q-133 -133 -310 -251.5t-300 -151.5q-66 23 -110 66.5t-44 93.5 q164 205 349 350l-9 10q-154 -49 -272 -63q-51 23 -84 71.5t-29 98.5q133 168 392 340h-410l-25 22q14 49 52 72h927l15 61q133 0 178 -61h203zM891 819l84 355h-326q-287 -176 -461 -377l13 -19q109 10 266 62q43 -2 73.5 -42t41.5 -100q-231 -195 -342 -354l14 -14 q176 68 352 208t285 281z" />
<glyph unicode="&#xf01e8;" horiz-adv-x="872" d="M1161 1268l25 -23q-14 -49 -51 -71h-498q94 -59 145 -136q4 -29 -9 -67.5t-42 -65.5q-78 -53 -255 -114.5t-222 -83.5l-2 -13q63 -45 253.5 -111.5t262.5 -121.5q18 -41 4 -110.5t-39 -92.5q-90 -76 -292.5 -138.5t-385.5 -84.5q-86 74 -37 129q442 39 650 198l2 15 q-70 53 -275 123.5t-278 136.5q-12 139 61 174q358 102 477 186l4 15q-45 72 -223 162h-393l-25 22q14 49 52 72h1091zM807 797q35 0 60.5 -26t25.5 -60.5t-25.5 -60t-60.5 -25.5t-60.5 25.5t-25.5 60t25.5 60.5t60.5 26zM348 -139l-10 6q-137 -113 -199 -344 q-68 -4 -99.5 23.5t-29.5 66.5q164 260 305 346q68 0 123 -55q6 -111 27.5 -174.5t83.5 -137.5q6 -55 -72 -69q-143 154 -129 338z" />
<glyph unicode="&#xf01e9;" horiz-adv-x="1222" d="M723 401.5q-135 -94.5 -235.5 -94.5t-202 87t-101.5 165q0 57 103 117q127 70 282 137l-2 14q-322 -39 -477 -28q-18 31 -21 84t15 71q299 -51 588 -34q18 -6 31.5 -55.5t9.5 -82.5q-346 -139 -346 -207q0 -43 57 -90t113 -47q82 0 237.5 128t241.5 274l78 334h-1051 l-25 22q14 49 52 72h1046l14 61q133 0 179 -61h202l25 -23q-14 -49 -51 -71h-219l-125 -271l-146 -903q-117 -14 -166 47l111 295l-14 8q-80 -94 -229.5 -201.5t-303.5 -189.5q-49 31 -62.5 56.5t-6.5 58.5q223 92 426.5 244.5t257.5 302.5l-25 20q-125 -145 -260 -239.5z " />
<glyph unicode="&#xf01ea;" horiz-adv-x="1187" d="M1372 1268l25 -23q-14 -49 -51 -71h-641q-137 -76 -272.5 -190t-223.5 -212l16 -29q57 4 279 58q129 -35 106 -152q-205 -176 -346 -387l23 -18q129 37 285.5 133t277.5 209q-82 178 -66 332q25 41 82.5 87t112.5 44q66 -27 123 -87.5t55 -113.5q-6 -127 -182 -303 q80 -176 90 -209q-20 -100 -93 -230.5t-155 -218.5q-100 0 -96 74q190 170 242 373q-20 57 -48 115q-98 -158 -253 -322q-82 -88 -250 -256q-59 20 -79 44t-20 62q123 78 258.5 198t216.5 222l-10 13q-84 -74 -232.5 -164t-258.5 -127q-66 27 -112 70.5t-44 95.5 q197 281 354 391l-8 10q-195 -57 -282 -63q-53 29 -88 81t-29 99q68 84 182.5 187.5t233.5 183.5h-441l-24 22q14 49 51 72h1292zM948 932q-39 -14 -65 -53q0 -92 45 -217q100 113 102 182q2 20 -24.5 47t-57.5 41z" />
<glyph unicode="&#xf01eb;" horiz-adv-x="1269" d="M571.5 364.5q-133.5 -122.5 -236 -122.5t-191.5 132t-89 277q0 72 39 153t115 130q66 12 100 -68q-111 -100 -110 -211q0 -231 153 -301q90 25 161 108t71 150q0 53 -97 84q8 59 43 103.5t76 42.5q51 -47 137 -76q92 8 185.5 54t156.5 118l56 236h-1098l-25 22 q14 49 52 72h1093l15 61q133 0 178 -61h203l24 -23q-14 -49 -51 -71h-219l-125 -271l-146 -903q-117 -14 -165 47l110 295l-14 8q-80 -94 -229.5 -201.5t-303.5 -189.5q-49 31 -62 56.5t-7 58.5q356 147 612 415l31 142q14 27 41.5 76t42.5 75l-15 13q-205 -145 -352 -138 l-51 25l-10 -12l30 -47q5 -136 -128.5 -258.5z" />
<glyph unicode="&#xf01ec;" horiz-adv-x="1333" d="M805 403q0 -72 -149.5 -160.5t-235.5 -88.5q-160 0 -266 100l-11 -10q94 -104 342 -471q0 -27 -30.5 -46.5t-69.5 -23.5q-203 344 -391 547q31 63 82 108t100 31q88 -121 244 -121q57 0 135 41t119 90v17q-31 37 -137.5 65.5t-225 68.5t-178.5 105q0 49 19.5 102.5 t52.5 76.5q12 6 203.5 65t248.5 94l2 11q-45 70 -206 170h-410l-25 22q14 49 52 72h1157l14 61q133 0 178 -61h203l25 -23q-14 -49 -52 -71h-219l-125 -271l-145 -903q-117 -14 -166 47l111 295l-15 8q-80 -94 -229.5 -201.5t-302.5 -189.5q-49 31 -62.5 56.5t-7.5 58.5 q356 147 613 415l43 189l65 80l-14 18q-227 -143 -447 -237q55 -23 90 -58q21 -39 21 -78zM1141 901l63 273h-553q96 -63 148 -140q0 -88 -51 -133q-68 -43 -255.5 -99.5t-211.5 -74.5l-5 -12q27 -35 130.5 -74t168.5 -47q139 57 300.5 143t265.5 164z" />
<glyph unicode="&#xf01ed;" horiz-adv-x="1179" d="M1468 1268l25 -23q-14 -49 -51 -71h-219l-125 -271l-146 -903q-117 -14 -166 47l111 295l-14 8q-80 -94 -229.5 -201.5t-303.5 -189.5q-49 31 -62.5 56.5t-6.5 58.5q356 147 612 415l41 179l63 75l-14 25q-119 -86 -293 -164q-35 -156 -162 -266.5t-266 -101.5 q-57 4 -116.5 89t-79.5 197q70 43 112 21q39 -168 109 -201q86 14 178 105.5t98 216.5q6 94 -23.5 152t-111.5 93q-109 -10 -217 -100q-80 43 -72 94q154 121 297 113q115 -8 183.5 -94t78.5 -201q207 98 291 197l62 256h-1008l-25 22q14 49 52 72h1003l14 61q133 0 179 -61 h202z" />
<glyph unicode="&#xf01ee;" horiz-adv-x="933" d="M674 1001q-39 70 -217 173h-394l-24 22q14 49 51 72h1090l24 -23q-14 -49 -51 -71h-510q104 -66 158 -156q-4 -59 -41 -109q-68 -57 -233 -158.5t-191 -119.5q-152 -102 -150 -178q4 -133 207 -215q221 25 381 227q82 0 96 -86q-70 -86 -208 -160t-287 -78 q-145 31 -244.5 120t-99.5 188q0 72 52 129t121.5 101t172.5 103q211 121 295 205zM432 -82l-10 6q-137 -113 -199 -344q-68 -4 -99.5 23.5t-29.5 66.5q164 260 305 346q68 0 123 -55q6 -111 27.5 -174t83.5 -137q6 -55 -72 -70q-143 154 -129 338z" />
<glyph unicode="&#xf01ef;" horiz-adv-x="1052" d="M27 459q0 72 66.5 136t152.5 117.5t190.5 110t160.5 96t87 82.5l4 19q-45 74 -188 154h-443l-24 22q14 49 51 72h1171l25 -23q-14 -49 -51 -71h-551q104 -68 139 -146q-8 -59 -51 -110q-63 -49 -143 -97q119 -45 228.5 -118.5t141.5 -153.5q-8 -182 -185 -308t-380 -141 q-162 23 -281.5 128.5t-119.5 230.5zM223 342q74 -100 211 -152q162 18 288 125t134 222q-80 111 -328 227q-199 -119 -232.5 -147.5t-64.5 -55.5q-53 -49 -53 -103.5t45 -115.5zM461 -37l-10 6q-137 -113 -199 -344q-68 -4 -99.5 23.5t-29.5 66.5q164 260 305 346 q68 0 123 -55q6 -111 27.5 -174t83.5 -137q6 -55 -72 -70q-143 154 -129 338z" />
<glyph unicode="&#xf01f0;" horiz-adv-x="872" d="M1161 1268l25 -23q-14 -49 -51 -71h-498q94 -59 145 -136q4 -29 -9 -67.5t-42 -65.5q-78 -53 -255 -114.5t-222 -83.5l-2 -13q63 -45 253.5 -111.5t262.5 -121.5q18 -41 4 -110.5t-39 -92.5q-90 -76 -292.5 -138.5t-385.5 -84.5q-86 74 -37 129q442 39 650 198l2 15 q-70 53 -275 123.5t-278 136.5q-12 139 61 174q358 102 477 186l4 15q-45 72 -223 162h-393l-25 22q14 49 52 72h1091zM348 -139l-10 6q-137 -113 -199 -344q-68 -4 -99.5 23.5t-29.5 66.5q164 260 305 346q68 0 123 -55q6 -111 27.5 -174.5t83.5 -137.5q6 -55 -72 -69 q-143 154 -129 338z" />
<glyph unicode="&#xf01f1;" horiz-adv-x="999" d="M193 442q0 -88 96 -174q51 41 179 147.5t218 174.5q84 -8 158 -72.5t74 -122.5q0 -86 -173.5 -196.5t-296 -110.5t-247.5 106.5t-164 225.5q4 82 51 137q66 57 315.5 203.5t303.5 212.5l8 22q-27 49 -71 84t-138 95h-424l-25 22q14 49 52 72h1142l25 -23q-14 -49 -51 -71 h-551q129 -84 151.5 -142.5t-21.5 -118t-150.5 -130t-207.5 -124.5q-253 -141 -253 -217zM690 477q-70 -45 -336 -258q45 -27 97 -43q246 49 329 213q-10 57 -90 88zM465 -139l-10 6q-137 -113 -199 -344q-68 -4 -99.5 23.5t-29.5 66.5q164 260 305 346q68 0 123 -55 q6 -111 27.5 -174.5t83.5 -137.5q6 -55 -72 -69q-143 154 -129 338z" />
<glyph unicode="&#xf01f2;" horiz-adv-x="1214" d="M610 468q-131 -91 -228 -91t-186.5 118.5t-89.5 229.5q0 76 78 202t197 247h-336l-25 22q14 49 52 72h1036l14 61q133 0 178 -61h203l25 -23q-14 -49 -51 -71h-220l-124 -271l-146 -903q-117 -14 -166 47l111 295l-14 8q-80 -94 -229.5 -201.5t-303.5 -189.5 q-49 31 -62.5 56.5t-7.5 58.5q352 145 611 415l159 685h-370q104 -215 82 -459q-56 -156 -187 -247zM573 1174h-34q-109 -90 -192 -221.5t-97 -237.5q18 -168 139 -234q98 31 178 104.5t101 172.5q-1 183 -95 416z" />
<glyph unicode="&#xf01f3;" horiz-adv-x="991" d="M291 983q72 0 199.5 -106.5t263.5 -258.5l18 19l-29 39l119 498h-819l-25 22q14 49 52 72h815l14 61q133 0 178 -61h203l25 -23q-14 -49 -52 -71h-219l-125 -271l-145 -903q-117 -14 -166 47l74 313l57 78l-18 19q-96 -102 -283.5 -233.5t-376.5 -223.5q-102 51 -69 115 q393 152 706 440q-129 145 -344 281l-53 -97q-158 14 -180 105q23 57 81 98t99 41z" />
<glyph unicode="&#xf01f4;" horiz-adv-x="1081" d="M584 413q-133 -89 -234.5 -89t-201 84t-99.5 167q0 53 59.5 110.5t181.5 139.5t169 121q-94 10 -164 33q-106 74 -106.5 148.5t109.5 179t220 104.5q82 0 148.5 -78t70.5 -164q-4 -78 -61.5 -157.5t-137 -144t-158.5 -121t-134.5 -103.5t-55.5 -83t54.5 -82t113.5 -46 q104 0 267 138.5t254 285.5l73 318h-108l-25 22q14 49 51 72h105l14 61q133 0 178 -61h203l25 -23q-14 -49 -52 -71h-219l-125 -271l-145 -903q-117 -14 -166 47l111 295l-15 8q-80 -94 -229 -201.5t-303 -189.5q-49 31 -62.5 56.5t-7.5 58.5q336 139 613 428l65 123l-18 16 q-125 -139 -258 -228zM381 1241.5q-70 -61.5 -70 -98.5t39 -72q66 -33 193 -49q66 80 65.5 134t-35 100.5t-78.5 46.5t-114 -61.5z" />
<glyph unicode="&#xf01f5;" horiz-adv-x="960" d="M723 438q-276 -350 -279 -354q-166 27 -289.5 129t-123.5 221q0 76 86 156t194 139q313 168 381 262l4 15q-31 66 -194 168h-451l-24 22q14 49 51 72h1079l25 -23q-14 -49 -52 -71h-452q117 -78 151 -146q14 -57 -45 -143q-53 -49 -201.5 -135t-265 -169t-141.5 -155 q25 -68 89.5 -125t142.5 -78q39 43 297 350q104 10 169 -96q-121 -281 -307 -954q-109 0 -125 59q39 125 127 373q-256 -154 -444 -336q-55 18 -73.5 41t-14.5 57q221 172 590 402q84 242 106 313z" />
<glyph unicode="&#xf01f6;" horiz-adv-x="1159" d="M1448 1268l25 -23q-14 -49 -52 -71h-219l-125 -271l-145 -903q-117 -14 -166 47l111 295l-15 8q-80 -94 -229.5 -201.5t-302.5 -189.5q-49 31 -62.5 56.5t-7.5 58.5q356 147 612 415l74 127l-20 17q-133 -133 -322.5 -258t-329.5 -168q-66 23 -109.5 66.5t-43.5 93.5 q168 211 358 360l-8 10q-119 -53 -262 -71q-61 31 -107.5 86t-40.5 108q49 129 226.5 303t378.5 250q51 4 94 -39t59 -119q-37 -123 -190.5 -241.5t-302.5 -161.5l-125 20q-12 -25 -17 -36q2 -35 41 -58q109 8 267 72q43 -2 73.5 -42t40.5 -99q-240 -203 -352 -365l14 -14 q158 55 368 207.5t312 283.5l82 353h-141l-25 22q14 49 51 72h138l14 61q133 0 178 -61h203zM240 938l75 14q102 25 226.5 123.5t158.5 188.5q-6 33 -32 39q-106 -51 -230 -155t-198 -210z" />
<glyph unicode="&#xf01f7;" horiz-adv-x="929" d="M1219 1268l24 -23q-14 -49 -51 -71h-1149l-25 22q14 49 52 72h1149zM758 983l-15 8q-199 -156 -354 -272q57 -127 51 -309q-49 -49 -125 -74q-203 18 -282 166q10 74 49 106q414 287 682 504q111 -6 172 -74l-100 -219l-134 -819q-117 -14 -165 47l110 295l-14 8 q-80 -94 -229.5 -201.5t-303.5 -189.5q-49 31 -62 56.5t-7 58.5q356 147 612 415zM293 451l18 14q18 88 -6 192q-53 -39 -151 -108q51 -73 139 -98z" />
</font>
</defs>
</svg>
